<svg width="20" height="22" viewBox="0 0 20 22" fill="none" xmlns="http://www.w3.org/2000/svg">
<path fill-rule="evenodd" clip-rule="evenodd" d="M7.64233 1.85131C8.26745 1.22619 9.11529 0.875 9.99935 0.875C10.8834 0.875 11.7313 1.22619 12.3564 1.85131C12.9815 2.47643 13.3327 3.32428 13.3327 4.20833V10.875C13.3327 11.7591 12.9815 12.6069 12.3564 13.232C11.7313 13.8571 10.8834 14.2083 9.99935 14.2083C9.11529 14.2083 8.26745 13.8571 7.64233 13.232C7.0172 12.6069 6.66602 11.7591 6.66602 10.875V4.20833C6.66602 3.32428 7.0172 2.47643 7.64233 1.85131ZM9.99935 2.54167C9.55732 2.54167 9.1334 2.71726 8.82084 3.02982C8.50828 3.34238 8.33268 3.76631 8.33268 4.20833V10.875C8.33268 11.317 8.50828 11.741 8.82084 12.0535C9.1334 12.3661 9.55732 12.5417 9.99935 12.5417C10.4414 12.5417 10.8653 12.3661 11.1779 12.0535C11.4904 11.741 11.666 11.317 11.666 10.875V4.20833C11.666 3.76631 11.4904 3.34238 11.1779 3.02982C10.8653 2.71726 10.4414 2.54167 9.99935 2.54167Z" fill="#242424" stroke="#242424" stroke-width="0.3" stroke-linecap="round" stroke-linejoin="round"/>
<path fill-rule="evenodd" clip-rule="evenodd" d="M4.16732 8.375C4.62756 8.375 5.00065 8.7481 5.00065 9.20833V10.875C5.00065 12.2011 5.52744 13.4729 6.46512 14.4105C7.4028 15.3482 8.67457 15.875 10.0007 15.875C11.3267 15.875 12.5985 15.3482 13.5362 14.4105C14.4739 13.4729 15.0007 12.2011 15.0007 10.875V9.20833C15.0007 8.7481 15.3737 8.375 15.834 8.375C16.2942 8.375 16.6673 8.7481 16.6673 9.20833V10.875C16.6673 12.6431 15.9649 14.3388 14.7147 15.589C13.4645 16.8393 11.7688 17.5417 10.0007 17.5417C8.23254 17.5417 6.53685 16.8393 5.28661 15.589C4.03636 14.3388 3.33398 12.6431 3.33398 10.875V9.20833C3.33398 8.7481 3.70708 8.375 4.16732 8.375Z" fill="#242424" stroke="#242424" stroke-width="0.3" stroke-linecap="round" stroke-linejoin="round"/>
<path fill-rule="evenodd" clip-rule="evenodd" d="M9.99935 15.875C10.4596 15.875 10.8327 16.2481 10.8327 16.7083V20.0417C10.8327 20.5019 10.4596 20.875 9.99935 20.875C9.53911 20.875 9.16602 20.5019 9.16602 20.0417V16.7083C9.16602 16.2481 9.53911 15.875 9.99935 15.875Z" fill="#242424" stroke="#242424" stroke-width="0.3" stroke-linecap="round" stroke-linejoin="round"/>
<path fill-rule="evenodd" clip-rule="evenodd" d="M5.83398 20.0423C5.83398 19.5821 6.20708 19.209 6.66732 19.209H13.334C13.7942 19.209 14.1673 19.5821 14.1673 20.0423C14.1673 20.5026 13.7942 20.8757 13.334 20.8757H6.66732C6.20708 20.8757 5.83398 20.5026 5.83398 20.0423Z" fill="#242424" stroke="#242424" stroke-width="0.3" stroke-linecap="round" stroke-linejoin="round"/>
</svg>
