<svg viewBox="0 0 1565 846" fill="none" xmlns="http://www.w3.org/2000/svg">
<path d="M1157 322C1147.54 329.057 1140.5 333.686 1129.68 329.123C1126.51 327.794 1123.99 324.79 1120.68 322.87C1120.59 322.824 1120.48 322.81 1120.38 322.83C1120.28 322.85 1120.19 322.904 1120.12 322.982C1120.05 323.061 1120.01 323.16 1120 323.264C1119.99 323.368 1120.02 323.472 1120.08 323.559C1126.19 331.634 1131.66 340.76 1141.54 344.321C1150.82 347.669 1161.97 349.562 1175 350" stroke="#898989" stroke-width="2"/>
<path d="M1175.09 350.158L1184.11 354.865C1184.59 355.116 1184.99 355.017 1185.32 354.571C1192.01 345.418 1198.08 335.863 1203.51 325.904C1211.32 311.554 1226.73 276.088 1245.32 288.15C1245.98 288.586 1246.16 288.439 1245.86 287.709C1238.72 270.891 1228.64 247.634 1229.05 227.352C1229.15 222.203 1230.8 217.725 1232.94 213.133C1233 213.004 1233.02 212.862 1233.01 212.721C1232.99 212.58 1232.94 212.446 1232.86 212.331C1232.78 212.216 1232.66 212.126 1232.53 212.069C1232.4 212.011 1232.26 211.989 1232.12 212.005C1222.27 213.214 1214 217.578 1207.32 225.096C1186.31 248.729 1178.69 274.977 1160.95 304.183C1157.41 310.018 1158.4 316.98 1157 322.276" stroke="#898989" stroke-width="2"/>
<path d="M1175 350C1168.84 345.634 1164.09 341.017 1160.77 336.148C1157.96 332.028 1158.06 326.973 1157 322" stroke="#EFE8E3" stroke-width="2"/>
<path d="M590.429 45.6245C585.369 41.8045 576.099 48.5245 571.529 51.9645C555.729 63.8579 542.496 73.4379 531.829 80.7045C520.316 88.5445 509.099 88.1778 498.179 79.6045C498.033 79.4912 497.976 79.5245 498.009 79.7045C498.036 79.8845 498.083 80.0045 498.149 80.0645C502.196 83.6245 506.596 86.6378 511.349 89.1045C512.949 89.9378 516.499 91.3078 521.999 93.2145C527.206 95.0212 532.149 97.3145 536.829 100.095" stroke="#898989" stroke-width="2"/>
<path d="M536.83 100.094C551.47 98.7643 567.21 94.7843 581.77 98.2743C583.077 98.5876 584.113 98.661 584.88 98.4943C587.56 97.8943 592.58 93.6043 594.7 91.6943C610.02 77.9143 625.27 63.9843 641.43 51.8143C648.937 46.1543 656.867 41.1676 665.22 36.8543C665.493 36.7143 665.527 36.531 665.32 36.3043C647.4 16.6743 619.96 16.0443 600.49 33.7443C596.94 36.9743 594.03 42.0843 591.31 45.6443C591.157 45.851 590.863 45.8443 590.43 45.6243" stroke="#898989" stroke-width="2"/>
<path d="M536.83 100.095C539.043 99.8883 540.237 99.195 540.41 98.015C540.457 97.695 540.627 97.4683 540.92 97.335C547.72 94.3017 554.04 89.8483 559.88 83.975C571.807 71.9883 581.937 59.5317 590.27 46.605C590.363 46.4583 590.413 46.3017 590.42 46.135C590.42 45.9883 590.423 45.8183 590.43 45.625" stroke="#F2EEE8" stroke-width="2"/>
<path d="M1409.92 361.661L1366.33 387.588C1366.21 387.655 1366.12 387.753 1366.06 387.872C1366.01 387.99 1365.99 388.123 1366.01 388.253C1366.03 388.383 1366.08 388.504 1366.17 388.601C1366.26 388.698 1366.37 388.767 1366.5 388.799C1390.4 394.235 1414.21 409.378 1440.65 427.646C1440.97 427.869 1441.35 427.992 1441.74 428C1442.13 428.007 1442.52 427.9 1442.85 427.69C1444.99 426.355 1447.3 424.381 1449.77 421.769C1466.42 404.029 1488.69 381.389 1516.58 353.847C1517.16 353.26 1517.14 352.703 1516.51 352.174C1505.08 342.622 1498.54 330.319 1496.88 315.264C1494.74 295.748 1496.62 277.752 1502.52 261.274C1503.89 257.473 1503.12 256.982 1500.23 259.799L1413.07 344.449C1412.81 344.69 1412.65 345.017 1412.61 345.373L1411.24 359.548C1411.2 359.978 1411.06 360.393 1410.83 360.759C1410.6 361.126 1410.29 361.434 1409.92 361.661Z" stroke="#898989" stroke-width="2"/>
<path d="M162 108C170.498 121.459 173.289 140.66 174.999 156.721C175.042 157.111 175.186 157.483 175.415 157.799C175.645 158.116 175.953 158.366 176.308 158.524L271.039 201.782C271.632 202.047 272.237 202.071 272.853 201.851C275.866 200.787 276.716 198.555 275.401 195.156" stroke="#898989" stroke-width="2"/>
<path d="M275.132 195C277.018 144.975 294.043 101.349 337.836 73.8069C337.891 73.7746 337.935 73.7279 337.963 73.6716C337.992 73.6153 338.004 73.5517 337.999 73.4875C337.993 73.4232 337.971 73.3608 337.933 73.3068C337.895 73.2528 337.843 73.2093 337.784 73.181L231.863 26.2339C231.489 26.0661 231.08 25.9867 230.669 26.0018C230.257 26.0169 229.853 26.126 229.488 26.3208C202.143 40.8918 184.822 71.3378 179.775 101.001C179.748 101.173 179.681 101.336 179.58 101.478C179.479 101.62 179.346 101.737 179.192 101.819C179.039 101.901 178.868 101.947 178.693 101.953C178.519 101.959 178.345 101.925 178.186 101.853C164.45 95.6866 150.609 89.7168 136.663 83.944C129.766 81.075 125.662 82.1183 121.21 87.752C120.86 88.204 120.948 88.546 121.471 88.7778C133.438 94.0985 145.539 99.2511 157.774 104.236C158.775 104.641 160.067 105.772 161.65 107.626" stroke="#898989" stroke-width="2"/>
<path d="M275 195C271.847 192.268 269.934 188.344 269.262 183.227C268.486 177.3 268.086 174.278 268.062 174.163C264.898 160.364 259.369 148.336 251.475 138.079C244.068 128.471 234.621 125.849 223.134 130.213C220.769 131.116 218.874 130.526 216.718 129.675C199.18 122.845 181.926 115.338 164.956 107.153C164.446 106.91 163.971 106.956 163.53 107.292C162.939 107.755 162.429 107.906 162 107.744" stroke="#F2EEE8" stroke-width="2"/>
<path d="M931.99 74L900.202 92.6469C900.13 92.6875 900.072 92.7491 900.037 92.8234C900.002 92.8978 899.992 92.9814 900.006 93.0633C900.021 93.1452 900.061 93.2216 900.12 93.2825C900.18 93.3433 900.256 93.3857 900.339 93.4041C916.363 96.6629 929.032 105.141 948 117" stroke="#898989" stroke-width="2"/>
<path d="M947.854 116.64L952.994 119.826C953.179 119.938 953.391 119.998 953.608 120C953.825 120.002 954.039 119.947 954.228 119.84C955.205 119.286 956.082 118.605 956.86 117.797C973.098 101.005 989.431 84.3398 1005.86 67.8016C1005.91 67.7543 1005.94 67.6976 1005.97 67.6351C1005.99 67.5727 1006 67.5062 1006 67.4401C1006 67.374 1005.98 67.31 1005.95 67.2526C1005.92 67.1951 1005.87 67.1455 1005.82 67.1072C986.127 52.4161 989.938 22.081 995.742 1.61701C995.77 1.51315 995.763 1.40302 995.722 1.30359C995.682 1.20416 995.609 1.12095 995.517 1.06677C995.424 1.01259 995.317 0.990457 995.21 1.00377C995.104 1.01709 995.005 1.06512 994.929 1.14047C975.074 21.6271 954.703 41.5873 933.817 61.0211C933.465 61.3388 933.261 61.7336 933.207 62.2056L932 73.343" stroke="#898989" stroke-width="2"/>
<path d="M948 117C947.471 114.584 946.253 112.312 944.347 110.185C941.875 107.426 940.366 105.569 939.818 104.614C934.464 95.3558 931.86 85.1512 932.006 74" stroke="#E5DED6" stroke-width="2"/>
<path d="M1341.43 100.857C1341.26 101.263 1341 101.557 1340.64 101.737C1337.08 103.543 1333.59 105.363 1330.17 107.197C1330.11 107.23 1330.07 107.279 1330.04 107.338C1330.01 107.397 1329.99 107.464 1330 107.53C1330.01 107.596 1330.04 107.658 1330.08 107.709C1330.12 107.76 1330.18 107.797 1330.24 107.817L1348.28 112.867C1348.63 112.961 1348.99 112.984 1349.34 112.935C1349.69 112.885 1350.03 112.763 1350.34 112.577C1362.3 105.317 1373.96 97.4934 1385.32 89.1067C1391.84 84.2934 1397.45 79.6567 1402.16 75.1967C1402.28 75.0816 1402.37 74.9392 1402.43 74.781C1402.48 74.6229 1402.5 74.4536 1402.48 74.2867L1401.68 68.6367" stroke="#898989" stroke-width="2"/>
<path d="M1401.68 68.6373C1401.24 66.1306 1400.27 63.7773 1398.77 61.5773C1393.74 54.2173 1388.03 47.404 1381.64 41.1373C1381.43 40.9306 1381.25 40.9573 1381.1 41.2173C1376.57 48.9373 1372.22 56.7673 1368.03 64.7073C1361.77 76.5773 1350.19 86.8073 1340.96 95.4473C1340.85 95.555 1340.76 95.6879 1340.71 95.8344C1340.66 95.9809 1340.65 96.1364 1340.67 96.2873L1341.43 100.857" stroke="#898989" stroke-width="2"/>
<path d="M1401.68 68.6377L1400.81 68.9277C1400.65 68.9826 1400.47 68.9831 1400.31 68.929C1400.14 68.8749 1400 68.7692 1399.9 68.6277C1395.48 62.1677 1389.69 57.3077 1382.54 54.0477C1382.38 53.9762 1382.21 53.9399 1382.04 53.9415C1381.86 53.943 1381.69 53.9823 1381.54 54.0567C1381.38 54.131 1381.24 54.2386 1381.13 54.3718C1381.02 54.505 1380.94 54.6606 1380.9 54.8277C1377.84 66.7277 1373.82 77.6077 1365.38 86.8277C1358.79 94.0277 1350.21 96.3177 1342.13 101.058C1341.95 101.164 1341.72 101.098 1341.43 100.858" stroke="#EFE8E3" stroke-width="2"/>
<path d="M709.871 219.659C706.891 218.092 703.487 217.256 699.661 217.149C699.539 217.143 699.418 217.176 699.315 217.241C699.213 217.307 699.133 217.403 699.087 217.516C699.041 217.629 699.031 217.753 699.058 217.872C699.086 217.991 699.15 218.098 699.241 218.179C705.134 223.659 711.611 228.142 718.671 231.629C720.184 232.376 723.947 233.796 729.961 235.889C735.894 237.956 741.577 240.669 747.011 244.029C747.287 244.202 747.621 244.26 747.941 244.189C754.161 242.942 759.811 240.362 764.891 236.449" stroke="#898989" stroke-width="2"/>
<path d="M764.891 236.449C769.411 236.119 779.791 242.609 783.081 244.769C783.368 244.956 783.641 244.939 783.901 244.719C797.131 233.539 814.691 221.659 831.671 217.509C843.638 214.589 855.751 212.246 868.011 210.479C868.458 210.413 868.544 210.199 868.271 209.839C859.521 197.989 847.781 187.769 833.331 183.559C830.104 182.619 824.831 181.866 817.511 181.299C812.191 180.886 806.864 180.399 801.531 179.839C796.991 179.359 789.781 184.629 785.891 187.389C773.864 195.909 762.758 204.483 752.571 213.109C750.578 214.796 748.581 216.033 746.581 216.819C735.101 221.319 722.864 222.266 709.871 219.659" stroke="#898989" stroke-width="2"/>
<path d="M764.891 236.45C764.644 236.283 764.444 235.99 764.291 235.57C764.171 235.237 763.941 235.03 763.601 234.95C753.374 232.397 743.758 230.353 734.751 228.82C725.758 227.287 717.464 224.233 709.871 219.66" stroke="#EFE8E3" stroke-width="2"/>
<path d="M1517 567.338L1504.04 551.517C1503.55 550.912 1502.99 550.838 1502.36 551.295C1482.71 565.59 1463.92 580.916 1446.01 597.276C1433.04 609.121 1423.74 617.087 1418.12 621.173C1390.69 641.221 1359.2 661.6 1323.65 649.098C1323.54 649.067 1323.43 649.072 1323.32 649.113C1323.22 649.154 1323.13 649.228 1323.07 649.323C1323.02 649.419 1322.99 649.531 1323 649.643C1323.02 649.754 1323.06 649.858 1323.14 649.939C1339.66 665.162 1360.28 674.567 1380.71 684.767C1388.97 688.883 1399.48 692.866 1407.38 692.999C1422.42 693.198 1437.9 670.716 1448.77 661.799" stroke="#898989" stroke-width="2"/>
<path d="M1449 662C1472.73 648.074 1517.39 630.694 1544.4 644.332C1549.83 647.078 1554.59 647.321 1560.12 646.812C1561.2 646.717 1562.19 646.221 1562.91 645.423C1563.63 644.626 1564.02 643.588 1564 642.517C1563.69 617.337 1563.38 592.621 1563.07 568.371C1562.89 553.404 1560.01 541.737 1554.66 528.652C1554.33 527.855 1553.9 527.789 1553.37 528.453C1542.23 542.268 1530.24 555.279 1517.42 567.485" stroke="#898989" stroke-width="2"/>
<path d="M1448.74 662L1447.23 659.107C1446.89 658.454 1446.92 657.816 1447.32 657.193C1460.6 636.609 1472.88 614.4 1488.94 596.441C1498.05 586.249 1507.4 576.435 1517 567" stroke="#EFE8E3" stroke-width="2"/>
<path d="M996.85 300.331C1011.42 292.637 1026.01 284.864 1040.63 277.011C1049.43 272.281 1058.19 268.601 1067.24 264.851C1067.55 264.724 1067.72 264.494 1067.73 264.161C1067.76 263.554 1067.62 263.157 1067.31 262.971" stroke="#898989" stroke-width="2"/>
<path d="M1067.31 262.97C1064.99 252.01 1059.63 241.22 1049.1 235.59C1048.79 235.423 1048.48 235.423 1048.17 235.59C1044.5 237.537 1040.68 239.067 1036.73 240.18C1012.47 247.02 987.68 249.38 962.95 253.98C962.604 254.047 962.454 254.253 962.5 254.6C963.93 265.24 966.06 275.86 965.52 286.66C965.24 292.35 961.49 297.89 958.2 302.27C958.127 302.371 958.083 302.49 958.073 302.614C958.062 302.738 958.086 302.863 958.142 302.974C958.198 303.085 958.283 303.179 958.389 303.246C958.494 303.312 958.616 303.348 958.74 303.35C968.4 303.423 977.86 303.563 987.12 303.77C989.027 303.81 990.72 303.493 992.2 302.82C993.754 302.113 995.304 301.283 996.85 300.33" stroke="#898989" stroke-width="2"/>
<path d="M1067.31 262.971C1056.18 261.891 1045.16 260.281 1034.25 258.141C1032.58 257.814 1031.33 258.107 1030.52 259.021C1019.99 270.881 1009.48 282.754 998.989 294.641C997.919 295.851 996.379 297.031 995.109 298.331C995.047 298.393 995 298.467 994.97 298.55C994.941 298.632 994.93 298.72 994.938 298.807C994.947 298.894 994.975 298.978 995.02 299.053C995.065 299.128 995.126 299.192 995.199 299.241L996.849 300.331" stroke="#EFE8E3" stroke-width="2"/>
<path d="M591.04 276.503L584.04 263.373C583.88 263.066 583.643 262.993 583.33 263.153C572.33 268.733 561.38 274.403 550.48 280.163C548.36 281.293 546.48 281.753 544.23 282.283C526.33 286.509 508.413 290.643 490.48 294.683C490.047 294.783 489.907 295.039 490.06 295.453C492.067 300.819 493.997 306.299 495.85 311.893C498.96 321.293 507.45 327.533 516.38 331.433C523.5 334.543 535.5 329.453 540.5 324.953C545.467 320.486 550.137 316.356 554.51 312.563" stroke="#898989" stroke-width="2"/>
<path d="M554.51 312.564C562.323 310.297 568.156 308.774 572.01 307.994C577.923 306.8 587.706 305.037 601.36 302.704C604.66 302.134 616.46 300.594 616.11 295.694C615.65 289.26 615.193 282.817 614.74 276.364C614.36 270.964 612.51 267.384 609.51 263.224C609.33 262.964 609.113 262.93 608.86 263.124C603.353 267.41 597.866 271.734 592.4 276.094C592.133 276.307 591.68 276.444 591.04 276.504" stroke="#898989" stroke-width="2"/>
<path d="M554.51 312.564C564.576 298.877 576.406 287.347 590 277.974C590.606 277.561 590.953 277.071 591.04 276.504" stroke="#EFE8E3" stroke-width="2"/>
<path d="M356.657 376L352.155 378.461C351.946 378.571 351.697 378.617 351.439 378.592C341.028 377.428 332.068 379.168 324.559 383.815C290.401 404.966 255.339 425.373 219.373 445.035C219.249 445.105 219.148 445.209 219.083 445.335C219.017 445.461 218.99 445.603 219.004 445.744C219.018 445.886 219.072 446.02 219.161 446.131C219.25 446.241 219.37 446.324 219.505 446.368C220.083 446.556 220.805 446.575 221.671 446.425C248.269 441.578 274.948 440.889 301.709 444.358C316.277 446.249 328.998 451.359 339.873 459.687C340.375 460.063 340.903 460.1 341.455 459.8L439.445 405.079C440.123 404.691 440.18 404.227 439.615 403.689L428.783 393.245" stroke="#898989" stroke-width="2"/>
<path d="M429 393C412.001 375.331 397.127 361.882 392.351 345.525C391.85 343.775 390.935 343.531 389.606 344.794L357 375.781" stroke="#898989" stroke-width="2"/>
<path d="M429 393C409.569 385.877 389.092 380.981 367.568 378.315C364.058 377.87 361.35 377.79 359.444 378.074C358.843 378.16 358.31 378.006 357.846 377.611C357.332 377.179 357.05 376.642 357 376" stroke="#F2EEE8" stroke-width="2"/>
<path d="M827.449 310.91C813.216 321.65 800.699 334.48 789.899 349.4C775.413 369.42 764.399 391.407 756.859 415.36" stroke="#898989" stroke-width="2"/>
<path d="M756.861 415.361C731.181 399.808 705.548 384.854 679.961 370.501C672.221 366.161 666.951 362.921 659.521 365.471C655.194 366.944 651.101 369.831 647.241 374.131C646.994 374.404 647.028 374.634 647.341 374.821L717.661 416.321" stroke="#898989" stroke-width="2"/>
<path d="M717.66 416.32C720.333 420.214 722.404 424.2 723.87 428.28C727.17 437.467 729.497 446.457 730.85 455.25" stroke="#898989" stroke-width="2"/>
<path d="M730.85 455.25C733.217 471.61 734.457 487.533 734.57 503.02C734.57 503.068 734.558 503.116 734.535 503.158C734.511 503.2 734.477 503.236 734.436 503.261C734.394 503.286 734.347 503.3 734.299 503.302C734.251 503.303 734.203 503.292 734.16 503.27C720.7 495.723 707.323 488.137 694.03 480.51C651.02 455.84 596.94 482.89 563.11 511.6C563.049 511.652 563.001 511.719 562.97 511.793C562.939 511.868 562.927 511.948 562.933 512.028C562.94 512.107 562.966 512.184 563.009 512.25C563.052 512.317 563.111 512.372 563.18 512.41L622.71 546.38" stroke="#898989" stroke-width="2"/>
<path d="M622.711 546.381C623.245 546.608 623.605 546.881 623.791 547.201C623.971 547.514 623.908 547.764 623.601 547.951L612.781 554.431" stroke="#898989" stroke-width="2"/>
<path d="M612.78 554.43C598.83 563.05 588.55 571.07 576.71 579.95C572.977 582.756 567.53 586.6 560.37 591.48C549.057 599.186 537.963 607.656 527.09 616.89" stroke="#898989" stroke-width="2"/>
<path d="M527.091 616.891C526.584 617.884 526.178 619.364 525.871 621.331C524.604 629.551 523.298 637.621 521.951 645.541" stroke="#898989" stroke-width="2"/>
<path d="M521.95 645.539C518.57 646.506 515.484 648.069 512.69 650.229C511.49 651.156 511.097 652.389 511.51 653.929C511.59 654.236 511.767 654.479 512.04 654.659C512.92 655.239 513.82 655.796 514.74 656.329C578.48 693.136 642.247 729.899 706.04 766.619C706.38 766.812 706.774 766.746 707.22 766.419" stroke="#10A8B7" stroke-width="2"/>
<path d="M707.221 766.42C769.707 730.407 832.194 694.444 894.681 658.53C895.867 657.844 896.647 657.517 897.021 657.55C900.961 657.864 904.297 657.517 907.031 656.51C921.797 651.07 933.981 641.69 943.581 628.37C943.634 628.298 943.698 628.237 943.771 628.19C944.901 627.51 945.971 626.48 946.951 625.92C1008.45 590.48 1069.94 555.014 1131.41 519.52C1133.51 518.307 1134.6 517.667 1134.67 517.6C1135.74 516.594 1135.91 515.167 1135.2 513.32" stroke="#117D88" stroke-width="2"/>
<path d="M1135.2 513.32L1113.55 500.74" stroke="#10A8B7" stroke-width="2"/>
<path d="M1113.55 500.741L1107.98 491.561" stroke="#898989" stroke-width="2"/>
<path d="M1107.98 491.559L1035.77 449.789" stroke="#898989" stroke-width="2"/>
<path d="M1035.77 449.79L1049.7 442.27" stroke="#898989" stroke-width="2"/>
<path d="M1049.7 442.27C1063.88 434.99 1078.96 428.937 1094.94 424.11C1095.03 424.082 1095.12 424.027 1095.18 423.952C1095.24 423.878 1095.28 423.786 1095.29 423.69C1095.3 423.594 1095.28 423.497 1095.23 423.412C1095.19 423.326 1095.12 423.256 1095.03 423.21L1058.71 404.12C1058.63 404.078 1058.56 404.014 1058.51 403.935C1058.47 403.856 1058.44 403.764 1058.45 403.671C1058.45 403.579 1058.48 403.488 1058.53 403.41C1058.58 403.332 1058.66 403.27 1058.74 403.23L1070.45 397.99C1070.52 397.957 1070.58 397.906 1070.62 397.842C1070.66 397.779 1070.68 397.705 1070.69 397.629C1070.69 397.553 1070.67 397.478 1070.64 397.411C1070.6 397.344 1070.55 397.289 1070.48 397.25C1005.29 360.937 940.104 324.64 874.931 288.36C874.071 287.88 872.771 287.47 871.961 287.72C856.068 292.814 841.231 300.544 827.451 310.91" stroke="#898989" stroke-width="2"/>
<path d="M1049.7 442.269L1024.14 428.279" stroke="#EFE8E3" stroke-width="2"/>
<path d="M1024.14 428.28L1024.35 424.77C1024.37 424.433 1024.28 424.093 1024.09 423.8L1021.32 419.44C1021.15 419.173 1020.92 418.993 1020.61 418.9C1019.88 418.687 1019.16 418.443 1018.45 418.17C1016.38 417.4 1015.11 414.99 1013.34 413.94C1007.59 410.54 999.311 406.017 988.511 400.37C986.711 399.43 984.261 398.93 982.331 397.8C979.871 396.353 978.621 395.623 978.581 395.61C965.315 389.037 952.344 381.933 939.671 374.3C937.431 372.953 934.728 371.527 931.561 370.02C927.791 368.22 924.241 366.05 920.411 364.4C919.524 364.02 918.551 363.48 917.491 362.78C915.518 361.473 910.604 359.013 902.751 355.4C902.044 355.073 901.021 354.447 899.681 353.52C898.674 352.82 897.641 352.243 896.581 351.79C892.655 350.123 888.828 348.257 885.101 346.19C878.714 342.657 875.504 340.88 875.471 340.86C871.018 338.54 867.205 336.613 864.031 335.08C856.078 331.22 848.754 327.283 842.061 323.27C841.974 323.217 841.911 323.143 841.871 323.05C841.831 322.95 841.784 322.853 841.731 322.76C841.544 322.467 841.604 322.4 841.911 322.56L846.521 325.01C846.548 325.023 846.568 325.027 846.581 325.02C846.615 325 846.641 324.977 846.661 324.95C846.714 324.883 846.678 324.803 846.551 324.71L827.451 310.91" stroke="#F2EEE8" stroke-width="2"/>
<path d="M1024.14 428.281C1021.72 427.261 1019.42 427.744 1017.24 429.731C1009.51 436.791 1001.16 443.911 994.41 451.261C976.85 470.367 962.867 490.437 952.46 511.471C944.394 527.791 938.524 541.721 934.85 553.261C933.924 556.154 932.047 562.961 929.22 573.681C928.34 577.001 926.26 581.961 925.48 586.751C924.2 594.584 922.244 604.041 919.61 615.121C919.204 616.854 919.114 621.001 919.34 627.561" stroke="#E5DED6" stroke-width="2"/>
<path d="M919.34 627.561L918.61 628.931C918.43 629.257 918.177 629.331 917.85 629.151L915.57 627.891" stroke="#75BEBD" stroke-width="2"/>
<path d="M915.569 627.889C915.989 617.069 914.489 606.709 913.359 596.329C911.839 582.296 909.626 568.373 906.719 554.559C905.559 549.066 903.769 542.173 901.349 533.879C896.699 517.969 888.889 499.679 876.569 488.549C873.983 486.216 870.069 483.459 864.829 480.279C828.849 458.493 792.859 436.853 756.859 415.359" stroke="#F2EEE8" stroke-width="2"/>
<path d="M1035.77 449.789C1025.59 455.676 1015.54 462.639 1005.61 470.679" stroke="#EFE8E3" stroke-width="2"/>
<path d="M1005.61 470.68C989.257 483.446 974.8 498.786 962.24 516.7C954.574 527.633 947.904 538.836 942.23 550.31C940.524 553.763 938.384 558.646 935.81 564.96C933.79 569.9 931.74 574.826 929.66 579.74C929.374 580.42 929.364 581.063 929.63 581.67C929.784 582.01 929.947 582.013 930.12 581.68C933.067 576.02 937.244 570.34 942.65 564.64C946.404 560.686 950.13 557.27 953.83 554.39C956.81 552.07 961.094 549.433 966.68 546.48C981.914 538.44 995.444 532.2 1007.27 527.76C1013.63 525.373 1019.97 522.933 1026.29 520.44C1032.61 517.94 1039.74 515.75 1046.42 513.19C1052.19 510.983 1058.09 508.803 1064.14 506.65" stroke="#E5DED6" stroke-width="2"/>
<path d="M1064.14 506.651C1076.85 502.291 1089.67 497.934 1102.62 493.581C1103.27 493.367 1104.2 493.201 1105.4 493.081C1106.99 492.927 1107.85 492.421 1107.98 491.561" stroke="#EFE8E3" stroke-width="2"/>
<path d="M1113.55 500.74L1120.36 512.53C1120.55 512.857 1120.48 513.117 1120.15 513.31C1059.08 548.984 997.996 584.63 936.89 620.25C931.8 623.21 925.92 626.15 920.49 629.29C920.176 629.47 920 629.377 919.96 629.01C919.88 628.244 919.673 627.76 919.34 627.56" stroke="#72B8B8" stroke-width="2"/>
<path d="M1135.2 513.32C1043.41 566.36 980.33 602.747 945.97 622.48C943.31 624.01 941.55 624.8 939.63 627.21C930.87 638.2 918.96 648.43 905.28 652.73C902.11 653.73 898.79 653.81 895.44 653.94C893.07 654.04 891.51 656.09 889.71 657.14C828.824 692.334 767.91 727.467 706.97 762.54C706.844 762.613 706.734 762.712 706.648 762.831C706.562 762.95 706.501 763.086 706.47 763.23C706.03 765.204 706.28 766.267 707.22 766.42" stroke="#036C71" stroke-width="2"/>
<path d="M521.951 645.539L521.901 647.969C521.894 648.276 522.024 648.509 522.291 648.669L705.551 756.799C705.795 756.94 706.084 756.983 706.361 756.919C706.774 756.819 707.014 756.709 707.081 756.589" stroke="#75BEBD" stroke-width="2"/>
<path d="M707.08 756.589C766.853 723.009 826.523 689.519 886.09 656.119C888.61 654.706 890.667 653.342 892.26 652.029C899.46 646.129 906.627 639.382 913.76 631.789" stroke="#72B8B8" stroke-width="2"/>
<path d="M915.57 627.891C915.996 630.217 915.393 631.517 913.76 631.791" stroke="#7FC7CA" stroke-width="2"/>
<path d="M913.76 631.79C908.247 620.51 901.497 610.11 893.51 600.59C877.483 581.47 856.897 572.713 831.75 574.32" stroke="#EFE8E3" stroke-width="2"/>
<path d="M831.751 574.32C817.864 575.933 804.661 579.653 792.141 585.48C775.691 593.14 759.701 603.44 745.921 615.49C745.69 615.689 745.404 615.812 745.101 615.843C744.799 615.873 744.495 615.809 744.231 615.66C705.821 593.72 668.631 572.88 628.771 549.46C626.571 548.17 625.381 546.02 622.711 546.38" stroke="#F2EEE8" stroke-width="2"/>
<path d="M730.85 455.25C736.07 458.03 741.164 460.787 746.13 463.52C753.93 467.81 765.04 474.95 774.9 480.06C778.39 481.86 781.47 484.26 785.04 486.12C795.68 491.65 807.14 498.73 816.23 504C821.183 506.874 827.407 510.57 834.9 515.09C841.527 519.09 858.177 528.59 884.85 543.59C890.983 547.037 897.07 550.847 903.11 555.02C904.157 555.747 904.73 555.477 904.83 554.21C904.83 554.177 904.747 553.784 904.58 553.03C900.76 535.92 895.97 519.67 886.97 504.47C874.33 483.15 855.25 472.56 830.57 482.44C830.418 482.502 830.253 482.528 830.088 482.516C829.923 482.504 829.763 482.454 829.62 482.37C828.04 481.46 826.36 479.93 825.17 479.24C794.177 461.087 763.193 442.92 732.22 424.74C732.167 424.707 729.92 423.27 725.48 420.43C722.98 418.824 720.373 417.454 717.66 416.32" stroke="#F2EEE8" stroke-width="2"/>
<path d="M1064.14 506.65L1005.61 470.68" stroke="#F2EEE8" stroke-width="2"/>
<path d="M707.081 756.59C706.321 754.35 706.191 751.69 706.691 748.61C706.72 748.449 706.696 748.282 706.622 748.136C706.548 747.99 706.428 747.872 706.281 747.8L689.571 739.5C689.297 739.367 689.277 739.2 689.511 739C689.664 738.86 689.831 738.827 690.011 738.9C695.357 741.107 700.554 743.187 705.601 745.14C705.754 745.199 705.921 745.214 706.082 745.183C706.243 745.152 706.393 745.077 706.513 744.966C706.634 744.854 706.721 744.711 706.765 744.553C706.809 744.395 706.807 744.228 706.761 744.07C705.001 738.14 706.941 733.67 705.891 727.42C705.831 727.08 705.867 726.75 706.001 726.43C706.794 724.597 706.314 723.18 704.561 722.18C704.174 721.96 704.187 721.767 704.601 721.6L705.091 721.41" stroke="#E5DED6" stroke-width="2"/>
<path d="M831.749 574.32C831.069 574.427 830.636 574.607 830.449 574.86C830.236 575.154 830.286 575.39 830.599 575.57L890.259 609.73C890.352 609.782 890.426 609.863 890.468 609.96C890.51 610.058 890.518 610.166 890.492 610.269C890.466 610.372 890.406 610.463 890.322 610.529C890.239 610.594 890.136 610.63 890.029 610.63C887.869 610.63 885.919 609.4 883.969 609.16C876.649 608.24 871.409 607.887 868.249 608.1C863.096 608.447 856.263 610.01 847.749 612.79C843.309 614.244 835.956 617.637 825.689 622.97C814.556 628.744 801.229 637.324 785.709 648.71C780.463 652.557 770.596 660.84 756.109 673.56" stroke="#E5DED6" stroke-width="2"/>
<path d="M756.111 673.56C749.391 668.86 743.281 663.753 737.781 658.24C736.391 656.85 734.451 655.63 732.991 654.05C732.765 653.803 732.491 653.643 732.171 653.57C731.331 653.376 730.745 652.86 730.411 652.02C730.3 651.724 730.118 651.46 729.881 651.25C727.068 648.723 724.145 646.336 721.111 644.09C719.581 642.96 718.101 641.23 716.251 640.14C714.085 638.853 712.778 638.033 712.331 637.68C709.511 635.426 706.745 633.103 704.031 630.71C703.591 630.316 703.341 629.906 703.281 629.48C703.235 629.16 703.051 628.976 702.731 628.93C700.878 628.65 699.548 627.676 698.741 626.01C698.617 625.754 698.427 625.537 698.191 625.38C696.805 624.466 695.355 623.27 693.841 621.79C690.675 618.676 686.975 615.916 682.741 613.51C682.021 613.103 681.275 612.323 680.501 611.17C680.328 610.91 680.101 610.703 679.821 610.55C677.995 609.576 675.518 607.846 672.391 605.36C665.858 600.18 660.711 595.746 656.951 592.06C656.918 592.026 656.218 591.226 654.851 589.66C654.045 588.74 653.028 587.833 651.801 586.94C646.981 583.426 642.265 579.396 637.651 574.85C631.491 568.77 627.655 565.113 626.141 563.88C621.928 560.446 617.475 557.296 612.781 554.43" stroke="#F2EEE8" stroke-width="2"/>
<path d="M756.11 673.561C739.49 688.314 723.35 704.191 707.69 721.191C706.83 722.124 705.963 722.197 705.09 721.411" stroke="#EFE8E3" stroke-width="2"/>
<path d="M705.09 721.411C689.19 711.581 672.78 702.291 656.9 692.901C641.94 684.061 626.83 675.581 611.85 666.691C595.837 657.191 579.687 647.924 563.4 638.891C561.61 637.901 559.87 636.411 557.94 635.331C547.573 629.497 537.29 623.351 527.09 616.891" stroke="#F2EEE8" stroke-width="2"/>
<path d="M98.2205 567.64C95.0672 563.44 93.1838 558.83 92.5705 553.81C92.5556 553.694 92.5125 553.583 92.445 553.487C92.3775 553.391 92.2876 553.313 92.1832 553.26C92.0787 553.207 91.9628 553.18 91.8456 553.182C91.7284 553.183 91.6133 553.214 91.5105 553.27C82.5172 558.363 73.6739 563.367 64.9805 568.28C61.2072 570.42 57.2939 572.25 53.2405 573.77C35.8539 580.317 18.5005 586.803 1.18052 593.23C1.13006 593.249 1.08621 593.283 1.05427 593.326C1.02233 593.37 1.00365 593.422 1.00048 593.475C0.997313 593.529 1.00978 593.583 1.0364 593.63C1.06302 593.677 1.10266 593.715 1.15052 593.74C9.75719 598.3 18.2605 603.097 26.6605 608.13C33.2605 612.08 39.8605 617.8 45.1805 621.49C48.9939 624.137 52.7405 626.79 56.4205 629.45C56.5763 629.563 56.7548 629.639 56.9436 629.675C57.1323 629.711 57.3266 629.705 57.5126 629.657C57.6987 629.609 57.872 629.521 58.0203 629.399C58.1685 629.277 58.2881 629.124 58.3705 628.95C60.0505 625.4 62.0505 623.02 65.6005 620.86C85.8738 608.467 105.927 595.713 125.761 582.6C130.991 579.14 133.241 575.36 135.521 569.79" stroke="#898989" stroke-width="2"/>
<path d="M135.521 569.791L139.121 564.421C139.341 564.093 139.466 563.71 139.482 563.315C139.497 562.92 139.404 562.527 139.211 562.181C134.957 554.541 131.187 546.664 127.901 538.551C127.647 537.931 127.264 537.834 126.751 538.261C116.684 546.641 107.737 556.124 99.9107 566.711C99.6574 567.058 99.094 567.368 98.2207 567.641" stroke="#898989" stroke-width="2"/>
<path d="M135.521 569.791C115.768 578.564 96.3176 587.384 77.171 596.251C65.541 601.631 55.351 609.751 44.621 616.681C43.701 617.274 42.8776 617.547 42.151 617.501C41.0243 617.434 40.2076 616.944 39.701 616.031C36.201 609.744 33.191 603.317 30.671 596.751C30.6337 596.655 30.617 596.553 30.6219 596.45C30.6269 596.348 30.6533 596.248 30.6995 596.156C30.7457 596.065 30.8107 595.984 30.8902 595.919C30.9697 595.855 31.062 595.807 31.161 595.781C40.9343 593.154 50.6476 590.731 60.301 588.511C69.251 586.461 75.421 584.411 82.431 580.001C87.771 576.634 92.8943 572.967 97.801 569.001C98.061 568.787 98.1976 568.511 98.211 568.171L98.221 567.641" stroke="#EFE8E3" stroke-width="2"/>
<path d="M576.82 806.919C576.453 806.499 575.923 806.383 575.23 806.569C568.016 808.449 560.689 809.663 553.25 810.209C546.043 810.743 539.056 812.216 532.29 814.629C528.83 815.859 522.72 815.099 520.69 819.039C517.77 824.719 526.279 826.479 529.749 826.819C533.023 827.146 536.176 827.896 539.209 829.069C542.119 830.209 545.599 830.449 548.869 830.649C554.089 830.959 558.94 832.409 564.17 832.799C565.783 832.926 567.893 833.129 570.5 833.409C571.673 833.536 573.953 833.566 577.339 833.499C579.446 833.453 581.7 833.653 584.1 834.099C589.58 835.126 595.116 835.566 600.709 835.419C602.316 835.373 604.013 835.436 605.799 835.609C607.499 835.769 609.203 835.853 610.91 835.859C614.109 835.866 616.649 835.983 618.529 836.209C621.629 836.576 624.729 836.909 627.829 837.209C628.323 837.256 631.013 837.603 635.899 838.249C638.599 838.603 641.313 838.776 644.04 838.769C647.146 838.763 649.946 838.923 652.439 839.249C657.139 839.856 661.876 840.143 666.649 840.109C666.951 840.109 667.248 840.027 667.51 839.869C668.943 839.043 670.406 838.963 671.899 839.629C672.199 839.763 672.513 839.813 672.839 839.779C674.713 839.579 676.583 839.526 678.45 839.619C679.376 839.673 680.559 839.643 681.999 839.529C684.66 839.329 688.32 840.129 689.969 840.249C693.143 840.483 696.313 840.713 699.48 840.939C706.94 841.489 714.66 840.839 722.249 840.889C725.359 840.909 728.119 841.999 731.049 842.269C732.256 842.383 733.453 842.523 734.64 842.689C734.72 842.703 734.78 842.676 734.82 842.609C734.84 842.576 734.853 842.543 734.859 842.509C734.913 842.356 734.99 842.276 735.09 842.269C744.356 841.463 753.826 841.826 763.499 843.359C773.686 844.973 784.053 845.516 794.599 844.989C803.379 844.549 808.986 844.339 811.419 844.359C825.789 844.459 838.009 845.189 854.409 844.359C856.669 844.246 859.72 844.316 863.56 844.569C866.766 844.783 869.829 844.756 872.75 844.489C879.66 843.849 885.74 843.719 892.44 843.339C894.84 843.199 897.24 843.156 899.64 843.209C904.686 843.309 908.263 843.283 910.37 843.129C914.25 842.843 918.12 842.476 921.979 842.029C935.859 840.396 949.783 839.456 963.75 839.209C966.609 839.156 971.033 838.763 977.02 838.029C978.96 837.796 981.009 837.849 983.169 838.189C989.669 839.223 996.203 839.403 1002.77 838.729C1004.24 838.583 1006.07 838.443 1008.26 838.309C1010.11 838.203 1011.94 837.996 1013.76 837.689C1015.7 837.369 1017.71 837.256 1019.79 837.349C1021.68 837.436 1023.57 837.396 1025.44 837.229C1027.26 837.076 1029.13 837.039 1031.05 837.119C1035.07 837.279 1039.39 836.859 1044 835.859C1046.66 835.279 1049.77 834.883 1053.32 834.669C1058.18 834.376 1061.3 834.169 1062.67 834.049C1065.1 833.843 1067.52 833.669 1069.95 833.529C1072.09 833.403 1074.52 833.176 1077.23 832.849C1080.73 832.429 1084.24 832.159 1087.75 832.039C1090.38 831.953 1092.69 831.716 1094.68 831.329C1096.97 830.876 1099.24 830.396 1101.51 829.889C1104.67 829.179 1108.16 829.339 1111.56 828.429C1112.08 828.296 1113.11 827.806 1114.64 826.959C1115.66 826.393 1116.78 826.043 1117.99 825.909C1119.52 825.736 1120.67 825.086 1121.43 823.959C1122.13 822.939 1122.65 821.963 1122.99 821.029C1124.1 818.019 1119.53 815.679 1117.09 815.119C1114.43 814.506 1112.75 814.079 1112.06 813.839C1108.84 812.726 1105.54 811.959 1102.17 811.539C1095.7 810.729 1089.93 809.009 1083.6 808.479C1080.74 808.246 1078.19 807.963 1075.96 807.629C1073.41 807.243 1070.85 806.956 1068.28 806.769C1062.46 806.336 1058.62 806.019 1056.76 805.819C1050.77 805.166 1044.77 804.703 1038.75 804.429C1038.67 804.423 1038.63 804.383 1038.62 804.309C1038.62 804.216 1038.59 804.126 1038.53 804.039C1038.51 803.999 1038.48 803.979 1038.44 803.979C1028.11 803.379 1017.79 802.749 1007.47 802.089C1004.1 801.869 998.849 801.829 994.549 801.339C990.556 800.886 987.336 800.633 984.89 800.579C982.056 800.519 979.223 800.426 976.39 800.299C974.936 800.239 972.116 799.906 967.93 799.299C963.91 798.719 959.35 798.526 954.25 798.719C950.256 798.873 947.036 799.013 944.59 799.139C941.263 799.319 938.039 799.333 934.919 799.179C930.066 798.946 924.343 798.846 917.75 798.879C898.95 798.959 878.253 798.323 855.659 796.969C854.459 796.889 852.62 797.169 851 797.179C834.706 797.279 818.413 797.303 802.12 797.249C801.366 797.249 799.96 797.286 797.9 797.359C796.486 797.406 795.073 797.403 793.659 797.349C790.673 797.236 788.566 797.196 787.34 797.229C771.4 797.649 755.456 797.986 739.51 798.239C739.196 798.246 738.906 798.169 738.64 798.009C736.87 796.959 735.189 798.159 733.909 798.269C725.376 798.983 716.829 799.246 708.269 799.059C706.989 799.029 705.549 799.529 704.249 799.439C696.13 798.873 690.466 798.729 687.26 799.009C681.293 799.543 675.316 799.853 669.329 799.939C664.399 800.009 659.829 801.369 654.88 801.349C648.286 801.329 641.713 801.603 635.16 802.169C634.026 802.269 631.376 802.723 627.209 803.529C624.396 804.069 621.699 804.253 619.119 804.079C613.459 803.693 608.336 803.889 603.749 804.669C602.609 804.869 601.1 804.339 599.76 804.519C594.913 805.153 590.066 805.749 585.219 806.309C583.399 806.529 579.939 806.459 577.369 807.089C577.149 807.143 576.966 807.086 576.82 806.919Z" fill="#415A5B"/>
<path d="M609.377 692.376C609.395 692.343 609.406 692.308 609.41 692.271C609.414 692.235 609.411 692.198 609.401 692.162C609.39 692.127 609.373 692.094 609.35 692.066C609.327 692.037 609.298 692.013 609.266 691.996L587.601 680.134C587.536 680.098 587.459 680.09 587.388 680.111C587.316 680.132 587.256 680.18 587.221 680.245L587.144 680.385C587.126 680.418 587.115 680.453 587.111 680.49C587.107 680.526 587.11 680.563 587.121 680.598C587.131 680.634 587.148 680.667 587.171 680.695C587.194 680.724 587.223 680.748 587.255 680.766L608.92 692.627C608.986 692.663 609.062 692.671 609.133 692.65C609.205 692.629 609.265 692.581 609.3 692.516L609.377 692.376Z" stroke="#E5DED6" stroke-width="2"/>
<path d="M690.24 720.27C692.54 721.577 694.9 722.777 697.32 723.87C699.16 724.69 701.48 724.35 703.05 726.6C703.297 726.954 703.527 726.94 703.74 726.56C705.18 724.05 701.48 722.93 699.78 722.62C699.474 722.56 699.227 722.407 699.04 722.16C698.01 720.84 696.23 720.67 695.13 720.13C686.224 715.67 677.364 711.124 668.55 706.49C666.04 705.17 662.21 702.49 658.51 701.34C658.476 701.332 658.44 701.336 658.408 701.351C658.377 701.367 658.351 701.393 658.337 701.425C658.323 701.457 658.32 701.494 658.33 701.527C658.34 701.561 658.361 701.591 658.39 701.61C664.344 705.39 670.31 708.94 676.29 712.26C677.15 712.74 678.35 713.81 679.85 714.18C680.147 714.253 680.421 714.393 680.65 714.59C683.58 717.16 687.87 718.92 690.24 720.27Z" stroke="#E5DED6" stroke-width="2"/>
<path d="M678.102 729.676C678.135 729.612 678.142 729.538 678.12 729.47C678.098 729.402 678.051 729.345 677.987 729.312L628.536 703.679C628.472 703.646 628.398 703.639 628.33 703.661C628.261 703.683 628.205 703.731 628.172 703.794L627.96 704.203C627.927 704.266 627.921 704.34 627.942 704.408C627.964 704.477 628.012 704.534 628.075 704.566L677.527 730.2C677.59 730.233 677.664 730.239 677.733 730.217C677.801 730.196 677.858 730.148 677.891 730.084L678.102 729.676Z" stroke="#E5DED6" stroke-width="2"/>
<path d="M1175.09 350.158C1168.9 345.811 1164.13 341.212 1160.79 336.364C1157.96 332.262 1158.06 327.228 1157 322.276C1158.4 316.98 1157.41 310.018 1160.95 304.183C1178.69 274.977 1186.31 248.729 1207.32 225.096C1214 217.578 1222.27 213.214 1232.12 212.005C1232.26 211.989 1232.4 212.011 1232.53 212.069C1232.66 212.126 1232.78 212.216 1232.86 212.331C1232.94 212.446 1232.99 212.58 1233.01 212.721C1233.02 212.862 1233 213.004 1232.94 213.133C1230.8 217.725 1229.15 222.203 1229.05 227.352C1228.64 247.634 1238.72 270.891 1245.86 287.709C1246.16 288.439 1245.98 288.586 1245.32 288.15C1226.73 276.088 1211.32 311.554 1203.51 325.904C1198.08 335.863 1192.01 345.418 1185.32 354.571C1184.99 355.017 1184.59 355.116 1184.11 354.865L1175.09 350.158Z" fill="#FCF7F4"/>
<path d="M536.828 100.094C539.041 99.8876 540.235 99.1943 540.408 98.0143C540.455 97.6943 540.625 97.4676 540.918 97.3343C547.718 94.301 554.038 89.8476 559.878 83.9743C571.805 71.9876 581.935 59.531 590.268 46.6043C590.361 46.4576 590.411 46.301 590.418 46.1343C590.418 45.9876 590.421 45.8176 590.428 45.6243C590.861 45.8443 591.155 45.851 591.308 45.6443C594.028 42.0843 596.938 36.9743 600.488 33.7443C619.958 16.0443 647.398 16.6743 665.318 36.3043C665.525 36.531 665.491 36.7143 665.218 36.8543C656.865 41.1676 648.935 46.1543 641.428 51.8143C625.268 63.9843 610.018 77.9143 594.698 91.6943C592.578 93.6043 587.558 97.8943 584.878 98.4943C584.111 98.661 583.075 98.5876 581.768 98.2743C567.208 94.7843 551.468 98.7643 536.828 100.094Z" fill="#E7E4DB"/>
<path d="M1411.24 359.548L1412.61 345.373C1412.65 345.017 1412.81 344.69 1413.07 344.449L1500.23 259.799C1503.12 256.982 1503.89 257.473 1502.52 261.274C1496.62 277.752 1494.74 295.748 1496.88 315.264C1498.54 330.319 1505.08 342.622 1516.51 352.174C1517.14 352.703 1517.16 353.26 1516.58 353.847C1488.69 381.389 1466.42 404.029 1449.77 421.769C1447.3 424.381 1444.99 426.355 1442.85 427.69C1442.52 427.9 1442.13 428.007 1441.74 428C1441.35 427.992 1440.97 427.869 1440.65 427.646C1414.21 409.378 1390.4 394.235 1366.5 388.799C1366.37 388.767 1366.26 388.698 1366.17 388.601C1366.08 388.504 1366.03 388.383 1366.01 388.253C1365.99 388.123 1366.01 387.99 1366.06 387.872C1366.12 387.753 1366.21 387.655 1366.33 387.588L1409.92 361.661C1410.29 361.434 1410.6 361.126 1410.83 360.759C1411.06 360.393 1411.2 359.978 1411.24 359.548Z" fill="#E2D8D1"/>
<path d="M275.132 195C271.966 192.264 270.045 188.335 269.37 183.211C268.59 177.276 268.188 174.251 268.165 174.135C264.987 160.317 259.434 148.273 251.507 138.003C244.068 128.381 234.581 125.756 223.045 130.126C220.67 131.03 218.767 130.439 216.601 129.587C198.989 122.748 181.661 115.23 164.619 107.035C164.106 106.792 163.629 106.838 163.187 107.174C162.593 107.638 162.081 107.789 161.65 107.626C160.067 105.772 158.775 104.641 157.774 104.236C145.539 99.2511 133.438 94.0985 121.471 88.7778C120.948 88.546 120.86 88.204 121.21 87.752C125.662 82.1183 129.766 81.075 136.663 83.944C150.609 89.7168 164.45 95.6866 178.186 101.853C178.345 101.925 178.519 101.959 178.693 101.953C178.868 101.947 179.039 101.901 179.192 101.819C179.346 101.737 179.479 101.62 179.58 101.478C179.681 101.336 179.748 101.173 179.775 101.001C184.822 71.3378 202.143 40.8918 229.488 26.3208C229.853 26.126 230.257 26.0169 230.669 26.0018C231.08 25.9867 231.489 26.0661 231.863 26.2339L337.784 73.181C337.843 73.2094 337.895 73.2528 337.933 73.3068C337.971 73.3608 337.993 73.4232 337.999 73.4875C338.004 73.5517 337.992 73.6153 337.963 73.6716C337.935 73.7279 337.891 73.7746 337.836 73.8069C294.043 101.349 277.018 144.975 275.132 195Z" fill="#FCF7F4"/>
<path d="M590.429 45.6245C590.423 45.8179 590.419 45.9879 590.419 46.1345C590.413 46.3012 590.363 46.4579 590.269 46.6045C581.936 59.5312 571.806 71.9879 559.879 83.9745C554.039 89.8479 547.719 94.3012 540.919 97.3345C540.626 97.4679 540.456 97.6945 540.409 98.0145C540.236 99.1945 539.043 99.8879 536.829 100.095C532.149 97.3145 527.206 95.0212 521.999 93.2145C516.499 91.3078 512.949 89.9378 511.349 89.1045C506.596 86.6378 502.196 83.6245 498.149 80.0645C498.083 80.0045 498.036 79.8845 498.009 79.7045C497.976 79.5245 498.033 79.4912 498.179 79.6045C509.099 88.1778 520.316 88.5445 531.829 80.7045C542.496 73.4379 555.729 63.8579 571.529 51.9645C576.099 48.5245 585.369 41.8045 590.429 45.6245Z" fill="#FCF7F4"/>
<path d="M947.859 116.64C947.334 114.207 946.127 111.92 944.238 109.778C941.788 107 940.292 105.13 939.749 104.168C934.442 94.8463 931.861 84.5712 932.006 73.343L933.213 62.2056C933.267 61.7336 933.47 61.3388 933.823 61.0211C954.707 41.5873 975.076 21.6271 994.93 1.14047C995.006 1.06512 995.105 1.01709 995.211 1.00377C995.317 0.990457 995.425 1.01259 995.518 1.06677C995.61 1.12095 995.682 1.20416 995.723 1.30359C995.764 1.40302 995.771 1.51315 995.743 1.61701C989.939 22.081 986.128 52.4161 1005.82 67.1072C1005.87 67.1455 1005.92 67.1951 1005.95 67.2526C1005.98 67.3101 1006 67.374 1006 67.4401C1006 67.5062 1005.99 67.5727 1005.97 67.6351C1005.94 67.6976 1005.91 67.7543 1005.86 67.8016C989.433 84.3398 973.101 101.005 956.863 117.797C956.086 118.605 955.209 119.286 954.233 119.84C954.043 119.947 953.829 120.002 953.612 120C953.395 119.998 953.183 119.938 952.998 119.826L947.859 116.64Z" fill="#E7E4DB"/>
<path d="M1401.68 68.6373L1400.81 68.9273C1400.65 68.9822 1400.47 68.9827 1400.31 68.9286C1400.14 68.8745 1400 68.7688 1399.9 68.6273C1395.48 62.1673 1389.69 57.3073 1382.54 54.0473C1382.38 53.9757 1382.21 53.9395 1382.04 53.941C1381.86 53.9426 1381.69 53.9819 1381.54 54.0563C1381.38 54.1306 1381.24 54.2382 1381.13 54.3714C1381.02 54.5046 1380.94 54.6602 1380.9 54.8273C1377.84 66.7273 1373.82 77.6073 1365.38 86.8273C1358.79 94.0273 1350.21 96.3173 1342.13 101.057C1341.95 101.164 1341.72 101.097 1341.43 100.857L1340.67 96.2873C1340.65 96.1364 1340.66 95.9809 1340.71 95.8344C1340.76 95.6879 1340.85 95.555 1340.96 95.4473C1350.19 86.8073 1361.77 76.5773 1368.03 64.7073C1372.22 56.7673 1376.57 48.9373 1381.1 41.2173C1381.25 40.9573 1381.43 40.9306 1381.64 41.1373C1388.03 47.404 1393.74 54.2173 1398.77 61.5773C1400.27 63.7773 1401.24 66.1306 1401.68 68.6373Z" fill="#FCF7F4"/>
<path d="M764.889 236.449C764.642 236.283 764.442 235.989 764.289 235.569C764.169 235.236 763.939 235.029 763.599 234.949C753.372 232.396 743.756 230.353 734.749 228.819C725.756 227.286 717.462 224.233 709.869 219.659C722.862 222.266 735.099 221.319 746.579 216.819C748.579 216.033 750.576 214.796 752.569 213.109C762.756 204.483 773.862 195.909 785.889 187.389C789.779 184.629 796.989 179.359 801.529 179.839C806.863 180.399 812.189 180.886 817.509 181.299C824.829 181.866 830.102 182.619 833.329 183.559C847.779 187.769 859.519 197.989 868.269 209.839C868.542 210.199 868.456 210.413 868.009 210.479C855.749 212.246 843.636 214.589 831.669 217.509C814.689 221.659 797.129 233.539 783.899 244.719C783.639 244.939 783.366 244.956 783.079 244.769C779.789 242.609 769.409 236.119 764.889 236.449Z" fill="#FCF7F4"/>
<path d="M1157 322C1158.05 326.973 1157.95 332.028 1160.77 336.148C1164.09 341.017 1168.84 345.634 1175 350C1161.97 349.562 1150.82 347.669 1141.54 344.321C1131.66 340.76 1126.19 331.634 1120.08 323.559C1120.02 323.472 1119.99 323.368 1120 323.264C1120.01 323.16 1120.05 323.061 1120.12 322.982C1120.19 322.904 1120.28 322.85 1120.38 322.83C1120.48 322.81 1120.59 322.824 1120.68 322.87C1123.99 324.79 1126.51 327.794 1129.68 329.123C1140.5 333.686 1147.54 329.057 1157 322Z" fill="#E2D8D1"/>
<path d="M275.401 195.137C276.716 198.546 275.866 200.784 272.853 201.851C272.237 202.071 271.632 202.048 271.039 201.781L176.308 158.406C175.953 158.247 175.645 157.997 175.415 157.679C175.186 157.362 175.042 156.989 174.999 156.598C173.289 140.493 170.498 121.241 162 107.745C162.43 107.907 162.942 107.756 163.536 107.293C163.978 106.956 164.454 106.91 164.966 107.153C181.997 115.351 199.312 122.87 216.912 129.71C219.076 130.562 220.978 131.154 223.351 130.249C234.879 125.878 244.359 128.504 251.793 138.128C259.714 148.4 265.263 160.447 268.439 174.267C268.462 174.383 268.863 177.41 269.643 183.346C270.318 188.471 272.237 192.401 275.401 195.137Z" fill="#E7E4DB"/>
<path d="M1401.68 68.6377L1402.48 74.2877C1402.5 74.4545 1402.48 74.6239 1402.43 74.782C1402.37 74.9402 1402.28 75.0826 1402.16 75.1977C1397.45 79.6577 1391.84 84.2944 1385.32 89.1077C1373.96 97.4944 1362.3 105.318 1350.34 112.578C1350.03 112.764 1349.69 112.886 1349.34 112.936C1348.99 112.985 1348.63 112.962 1348.28 112.868L1330.24 107.818C1330.18 107.798 1330.12 107.761 1330.08 107.71C1330.04 107.659 1330.01 107.597 1330 107.531C1329.99 107.465 1330.01 107.398 1330.04 107.339C1330.07 107.28 1330.11 107.231 1330.17 107.198C1333.59 105.364 1337.08 103.544 1340.64 101.738C1341 101.558 1341.26 101.264 1341.43 100.858C1341.72 101.098 1341.95 101.164 1342.13 101.058C1350.21 96.3177 1358.79 94.0277 1365.38 86.8277C1373.82 77.6077 1377.84 66.7277 1380.9 54.8277C1380.94 54.6606 1381.02 54.505 1381.13 54.3718C1381.24 54.2386 1381.38 54.131 1381.54 54.0567C1381.69 53.9823 1381.86 53.943 1382.04 53.9415C1382.21 53.9399 1382.38 53.9762 1382.54 54.0477C1389.69 57.3077 1395.48 62.1677 1399.9 68.6277C1400 68.7692 1400.14 68.8749 1400.31 68.929C1400.47 68.9831 1400.65 68.9826 1400.81 68.9277L1401.68 68.6377Z" fill="#E2D8D1"/>
<path d="M931.99 74C931.844 85.1512 934.451 95.3558 939.81 104.614C940.358 105.569 941.869 107.426 944.343 110.185C946.252 112.312 947.47 114.584 948 117C929.032 105.141 916.363 96.6629 900.339 93.4041C900.256 93.3857 900.18 93.3433 900.12 93.2825C900.061 93.2216 900.021 93.1452 900.006 93.0633C899.992 92.9814 900.002 92.8978 900.037 92.8234C900.072 92.7491 900.13 92.6875 900.202 92.6469L931.99 74Z" fill="#E2D8D1"/>
<path d="M709.871 219.659C717.464 224.232 725.757 227.286 734.751 228.819C743.757 230.352 753.374 232.396 763.601 234.949C763.941 235.029 764.171 235.236 764.291 235.569C764.444 235.989 764.644 236.282 764.891 236.449C759.811 240.362 754.161 242.942 747.941 244.189C747.621 244.26 747.287 244.202 747.011 244.029C741.577 240.669 735.894 237.956 729.961 235.889C723.947 233.796 720.184 232.376 718.671 231.629C711.611 228.142 705.134 223.659 699.241 218.179C699.15 218.098 699.086 217.991 699.058 217.872C699.031 217.753 699.041 217.629 699.087 217.516C699.133 217.403 699.213 217.307 699.315 217.241C699.418 217.176 699.539 217.143 699.661 217.149C703.487 217.256 706.891 218.092 709.871 219.659Z" fill="#E2D8D1"/>
<path d="M1448.74 662L1447.23 659.122C1446.89 658.472 1446.92 657.838 1447.32 657.218C1460.66 636.739 1473 614.643 1489.13 596.776C1498.27 586.636 1507.67 576.873 1517.31 567.485C1530.17 555.279 1542.18 542.268 1553.35 528.453C1553.88 527.789 1554.31 527.855 1554.64 528.652C1560.01 541.737 1562.89 553.404 1563.07 568.371C1563.38 592.621 1563.69 617.337 1564 642.517C1564.02 643.588 1563.63 644.626 1562.91 645.423C1562.19 646.221 1561.19 646.717 1560.12 646.812C1554.57 647.321 1549.8 647.078 1544.36 644.332C1517.29 630.694 1472.53 648.074 1448.74 662Z" fill="#E2D8D1"/>
<path d="M1067.31 262.97C1056.18 261.89 1045.16 260.28 1034.25 258.14C1032.58 257.813 1031.33 258.107 1030.52 259.02C1019.99 270.88 1009.48 282.753 998.99 294.64C997.92 295.85 996.38 297.03 995.11 298.33C995.048 298.392 995.001 298.466 994.971 298.549C994.942 298.631 994.931 298.719 994.939 298.806C994.948 298.893 994.976 298.977 995.021 299.052C995.066 299.127 995.127 299.191 995.2 299.24L996.85 300.33C995.304 301.283 993.754 302.113 992.2 302.82C990.72 303.493 989.027 303.81 987.12 303.77C977.86 303.563 968.4 303.423 958.74 303.35C958.616 303.348 958.494 303.312 958.389 303.246C958.283 303.179 958.198 303.085 958.142 302.974C958.086 302.863 958.062 302.738 958.073 302.614C958.083 302.49 958.127 302.371 958.2 302.27C961.49 297.89 965.24 292.35 965.52 286.66C966.06 275.86 963.93 265.24 962.5 254.6C962.454 254.253 962.604 254.047 962.95 253.98C987.68 249.38 1012.47 247.02 1036.73 240.18C1040.68 239.067 1044.5 237.537 1048.17 235.59C1048.48 235.423 1048.79 235.423 1049.1 235.59C1059.63 241.22 1064.99 252.01 1067.31 262.97Z" fill="#FCF7F4"/>
<path d="M1517 567.338C1507.4 576.72 1498.05 586.478 1488.96 596.612C1472.9 614.469 1460.62 636.552 1447.35 657.02C1446.96 657.639 1446.93 658.274 1447.26 658.923L1448.77 661.799C1437.9 670.716 1422.42 693.198 1407.38 692.999C1399.48 692.866 1388.97 688.883 1380.71 684.767C1360.28 674.567 1339.66 665.162 1323.14 649.939C1323.06 649.858 1323.02 649.754 1323 649.643C1322.99 649.531 1323.02 649.419 1323.07 649.323C1323.13 649.228 1323.22 649.154 1323.32 649.113C1323.43 649.072 1323.54 649.067 1323.65 649.098C1359.2 661.6 1390.69 641.221 1418.12 621.173C1423.74 617.087 1433.04 609.121 1446.01 597.276C1463.92 580.916 1482.71 565.59 1502.36 551.295C1502.99 550.838 1503.55 550.912 1504.04 551.517L1517 567.338Z" fill="#FCF7F4"/>
<path d="M554.51 312.564C564.576 298.877 576.406 287.347 590 277.974C590.606 277.56 590.953 277.07 591.04 276.504C591.68 276.444 592.133 276.307 592.4 276.094C597.866 271.734 603.353 267.41 608.86 263.124C609.113 262.93 609.33 262.964 609.51 263.224C612.51 267.384 614.36 270.964 614.74 276.364C615.193 282.817 615.65 289.26 616.11 295.694C616.46 300.594 604.66 302.134 601.36 302.704C587.706 305.037 577.923 306.8 572.01 307.994C568.156 308.774 562.323 310.297 554.51 312.564Z" fill="#E2D8D1"/>
<path d="M591.04 276.503C590.953 277.069 590.607 277.559 590 277.973C576.407 287.346 564.577 298.876 554.51 312.563C550.137 316.356 545.467 320.486 540.5 324.953C535.5 329.453 523.5 334.543 516.38 331.433C507.45 327.533 498.96 321.293 495.85 311.893C493.997 306.299 492.067 300.819 490.06 295.453C489.907 295.039 490.047 294.783 490.48 294.683C508.413 290.643 526.33 286.509 544.23 282.283C546.48 281.753 548.36 281.293 550.48 280.163C561.38 274.403 572.33 268.733 583.33 263.153C583.643 262.993 583.88 263.066 584.04 263.373L591.04 276.503Z" fill="#FCF7F4"/>
<path d="M1067.31 262.971C1067.62 263.157 1067.76 263.554 1067.73 264.161C1067.72 264.494 1067.55 264.724 1067.24 264.851C1058.19 268.601 1049.43 272.281 1040.63 277.011C1026.01 284.864 1011.42 292.637 996.849 300.331L995.199 299.241C995.126 299.192 995.065 299.128 995.02 299.053C994.975 298.978 994.947 298.894 994.938 298.807C994.93 298.72 994.941 298.632 994.97 298.55C995 298.467 995.047 298.393 995.109 298.331C996.379 297.031 997.919 295.851 998.989 294.641C1009.48 282.754 1019.99 270.881 1030.52 259.021C1031.33 258.107 1032.58 257.814 1034.25 258.141C1045.16 260.281 1056.18 261.891 1067.31 262.971Z" fill="#E2D8D1"/>
<path d="M429 393C409.569 385.785 389.092 380.827 367.568 378.126C364.058 377.675 361.35 377.594 359.444 377.882C358.843 377.969 358.31 377.813 357.846 377.413C357.332 376.975 357.05 376.431 357 375.781L389.606 344.794C390.935 343.531 391.85 343.775 392.351 345.525C397.127 361.882 412.001 375.331 429 393Z" fill="#FCF7F4"/>
<path d="M356.657 376C356.707 376.651 356.99 377.196 357.504 377.634C357.969 378.035 358.503 378.192 359.106 378.104C361.014 377.816 363.727 377.897 367.243 378.348C388.805 381.053 409.319 386.019 428.783 393.245L439.615 403.689C440.18 404.227 440.123 404.691 439.445 405.079L341.455 459.8C340.903 460.1 340.375 460.063 339.873 459.687C328.998 451.359 316.277 446.249 301.709 444.358C274.948 440.889 248.269 441.578 221.671 446.425C220.805 446.575 220.083 446.556 219.505 446.368C219.37 446.324 219.25 446.241 219.161 446.131C219.072 446.02 219.018 445.886 219.004 445.744C218.99 445.603 219.017 445.461 219.083 445.335C219.148 445.209 219.249 445.105 219.373 445.035C255.339 425.373 290.401 404.966 324.559 383.815C332.068 379.168 341.028 377.428 351.439 378.592C351.697 378.617 351.946 378.571 352.155 378.461L356.657 376Z" fill="#E7E4DB"/>
<path d="M1049.7 442.27L1024.14 428.28L1024.35 424.77C1024.37 424.433 1024.28 424.093 1024.09 423.8L1021.32 419.44C1021.15 419.174 1020.92 418.994 1020.61 418.9C1019.88 418.687 1019.16 418.444 1018.45 418.17C1016.38 417.4 1015.11 414.99 1013.34 413.94C1007.59 410.54 999.309 406.017 988.509 400.37C986.709 399.43 984.259 398.93 982.329 397.8C979.869 396.354 978.619 395.623 978.579 395.61C965.313 389.037 952.343 381.933 939.669 374.3C937.429 372.953 934.726 371.527 931.559 370.02C927.789 368.22 924.239 366.05 920.409 364.4C919.523 364.02 918.549 363.48 917.489 362.78C915.516 361.474 910.603 359.014 902.749 355.4C902.043 355.074 901.019 354.447 899.679 353.52C898.673 352.82 897.639 352.244 896.579 351.79C892.653 350.124 888.826 348.257 885.099 346.19C878.713 342.657 875.503 340.88 875.469 340.86C871.016 338.54 867.203 336.614 864.029 335.08C856.076 331.22 848.753 327.284 842.059 323.27C841.973 323.217 841.909 323.144 841.869 323.05C841.829 322.95 841.783 322.854 841.729 322.76C841.543 322.467 841.603 322.4 841.909 322.56L846.519 325.01C846.546 325.024 846.566 325.027 846.579 325.02C846.613 325 846.639 324.977 846.659 324.95C846.713 324.884 846.676 324.804 846.549 324.71L827.449 310.91C841.229 300.544 856.066 292.814 871.959 287.72C872.769 287.47 874.069 287.88 874.929 288.36C940.103 324.64 1005.29 360.937 1070.48 397.25C1070.54 397.289 1070.6 397.344 1070.63 397.411C1070.67 397.478 1070.69 397.553 1070.69 397.629C1070.68 397.705 1070.66 397.779 1070.62 397.842C1070.58 397.906 1070.52 397.957 1070.45 397.99L1058.74 403.23C1058.65 403.27 1058.58 403.332 1058.53 403.41C1058.48 403.488 1058.45 403.579 1058.45 403.671C1058.44 403.764 1058.47 403.856 1058.51 403.935C1058.56 404.014 1058.63 404.078 1058.71 404.12L1095.03 423.21C1095.11 423.256 1095.18 423.326 1095.23 423.412C1095.27 423.497 1095.29 423.594 1095.28 423.69C1095.27 423.786 1095.24 423.878 1095.18 423.952C1095.11 424.027 1095.03 424.082 1094.94 424.11C1078.96 428.937 1063.88 434.99 1049.7 442.27Z" fill="#FCF7F4"/>
<path d="M135.521 569.791C115.768 578.564 96.3176 587.384 77.171 596.251C65.541 601.631 55.351 609.751 44.621 616.681C43.701 617.274 42.8776 617.548 42.151 617.501C41.0243 617.434 40.2076 616.944 39.701 616.031C36.201 609.744 33.191 603.318 30.671 596.751C30.6337 596.655 30.617 596.553 30.6219 596.451C30.6269 596.348 30.6533 596.248 30.6995 596.157C30.7457 596.065 30.8107 595.984 30.8902 595.92C30.9697 595.855 31.062 595.808 31.161 595.781C40.9343 593.154 50.6476 590.731 60.301 588.511C69.251 586.461 75.421 584.411 82.431 580.001C87.771 576.634 92.8943 572.968 97.801 569.001C98.061 568.788 98.1976 568.511 98.211 568.171L98.221 567.641C99.0943 567.368 99.6576 567.058 99.911 566.711C107.738 556.124 116.684 546.641 126.751 538.261C127.264 537.834 127.648 537.931 127.901 538.551C131.188 546.664 134.958 554.541 139.211 562.181C139.404 562.527 139.498 562.92 139.482 563.315C139.466 563.71 139.341 564.093 139.121 564.421L135.521 569.791Z" fill="#E2D8D1"/>
<path d="M827.449 310.91L846.549 324.71C846.676 324.803 846.713 324.883 846.659 324.95C846.639 324.977 846.613 325 846.579 325.02C846.566 325.027 846.546 325.023 846.519 325.01L841.909 322.56C841.603 322.4 841.543 322.467 841.729 322.76C841.783 322.853 841.829 322.95 841.869 323.05C841.909 323.143 841.973 323.217 842.059 323.27C848.753 327.283 856.076 331.22 864.029 335.08C867.203 336.613 871.016 338.54 875.469 340.86C875.503 340.88 878.713 342.657 885.099 346.19C888.826 348.257 892.653 350.123 896.579 351.79C897.639 352.243 898.673 352.82 899.679 353.52C901.019 354.447 902.043 355.073 902.749 355.4C910.603 359.013 915.516 361.473 917.489 362.78C918.549 363.48 919.523 364.02 920.409 364.4C924.239 366.05 927.789 368.22 931.559 370.02C934.726 371.527 937.429 372.953 939.669 374.3C952.343 381.933 965.313 389.037 978.579 395.61C978.619 395.623 979.869 396.353 982.329 397.8C984.259 398.93 986.709 399.43 988.509 400.37C999.309 406.017 1007.59 410.54 1013.34 413.94C1015.11 414.99 1016.38 417.4 1018.45 418.17C1019.16 418.443 1019.88 418.687 1020.61 418.9C1020.92 418.993 1021.15 419.173 1021.32 419.44L1024.09 423.8C1024.28 424.093 1024.37 424.433 1024.35 424.77L1024.14 428.28C1021.72 427.26 1019.42 427.743 1017.24 429.73C1009.51 436.79 1001.16 443.91 994.409 451.26C976.849 470.367 962.866 490.437 952.459 511.47C944.393 527.79 938.523 541.72 934.849 553.26C933.923 556.154 932.046 562.96 929.219 573.68C928.339 577 926.259 581.96 925.479 586.75C924.199 594.583 922.243 604.04 919.609 615.12C919.203 616.853 919.113 621 919.339 627.56L918.609 628.93C918.429 629.257 918.176 629.33 917.849 629.15L915.569 627.89C915.989 617.07 914.489 606.71 913.359 596.33C911.839 582.297 909.626 568.373 906.719 554.56C905.559 549.067 903.769 542.173 901.349 533.88C896.699 517.97 888.889 499.68 876.569 488.55C873.983 486.217 870.069 483.46 864.829 480.28C828.849 458.493 792.859 436.853 756.859 415.36C764.399 391.407 775.413 369.42 789.899 349.4C800.699 334.48 813.216 321.65 827.449 310.91Z" fill="#E7E4DB"/>
<path d="M98.2205 567.64L98.2105 568.17C98.1972 568.51 98.0605 568.787 97.8005 569C92.8938 572.967 87.7705 576.633 82.4305 580C75.4205 584.41 69.2505 586.46 60.3005 588.51C50.6472 590.73 40.9338 593.153 31.1605 595.78C31.0615 595.807 30.9693 595.854 30.8898 595.919C30.8103 595.984 30.7453 596.064 30.6991 596.156C30.6528 596.247 30.6264 596.348 30.6215 596.45C30.6166 596.552 30.6333 596.655 30.6705 596.75C33.1905 603.317 36.2005 609.743 39.7005 616.03C40.2072 616.943 41.0239 617.433 42.1505 617.5C42.8772 617.547 43.7005 617.273 44.6205 616.68C55.3505 609.75 65.5405 601.63 77.1705 596.25C96.3172 587.383 115.767 578.563 135.521 569.79C133.241 575.36 130.991 579.14 125.761 582.6C105.927 595.713 85.8738 608.467 65.6005 620.86C62.0505 623.02 60.0505 625.4 58.3705 628.95C58.2881 629.124 58.1685 629.277 58.0203 629.399C57.872 629.521 57.6987 629.609 57.5126 629.657C57.3266 629.705 57.1323 629.711 56.9436 629.675C56.7548 629.639 56.5763 629.563 56.4205 629.45C52.7405 626.79 48.9939 624.137 45.1805 621.49C39.8605 617.8 33.2605 612.08 26.6605 608.13C18.2605 603.097 9.75719 598.3 1.15052 593.74C1.10266 593.715 1.06302 593.677 1.0364 593.63C1.00978 593.583 0.997313 593.529 1.00048 593.475C1.00365 593.422 1.02233 593.37 1.05427 593.326C1.08621 593.283 1.13006 593.249 1.18052 593.23C18.5005 586.803 35.8539 580.317 53.2405 573.77C57.2939 572.25 61.2072 570.42 64.9805 568.28C73.6739 563.367 82.5172 558.363 91.5105 553.27C91.6133 553.214 91.7284 553.183 91.8456 553.182C91.9628 553.18 92.0787 553.207 92.1832 553.26C92.2876 553.313 92.3775 553.391 92.445 553.487C92.5126 553.583 92.5556 553.694 92.5705 553.81C93.1838 558.83 95.0672 563.44 98.2205 567.64Z" fill="#FCF7F4"/>
<path d="M756.86 415.361C792.86 436.854 828.85 458.494 864.83 480.281C870.07 483.461 873.983 486.218 876.57 488.551C888.89 499.681 896.7 517.971 901.35 533.881C903.77 542.174 905.56 549.068 906.72 554.561C909.627 568.374 911.84 582.298 913.36 596.331C914.49 606.711 915.99 617.071 915.57 627.891C915.997 630.218 915.393 631.518 913.76 631.791C908.247 620.511 901.497 610.111 893.51 600.591C877.483 581.471 856.897 572.714 831.75 574.321C817.863 575.934 804.66 579.654 792.14 585.481C775.69 593.141 759.7 603.441 745.92 615.491C745.689 615.69 745.403 615.813 745.1 615.844C744.798 615.874 744.494 615.81 744.23 615.661C705.82 593.721 668.63 572.881 628.77 549.461C626.57 548.171 625.38 546.021 622.71 546.381L563.18 512.411C563.111 512.372 563.052 512.318 563.009 512.251C562.966 512.184 562.94 512.108 562.933 512.028C562.927 511.949 562.939 511.868 562.97 511.794C563.001 511.72 563.049 511.653 563.11 511.601C596.94 482.891 651.02 455.841 694.03 480.511C707.323 488.138 720.7 495.724 734.16 503.271C734.203 503.293 734.251 503.304 734.299 503.303C734.347 503.301 734.394 503.287 734.436 503.262C734.477 503.237 734.511 503.201 734.535 503.159C734.558 503.117 734.57 503.069 734.57 503.021C734.457 487.534 733.217 471.611 730.85 455.251C736.07 458.031 741.163 460.788 746.13 463.521C753.93 467.811 765.04 474.951 774.9 480.061C778.39 481.861 781.47 484.261 785.04 486.121C795.68 491.651 807.14 498.731 816.23 504.001C821.183 506.874 827.407 510.571 834.9 515.091C841.527 519.091 858.177 528.591 884.85 543.591C890.983 547.038 897.07 550.848 903.11 555.021C904.157 555.748 904.73 555.478 904.83 554.211C904.83 554.178 904.747 553.784 904.58 553.031C900.76 535.921 895.97 519.671 886.97 504.471C874.33 483.151 855.25 472.561 830.57 482.441C830.418 482.503 830.253 482.529 830.088 482.517C829.923 482.505 829.763 482.455 829.62 482.371C828.04 481.461 826.36 479.931 825.17 479.241C794.177 461.088 763.193 442.921 732.22 424.741C732.167 424.708 729.92 423.271 725.48 420.431C722.98 418.824 720.373 417.454 717.66 416.321L647.34 374.821C647.027 374.634 646.993 374.404 647.24 374.131C651.1 369.831 655.193 366.944 659.52 365.471C666.95 362.921 672.22 366.161 679.96 370.501C705.547 384.854 731.18 399.808 756.86 415.361Z" fill="#FCF7F4"/>
<path d="M717.66 416.32C720.373 417.454 722.98 418.824 725.48 420.43C729.92 423.27 732.167 424.707 732.22 424.74C763.193 442.92 794.177 461.087 825.17 479.24C826.36 479.93 828.04 481.46 829.62 482.37C829.763 482.454 829.923 482.504 830.088 482.516C830.253 482.528 830.418 482.502 830.57 482.44C855.25 472.56 874.33 483.15 886.97 504.47C895.97 519.67 900.76 535.92 904.58 553.03C904.747 553.784 904.83 554.177 904.83 554.21C904.73 555.477 904.157 555.747 903.11 555.02C897.07 550.847 890.983 547.037 884.85 543.59C858.177 528.59 841.527 519.09 834.9 515.09C827.407 510.57 821.183 506.874 816.23 504C807.14 498.73 795.68 491.65 785.04 486.12C781.47 484.26 778.39 481.86 774.9 480.06C765.04 474.95 753.93 467.81 746.13 463.52C741.164 460.787 736.07 458.03 730.85 455.25C729.497 446.457 727.17 437.467 723.87 428.28C722.404 424.2 720.333 420.214 717.66 416.32Z" fill="#E7E4DB"/>
<path d="M1024.14 428.281L1049.7 442.271L1035.77 449.791C1025.59 455.677 1015.54 462.641 1005.61 470.681C989.257 483.447 974.8 498.787 962.24 516.701C954.574 527.634 947.904 538.837 942.23 550.311C940.524 553.764 938.384 558.647 935.81 564.961C933.79 569.901 931.74 574.827 929.66 579.741C929.374 580.421 929.364 581.064 929.63 581.671C929.784 582.011 929.947 582.014 930.12 581.681C933.067 576.021 937.244 570.341 942.65 564.641C946.404 560.687 950.13 557.271 953.83 554.391C956.81 552.071 961.094 549.434 966.68 546.481C981.914 538.441 995.444 532.201 1007.27 527.761C1013.63 525.374 1019.97 522.934 1026.29 520.441C1032.61 517.941 1039.74 515.751 1046.42 513.191C1052.19 510.984 1058.09 508.804 1064.14 506.651C1076.85 502.291 1089.67 497.934 1102.62 493.581C1103.27 493.367 1104.2 493.201 1105.4 493.081C1106.99 492.927 1107.85 492.421 1107.98 491.561L1113.55 500.741L1120.36 512.531C1120.55 512.857 1120.48 513.117 1120.15 513.311C1059.08 548.984 997.997 584.631 936.89 620.251C931.8 623.211 925.92 626.151 920.49 629.291C920.177 629.471 920 629.377 919.96 629.011C919.88 628.244 919.674 627.761 919.34 627.561C919.114 621.001 919.204 616.854 919.61 615.121C922.244 604.041 924.2 594.584 925.48 586.751C926.26 581.961 928.34 577.001 929.22 573.681C932.047 562.961 933.924 556.154 934.85 553.261C938.524 541.721 944.394 527.791 952.46 511.471C962.867 490.437 976.85 470.367 994.41 451.261C1001.16 443.911 1009.51 436.791 1017.24 429.731C1019.42 427.744 1021.72 427.261 1024.14 428.281Z" fill="#E2D8D1"/>
<path d="M1035.77 449.789L1107.98 491.559C1107.85 492.419 1106.99 492.926 1105.4 493.079C1104.2 493.199 1103.27 493.366 1102.62 493.579C1089.67 497.932 1076.85 502.289 1064.14 506.649L1005.61 470.679C1015.54 462.639 1025.59 455.676 1035.77 449.789Z" fill="#FCF7F4"/>
<path d="M1005.61 470.68L1064.14 506.65C1058.09 508.803 1052.19 510.983 1046.42 513.19C1039.74 515.75 1032.61 517.94 1026.29 520.44C1019.97 522.933 1013.63 525.373 1007.27 527.76C995.444 532.2 981.914 538.44 966.68 546.48C961.094 549.433 956.81 552.07 953.83 554.39C950.13 557.27 946.404 560.686 942.65 564.64C937.244 570.34 933.067 576.02 930.12 581.68C929.947 582.013 929.784 582.01 929.63 581.67C929.364 581.063 929.374 580.42 929.66 579.74C931.74 574.826 933.79 569.9 935.81 564.96C938.384 558.646 940.524 553.763 942.23 550.31C947.904 538.836 954.574 527.633 962.24 516.7C974.8 498.786 989.257 483.446 1005.61 470.68Z" fill="#E7E4DB"/>
<path d="M1113.55 500.74L1135.2 513.32C1043.41 566.36 980.33 602.747 945.97 622.48C943.31 624.01 941.55 624.8 939.63 627.21C930.87 638.2 918.96 648.43 905.28 652.73C902.11 653.73 898.79 653.81 895.44 653.94C893.07 654.04 891.51 656.09 889.71 657.14C828.824 692.334 767.91 727.467 706.97 762.54C706.844 762.613 706.734 762.712 706.648 762.831C706.562 762.95 706.502 763.086 706.47 763.23C706.03 765.204 706.28 766.267 707.22 766.42C706.774 766.747 706.38 766.814 706.04 766.62C642.247 729.9 578.48 693.137 514.74 656.33C513.82 655.797 512.92 655.24 512.04 654.66C511.767 654.48 511.59 654.237 511.51 653.93C511.097 652.39 511.49 651.157 512.69 650.23C515.484 648.07 518.57 646.507 521.95 645.54L521.9 647.97C521.894 648.277 522.024 648.51 522.29 648.67L705.55 756.8C705.794 756.941 706.084 756.984 706.36 756.92C706.774 756.82 707.014 756.71 707.08 756.59C766.854 723.01 826.524 689.52 886.09 656.12C888.61 654.707 890.667 653.344 892.26 652.03C899.46 646.13 906.627 639.384 913.76 631.79C915.394 631.517 915.997 630.217 915.57 627.89L917.85 629.15C918.177 629.33 918.43 629.257 918.61 628.93L919.34 627.56C919.674 627.76 919.88 628.244 919.96 629.01C920 629.377 920.177 629.47 920.49 629.29C925.92 626.15 931.8 623.21 936.89 620.25C997.997 584.63 1059.08 548.984 1120.15 513.31C1120.48 513.117 1120.55 512.857 1120.36 512.53L1113.55 500.74Z" fill="#02979F"/>
<path d="M1135.2 513.32C1135.91 515.167 1135.74 516.594 1134.67 517.6C1134.6 517.667 1133.51 518.307 1131.41 519.52C1069.94 555.014 1008.45 590.48 946.95 625.92C945.97 626.48 944.9 627.51 943.77 628.19C943.698 628.237 943.633 628.298 943.58 628.37C933.98 641.69 921.797 651.07 907.03 656.51C904.297 657.517 900.96 657.864 897.02 657.55C896.647 657.517 895.867 657.844 894.68 658.53C832.194 694.444 769.707 730.407 707.22 766.42C706.28 766.267 706.03 765.204 706.47 763.23C706.501 763.086 706.562 762.95 706.648 762.831C706.734 762.712 706.844 762.613 706.97 762.54C767.91 727.467 828.824 692.334 889.71 657.14C891.51 656.09 893.07 654.04 895.44 653.94C898.79 653.81 902.11 653.73 905.28 652.73C918.96 648.43 930.87 638.2 939.63 627.21C941.55 624.8 943.31 624.01 945.97 622.48C980.33 602.747 1043.41 566.36 1135.2 513.32Z" fill="#044142"/>
<path d="M622.709 546.38C625.379 546.02 626.569 548.17 628.769 549.46C668.629 572.88 705.819 593.72 744.229 615.66C744.493 615.809 744.797 615.873 745.099 615.843C745.402 615.812 745.688 615.689 745.919 615.49C759.699 603.44 775.689 593.14 792.139 585.48C804.659 579.653 817.863 575.933 831.749 574.32C831.069 574.427 830.636 574.607 830.449 574.86C830.236 575.153 830.286 575.39 830.599 575.57L890.259 609.73C890.352 609.781 890.426 609.862 890.468 609.96C890.51 610.057 890.518 610.166 890.492 610.269C890.466 610.372 890.406 610.463 890.322 610.528C890.239 610.594 890.136 610.629 890.029 610.63C887.869 610.63 885.919 609.4 883.969 609.16C876.649 608.24 871.409 607.887 868.249 608.1C863.096 608.447 856.263 610.01 847.749 612.79C843.309 614.243 835.956 617.637 825.689 622.97C814.556 628.743 801.229 637.323 785.709 648.71C780.463 652.557 770.596 660.84 756.109 673.56C749.389 668.86 743.279 663.753 737.779 658.24C736.389 656.85 734.449 655.63 732.989 654.05C732.763 653.803 732.489 653.643 732.169 653.57C731.329 653.377 730.743 652.86 730.409 652.02C730.298 651.724 730.116 651.46 729.879 651.25C727.066 648.723 724.143 646.337 721.109 644.09C719.579 642.96 718.099 641.23 716.249 640.14C714.083 638.853 712.776 638.033 712.329 637.68C709.509 635.427 706.743 633.103 704.029 630.71C703.589 630.317 703.339 629.907 703.279 629.48C703.233 629.16 703.049 628.977 702.729 628.93C700.876 628.65 699.546 627.677 698.739 626.01C698.615 625.754 698.425 625.537 698.189 625.38C696.803 624.467 695.353 623.27 693.839 621.79C690.673 618.677 686.973 615.917 682.739 613.51C682.019 613.103 681.273 612.323 680.499 611.17C680.326 610.91 680.099 610.703 679.819 610.55C677.993 609.577 675.516 607.847 672.389 605.36C665.856 600.18 660.709 595.747 656.949 592.06C656.916 592.027 656.216 591.227 654.849 589.66C654.043 588.74 653.026 587.833 651.799 586.94C646.979 583.427 642.263 579.397 637.649 574.85C631.489 568.77 627.653 565.113 626.139 563.88C621.926 560.447 617.473 557.297 612.779 554.43L623.599 547.95C623.906 547.763 623.969 547.513 623.789 547.2C623.603 546.88 623.243 546.607 622.709 546.38Z" fill="#E7E4DB"/>
<path d="M612.78 554.43C617.473 557.296 621.927 560.446 626.14 563.88C627.653 565.113 631.49 568.77 637.65 574.85C642.263 579.396 646.98 583.426 651.8 586.94C653.027 587.833 654.043 588.74 654.85 589.66C656.217 591.226 656.917 592.026 656.95 592.06C660.71 595.746 665.857 600.18 672.39 605.36C675.517 607.846 677.993 609.576 679.82 610.55C680.1 610.703 680.327 610.91 680.5 611.17C681.273 612.323 682.02 613.103 682.74 613.51C686.973 615.916 690.673 618.676 693.84 621.79C695.353 623.27 696.803 624.466 698.19 625.38C698.426 625.537 698.615 625.754 698.74 626.01C699.547 627.676 700.877 628.65 702.73 628.93C703.05 628.976 703.233 629.16 703.28 629.48C703.34 629.906 703.59 630.316 704.03 630.71C706.743 633.103 709.51 635.426 712.33 637.68C712.777 638.033 714.083 638.853 716.25 640.14C718.1 641.23 719.58 642.96 721.11 644.09C724.143 646.336 727.067 648.723 729.88 651.25C730.116 651.46 730.298 651.724 730.41 652.02C730.743 652.86 731.33 653.376 732.17 653.57C732.49 653.643 732.763 653.803 732.99 654.05C734.45 655.63 736.39 656.85 737.78 658.24C743.28 663.753 749.39 668.86 756.11 673.56C739.49 688.313 723.35 704.19 707.69 721.19C706.83 722.123 705.963 722.196 705.09 721.41C689.19 711.58 672.78 702.29 656.9 692.9C641.94 684.06 626.83 675.58 611.85 666.69C595.837 657.19 579.687 647.923 563.4 638.89C561.61 637.9 559.87 636.41 557.94 635.33C547.573 629.496 537.29 623.35 527.09 616.89C537.963 607.656 549.057 599.186 560.37 591.48C567.53 586.6 572.977 582.756 576.71 579.95C588.55 571.07 598.83 563.05 612.78 554.43Z" fill="#FCF7F4"/>
<path d="M831.751 574.32C856.897 572.713 877.484 581.47 893.511 600.59C901.497 610.11 908.247 620.51 913.761 631.79C906.627 639.383 899.461 646.13 892.261 652.03C890.667 653.343 888.611 654.706 886.091 656.12C826.524 689.52 766.854 723.01 707.081 756.59C706.321 754.35 706.191 751.69 706.691 748.61C706.72 748.448 706.696 748.282 706.622 748.136C706.548 747.989 706.428 747.871 706.281 747.8L689.571 739.5C689.297 739.366 689.277 739.2 689.511 739C689.664 738.86 689.831 738.826 690.011 738.9C695.357 741.106 700.554 743.186 705.601 745.14C705.754 745.199 705.921 745.213 706.082 745.183C706.243 745.152 706.393 745.076 706.513 744.965C706.634 744.854 706.721 744.711 706.765 744.553C706.809 744.394 706.807 744.227 706.761 744.07C705.001 738.14 706.941 733.67 705.891 727.42C705.831 727.08 705.867 726.75 706.001 726.43C706.794 724.596 706.314 723.18 704.561 722.18C704.174 721.96 704.187 721.766 704.601 721.6L705.091 721.41C705.964 722.196 706.831 722.123 707.691 721.19C723.351 704.19 739.491 688.313 756.111 673.56C770.597 660.84 780.464 652.556 785.711 648.71C801.231 637.323 814.557 628.743 825.691 622.97C835.957 617.636 843.311 614.243 847.751 612.79C856.264 610.01 863.097 608.446 868.251 608.1C871.411 607.886 876.651 608.24 883.971 609.16C885.921 609.4 887.871 610.63 890.031 610.63C890.137 610.629 890.24 610.593 890.324 610.528C890.408 610.463 890.467 610.371 890.493 610.268C890.52 610.166 890.511 610.057 890.469 609.959C890.427 609.862 890.354 609.781 890.261 609.73L830.601 575.57C830.287 575.39 830.237 575.153 830.451 574.86C830.637 574.606 831.071 574.426 831.751 574.32Z" fill="#E2D8D1"/>
<path d="M527.091 616.891C537.291 623.351 547.574 629.497 557.941 635.331C559.871 636.411 561.611 637.901 563.401 638.891C579.687 647.924 595.837 657.191 611.851 666.691C626.831 675.581 641.941 684.061 656.901 692.901C672.781 702.291 689.191 711.581 705.091 721.411L704.601 721.601C704.187 721.767 704.174 721.961 704.561 722.181C706.314 723.181 706.794 724.597 706.001 726.431C705.867 726.751 705.831 727.081 705.891 727.421C706.941 733.671 705.001 738.141 706.761 744.071C706.807 744.228 706.808 744.395 706.765 744.554C706.721 744.712 706.634 744.855 706.513 744.966C706.392 745.077 706.243 745.153 706.082 745.184C705.921 745.214 705.754 745.2 705.601 745.141C700.554 743.187 695.357 741.107 690.011 738.901C689.831 738.827 689.664 738.861 689.511 739.001C689.277 739.201 689.297 739.367 689.571 739.501L706.281 747.801C706.428 747.872 706.548 747.99 706.622 748.137C706.696 748.283 706.72 748.449 706.691 748.611C706.191 751.691 706.321 754.351 707.081 756.591C707.014 756.711 706.774 756.821 706.361 756.921C706.084 756.985 705.795 756.942 705.551 756.801L522.291 648.671C522.024 648.511 521.894 648.277 521.901 647.971L521.951 645.541C523.297 637.621 524.604 629.551 525.871 621.331C526.177 619.364 526.584 617.884 527.091 616.891ZM609.377 692.376C609.395 692.343 609.406 692.308 609.41 692.271C609.414 692.235 609.411 692.198 609.401 692.163C609.39 692.127 609.373 692.094 609.35 692.066C609.327 692.037 609.299 692.013 609.266 691.996L587.601 680.134C587.536 680.098 587.459 680.09 587.388 680.111C587.316 680.132 587.256 680.18 587.221 680.245L587.144 680.385C587.126 680.418 587.115 680.453 587.111 680.49C587.107 680.526 587.11 680.563 587.121 680.599C587.131 680.634 587.148 680.667 587.171 680.695C587.194 680.724 587.223 680.748 587.255 680.766L608.921 692.627C608.986 692.663 609.062 692.671 609.134 692.65C609.205 692.629 609.265 692.581 609.301 692.516L609.377 692.376ZM690.241 720.271C692.541 721.577 694.901 722.777 697.321 723.871C699.161 724.691 701.481 724.351 703.051 726.601C703.297 726.954 703.527 726.941 703.741 726.561C705.181 724.051 701.481 722.931 699.781 722.621C699.474 722.561 699.227 722.407 699.041 722.161C698.011 720.841 696.231 720.671 695.131 720.131C686.224 715.671 677.364 711.124 668.551 706.491C666.041 705.171 662.211 702.491 658.511 701.341C658.476 701.332 658.44 701.336 658.409 701.351C658.377 701.367 658.352 701.393 658.337 701.425C658.323 701.457 658.32 701.494 658.33 701.528C658.34 701.562 658.361 701.591 658.391 701.611C664.344 705.391 670.311 708.941 676.291 712.261C677.151 712.741 678.351 713.811 679.851 714.181C680.147 714.253 680.421 714.394 680.651 714.591C683.581 717.161 687.871 718.921 690.241 720.271ZM678.102 729.677C678.135 729.614 678.141 729.54 678.119 729.471C678.098 729.403 678.05 729.346 677.986 729.313L628.535 703.68C628.471 703.647 628.397 703.641 628.329 703.663C628.261 703.684 628.204 703.732 628.171 703.796L627.959 704.204C627.927 704.268 627.92 704.342 627.942 704.41C627.963 704.478 628.011 704.535 628.075 704.568L677.526 730.201C677.59 730.234 677.664 730.24 677.732 730.219C677.8 730.197 677.857 730.149 677.89 730.086L678.102 729.677Z" fill="#E7E4DB"/>
<path d="M609.267 691.996L587.601 680.134C587.465 680.06 587.295 680.11 587.221 680.246L587.144 680.386C587.07 680.522 587.12 680.692 587.255 680.766L608.921 692.628C609.056 692.702 609.227 692.652 609.301 692.516L609.378 692.376C609.452 692.24 609.402 692.07 609.267 691.996Z" fill="#E2D8D1"/>
<path d="M690.24 720.27C687.87 718.92 683.58 717.16 680.65 714.59C680.421 714.393 680.147 714.253 679.85 714.18C678.35 713.81 677.15 712.74 676.29 712.26C670.31 708.94 664.344 705.39 658.39 701.61C658.361 701.591 658.34 701.561 658.33 701.527C658.32 701.494 658.323 701.457 658.337 701.425C658.351 701.393 658.377 701.367 658.408 701.351C658.44 701.336 658.476 701.332 658.51 701.34C662.21 702.49 666.04 705.17 668.55 706.49C677.364 711.124 686.224 715.67 695.13 720.13C696.23 720.67 698.01 720.84 699.04 722.16C699.227 722.407 699.474 722.56 699.78 722.62C701.48 722.93 705.18 724.05 703.74 726.56C703.527 726.94 703.297 726.954 703.05 726.6C701.48 724.35 699.16 724.69 697.32 723.87C694.9 722.777 692.54 721.577 690.24 720.27Z" fill="#E2D8D1"/>
<path d="M677.986 729.312L628.535 703.679C628.402 703.61 628.239 703.662 628.171 703.794L627.959 704.203C627.89 704.335 627.942 704.498 628.074 704.567L677.526 730.2C677.658 730.269 677.821 730.217 677.89 730.084L678.101 729.676C678.17 729.544 678.118 729.381 677.986 729.312Z" fill="#E2D8D1"/>
<path d="M577.369 807.089C579.939 806.459 583.399 806.529 585.219 806.309C590.066 805.749 594.913 805.153 599.76 804.519C601.1 804.339 602.609 804.869 603.749 804.669C608.336 803.889 613.459 803.693 619.119 804.079C621.699 804.253 624.396 804.069 627.209 803.529C631.376 802.723 634.026 802.269 635.16 802.169C641.713 801.603 648.286 801.329 654.88 801.349C659.829 801.369 664.399 800.009 669.329 799.939C675.316 799.853 681.293 799.543 687.26 799.009C690.466 798.729 696.13 798.873 704.249 799.439C705.549 799.529 706.989 799.029 708.269 799.059C716.829 799.246 725.376 798.983 733.909 798.269C735.189 798.159 736.87 796.959 738.64 798.009C738.906 798.169 739.196 798.246 739.51 798.239C755.456 797.986 771.4 797.649 787.34 797.229C788.566 797.196 790.673 797.236 793.659 797.349C795.073 797.403 796.486 797.406 797.9 797.359C799.96 797.286 801.366 797.249 802.12 797.249C818.413 797.303 834.706 797.279 851 797.179C852.62 797.169 854.459 796.889 855.659 796.969C878.253 798.323 898.95 798.959 917.75 798.879C924.343 798.846 930.066 798.946 934.919 799.179C938.039 799.333 941.263 799.319 944.59 799.139C947.036 799.013 950.256 798.873 954.25 798.719C959.35 798.526 963.91 798.719 967.93 799.299C972.116 799.906 974.936 800.239 976.39 800.299C979.223 800.426 982.056 800.519 984.89 800.579C987.336 800.633 990.556 800.886 994.549 801.339C998.849 801.829 1004.1 801.869 1007.47 802.089C1017.79 802.749 1028.11 803.379 1038.44 803.979C1038.48 803.979 1038.51 803.999 1038.53 804.039C1038.59 804.126 1038.62 804.216 1038.62 804.309C1038.63 804.383 1038.67 804.423 1038.75 804.429C1044.77 804.703 1050.77 805.166 1056.76 805.819C1058.62 806.019 1062.46 806.336 1068.28 806.769C1070.85 806.956 1073.41 807.243 1075.96 807.629C1078.19 807.963 1080.74 808.246 1083.6 808.479C1089.93 809.009 1095.7 810.729 1102.17 811.539C1105.54 811.959 1108.84 812.726 1112.06 813.839C1112.75 814.079 1114.43 814.506 1117.09 815.119C1119.53 815.679 1124.1 818.019 1122.99 821.029C1122.65 821.963 1122.13 822.939 1121.43 823.959C1120.67 825.086 1119.52 825.736 1117.99 825.909C1116.78 826.043 1115.66 826.393 1114.64 826.959C1113.11 827.806 1112.08 828.296 1111.56 828.429C1108.16 829.339 1104.67 829.179 1101.51 829.889C1099.24 830.396 1096.97 830.876 1094.68 831.329C1092.69 831.716 1090.38 831.953 1087.75 832.039C1084.24 832.159 1080.73 832.429 1077.23 832.849C1074.52 833.176 1072.09 833.403 1069.95 833.529C1067.52 833.669 1065.1 833.843 1062.67 834.049C1061.3 834.169 1058.18 834.376 1053.32 834.669C1049.77 834.883 1046.66 835.279 1044 835.859C1039.39 836.859 1035.07 837.279 1031.05 837.119C1029.13 837.039 1027.26 837.076 1025.44 837.229C1023.57 837.396 1021.68 837.436 1019.79 837.349C1017.71 837.256 1015.7 837.369 1013.76 837.689C1011.94 837.996 1010.11 838.203 1008.26 838.309C1006.07 838.443 1004.24 838.583 1002.77 838.729C996.203 839.403 989.669 839.223 983.169 838.189C981.009 837.849 978.96 837.796 977.02 838.029C971.033 838.763 966.609 839.156 963.75 839.209C949.783 839.456 935.859 840.396 921.979 842.029C918.12 842.476 914.25 842.843 910.37 843.129C908.263 843.283 904.686 843.309 899.64 843.209C897.24 843.156 894.84 843.199 892.44 843.339C885.74 843.719 879.66 843.849 872.75 844.489C869.829 844.756 866.766 844.783 863.56 844.569C859.72 844.316 856.669 844.246 854.409 844.359C838.009 845.189 825.789 844.459 811.419 844.359C808.986 844.339 803.379 844.549 794.599 844.989C784.053 845.516 773.686 844.973 763.499 843.359C753.826 841.826 744.356 841.463 735.09 842.269C734.99 842.276 734.913 842.356 734.859 842.509C734.853 842.543 734.84 842.576 734.82 842.609C734.78 842.676 734.72 842.703 734.64 842.689C733.453 842.523 732.256 842.383 731.049 842.269C728.119 841.999 725.359 840.909 722.249 840.889C714.66 840.839 706.94 841.489 699.48 840.939C696.313 840.713 693.143 840.483 689.969 840.249C688.32 840.129 684.66 839.329 681.999 839.529C680.559 839.643 679.376 839.673 678.45 839.619C676.583 839.526 674.713 839.579 672.839 839.779C672.513 839.813 672.199 839.763 671.899 839.629C670.406 838.963 668.943 839.043 667.51 839.869C667.248 840.027 666.951 840.109 666.649 840.109C661.876 840.143 657.139 839.856 652.439 839.249C649.946 838.923 647.146 838.763 644.04 838.769C641.313 838.776 638.599 838.603 635.899 838.249C631.013 837.603 628.323 837.256 627.829 837.209C624.729 836.909 621.629 836.576 618.529 836.209C616.649 835.983 614.109 835.866 610.91 835.859C609.203 835.853 607.499 835.769 605.799 835.609C604.013 835.436 602.316 835.373 600.709 835.419C595.116 835.566 589.58 835.126 584.1 834.099C581.7 833.653 579.446 833.453 577.339 833.499C573.953 833.566 571.673 833.536 570.5 833.409C567.893 833.129 565.783 832.926 564.17 832.799C558.94 832.409 554.089 830.959 548.869 830.649C545.599 830.449 542.119 830.209 539.209 829.069C536.176 827.896 533.023 827.146 529.749 826.819C526.279 826.479 517.77 824.719 520.69 819.039C522.72 815.099 528.83 815.859 532.29 814.629C539.056 812.216 546.043 810.743 553.25 810.209C560.689 809.663 568.016 808.449 575.23 806.569C575.923 806.383 576.453 806.499 576.82 806.919C576.966 807.086 577.149 807.143 577.369 807.089Z" fill="none" stroke="none"/>
</svg>
