<svg viewBox="0 0 20 19" fill="currentColor" xmlns="http://www.w3.org/2000/svg">
  <path
    fillRule="evenodd"
    clipRule="evenodd"
    d="M9.51436 0.125843C9.81638 -0.0419476 10.1836 -0.0419476 10.4856 0.125843L19.4856 5.12584C19.8031 5.30221 20 5.63683 20 6C20 6.36317 19.8031 6.69779 19.4856 6.87416L17.3853 8.04103C18.0193 10.035 18.1672 12.1564 17.8105 14.2268C17.734 14.6708 17.37 15.0088 16.9216 15.0523C14.5974 15.2779 12.4061 16.2405 10.6676 17.7995C10.2877 18.1402 9.71225 18.1402 9.33235 17.7995C8.62304 17.1634 7.83835 16.6265 7 16.1986V17C7 17.5523 6.55228 18 6 18C5.44772 18 5 17.5523 5 17V15.4141C4.375 15.2374 3.7324 15.1158 3.0793 15.0523C2.63095 15.0088 2.26707 14.6708 2.19054 14.2269C1.83363 12.1566 1.98139 10.0353 2.6155 8.04146L0.514357 6.87416C0.196892 6.69779 0 6.36317 0 6C0 5.63683 0.196892 5.30221 0.514357 5.12584L9.51436 0.125843ZM4.40569 9.03601C4.03279 10.3765 3.9154 11.7766 4.06108 13.1628C4.37687 13.2132 4.69004 13.2751 5 13.3484V9.5C5 9.45646 5.00283 9.41332 5.00836 9.37083L4.40569 9.03601ZM7 10.4773V13.9965C8.07019 14.4423 9.07988 15.0314 10 15.7511C11.7282 14.3993 13.7723 13.5084 15.9398 13.1627C16.0854 11.7764 15.968 10.3763 15.5951 9.03574L10.4856 11.8742C10.1836 12.0419 9.81637 12.0419 9.51436 11.8742L7 10.4773ZM10 9.85603L16.9409 6L10 2.14396L3.05913 6L4.30538 6.69236C4.31252 6.69611 4.31962 6.69994 4.32668 6.70386L6.65024 7.99486L9.51439 6.40382C9.99719 6.13563 10.606 6.3096 10.8742 6.79239C11.1424 7.27519 10.9684 7.88399 10.4856 8.15218L8.70932 9.1389L10 9.85603Z"
  />
</svg>
