<svg width="24" height="24" viewBox="0 0 24 24" fill="none" xmlns="http://www.w3.org/2000/svg">
<path fill-rule="evenodd" clip-rule="evenodd" d="M11.5144 3.12584C11.8164 2.95805 12.1836 2.95805 12.4856 3.12584L21.4856 8.12584C21.8031 8.30221 22 8.63683 22 9C22 9.36317 21.8031 9.69779 21.4856 9.87416L19.3853 11.041C20.0193 13.035 20.1672 15.1564 19.8105 17.2268C19.734 17.6708 19.37 18.0088 18.9216 18.0523C16.5974 18.2779 14.4061 19.2405 12.6676 20.7995C12.2877 21.1402 11.7123 21.1402 11.3324 20.7995C10.623 20.1634 9.83835 19.6265 9 19.1986V20C9 20.5523 8.55228 21 8 21C7.44772 21 7 20.5523 7 20V18.4141C6.375 18.2374 5.7324 18.1158 5.0793 18.0523C4.63095 18.0088 4.26707 17.6708 4.19054 17.2269C3.83363 15.1566 3.98139 13.0353 4.6155 11.0415L2.51436 9.87416C2.19689 9.69779 2 9.36317 2 9C2 8.63683 2.19689 8.30221 2.51436 8.12584L11.5144 3.12584ZM6.40569 12.036C6.03279 13.3765 5.9154 14.7766 6.06108 16.1628C6.37687 16.2132 6.69004 16.2751 7 16.3484V12.5C7 12.4565 7.00283 12.4133 7.00836 12.3708L6.40569 12.036ZM9 13.4773V16.9965C10.0702 17.4423 11.0799 18.0314 12 18.7511C13.7282 17.3993 15.7723 16.5084 17.9398 16.1627C18.0854 14.7764 17.968 13.3763 17.5951 12.0357L12.4856 14.8742C12.1836 15.0419 11.8164 15.0419 11.5144 14.8742L9 13.4773ZM12 12.856L18.9409 9L12 5.14396L5.05913 9L6.30538 9.69236C6.31252 9.69611 6.31962 9.69994 6.32668 9.70386L8.65024 10.9949L11.5144 9.40382C11.9972 9.13563 12.606 9.3096 12.8742 9.79239C13.1424 10.2752 12.9684 10.884 12.4856 11.1522L10.7093 12.1389L12 12.856Z" fill="#AEAEAE"/>
</svg>
