<svg width="142" height="24" viewBox="0 0 142 24" fill="none" xmlns="http://www.w3.org/2000/svg">
<path fill-rule="evenodd" clip-rule="evenodd" d="M0.18457 1.27899V22.7225H9.25131C11.5348 22.7225 13.3289 22.1469 14.6338 20.9956C15.9578 19.8442 16.6198 18.2611 16.6198 16.2463C16.6198 15.4404 16.4759 14.6728 16.1881 13.9436C15.9194 13.2145 15.4781 12.562 14.8641 11.9864C14.5568 11.6887 14.2038 11.4174 13.8052 11.1726C14.2663 10.8143 14.6384 10.4043 14.9216 9.94276C15.4589 9.07927 15.7276 8.12942 15.7276 7.09322C15.7276 5.90351 15.4685 4.87691 14.9504 4.01341C14.4323 3.13072 13.6839 2.45911 12.7053 1.99858C11.7267 1.51885 10.5657 1.27899 9.22253 1.27899H0.18457ZM9.51036 19.7003H3.581V12.8211H9.51036C10.6425 12.8211 11.5444 13.1377 12.216 13.7709C12.8876 14.385 13.2234 15.2197 13.2234 16.2751C13.2234 17.3113 12.8876 18.146 12.216 18.7792C11.5444 19.3933 10.6425 19.7003 9.51036 19.7003ZM9.30888 9.82763H3.581V4.21489H9.30888C10.2299 4.21489 10.9687 4.45475 11.5252 4.93447C12.0817 5.41419 12.3599 6.0858 12.3599 6.9493C12.3599 7.8128 12.0817 8.51319 11.5252 9.05048C10.9687 9.56858 10.2299 9.82763 9.30888 9.82763ZM19.797 7.15079V22.7225H23.0495V7.15079H19.797ZM19.797 1.27899V5.02082H23.0495V1.27899H19.797ZM31.8606 22.3196C32.8584 22.8185 33.9618 23.0679 35.1707 23.0679C36.6674 23.0679 38.001 22.713 39.1715 22.003C40.3421 21.2738 41.2631 20.2952 41.9347 19.0671C42.6255 17.839 42.9709 16.4574 42.9709 14.9223C42.9709 13.3872 42.6255 12.0056 41.9347 10.7775C41.2631 9.54939 40.3325 8.58036 39.1428 7.87037C37.9722 7.16038 36.6482 6.80539 35.1707 6.80539C33.9426 6.80539 32.8488 7.05484 31.8894 7.55375C31.1936 7.91555 30.5987 8.37826 30.1048 8.94188V0.933594H26.8523V22.7225H29.9609V20.7327C30.4576 21.3982 31.0908 21.9272 31.8606 22.3196ZM37.3006 19.3837C36.5906 19.825 35.7751 20.0457 34.854 20.0457C33.9522 20.0457 33.1366 19.825 32.4075 19.3837C31.6975 18.9423 31.1314 18.3379 30.7093 17.5703C30.3063 16.7836 30.1048 15.9009 30.1048 14.9223C30.1048 13.9436 30.3063 13.0706 30.7093 12.303C31.1314 11.5354 31.6975 10.931 32.4075 10.4896C33.1366 10.0483 33.9522 9.82763 34.854 9.82763C35.7751 9.82763 36.5906 10.0483 37.3006 10.4896C38.0106 10.931 38.5671 11.5354 38.9701 12.303C39.3922 13.0706 39.6033 13.9436 39.6033 14.9223C39.6033 15.9009 39.3922 16.7836 38.9701 17.5703C38.5671 18.3379 38.0106 18.9423 37.3006 19.3837ZM46.1348 0.933594V22.7225H49.3874V0.933594H46.1348ZM56.3563 22.003C57.5652 22.713 58.9468 23.0679 60.5011 23.0679C61.5565 23.0679 62.5255 22.9048 63.4082 22.5786C64.3101 22.2332 65.0776 21.7727 65.7109 21.197C66.3633 20.6022 66.843 19.9402 67.15 19.211L64.502 17.9157C64.1182 18.5873 63.5905 19.1342 62.9189 19.5564C62.2665 19.9785 61.4701 20.1896 60.5299 20.1896C59.6088 20.1896 58.7837 19.9689 58.0545 19.5276C57.3445 19.0863 56.788 18.4722 56.3851 17.6855C56.1212 17.1445 55.9707 16.5401 55.9336 15.8721H67.5242C67.5818 15.6419 67.6202 15.3924 67.6393 15.1238C67.6585 14.8551 67.6681 14.5961 67.6681 14.3466C67.6681 13.3296 67.4954 12.3702 67.15 11.4683C66.8238 10.5664 66.3441 9.77007 65.7109 9.07927C65.0776 8.36928 64.3005 7.8128 63.3794 7.40984C62.4584 7.00687 61.4126 6.80539 60.242 6.80539C58.7837 6.80539 57.4788 7.16038 56.3275 7.87037C55.1762 8.56117 54.2551 9.51102 53.5643 10.7199C52.8927 11.9288 52.5569 13.32 52.5569 14.8935C52.5569 16.4286 52.8927 17.8198 53.5643 19.0671C54.2359 20.2952 55.1666 21.2738 56.3563 22.003ZM56.015 13.2816C56.0886 12.8301 56.2119 12.4176 56.3851 12.0439C56.7497 11.238 57.2678 10.624 57.9394 10.2018C58.611 9.76047 59.3785 9.5398 60.242 9.5398C61.1055 9.5398 61.8539 9.76047 62.4871 10.2018C63.1396 10.624 63.6193 11.2092 63.9263 11.9576C64.1089 12.3659 64.2104 12.8072 64.2306 13.2816H56.015ZM69.2593 1.27899L76.8581 22.7225H80.6575L88.2563 1.27899H84.6008L78.7713 18.5233L72.9148 1.27899H69.2593ZM90.4622 7.15079V22.7225H93.7148V7.15079H90.4622ZM90.4622 1.27899V5.02082H93.7148V1.27899H90.4622ZM99.0718 21.8878C100.281 22.6746 101.682 23.0679 103.274 23.0679C104.426 23.0679 105.433 22.8761 106.296 22.4923C107.16 22.0893 107.832 21.5424 108.311 20.8516C108.81 20.1416 109.06 19.3261 109.06 18.4051C109.06 17.3305 108.714 16.4094 108.023 15.6419C107.333 14.8551 106.344 14.2794 105.059 13.9149L102.526 13.1665C102.2 13.0706 101.883 12.9554 101.576 12.8211C101.269 12.6676 101.019 12.4757 100.828 12.2454C100.636 11.996 100.54 11.689 100.54 11.3244C100.54 10.7871 100.751 10.3553 101.173 10.0291C101.595 9.68372 102.161 9.51102 102.871 9.51102C103.696 9.51102 104.435 9.73169 105.088 10.173C105.759 10.6144 106.248 11.2092 106.555 11.9576L109.06 10.7775C108.599 9.5302 107.812 8.56117 106.699 7.87037C105.586 7.16038 104.32 6.80539 102.9 6.80539C101.845 6.80539 100.895 6.99727 100.05 7.38105C99.2061 7.76483 98.5441 8.31171 98.0644 9.0217C97.5847 9.7125 97.3448 10.528 97.3448 11.4683C97.3448 12.5045 97.671 13.416 98.3235 14.2027C98.9951 14.9702 100.002 15.5459 101.346 15.9297L103.792 16.6205C104.118 16.6972 104.435 16.8124 104.742 16.9659C105.068 17.1194 105.337 17.3209 105.548 17.5703C105.759 17.8006 105.865 18.1076 105.865 18.4914C105.865 19.0863 105.625 19.5564 105.145 19.9018C104.665 20.2472 104.042 20.4199 103.274 20.4199C102.372 20.4199 101.547 20.1608 100.799 19.6427C100.07 19.1246 99.494 18.4242 99.0718 17.5416L96.5677 18.7217C97.0474 20.0457 97.8821 21.1011 99.0718 21.8878ZM141.815 18.6814L119.54 13.035H141.422V9.83682H119.541L141.815 4.19174L141.029 1.09161L116.243 7.37319L115.037 7.6789V8.92326V11.4359V13.9485V15.1928L116.243 15.4986L141.029 21.7815L141.815 18.6814Z" fill="url(#paint0_linear_5379_22318)"/>
<defs>
<linearGradient id="paint0_linear_5379_22318" x1="33.705" y1="0.885285" x2="47.1312" y2="-21.873" gradientUnits="userSpaceOnUse">
<stop stop-color="#9749FE"/>
<stop offset="1" stop-color="#5A2C98"/>
</linearGradient>
</defs>
</svg>
