<svg width="39" height="39" viewBox="0 0 39 39" fill="none" xmlns="http://www.w3.org/2000/svg" stroke="currentColor">
<path d="M19.1244 19.875L7 12.875C8.22876 10.7467 9.99609 8.9794 12.1244 7.75064C14.2526 6.52189 16.6668 5.875 19.1244 5.875C21.5819 5.875 23.9961 6.52189 26.1244 7.75064C28.2526 8.9794 30.02 10.7467 31.2487 12.875L19.1244 19.875Z" fill="currentColor" stroke="white"/>
<path d="M19.1242 19.875L31.2485 12.875C32.4773 15.0033 33.1242 17.4175 33.1242 19.875C33.1242 22.3325 32.4773 24.7467 31.2485 26.875C30.0198 29.0033 28.2525 30.7706 26.1242 31.9994C23.9959 33.2281 21.5817 33.875 19.1242 33.875L19.1242 19.875Z" fill="currentColor" stroke="white"/>
<path d="M19.1244 19.8747L19.1244 33.8747C16.6668 33.8747 14.2526 33.2278 12.1244 31.999C9.99609 30.7703 8.22876 29.0029 7 26.8747C5.77124 24.7464 5.12436 22.3322 5.12436 19.8747C5.12436 17.4172 5.77124 15.0029 7 12.8747L19.1244 19.8747Z" fill="currentColor" stroke="white"/>
</svg>
