<svg
      width="16"
      height="16"
      viewBox="0 0 25 25"
      fill="none"
      xmlns="http://www.w3.org/2000/svg"
    >
      <path
        d="M14.4707 22.9981H9.9309V24.7005H14.4707V22.9981ZM1.70244 14.7696V10.2298H7.31844e-07V14.7696H1.70244ZM22.6992 14.2735V14.7696H24.4016V14.2735H22.6992ZM15.4822 4.11362L19.9753 8.15737L21.1141 6.89195L16.6212 2.84821L15.4822 4.11362ZM24.4016 14.2735C24.4016 12.3573 24.4188 11.144 23.9353 10.0584L22.3802 10.751C22.6821 11.4289 22.6992 12.2069 22.6992 14.2735H24.4016ZM19.9753 8.15737C21.5114 9.53984 22.0783 10.0731 22.3802 10.751L23.9353 10.0584C23.4518 8.97272 22.5385 8.17384 21.1141 6.89195L19.9753 8.15737ZM9.96472 2.00133C11.76 2.00133 12.4375 2.01447 13.0413 2.24617L13.6512 0.656739C12.6844 0.285743 11.6311 0.298886 9.96472 0.298886V2.00133ZM16.6212 2.84821C15.3886 1.7389 14.6179 1.02769 13.6512 0.656739L13.0413 2.24617C13.6453 2.47793 14.1547 2.91878 15.4822 4.11362L16.6212 2.84821ZM9.9309 22.9981C7.76674 22.9981 6.22924 22.9963 5.06289 22.8394C3.92101 22.686 3.26314 22.398 2.78281 21.9177L1.579 23.1216C2.42837 23.9709 3.50538 24.3478 4.83604 24.5268C6.1422 24.7023 7.81486 24.7005 9.9309 24.7005V22.9981ZM7.31844e-07 14.7696C7.31844e-07 16.8856 -0.00180379 18.5583 0.173797 19.8645C0.352701 21.1951 0.729644 22.2722 1.579 23.1216L2.78281 21.9177C2.30248 21.4374 2.01458 20.7795 1.86106 19.6377C1.70425 18.4713 1.70244 16.9338 1.70244 14.7696H7.31844e-07ZM14.4707 24.7005C16.5868 24.7005 18.2595 24.7023 19.5656 24.5268C20.8962 24.3478 21.9733 23.9709 22.8227 23.1216L21.6188 21.9177C21.1385 22.398 20.4806 22.686 19.3388 22.8394C18.1724 22.9963 16.6349 22.9981 14.4707 22.9981V24.7005ZM22.6992 14.7696C22.6992 16.9338 22.6974 18.4713 22.5405 19.6377C22.3871 20.7795 22.0991 21.4374 21.6188 21.9177L22.8227 23.1216C23.672 22.2722 24.0489 21.1951 24.2279 19.8645C24.4035 18.5583 24.4016 16.8856 24.4016 14.7696H22.6992ZM1.70244 10.2298C1.70244 8.06562 1.70425 6.52812 1.86106 5.36177C2.01458 4.2199 2.30248 3.56202 2.78281 3.08169L1.579 1.87789C0.729644 2.72726 0.352701 3.80427 0.173797 5.13493C-0.00180379 6.44108 7.31844e-07 8.11374 7.31844e-07 10.2298H1.70244ZM9.96472 0.298886C7.83733 0.298886 6.1565 0.297092 4.845 0.472614C3.50966 0.651336 2.42903 1.02787 1.579 1.87789L2.78281 3.08169C3.26248 2.60204 3.92238 2.31372 5.07083 2.16002C6.24313 2.00312 7.78936 2.00133 9.96472 2.00133V0.298886Z"
        fill="currentColor"
      />
      <path
        opacity="0.5"
        d="M5.39258 15.3379H14.4723"
        stroke="currentColor"
        strokeWidth="1.70244"
        strokeLinecap="round"
      />
      <path
        opacity="0.5"
        d="M5.39258 19.3105H11.6349"
        stroke="currentColor"
        strokeWidth="1.70244"
        strokeLinecap="round"
      />
      <path
        opacity="0.5"
        d="M13.3359 1.7168V4.5542C13.3359 7.22932 13.3359 8.56688 14.167 9.39794C14.9981 10.229 16.3356 10.229 19.0107 10.229H23.5506"
        stroke="currentColor"
        strokeWidth="1.70244"
      />
    </svg>
