<svg
      viewBox="0 0 88 22"
      fill="none"
      xmlns="http://www.w3.org/2000/svg"
    >
      <g clipPath="url(#clip0_4146_342)">
        <path
          d="M9.62253 3.67629e-05C13.3687 -0.0103799 16.6185 2.19379 18.2242 5.42087C18.385 5.74379 18.1599 6.1292 17.8082 6.1292H14.3736C14.2831 6.1292 14.1967 6.08545 14.1364 6.01462C13.7606 5.56045 13.3225 5.16462 12.8341 4.83962C11.8332 4.17295 10.6294 3.81254 9.33915 3.8792C6.29037 4.03754 3.83043 6.6417 3.73598 9.8042C3.63147 13.2792 6.31649 16.1292 9.64463 16.1292C12.4402 16.1292 14.7815 14.1188 15.3985 11.4146C15.4146 11.3417 15.4769 11.2896 15.5493 11.2896H16.5059C16.6044 11.2896 16.6787 11.3834 16.6587 11.4813C15.9753 14.9646 12.9386 17.5625 9.34518 17.4105C5.64323 17.2542 2.63263 14.123 2.49194 10.2855C2.33719 6.05837 5.59901 2.5792 9.64463 2.5792C11.6162 2.5792 13.4009 3.40629 14.6971 4.7417C14.7554 4.80212 14.8338 4.83545 14.9162 4.83545H16.0959C16.2266 4.83545 16.2989 4.6792 16.2165 4.57087C14.6791 2.56879 12.3055 1.28545 9.64463 1.28545C5.00413 1.28545 1.24188 5.18545 1.24188 9.99587C1.24188 14.8063 5.00212 18.7063 9.64463 18.7063C13.8611 18.7063 17.352 15.4855 17.9549 11.2875C18.0072 10.9188 18.0393 10.5438 18.0454 10.1625C18.0454 10.073 17.975 9.99795 17.8886 9.99795H12.2895C12.203 9.99795 12.1347 9.92504 12.1347 9.83754V8.86879C12.1347 8.7792 12.2051 8.70837 12.2895 8.70837H18.791C19.0342 8.70837 19.2372 8.90212 19.2573 9.1542C19.2794 9.43337 19.2914 9.71462 19.2914 10C19.2914 15.523 14.9725 20 9.64463 20C4.37307 20 0.0862757 15.6146 -0.000143383 10.1709C-0.0885723 4.62712 4.27258 0.0146201 9.62253 3.67629e-05Z"
          fill="currentColor"
        />
        <path
          d="M31.9447 8.2979C31.6834 7.77707 31.3216 7.3854 30.8594 7.12082C30.3972 6.85623 29.8606 6.7229 29.2536 6.7229C28.5884 6.7229 27.9955 6.87915 27.473 7.18748C26.9525 7.4979 26.5445 7.93748 26.2511 8.50832C25.9576 9.07915 25.8089 9.73748 25.8089 10.4875C25.8089 11.2375 25.9556 11.9 26.2511 12.475C26.5445 13.05 26.9525 13.4916 27.473 13.8021C27.9935 14.1125 28.5864 14.2667 29.2536 14.2667C30.15 14.2667 30.8795 14.0062 31.4382 13.4875C31.9969 12.9666 32.3406 12.2625 32.4652 11.3729H28.6889V10.0083H34.2318V11.3437C34.1252 12.1542 33.8479 12.8979 33.3997 13.5792C32.9516 14.2583 32.3667 14.8021 31.6492 15.2062C30.9297 15.6104 30.1319 15.8146 29.2536 15.8146C28.309 15.8146 27.4448 15.5875 26.663 15.1312C25.8813 14.6771 25.2623 14.0437 24.804 13.2333C24.3458 12.4229 24.1167 11.5083 24.1167 10.4875C24.1167 9.46665 24.3458 8.55207 24.804 7.74165C25.2623 6.93123 25.8853 6.29998 26.6711 5.84373C27.4569 5.38957 28.3191 5.1604 29.2536 5.1604C30.3248 5.1604 31.2774 5.43332 32.1115 5.97707C32.9455 6.5229 33.5505 7.29373 33.9283 8.29373H31.9467L31.9447 8.2979Z"
          fill="currentColor"
        />
        <path
          d="M43.1006 12.2269H37.0091C37.0573 12.8873 37.2945 13.4165 37.7185 13.8165C38.1426 14.2165 38.6631 14.4165 39.2821 14.4165C40.1704 14.4165 40.7974 14.0311 41.1632 13.2623H42.9439C42.7027 14.0228 42.2666 14.6457 41.6335 15.129C41.0024 15.6144 40.2186 15.8561 39.2821 15.8561C38.5204 15.8561 37.8371 15.679 37.2342 15.3228C36.6312 14.9686 36.1589 14.4686 35.8153 13.8228C35.4736 13.1769 35.3008 12.4311 35.3008 11.5811C35.3008 10.7311 35.4676 9.98317 35.7992 9.33942C36.1328 8.69359 36.5991 8.19775 37.202 7.84775C37.8049 7.49775 38.4963 7.32275 39.2781 7.32275C40.0599 7.32275 40.701 7.49359 41.2898 7.83317C41.8787 8.17275 42.3369 8.64984 42.6645 9.2665C42.9921 9.88317 43.1569 10.5894 43.1569 11.3894C43.1569 11.6998 43.1368 11.979 43.0986 12.229L43.1006 12.2269ZM41.4365 10.8478C41.4265 10.2186 41.2094 9.71234 40.7854 9.33317C40.3613 8.954 39.8348 8.76234 39.2077 8.76234C38.639 8.76234 38.1506 8.94984 37.7466 9.32484C37.3427 9.69984 37.0995 10.2082 37.0231 10.8478H41.4365Z"
          fill="currentColor"
        />
        <path
          d="M44.9178 7.74165C45.376 6.93123 45.999 6.29998 46.7849 5.84373C47.5707 5.38957 48.4328 5.1604 49.3674 5.1604C50.4386 5.1604 51.3912 5.43332 52.2252 5.97707C53.0593 6.5229 53.6642 7.29373 54.0421 8.29373H52.0604C51.7992 7.74373 51.4374 7.33332 50.9752 7.06457C50.5129 6.79582 49.9763 6.6604 49.3694 6.6604C48.7042 6.6604 48.1113 6.81665 47.5888 7.12498C47.0682 7.4354 46.6603 7.87915 46.3668 8.4604C46.0734 9.03957 45.9247 9.71457 45.9247 10.4854C45.9247 11.2562 46.0714 11.9312 46.3668 12.5104C46.6603 13.0896 47.0682 13.5375 47.5888 13.8521C48.1093 14.1666 48.7022 14.325 49.3694 14.325C49.9763 14.325 50.5129 14.1896 50.9752 13.9208C51.4374 13.6521 51.7992 13.2417 52.0604 12.6917H54.0421C53.6662 13.6917 53.0613 14.4625 52.2252 15.0021C51.3912 15.5417 50.4386 15.8125 49.3674 15.8125C48.4228 15.8125 47.5586 15.5854 46.7768 15.1292C45.995 14.675 45.376 14.0417 44.9178 13.2312C44.4596 12.4208 44.2305 11.5062 44.2305 10.4854C44.2305 9.46457 44.4596 8.54998 44.9178 7.73957V7.74165Z"
          fill="currentColor"
        />
        <path
          d="M58.578 7.67484C58.9779 7.43942 59.4543 7.32275 60.0029 7.32275V9.09359H59.5829C58.9357 9.09359 58.4474 9.26442 58.1138 9.604C57.7801 9.94359 57.6153 10.5332 57.6153 11.3748V15.7248H55.9653V7.46025H57.6153V8.66025C57.8565 8.23942 58.1761 7.91234 58.578 7.67692V7.67484Z"
          fill="currentColor"
        />
        <path
          d="M61.472 9.34775C61.8057 8.70817 62.2579 8.21025 62.8326 7.85609C63.4074 7.50192 64.0405 7.32275 64.7359 7.32275C65.3629 7.32275 65.9096 7.44984 66.3778 7.70609C66.8461 7.96025 67.2199 8.279 67.4993 8.65817V7.45817H69.1634V15.7228H67.4993V14.4936C67.2199 14.8832 66.8381 15.2082 66.3557 15.4686C65.8734 15.729 65.3227 15.8582 64.7057 15.8582C64.0204 15.8582 63.3934 15.6748 62.8246 15.3103C62.2558 14.9457 61.8037 14.4353 61.472 13.7811C61.1384 13.1269 60.9736 12.3832 60.9736 11.554C60.9736 10.7248 61.1404 9.98942 61.472 9.34984V9.34775ZM67.1596 10.0978C66.9325 9.67692 66.6371 9.35817 66.2693 9.13734C65.9035 8.91859 65.5076 8.80817 65.0836 8.80817C64.6595 8.80817 64.2636 8.9165 63.8978 9.13109C63.53 9.34567 63.2346 9.66025 63.0075 10.0769C62.7804 10.4915 62.6678 10.9853 62.6678 11.554C62.6678 12.1228 62.7804 12.6248 63.0075 13.054C63.2346 13.4832 63.534 13.8123 63.9038 14.0373C64.2756 14.2623 64.6675 14.3748 65.0836 14.3748C65.4996 14.3748 65.9035 14.2644 66.2693 14.0457C66.6351 13.8269 66.9325 13.504 67.1596 13.079C67.3867 12.654 67.4993 12.1561 67.4993 11.5873C67.4993 11.0186 67.3867 10.5228 67.1596 10.1019V10.0978Z"
          fill="currentColor"
        />
        <path
          d="M74.676 8.85202H73.2008V15.7229H71.5368V8.85202H70.5962V7.45619H71.5368V6.87077C71.5368 5.92077 71.7799 5.2291 72.2683 4.79369C72.7547 4.35827 73.5204 4.1416 74.5614 4.1416V5.5666C74.059 5.5666 73.7073 5.66452 73.5043 5.85827C73.3013 6.0541 73.2008 6.3916 73.2008 6.87077V7.45619H74.676V8.85202Z"
          fill="currentColor"
        />
        <path
          d="M78.0603 8.8521V13.4271C78.0603 13.7375 78.1306 13.9604 78.2693 14.0938C78.41 14.2292 78.6471 14.2958 78.9847 14.2958H79.9977V15.7208H78.6953C77.9517 15.7208 77.383 15.5417 76.9871 15.1813C76.5911 14.8208 76.3942 14.2354 76.3942 13.4271V8.8521H75.4536V7.45627H76.3942V5.4021H78.0582V7.45627H79.9977V8.8521H78.0582H78.0603Z"
          fill="currentColor"
        />
      </g>
      <defs>
        <clipPath id="clip0_4146_342">
          <rect width="80" height="20" fill="currentColor" />
        </clipPath>
      </defs>
    </svg>
