<svg width="159" height="29" viewBox="0 0 159 29" fill="none" xmlns="http://www.w3.org/2000/svg">
<g clip-path="url(#clip0_318_332)">
<path d="M27.1401 16.4053C27.1523 15.857 27.1114 15.2601 27.0192 14.6822L26.9926 14.4959C26.9517 14.2059 26.9005 13.8482 26.8165 13.5815C26.7715 13.3529 26.577 13.1856 26.3518 13.1856C26.0917 13.1856 25.8808 13.4037 25.8808 13.6852C25.8931 13.9561 25.8726 14.3774 25.8522 14.6991C25.846 15.1775 25.7436 15.785 25.6781 16.183C24.9103 20.6283 21.3476 24.3517 17.013 25.2365C13.8189 25.8991 10.5244 25.0672 7.96914 22.9504C5.40769 20.8272 3.90686 17.6775 3.84953 14.3139C3.81473 9.39446 6.53792 5.27095 10.9565 3.55212C15.4282 1.81424 20.1683 3.06949 23.3235 6.82468C23.4791 7.01307 23.7371 7.05117 23.9398 6.91358C24.1404 6.77599 24.2101 6.51563 24.1015 6.29125C23.8087 5.69219 23.4177 5.08044 22.8628 4.36285C19.2837 -0.0824032 12.8668 -1.29321 7.61492 1.48402C3.03053 3.80402 -0.0284655 8.97957 0.000199749 14.3647C-0.00389529 18.5707 1.77335 22.5926 4.87329 25.3995C7.45112 27.7322 10.7251 29.0002 14.0626 29.0002C14.6502 29.0002 15.2399 28.9599 15.8275 28.8816C17.6703 28.6509 19.4946 27.9968 21.1019 26.9892C21.7285 26.6124 22.3714 26.1171 23.0675 25.4693L23.1945 25.3508C23.4381 25.1243 23.7412 24.8428 23.9357 24.5824C25.8296 22.4656 26.9885 19.6948 27.1175 16.9895L27.1421 16.6953V16.4074L27.1401 16.4053Z" fill="#231F20"/>
<path d="M36.8596 10.9586C35.1233 8.80374 31.9168 8.55184 29.3063 8.57089C23.563 8.81644 18.2456 10.73 13.9212 14.1084C12.7377 15.0906 11.4314 16.312 10.7046 17.9207L10.68 17.9779C10.6022 18.1536 10.6349 18.3589 10.7619 18.5029C10.8458 18.5981 10.9605 18.6532 11.0854 18.6574C11.2123 18.6637 11.3291 18.6172 11.4212 18.5304C11.8532 18.1218 12.3897 17.7281 13.1022 17.2984C17.101 15.044 21.9086 13.5136 27.398 12.7494C31.061 12.1652 34.0954 12.6013 34.3595 13.3802C34.4312 13.5919 34.4271 14.4217 31.3476 16.2442C30.2338 16.8899 28.9623 17.4974 27.4594 18.1007C27.2854 18.1705 27.1707 18.3399 27.1625 18.5304C27.1584 18.6595 27.2014 18.7823 27.2854 18.8754C27.3693 18.9707 27.486 19.0257 27.6089 19.0299C27.8177 19.0384 28.0286 19.0426 28.2375 19.0426C28.8558 19.0426 29.4701 19.0024 30.072 18.922C32.2281 18.6023 34.9308 17.9758 36.7162 15.9415C37.9366 14.5572 38 12.3663 36.8596 10.9565V10.9586Z" fill="#21A5AC"/>
<path d="M62.427 14.9509H65.6497V27.2389H62.6952V25.6068C60.9712 26.879 58.7885 27.5162 56.1472 27.5162C54.0198 27.5162 52.044 27.0293 50.2196 26.0577C48.3953 25.0861 46.9395 23.6679 45.8543 21.8051C44.7692 19.9423 44.2266 17.7387 44.2266 15.1922C44.2266 12.7854 44.7692 10.6327 45.8543 8.73603C46.9395 6.83939 48.4404 5.35129 50.3548 4.27596C52.2692 3.20063 54.4232 2.66296 56.8188 2.66296C58.6984 2.66296 60.4061 2.98048 61.9396 3.61764C63.4732 4.25479 64.7775 5.18618 65.8524 6.4118L63.7701 8.56457C61.8905 6.6891 59.6178 5.75348 56.9539 5.75348C55.1624 5.75348 53.5571 6.15778 52.1361 6.96851C50.7151 7.77924 49.6013 8.90114 48.7946 10.3363C47.9879 11.7715 47.5865 13.3908 47.5865 15.1965C47.5865 17.1185 47.994 18.7844 48.813 20.1963C49.63 21.6082 50.7111 22.6772 52.0542 23.4075C53.3974 24.1357 54.8532 24.5019 56.4195 24.5019C57.517 24.5019 58.5858 24.3114 59.6259 23.9282C60.6661 23.5472 61.6018 22.9862 62.429 22.2454V14.9552L62.427 14.9509Z" fill="#231F20"/>
<path d="M73.0045 25.973C72.0647 24.9909 71.5938 23.6065 71.5938 21.8241V1.48181H74.8165V21.5468C74.8165 22.5417 75.0459 23.3059 75.5045 23.8372C75.9632 24.3706 76.6511 24.6352 77.5705 24.6352C78.1294 24.6352 78.6556 24.5188 79.1491 24.2881L79.317 27.0314C78.5778 27.3087 77.8059 27.4485 76.9992 27.4485C75.2752 27.4485 73.9443 26.9574 73.0024 25.973H73.0045Z" fill="#231F20"/>
<path d="M84.8902 26.2334C83.4795 25.4226 82.3779 24.3071 81.5835 22.8825C80.7891 21.46 80.3918 19.8449 80.3918 18.0393C80.3918 16.2337 80.7891 14.6207 81.5835 13.1961C82.3779 11.7736 83.4816 10.6623 84.8902 9.86424C86.301 9.06621 87.8899 8.66614 89.6589 8.66614C91.428 8.66614 93.0107 9.06621 94.4112 9.86424C95.8097 10.6623 96.9071 11.7736 97.7016 13.1961C98.496 14.6185 98.8932 16.2337 98.8932 18.0393C98.8932 19.8449 98.496 21.4579 97.7016 22.8825C96.9071 24.305 95.8097 25.4226 94.4112 26.2334C93.0127 27.0441 91.428 27.4484 89.6589 27.4484C87.8899 27.4484 86.301 27.0441 84.8902 26.2334ZM92.7302 23.7165C93.6372 23.1725 94.3477 22.4104 94.8617 21.4261C95.3756 20.4418 95.6336 19.3136 95.6336 18.0414C95.6336 16.7692 95.3756 15.641 94.8617 14.6566C94.3457 13.6723 93.6352 12.9145 92.7302 12.3832C91.8231 11.8519 90.7994 11.5852 89.6569 11.5852C88.5143 11.5852 87.4906 11.8519 86.5835 12.3832C85.6765 12.9166 84.9599 13.6745 84.4336 14.6566C83.9074 15.641 83.6453 16.7692 83.6453 18.0414C83.6453 19.3136 83.9074 20.4418 84.4336 21.4261C84.9599 22.4104 85.6765 23.1746 86.5835 23.7165C87.4906 24.2605 88.5143 24.5336 89.6569 24.5336C90.7994 24.5336 91.8231 24.2605 92.7302 23.7165Z" fill="#231F20"/>
<path d="M110.277 18.6659L106.584 22.2073V27.241H103.361V1.48181H106.584V18.0055L116.289 8.83977H120.183L112.695 16.4433L120.922 27.2389H116.96L110.277 18.6638V18.6659Z" fill="#231F20"/>
<path d="M140.095 8.84183V27.241H137.006V24.324C136.289 25.3422 135.382 26.1169 134.287 26.6504C133.189 27.1838 131.981 27.4484 130.66 27.4484C128.936 27.4484 127.393 27.0547 126.027 26.2672C124.661 25.4819 123.592 24.3748 122.821 22.9523C122.049 21.5299 121.662 19.8915 121.662 18.0393C121.662 16.1871 122.049 14.555 122.821 13.1453C123.592 11.7334 124.661 10.6348 126.027 9.84731C127.393 9.06198 128.936 8.66614 130.66 8.66614C131.936 8.66614 133.111 8.91592 134.186 9.41336C135.261 9.91081 136.156 10.6453 136.873 11.6169V8.83971H140.095V8.84183ZM133.984 23.7165C134.901 23.1725 135.618 22.4104 136.133 21.4261C136.647 20.4418 136.905 19.3136 136.905 18.0414C136.905 16.7692 136.647 15.641 136.133 14.6566C135.618 13.6723 134.903 12.9145 133.984 12.3832C133.066 11.8519 132.047 11.5852 130.929 11.5852C129.811 11.5852 128.762 11.8519 127.855 12.3832C126.948 12.9166 126.232 13.6745 125.705 14.6566C125.179 15.641 124.917 16.7692 124.917 18.0414C124.917 19.3136 125.179 20.4418 125.705 21.4261C126.232 22.4104 126.948 23.1746 127.855 23.7165C128.762 24.2605 129.786 24.5336 130.929 24.5336C132.071 24.5336 133.066 24.2605 133.984 23.7165Z" fill="#231F20"/>
<path d="M147.112 26.841C145.769 26.4367 144.717 25.9202 143.955 25.2957L145.298 22.6582C146.082 23.2361 147.032 23.6996 148.152 24.0468C149.272 24.394 150.403 24.5675 151.543 24.5675C154.365 24.5675 155.773 23.7335 155.773 22.0676C155.773 21.513 155.583 21.0727 155.202 20.7488C154.821 20.425 154.346 20.1879 153.775 20.0376C153.204 19.8873 152.393 19.7201 151.34 19.5338C149.907 19.3031 148.738 19.0364 147.831 18.7358C146.924 18.4352 146.146 17.9251 145.497 17.2075C144.848 16.4899 144.522 15.4844 144.522 14.1868C144.522 12.5209 145.194 11.1831 146.537 10.1776C147.88 9.17001 149.682 8.66833 151.942 8.66833C153.128 8.66833 154.316 8.81863 155.501 9.11921C156.687 9.4198 157.661 9.82622 158.423 10.3342L157.047 12.9718C155.591 12.0002 153.879 11.5133 151.91 11.5133C150.544 11.5133 149.504 11.744 148.787 12.2076C148.071 12.6712 147.712 13.2829 147.712 14.0471C147.712 14.6504 147.913 15.1224 148.316 15.4696C148.72 15.8167 149.217 16.0707 149.811 16.2337C150.405 16.3967 151.238 16.5809 152.313 16.7883C153.746 17.0445 154.903 17.3154 155.788 17.6033C156.672 17.8933 157.428 18.3844 158.054 19.0787C158.681 19.773 158.994 20.7446 158.994 21.9956C158.994 23.6615 158.306 24.9867 156.928 25.971C155.552 26.9553 153.677 27.4464 151.304 27.4464C149.848 27.4464 148.449 27.2432 147.106 26.8388L147.112 26.841Z" fill="#231F20"/>
</g>
<defs>
<clipPath id="clip0_318_332">
<rect width="159" height="29" fill="white"/>
</clipPath>
</defs>
</svg>
