<svg width="126" height="24" viewBox="0 0 126 24" fill="none" xmlns="http://www.w3.org/2000/svg">
<path d="M21.5092 13.5111C21.5189 13.0763 21.4865 12.6028 21.4134 12.1445L21.3923 11.9968C21.3599 11.7668 21.3193 11.483 21.2528 11.2715C21.2171 11.0902 21.063 10.9576 20.8845 10.9576C20.6784 10.9576 20.5113 11.1305 20.5113 11.3538C20.521 11.5687 20.5048 11.9027 20.4886 12.1579C20.4837 12.5373 20.4026 13.0192 20.3507 13.3348C19.7422 16.8603 16.9189 19.8134 13.484 20.5152C10.9528 21.0406 8.34208 20.3808 6.31712 18.702C4.2873 17.0182 3.09796 14.52 3.05253 11.8524C3.02494 7.95078 5.18295 4.68041 8.68444 3.3172C12.2281 1.93888 15.9843 2.93443 18.4847 5.91267C18.608 6.06209 18.8125 6.09231 18.9731 5.98319C19.1321 5.87406 19.1873 5.66757 19.1013 5.48961C18.8693 5.0145 18.5593 4.52932 18.1196 3.96019C15.2834 0.434646 10.1983 -0.525646 6.03642 1.67698C2.4035 3.51698 -0.0206044 7.62173 0.00211142 11.8927C-0.00113371 15.2285 1.40725 18.4183 3.86381 20.6444C5.90661 22.4945 8.50109 23.5001 11.1459 23.5001C11.6115 23.5001 12.0788 23.4682 12.5445 23.4061C14.0048 23.2231 15.4505 22.7044 16.7242 21.9052C17.2207 21.6064 17.7302 21.2136 18.2819 20.6998L18.3825 20.6058C18.5756 20.4262 18.8157 20.2029 18.9699 19.9964C20.4707 18.3176 21.3891 16.12 21.4913 13.9744L21.5108 13.7411V13.5127L21.5092 13.5111Z" fill="#231F20"/>
<path d="M29.2118 9.19135C27.8359 7.48229 25.295 7.28251 23.2262 7.29762C18.6749 7.49237 14.4611 9.01003 11.0343 11.6894C10.0964 12.4684 9.06123 13.4371 8.48522 14.713L8.46575 14.7584C8.40409 14.8977 8.43005 15.0605 8.53065 15.1747C8.59717 15.2503 8.68804 15.2939 8.78701 15.2973C8.88761 15.3023 8.9801 15.2654 9.05311 15.1965C9.39547 14.8725 9.82059 14.5603 10.3852 14.2194C13.5541 12.4315 17.3639 11.2177 21.714 10.6116C24.6167 10.1483 27.0214 10.4941 27.2307 11.1119C27.2875 11.2798 27.2842 11.9379 24.8439 13.3834C23.9612 13.8954 22.9536 14.3773 21.7626 14.8557C21.6247 14.9111 21.5339 15.0454 21.5274 15.1965C21.5241 15.2989 21.5582 15.3963 21.6247 15.4702C21.6912 15.5457 21.7837 15.5894 21.8811 15.5927C22.0466 15.5994 22.2137 15.6028 22.3792 15.6028C22.8692 15.6028 23.356 15.5709 23.833 15.5071C25.5416 15.2536 27.6834 14.7567 29.0982 13.1433C30.0653 12.0454 30.1156 10.3078 29.2118 9.18967V9.19135Z" fill="#21A5AC"/>
<path d="M49.4728 12.3589H52.0267V22.1045H49.6853V20.8101C48.3191 21.8191 46.5895 22.3244 44.4964 22.3244C42.8105 22.3244 41.2447 21.9383 39.799 21.1677C38.3533 20.3972 37.1997 19.2723 36.3397 17.795C35.4798 16.3176 35.0498 14.5699 35.0498 12.5503C35.0498 10.6415 35.4798 8.93408 36.3397 7.42985C37.1997 5.92562 38.389 4.7454 39.9061 3.89255C41.4232 3.0397 43.1302 2.61328 45.0286 2.61328C46.5181 2.61328 47.8713 2.86511 49.0866 3.37043C50.3019 3.87576 51.3355 4.61445 52.1873 5.58649L50.5372 7.29387C49.0476 5.80642 47.2466 5.06438 45.1356 5.06438C43.7159 5.06438 42.4438 5.38503 41.3178 6.02803C40.1917 6.67102 39.309 7.5608 38.6697 8.69905C38.0304 9.8373 37.7124 11.1216 37.7124 12.5536C37.7124 14.078 38.0353 15.3993 38.6843 16.519C39.3317 17.6388 40.1885 18.4866 41.2529 19.0658C42.3173 19.6434 43.4709 19.9338 44.7122 19.9338C45.5818 19.9338 46.4288 19.7827 47.2531 19.4788C48.0773 19.1766 48.8189 18.7317 49.4744 18.1442V12.3623L49.4728 12.3589Z" fill="#231F20"/>
<path d="M57.8552 21.0999C57.1105 20.3209 56.7373 19.2229 56.7373 17.8094V1.67578H59.2912V17.5894C59.2912 18.3785 59.4729 18.9845 59.8364 19.4059C60.1999 19.829 60.745 20.0388 61.4736 20.0388C61.9165 20.0388 62.3335 19.9465 62.7246 19.7635L62.8576 21.9393C62.2719 22.1592 61.6602 22.27 61.0209 22.27C59.6547 22.27 58.6 21.8805 57.8536 21.0999H57.8552Z" fill="#231F20"/>
<path d="M67.2738 21.3057C66.1558 20.6627 65.2829 19.7779 64.6533 18.6481C64.0238 17.5199 63.709 16.239 63.709 14.8069C63.709 13.3749 64.0238 12.0956 64.6533 10.9657C65.2829 9.83757 66.1574 8.95619 67.2738 8.32327C68.3917 7.69035 69.6508 7.37305 71.0527 7.37305C72.4546 7.37305 73.7088 7.69035 74.8187 8.32327C75.9269 8.95619 76.7966 9.83757 77.4261 10.9657C78.0557 12.0939 78.3704 13.3749 78.3704 14.8069C78.3704 16.239 78.0557 17.5182 77.4261 18.6481C76.7966 19.7763 75.9269 20.6627 74.8187 21.3057C73.7105 21.9487 72.4546 22.2693 71.0527 22.2693C69.6508 22.2693 68.3917 21.9487 67.2738 21.3057ZM73.4865 19.3095C74.2053 18.8781 74.7684 18.2737 75.1756 17.493C75.5829 16.7124 75.7873 15.8176 75.7873 14.8086C75.7873 13.7996 75.5829 12.9048 75.1756 12.1241C74.7667 11.3435 74.2037 10.7425 73.4865 10.3211C72.7677 9.89969 71.9565 9.68816 71.0511 9.68816C70.1457 9.68816 69.3344 9.89969 68.6156 10.3211C67.8968 10.7441 67.3289 11.3452 66.9119 12.1241C66.4949 12.9048 66.2872 13.7996 66.2872 14.8086C66.2872 15.8176 66.4949 16.7124 66.9119 17.493C67.3289 18.2737 67.8968 18.8798 68.6156 19.3095C69.3344 19.741 70.1457 19.9576 71.0511 19.9576C71.9565 19.9576 72.7677 19.741 73.4865 19.3095Z" fill="#231F20"/>
<path d="M87.3921 15.3045L84.465 18.1132V22.1055H81.9111V1.67578H84.465V14.7807L92.156 7.5114H95.2421L89.3084 13.5418L95.8278 22.1038H92.6882L87.3921 15.3029V15.3045Z" fill="#231F20"/>
<path d="M111.021 7.51239V22.1048H108.573V19.7914C108.005 20.5989 107.286 21.2133 106.418 21.6364C105.548 22.0595 104.591 22.2693 103.544 22.2693C102.178 22.2693 100.955 21.9571 99.8724 21.3325C98.7901 20.7097 97.9432 19.8317 97.3315 18.7035C96.7197 17.5753 96.4131 16.2759 96.4131 14.8069C96.4131 13.3379 96.7197 12.0436 97.3315 10.9255C97.9432 9.80567 98.7901 8.93436 99.8724 8.30984C100.955 7.68699 102.178 7.37305 103.544 7.37305C104.555 7.37305 105.486 7.57115 106.338 7.96567C107.19 8.3602 107.899 8.94276 108.467 9.71334V7.51071H111.021V7.51239ZM106.178 19.3095C106.905 18.8781 107.472 18.2737 107.881 17.493C108.289 16.7124 108.493 15.8176 108.493 14.8086C108.493 13.7996 108.289 12.9048 107.881 12.1241C107.472 11.3435 106.906 10.7425 106.178 10.3211C105.451 9.89969 104.643 9.68816 103.757 9.68816C102.871 9.68816 102.04 9.89969 101.321 10.3211C100.603 10.7441 100.035 11.3452 99.6176 12.1241C99.2006 12.9048 98.993 13.7996 98.993 14.8086C98.993 15.8176 99.2006 16.7124 99.6176 17.493C100.035 18.2737 100.603 18.8798 101.321 19.3095C102.04 19.741 102.851 19.9576 103.757 19.9576C104.662 19.9576 105.451 19.741 106.178 19.3095Z" fill="#231F20"/>
<path d="M116.582 21.7878C115.518 21.4671 114.684 21.0575 114.08 20.5622L115.144 18.4704C115.766 18.9287 116.519 19.2964 117.406 19.5717C118.294 19.847 119.19 19.9847 120.093 19.9847C122.329 19.9847 123.445 19.3232 123.445 18.002C123.445 17.5622 123.295 17.213 122.993 16.9561C122.691 16.6992 122.315 16.5112 121.862 16.392C121.409 16.2728 120.767 16.1402 119.933 15.9924C118.797 15.8095 117.87 15.5979 117.152 15.3595C116.433 15.1211 115.816 14.7165 115.302 14.1474C114.788 13.5783 114.53 12.7808 114.53 11.7517C114.53 10.4305 115.062 9.36945 116.126 8.57201C117.191 7.77288 118.618 7.375 120.41 7.375C121.349 7.375 122.29 7.4942 123.23 7.73259C124.169 7.97099 124.941 8.29332 125.545 8.69624L124.455 10.7881C123.301 10.0175 121.945 9.63135 120.384 9.63135C119.301 9.63135 118.477 9.81434 117.909 10.182C117.341 10.5497 117.057 11.0349 117.057 11.6409C117.057 12.1194 117.216 12.4938 117.536 12.7691C117.856 13.0444 118.25 13.2459 118.721 13.3751C119.191 13.5044 119.852 13.6505 120.703 13.815C121.839 14.0181 122.756 14.233 123.457 14.4614C124.158 14.6914 124.757 15.0808 125.253 15.6315C125.75 16.1822 125.998 16.9527 125.998 17.9449C125.998 19.2662 125.453 20.3171 124.361 21.0978C123.27 21.8784 121.784 22.2679 119.903 22.2679C118.75 22.2679 117.642 22.1068 116.577 21.7861L116.582 21.7878Z" fill="#231F20"/>
</svg>
