<svg viewBox="0 0 70 31" fill="none" xmlns="http://www.w3.org/2000/svg">
<path d="M49.0277 5.8237H43.5654V0.313599H40.7626V13.9135H43.5654V8.08459H49.0277V13.9135H51.8306V0.313599H49.0277V5.8237Z" fill="currentColor"/>
<path d="M57.2583 0.313599H54.4554V13.9135H57.2583V0.313599Z" fill="currentColor"/>
<path d="M65.1409 5.89C64.4488 5.70446 63.7867 5.42086 63.1749 5.04781C62.9765 4.93674 62.8105 4.77594 62.6931 4.58122C62.5757 4.38651 62.511 4.16459 62.5054 3.93729C62.5005 3.7144 62.55 3.49368 62.6495 3.29418C62.749 3.09468 62.8956 2.92241 63.0766 2.79223C63.5462 2.47725 64.1062 2.32511 64.6706 2.35918C65.2683 2.32537 65.8572 2.51473 66.3231 2.89053C66.523 3.07393 66.6796 3.29946 66.7816 3.55079C66.8836 3.80212 66.9284 4.07298 66.9129 4.34377H69.7131C69.7251 3.56858 69.5059 2.80739 69.0835 2.15727C68.647 1.50268 68.0333 0.98575 67.3141 0.666833C66.498 0.302592 65.6121 0.121239 64.7185 0.135483C63.8245 0.122345 62.9369 0.286692 62.1069 0.61901C61.3974 0.893339 60.7789 1.36087 60.3215 1.96864C59.9107 2.54114 59.6938 3.23005 59.7025 3.93464C59.7025 5.35068 60.473 6.47183 62.0192 7.3087C62.7596 7.6839 63.5312 7.99414 64.3253 8.23591C65.039 8.43158 65.7188 8.73435 66.3417 9.1339C66.5275 9.27605 66.6757 9.46148 66.7734 9.67402C66.8711 9.88656 66.9154 10.1198 66.9023 10.3533C66.9106 10.5741 66.8637 10.7935 66.7658 10.9916C66.6679 11.1897 66.5221 11.3602 66.3417 11.4878C65.8778 11.7845 65.3319 11.9267 64.7822 11.8943C62.9898 11.8943 62.0936 11.1433 62.0936 9.64133H59.2854C59.2678 10.4644 59.5034 11.2731 59.9602 11.958C60.4529 12.659 61.1347 13.2054 61.9262 13.5335C62.8279 13.9246 63.8022 14.1202 64.7849 14.1073C66.2921 14.1073 67.4912 13.7726 68.3821 13.1031C68.8132 12.7856 69.1598 12.3672 69.3914 11.8845C69.623 11.4018 69.7326 10.8697 69.7105 10.3347C69.7233 9.84031 69.6328 9.34864 69.4448 8.89117C69.2568 8.4337 68.9754 8.0205 68.6186 7.678C67.8942 6.96422 66.7349 6.36821 65.1409 5.89Z" fill="currentColor"/>
<path d="M13.6343 20.1859C14.0966 19.5164 14.798 19.1816 15.7305 19.1816C16.5913 19.1816 17.2289 19.3809 17.6513 19.7741C18.0738 20.1673 18.3155 20.8076 18.3846 21.6843H21.1981C21.0493 20.1664 20.495 18.9868 19.535 18.1455C18.575 17.3042 17.3113 16.8836 15.7438 16.8836C14.6938 16.8609 13.6591 17.1373 12.7603 17.6806C11.8881 18.2314 11.2 19.0296 10.7836 19.9734C10.3052 21.0607 10.0695 22.2394 10.0929 23.4271V24.2587C10.0929 26.3062 10.5924 27.917 11.5913 29.0913C12.5902 30.2656 13.962 30.8527 15.7066 30.8527C17.3007 30.8527 18.5848 30.4321 19.5589 29.5908C20.533 28.7495 21.0732 27.5982 21.1795 26.137H18.366C18.3023 26.9659 18.0578 27.5779 17.6327 27.9728C17.2077 28.3678 16.5612 28.5653 15.6933 28.5653C14.7342 28.5653 14.0329 28.2279 13.5865 27.5477C13.1402 26.8676 12.9197 25.7943 12.9197 24.3251V23.2996C12.9338 21.8933 13.1721 20.8554 13.6343 20.1859Z" fill="currentColor"/>
<path d="M31.4081 17.702C30.4915 17.1662 29.449 16.8839 28.3874 16.8839C27.3257 16.8839 26.2832 17.1662 25.3666 17.702C24.4692 18.2653 23.7583 19.0815 23.3236 20.0479C22.8209 21.1577 22.5731 22.366 22.5983 23.584V24.2562C22.5763 25.4517 22.8242 26.6368 23.3236 27.7232C23.7662 28.6815 24.4802 29.4889 25.3773 30.0452C26.2952 30.5812 27.339 30.8636 28.402 30.8636C29.4649 30.8636 30.5088 30.5812 31.4267 30.0452C32.3188 29.4841 33.025 28.6715 33.4564 27.71C33.9509 26.6035 34.194 25.4013 34.1685 24.1898V23.584C34.1976 22.3667 33.9534 21.1583 33.4538 20.0479C33.0175 19.0817 32.3059 18.2657 31.4081 17.702ZM31.339 24.227C31.339 25.6439 31.0831 26.719 30.5712 27.4523C30.3373 27.8087 30.0147 28.0983 29.6351 28.2925C29.2555 28.4867 28.8319 28.5789 28.406 28.5601C27.9698 28.5788 27.5363 28.4824 27.1493 28.2804C26.7622 28.0785 26.4351 27.7782 26.2009 27.4097C25.6996 26.6446 25.449 25.5677 25.449 24.1791V23.5149C25.449 22.098 25.7076 21.0256 26.2248 20.2976C26.4769 19.9559 26.8061 19.6785 27.1855 19.4878C27.565 19.2971 27.984 19.1985 28.4087 19.2001C28.8333 19.2016 29.2517 19.3033 29.6297 19.4967C30.0077 19.6902 30.3348 19.97 30.5845 20.3136C31.0964 21.0557 31.3523 22.1388 31.3523 23.5628L31.339 24.227Z" fill="currentColor"/>
<path d="M43.6079 17.8799C42.6272 17.3358 41.5199 17.0608 40.3986 17.0829H36.2142V30.6748H40.4251C41.5468 30.6878 42.6519 30.4046 43.6292 29.8539C44.5684 29.3204 45.3326 28.5258 45.8289 27.5664C46.3631 26.5242 46.6315 25.366 46.61 24.195V23.568C46.6298 22.3911 46.3559 21.2278 45.813 20.1833C45.3152 19.2191 44.5495 18.4193 43.6079 17.8799ZM43.7806 24.2721C43.7682 25.6057 43.4724 26.6304 42.8932 27.3459C42.3141 28.0615 41.4763 28.4157 40.38 28.4086H39.0277V19.3411H40.4092C41.5126 19.3411 42.3504 19.6954 42.9225 20.4038C43.4946 21.1123 43.7806 22.1626 43.7806 23.5547V24.2721Z" fill="currentColor"/>
<path d="M51.4479 24.7768H56.8279V22.5824H51.4479V19.3411H57.7418V17.0723H48.6451V30.6722H57.7604V28.4192H51.4479V24.7768Z" fill="currentColor"/>
<path d="M67.0564 24.9815C67.796 24.6767 68.4305 24.1623 68.8816 23.5017C69.3046 22.8039 69.5142 21.9977 69.4846 21.1823C69.4846 19.8725 69.0489 18.863 68.1749 18.1456C67.3008 17.4283 66.0654 17.0829 64.4554 17.0829H59.4076V30.6749H62.2105V25.6935H64.4421L66.9926 30.6696H70.0001V30.5394L67.0564 24.9815ZM66.0973 22.8853C65.6413 23.266 65.0561 23.4563 64.4634 23.4166H62.2025V19.3412H64.4528C65.2073 19.3412 65.7661 19.5245 66.1292 19.8911C66.3172 20.094 66.4625 20.3326 66.5566 20.5927C66.6506 20.8529 66.6913 21.1293 66.6765 21.4055C66.6911 21.6792 66.647 21.9528 66.5471 22.2081C66.4472 22.4633 66.2938 22.6942 66.0973 22.8853Z" fill="currentColor"/>
<path d="M37.5532 10.4835V14.7343L24.2695 9.15516V5.57918L37.5532 0V4.2508L28.693 7.34857L37.5532 10.4835Z" fill="currentColor"/>
<path d="M10.0292 0.0133667V4.25354L18.8895 7.34865L0 13.964V18.9932L23.313 9.16321V5.57926L10.0292 0.0133667Z" fill="currentColor"/>
</svg>
