<svg viewBox="0 0 17 20" fill="none" xmlns="http://www.w3.org/2000/svg">
<path d="M5.28571 1V3M8.5 1V3M11.7143 1V3M9.57143 7H5.28571M11.7143 11H5.28571M4.42857 19H12.5714C13.7715 19 14.3716 19 14.83 18.782C15.2332 18.5903 15.561 18.2843 15.7664 17.908C16 17.4802 16 16.9201 16 15.8V5.2C16 4.0799 16 3.51984 15.7664 3.09202C15.561 2.71569 15.2332 2.40973 14.83 2.21799C14.3716 2 13.7715 2 12.5714 2H4.42857C3.22846 2 2.6284 2 2.17002 2.21799C1.76681 2.40973 1.439 2.71569 1.23356 3.09202C1 3.51984 1 4.07989 1 5.2V15.8C1 16.9201 1 17.4802 1.23356 17.908C1.439 18.2843 1.76681 18.5903 2.17002 18.782C2.6284 19 3.22845 19 4.42857 19Z" stroke="currentColor" stroke-width="1.5" stroke-linecap="round" stroke-linejoin="round"/>
</svg>
