<svg
      width="16"
      height="16"
      viewBox="0 0 25 25"
      fill="none"
      xmlns="http://www.w3.org/2000/svg"
    >
      <path
        d="M23.4605 15.093L23.0065 20.7678C22.8363 22.5043 22.7001 23.8322 19.6243 23.8322H5.34658C2.27084 23.8322 2.13464 22.5043 1.9644 20.7678L1.51041 15.093C1.41962 14.151 1.71471 13.2771 2.24814 12.6075C2.25949 12.5961 2.25949 12.5961 2.27084 12.5848C2.89506 11.8243 3.83708 11.3477 4.89259 11.3477H20.0783C21.1338 11.3477 22.0645 11.8243 22.6774 12.5621C22.6887 12.5734 22.7001 12.5848 22.7001 12.5961C23.2562 13.2657 23.5626 14.1397 23.4605 15.093Z"
        stroke="currentColor"
        strokeWidth="1.70244"
        strokeMiterlimit="10"
      />
      <path
        opacity="0.4"
        d="M2.83789 11.8366V5.99155C2.83789 2.13268 3.80261 1.16797 7.66147 1.16797H9.10287C10.5443 1.16797 10.8734 1.59925 11.4182 2.32563L12.8596 4.25506C13.2228 4.73174 13.4384 5.02683 14.4031 5.02683H17.2973C21.1561 5.02683 22.1209 5.99155 22.1209 9.85041V11.882"
        stroke="currentColor"
        strokeWidth="1.70244"
        strokeMiterlimit="10"
        strokeLinecap="round"
        strokeLinejoin="round"
      />
      <path
        opacity="0.4"
        d="M9.56836 18.1582H15.4021"
        stroke="currentColor"
        strokeWidth="1.70244"
        strokeMiterlimit="10"
        strokeLinecap="round"
        strokeLinejoin="round"
      />
    </svg>
