<svg viewBox="0 0 15 13" fill="none" xmlns="http://www.w3.org/2000/svg" transform="translate(-2)">
<path d="M1.20231 5.46119C1.20231 5.46119 7.45231 2.8817 9.61991 1.9734C10.4509 1.61011 13.2688 0.447478 13.2688 0.447478C13.2688 0.447478 14.5694 -0.0611292 14.461 1.17411C14.4248 1.68277 14.1358 3.46297 13.8468 5.38854C13.4133 8.11339 12.9436 11.0925 12.9436 11.0925C12.9436 11.0925 12.8714 11.9282 12.2572 12.0735C11.6431 12.2188 10.6315 11.5649 10.4509 11.4195C10.3063 11.3106 7.74131 9.67562 6.80201 8.87633C6.54911 8.65836 6.26011 8.22241 6.83811 7.71375C8.13871 6.51481 9.69216 5.02525 10.6315 4.08064C11.065 3.64464 11.4985 2.62737 9.69216 3.86261C7.12716 5.64286 4.59826 7.3141 4.59826 7.3141C4.59826 7.3141 4.02021 7.67739 2.93641 7.35041C1.85256 7.02347 0.588112 6.58747 0.588112 6.58747C0.588112 6.58747 -0.278888 6.04251 1.20231 5.46119Z" fill="white"/>
</svg>
