<svg width="40" height="40" viewBox="0 0 40 40" fill="none" xmlns="http://www.w3.org/2000/svg">
<path fill-rule="evenodd" clip-rule="evenodd" d="M20 12C17.8783 12 15.8434 12.8429 14.3431 14.3431C12.8429 15.8434 12 17.8783 12 20C12 21.0506 12.2069 22.0909 12.609 23.0615C13.011 24.0321 13.6003 24.914 14.3431 25.6569C15.086 26.3997 15.9679 26.989 16.9385 27.391C17.9091 27.7931 18.9494 28 20 28C21.0506 28 22.0909 27.7931 23.0615 27.391C24.0321 26.989 24.914 26.3997 25.6569 25.6569C26.3997 24.914 26.989 24.0321 27.391 23.0615C27.7931 22.0909 28 21.0506 28 20C28 17.8783 27.1571 15.8434 25.6569 14.3431C24.1566 12.8429 22.1217 12 20 12ZM12.9289 12.9289C14.8043 11.0536 17.3478 10 20 10C22.6522 10 25.1957 11.0536 27.0711 12.9289C28.9464 14.8043 30 17.3478 30 20C30 21.3132 29.7413 22.6136 29.2388 23.8268C28.7362 25.0401 27.9997 26.1425 27.0711 27.0711C26.1425 27.9997 25.0401 28.7362 23.8268 29.2388C22.6136 29.7413 21.3132 30 20 30C18.6868 30 17.3864 29.7413 16.1732 29.2388C14.9599 28.7362 13.8575 27.9997 12.9289 27.0711C12.0003 26.1425 11.2638 25.0401 10.7612 23.8268C10.2587 22.6136 10 21.3132 10 20C10 17.3478 11.0536 14.8043 12.9289 12.9289ZM19 16C19 15.4477 19.4477 15 20 15H20.01C20.5623 15 21.01 15.4477 21.01 16C21.01 16.5523 20.5623 17 20.01 17H20C19.4477 17 19 16.5523 19 16ZM18 20C18 19.4477 18.4477 19 19 19H20C20.5523 19 21 19.4477 21 20V23C21.5523 23 22 23.4477 22 24C22 24.5523 21.5523 25 21 25H20C19.4477 25 19 24.5523 19 24V21C18.4477 21 18 20.5523 18 20Z" fill="#262626"/>
</svg>
