<svg width="39" height="39" viewBox="0 0 39 39" fill="none" xmlns="http://www.w3.org/2000/svg">
<path d="M19.1244 19.125L7 12.125C8.22876 9.99673 9.99609 8.2294 12.1244 7.00064C14.2526 5.77189 16.6668 5.125 19.1244 5.125C21.5819 5.125 23.9961 5.77189 26.1244 7.00064C28.2526 8.2294 30.02 9.99673 31.2487 12.125L19.1244 19.125Z" fill="#10B981" stroke="white"/>
<path d="M19.1244 19.1247L19.1244 33.1247C16.6668 33.1247 14.2526 32.4778 12.1244 31.249C9.99609 30.0203 8.22876 28.2529 7 26.1247C5.77124 23.9964 5.12436 21.5822 5.12436 19.1247C5.12436 16.6672 5.77124 14.2529 7 12.1247L19.1244 19.1247Z" fill="#AAAAAA" stroke="white"/>
<path d="M19.1242 19.125L31.2485 12.125C32.4773 14.2533 33.1242 16.6675 33.1242 19.125C33.1242 21.5825 32.4773 23.9967 31.2485 26.125C30.0198 28.2533 28.2525 30.0206 26.1242 31.2494C23.9959 32.4781 21.5817 33.125 19.1242 33.125L19.1242 19.125Z" fill="#AAAAAA" stroke="white"/>
</svg>
