<svg width="30" height="27" viewBox="0 0 30 27" fill="none" xmlns="http://www.w3.org/2000/svg">
<g filter="url(#filter0_d_0_99)">
<path fill-rule="evenodd" clip-rule="evenodd" d="M15 6C18.79 6 22.17 8.13 23.82 11.5C22.17 14.87 18.79 17 15 17C11.21 17 7.83 14.87 6.18 11.5C7.83 8.13 11.21 6 15 6ZM15 4C10 4 5.73 7.11 4 11.5C5.73 15.89 10 19 15 19C20 19 24.27 15.89 26 11.5C24.27 7.11 20 4 15 4ZM15 9C16.38 9 17.5 10.12 17.5 11.5C17.5 12.88 16.38 14 15 14C13.62 14 12.5 12.88 12.5 11.5C12.5 10.12 13.62 9 15 9ZM15 7C12.52 7 10.5 9.02 10.5 11.5C10.5 13.98 12.52 16 15 16C17.48 16 19.5 13.98 19.5 11.5C19.5 9.02 17.48 7 15 7Z" fill="#1D1D1D"/>
</g>
<defs>
<filter id="filter0_d_0_99" x="-1" y="0" width="32" height="32" filterUnits="userSpaceOnUse" color-interpolation-filters="sRGB">
<feFlood flood-opacity="0" result="BackgroundImageFix"/>
<feColorMatrix in="SourceAlpha" type="matrix" values="0 0 0 0 0 0 0 0 0 0 0 0 0 0 0 0 0 0 127 0" result="hardAlpha"/>
<feOffset dy="4"/>
<feGaussianBlur stdDeviation="2"/>
<feComposite in2="hardAlpha" operator="out"/>
<feColorMatrix type="matrix" values="0 0 0 0 0 0 0 0 0 0 0 0 0 0 0 0 0 0 0.25 0"/>
<feBlend mode="normal" in2="BackgroundImageFix" result="effect1_dropShadow_0_99"/>
<feBlend mode="normal" in="SourceGraphic" in2="effect1_dropShadow_0_99" result="shape"/>
</filter>
</defs>
</svg>
