<?xml version="1.0" standalone="no"?>
<!DOCTYPE svg PUBLIC "-//W3C//DTD SVG 20010904//EN"
 "http://www.w3.org/TR/2001/REC-SVG-20010904/DTD/svg10.dtd">
<svg version="1.0" xmlns="http://www.w3.org/2000/svg"
 width="154px" height="31px" viewBox="0 0 855.000000 172.000000"
 preserveAspectRatio="xMidYMid meet">

<g transform="translate(0.000000,172.000000) scale(0.100000,-0.100000)"
fill="#000000" stroke="none">
<path d="M3002 1699 c-221 -37 -431 -174 -557 -364 -107 -160 -152 -323 -142
-515 7 -126 24 -201 67 -297 l29 -63 142 0 c78 0 140 -2 137 -5 -3 -3 -63 -8
-134 -11 -71 -3 -130 -7 -132 -8 -1 -2 24 -39 57 -83 96 -127 216 -220 363
-279 l83 -33 7 22 6 22 1 -22 c1 -18 11 -24 56 -34 30 -7 58 -9 61 -6 4 3 -3
57 -15 120 -21 116 -28 271 -12 296 11 17 41 7 41 -13 0 -9 9 -20 21 -26 24
-13 41 -4 19 11 -13 8 -13 10 0 19 8 5 10 10 4 10 -7 0 -14 6 -17 14 -4 10 0
12 14 9 10 -3 19 -14 19 -24 0 -11 5 -19 10 -19 15 0 12 37 -4 43 -9 4 -12 14
-9 26 3 13 1 21 -6 21 -7 0 -10 -4 -6 -9 3 -5 1 -12 -5 -16 -6 -4 -10 5 -10
19 0 16 5 25 13 23 9 -1 13 24 14 97 1 54 4 101 7 104 13 12 19 -11 18 -73 -1
-63 0 -65 29 -81 36 -18 48 -11 31 16 -7 11 -12 27 -12 35 0 8 -4 15 -9 15
-11 0 15 55 26 55 5 1 18 7 31 15 17 11 22 25 22 55 l1 40 17 -32 c14 -26 19
-30 27 -18 6 7 19 15 30 17 11 2 23 10 27 18 14 32 8 -42 -7 -77 -19 -45 -19
-50 3 -56 9 -3 4 -5 -12 -4 -16 1 -30 -3 -32 -11 -1 -7 0 -8 3 -2 11 24 20 -3
12 -37 -9 -40 -28 -186 -34 -263 -2 -26 -13 -83 -24 -127 -12 -45 -21 -107
-21 -138 l0 -57 43 7 c57 9 145 34 184 53 26 12 30 19 22 33 -5 10 -9 24 -8
31 0 7 5 1 11 -14 5 -16 14 -28 20 -28 15 0 118 64 118 73 0 12 -62 97 -71 97
-4 0 -14 3 -22 6 -13 5 -14 0 -5 -30 8 -25 14 -32 20 -24 5 9 8 4 8 -14 0 -15
5 -30 10 -33 6 -3 10 -10 10 -15 0 -13 -40 -3 -60 15 -9 8 -20 13 -23 10 -4
-3 -5 -2 -2 2 3 3 1 11 -4 17 -20 24 -12 81 12 97 17 12 62 -11 80 -39 9 -15
27 -40 40 -57 l25 -29 76 73 c41 41 92 98 113 128 43 62 38 72 -37 74 -53 2
-116 16 -85 19 22 2 128 0 159 -3 16 -2 26 15 52 79 92 223 80 475 -32 701
-57 115 -64 121 -110 100 -79 -38 -172 -6 -211 73 -27 51 -29 87 -8 135 l14
35 -50 25 c-163 83 -359 114 -537 84z m298 -270 c67 -16 79 -23 118 -66 39
-44 42 -52 42 -103 0 -77 -13 -91 -29 -32 -12 42 -14 45 -21 22 -3 -14 -3 -38
2 -55 4 -16 7 -57 7 -90 l-2 -60 -8 77 c-8 77 -34 152 -49 143 -4 -3 -2 -26 6
-51 14 -46 12 -64 -7 -64 -6 0 -7 5 -4 10 10 16 -11 12 -25 -5 -12 -15 -6 -64
9 -75 16 -11 51 -83 51 -103 -1 -21 -1 -21 -14 -4 -9 12 -16 14 -21 8 -11 -18
-23 -12 -18 9 3 11 -4 36 -16 55 -11 20 -21 42 -21 50 0 8 -11 27 -25 42 l-24
28 -1 -25 c0 -33 22 -102 51 -165 25 -52 38 -67 51 -59 4 3 8 -8 8 -25 0 -29
-1 -30 -25 -19 -14 6 -25 16 -25 21 0 6 -3 8 -6 5 -3 -4 -1 -16 6 -28 6 -11 8
-30 4 -42 -6 -21 -7 -21 -20 -3 -14 18 -14 18 -15 -1 0 -10 -9 28 -19 86 -24
134 -76 386 -89 425 -6 21 -10 24 -10 10 0 -11 6 -41 14 -67 8 -27 11 -48 7
-48 -4 0 -27 14 -52 31 -25 16 -56 35 -69 40 -21 9 -22 11 -8 22 21 16 38 63
30 83 -5 13 -2 15 18 9 13 -4 32 -16 42 -27 9 -11 17 -15 17 -10 0 19 -50 62
-73 62 -14 0 -18 3 -10 8 19 12 139 2 223 -19z m177 25 c-3 -3 -12 -4 -19 -1
-8 3 -5 6 6 6 11 1 17 -2 13 -5z m-404 -176 c21 -11 20 -12 -18 -19 -46 -8
-56 -4 -48 16 6 18 37 19 66 3z m42 -48 c3 -5 2 -10 -4 -10 -5 0 -13 5 -16 10
-3 6 -2 10 4 10 5 0 13 -4 16 -10z m-75 -30 c4 7 15 10 24 7 22 -9 8 -40 -15
-34 -11 3 -17 1 -13 -4 3 -5 -11 -9 -30 -9 -30 0 -36 4 -36 21 0 11 4 18 9 15
5 -3 15 1 22 10 11 14 13 14 22 -2 7 -12 11 -13 17 -4z m112 -7 c39 -44 34
-113 -7 -113 -14 0 -26 7 -29 18 -3 9 -20 25 -36 34 l-31 17 21 21 c11 11 20
25 20 30 0 17 46 11 62 -7z m-92 -63 c0 -5 -15 -10 -32 -9 -28 0 -30 2 -13 9
28 12 45 12 45 0z m-25 -40 c-15 -7 -9 -9 25 -8 43 2 45 1 42 -22 -5 -32 -20
-50 -43 -50 -9 0 -25 -7 -33 -16 -15 -14 -16 -10 -16 45 0 57 2 61 23 60 21 0
21 -1 2 -9z m135 -50 c-11 -21 -20 -50 -24 -81 -2 -18 -35 -89 -41 -89 -2 0 1
15 6 32 5 18 9 44 9 58 0 14 12 45 27 68 28 42 44 51 23 12z m6 -118 c-8 -15
-25 -36 -37 -47 -24 -20 -24 -20 -8 0 9 11 21 35 29 52 7 18 16 30 21 27 5 -3
3 -17 -5 -32z m263 -21 c32 -40 31 -52 -3 -50 -18 1 -18 2 4 9 24 7 24 8 5 15
-20 8 -54 44 -55 58 0 17 21 4 49 -32z m-449 17 c0 -7 -14 -24 -30 -37 -17
-13 -30 -31 -31 -40 0 -12 -2 -12 -9 4 -6 13 -9 15 -9 5 -1 -13 -2 -13 -11 0
-7 11 -10 11 -10 2 0 -7 -5 -10 -10 -7 -12 7 -40 -18 -40 -35 0 -14 -22 -8
-27 7 -6 16 128 113 155 113 12 0 22 -6 22 -12z m60 -5 c0 -10 9 -29 20 -43
29 -37 25 -58 -5 -26 -14 15 -25 33 -25 41 0 7 -3 20 -6 29 -3 9 -1 16 5 16 6
0 11 -8 11 -17z m559 -79 c9 -8 11 -22 7 -39 -6 -22 -9 -25 -21 -15 -8 7 -15
20 -15 30 0 25 -10 31 -33 19 -14 -8 -18 -8 -13 0 4 6 1 11 -8 11 -21 0 -46
28 -46 51 0 19 4 18 58 -12 31 -17 63 -38 71 -45z m-96 -23 c21 -36 18 -38
-60 -43 -43 -2 -53 0 -57 15 -5 20 5 22 22 5 9 -9 12 -8 13 5 3 33 4 37 12 35
5 -2 13 5 19 15 11 21 24 13 51 -32z m-636 -3 c-3 -8 -6 -5 -6 6 -1 11 2 17 5
13 3 -3 4 -12 1 -19z m167 -39 c4 -18 1 -29 -7 -32 -9 -3 -12 5 -9 30 5 39 7
39 16 2z m-184 -17 c0 -7 -4 -10 -10 -7 -5 3 -10 16 -10 28 0 18 2 19 10 7 5
-8 10 -21 10 -28z m260 12 c-15 -17 -17 -17 -23 -1 -3 8 3 14 15 14 16 2 17
-1 8 -13z m325 -34 c-3 -5 -12 -10 -18 -10 -7 0 -6 4 3 10 19 12 23 12 15 0z
m230 -38 c3 -14 3 -27 0 -30 -3 -3 -8 4 -12 16 -3 13 -13 22 -25 22 -10 0 -17
4 -13 9 11 19 44 7 50 -17z m-218 -14 c-3 -7 -5 -2 -5 12 0 14 2 19 5 13 2 -7
2 -19 0 -25z m-514 -1 c4 3 7 1 7 -5 0 -7 -11 -12 -25 -12 -18 0 -23 4 -19 15
5 11 10 13 19 5 6 -5 15 -7 18 -3z m477 -8 c0 -6 -4 -7 -10 -4 -5 3 -10 11
-10 16 0 6 5 7 10 4 6 -3 10 -11 10 -16z m-336 -14 c-4 -8 -10 -15 -15 -15 -5
0 -14 -10 -18 -22 -8 -21 -9 -20 -9 9 1 21 5 30 13 26 7 -2 16 0 20 6 9 16 15
13 9 -4z m332 -20 c4 -8 9 -13 13 -11 3 2 15 -5 25 -15 24 -24 13 -24 -25 -2
-29 17 -46 43 -28 43 5 0 12 -7 15 -15z m123 -7 c5 -13 6 -29 4 -35 -6 -15
-39 -17 -47 -4 -4 5 3 7 14 4 25 -7 26 13 3 39 -15 17 -15 18 1 18 9 0 20 -10
25 -22z m-619 -18 c-6 -11 -13 -20 -16 -20 -2 0 0 9 6 20 6 11 13 20 16 20 2
0 0 -9 -6 -20z m-37 -25 c-3 -9 -8 -14 -10 -11 -3 3 -2 9 2 15 9 16 15 13 8
-4z m104 -21 c-3 -3 -12 -4 -19 -1 -8 3 -5 6 6 6 11 1 17 -2 13 -5z m39 -46
c-3 -29 -15 -75 -25 -103 -26 -65 -26 -47 -1 33 11 35 20 77 20 93 0 16 3 29
6 29 4 0 4 -24 0 -52z m369 -28 c3 0 3 5 -1 12 -4 7 -3 8 4 4 7 -4 12 -18 12
-32 0 -18 -4 -23 -12 -17 -7 4 -17 8 -23 8 -5 0 -11 14 -12 30 -1 17 -4 41 -7
55 -3 14 3 6 14 -17 10 -24 22 -43 25 -43z m-675 -95 c0 -12 -19 -12 -23 0 -4
9 -1 12 9 8 7 -3 14 -7 14 -8z m631 -23 c-6 -12 -10 -33 -10 -49 1 -17 3 -21
6 -10 2 9 8 17 13 17 5 0 7 8 6 18 -2 9 3 24 12 31 14 13 15 12 9 -10 -4 -13
-16 -69 -28 -124 -21 -99 -37 -144 -26 -73 3 22 1 40 -5 44 -5 4 -8 19 -6 35
3 16 1 29 -3 29 -10 0 11 91 25 106 16 17 20 9 7 -14z m-571 -2 c0 -5 -4 -10
-10 -10 -5 0 -10 5 -10 10 0 6 5 10 10 10 6 0 10 -4 10 -10z m197 -32 c-3 -8
-6 -5 -6 6 -1 11 2 17 5 13 3 -3 4 -12 1 -19z m-12 -68 c-4 -23 -9 -39 -11
-37 -3 2 -2 23 2 46 4 23 9 40 11 37 3 -3 2 -23 -2 -46z m-105 14 c0 -17 -6
-28 -20 -31 -11 -3 -20 -10 -20 -15 0 -6 8 -7 17 -4 9 4 -5 -12 -31 -35 -29
-25 -45 -47 -42 -56 3 -8 2 -11 -3 -8 -6 3 -9 14 -8 25 1 10 4 17 8 14 4 -2
13 4 20 13 12 14 11 15 -9 9 -14 -5 -22 -3 -22 4 0 6 -4 8 -10 5 -13 -8 -13 8
1 37 13 30 68 68 96 68 18 0 23 -6 23 -26z m87 -96 c-3 -7 -5 -2 -5 12 0 14 2
19 5 13 2 -7 2 -19 0 -25z m-10 -60 c-3 -7 -5 -2 -5 12 0 14 2 19 5 13 2 -7 2
-19 0 -25z m390 -20 c-3 -8 -6 -5 -6 6 -1 11 2 17 5 13 3 -3 4 -12 1 -19z
m-10 -60 c-3 -8 -6 -5 -6 6 -1 11 2 17 5 13 3 -3 4 -12 1 -19z"/>
<path d="M3135 989 c-4 -6 -5 -12 -2 -15 2 -3 7 2 10 11 7 17 1 20 -8 4z"/>
<path d="M3330 240 c0 -5 5 -10 10 -10 6 0 10 5 10 10 0 6 -4 10 -10 10 -5 0
-10 -4 -10 -10z"/>
<path d="M7570 1689 c0 -15 -5 -19 -22 -17 -11 2 -23 -2 -25 -8 -2 -7 13 -14
37 -18 22 -3 40 -10 40 -14 0 -13 -39 -32 -55 -26 -8 3 -15 2 -15 -4 0 -5 18
-12 40 -16 45 -7 53 -27 18 -44 l-23 -11 23 -7 c21 -6 23 -11 18 -40 -4 -18
-2 -35 4 -39 5 -3 10 -18 10 -33 l-1 -27 -24 30 c-14 17 -53 83 -87 147 -42
79 -69 118 -80 118 -9 0 -19 -3 -21 -7 -3 -5 20 -48 50 -98 30 -49 63 -108 74
-130 10 -22 33 -62 50 -89 39 -63 34 -77 -21 -65 -23 5 -49 8 -58 7 -13 -2
-38 39 -99 162 -45 91 -83 169 -85 174 -7 16 -124 -53 -210 -125 -88 -72 -102
-89 -73 -89 10 0 15 -10 15 -30 0 -35 23 -41 40 -11 10 19 11 19 40 3 24 -14
33 -15 50 -4 31 19 59 15 69 -12 5 -13 17 -26 26 -30 9 -3 13 -11 9 -17 -5 -8
-54 -9 -174 -4 l-167 7 -17 -23 c-23 -34 -20 -39 23 -39 21 0 53 -3 70 -6 28
-6 31 -10 31 -46 0 -32 3 -39 17 -36 11 2 20 15 23 33 4 26 10 30 39 32 18 1
44 4 57 7 13 4 48 3 78 0 50 -6 56 -9 61 -34 4 -17 -1 -42 -12 -65 l-18 -37
-226 7 c-220 7 -226 7 -231 -13 -5 -16 1 -21 31 -26 20 -3 66 -6 103 -6 37 0
69 -4 73 -9 3 -6 7 -32 9 -58 5 -66 30 -66 34 0 l3 48 42 -1 c23 0 68 3 100 6
31 4 57 3 57 -2 -1 -20 -26 -103 -33 -110 -4 -4 -7 -18 -7 -31 l0 -24 -220 3
c-182 3 -221 1 -225 -11 -11 -29 16 -36 128 -36 l112 0 7 -75 c5 -41 12 -76
18 -78 6 -2 0 -17 -12 -34 -21 -31 -21 -31 -97 -25 -46 4 -79 11 -86 20 -5 7
-18 16 -29 20 -15 6 -17 4 -12 -15 3 -13 6 -31 6 -40 0 -15 13 -18 98 -20 l97
-3 -3 -33 c-2 -19 -10 -49 -18 -69 -14 -33 -17 -35 -60 -31 -24 2 -44 -1 -44
-5 0 -16 85 -133 134 -185 64 -68 119 -108 227 -166 120 -64 216 -88 359 -90
139 -1 197 8 180 30 -7 8 -19 14 -26 14 -8 0 -16 10 -19 23 -9 36 0 150 13
155 6 2 8 10 5 18 -3 8 -1 14 5 14 14 0 15 210 2 261 -13 49 -6 89 16 89 8 0
14 6 13 13 -1 6 -1 29 0 51 l1 38 20 -23 19 -24 1 75 1 75 34 -40 c39 -45 165
-267 165 -290 0 -11 -12 -15 -45 -15 -25 0 -45 -4 -45 -9 0 -9 80 -178 99
-211 5 -8 17 -34 27 -57 9 -24 22 -43 28 -43 6 0 37 20 69 46 l58 45 -22 37
c-13 20 -50 82 -85 137 -84 135 -178 297 -254 435 -34 63 -75 135 -89 160 -21
37 -46 120 -53 177 -1 7 -5 10 -9 8 -3 -3 -13 3 -20 12 -12 15 -12 16 4 10 27
-10 20 -2 -23 28 l-40 28 1 71 c0 39 4 89 8 111 l7 40 60 -93 c32 -51 96 -149
142 -219 108 -164 353 -566 391 -642 l30 -59 -70 -7 -70 -7 47 -87 c25 -47 51
-91 58 -98 8 -10 22 1 59 47 80 101 81 89 -21 226 -101 134 -327 504 -628
1028 -16 28 -20 48 -17 77 l6 39 -47 0 c-40 0 -46 -3 -46 -21z m87 -516 c24
-26 43 -63 43 -83 0 -6 -11 -5 -27 1 -29 11 -53 6 -53 -11 0 -5 12 -10 27 -10
42 0 63 -26 63 -79 -1 -102 -65 -221 -119 -221 -83 0 -126 52 -116 142 10 87
13 95 45 108 33 14 36 20 18 38 -9 9 -8 12 6 12 14 0 17 5 12 25 -4 15 0 38
10 58 29 56 52 61 91 20z m156 -295 c7 -72 -8 -95 -18 -30 -4 20 -13 60 -21
89 -8 28 -11 59 -8 68 11 28 41 -51 47 -127z m-536 -54 c17 -26 16 -27 -11
-51 -31 -27 -52 -26 -49 3 1 10 -3 26 -8 36 -8 15 -5 20 13 28 34 13 36 12 55
-16z m-104 0 c-1 -5 -11 -10 -23 -12 -30 -5 -25 -32 6 -32 31 0 28 -24 -5 -28
-12 -2 -26 -14 -31 -28 -17 -43 -30 -26 -30 39 0 35 3 66 6 70 9 9 79 1 77 -9z
m-9 -160 c21 -20 12 -34 -17 -27 -20 5 -21 5 -4 -8 16 -13 17 -20 6 -66 -9
-40 -10 -65 -1 -105 18 -87 32 -170 32 -195 0 -19 -5 -23 -30 -23 -27 0 -30 3
-31 35 -1 19 -2 41 -3 48 -1 6 10 14 24 15 24 4 24 4 -6 17 -28 12 -32 18 -37
66 -2 30 -1 55 4 57 5 2 2 11 -7 19 -27 27 -3 120 40 155 20 17 20 18 2 18
-11 0 -33 -12 -49 -27 -17 -16 -26 -21 -22 -13 27 50 69 65 99 34z m353 -111
c-2 -5 -7 -17 -11 -28 -6 -16 -9 -17 -16 -5 -16 24 -11 40 11 40 11 0 18 -3
16 -7z m-270 -280 c-3 -10 -5 -4 -5 12 0 17 2 24 5 18 2 -7 2 -21 0 -30z m221
-101 c-2 -24 -6 -29 -17 -23 -9 6 -11 18 -6 41 9 40 28 26 23 -18z"/>
<path d="M7625 1040 c-11 -18 5 -30 36 -28 36 3 37 11 4 26 -31 14 -32 15 -40
2z"/>
<path d="M7540 965 c-21 -25 -4 -46 36 -43 44 3 53 15 20 28 -14 5 -26 14 -26
20 0 15 -16 12 -30 -5z"/>
<path d="M7526 887 c-19 -14 -19 -16 -3 -41 12 -18 26 -26 47 -26 35 0 40 17
8 23 -14 3 -9 5 15 6 39 1 46 11 24 30 -24 19 -71 23 -91 8z m64 -23 c0 -2 -9
-4 -21 -4 -11 0 -18 4 -14 10 5 8 35 3 35 -6z"/>
<path d="M7770 1693 c0 -3 35 -54 77 -112 72 -100 338 -484 388 -560 13 -20
35 -49 49 -66 l26 -30 -15 37 c-8 20 -65 110 -126 200 -61 90 -167 247 -236
351 -88 130 -132 187 -144 187 -11 0 -19 -3 -19 -7z"/>
<path d="M5210 1680 c0 -5 7 -10 15 -10 8 0 15 5 15 10 0 6 -7 10 -15 10 -8 0
-15 -4 -15 -10z"/>
<path d="M5250 1660 c0 -5 5 -10 11 -10 5 0 7 5 4 10 -3 6 -8 10 -11 10 -2 0
-4 -4 -4 -10z"/>
<path d="M5598 1653 c6 -2 18 -2 25 0 6 3 1 5 -13 5 -14 0 -19 -2 -12 -5z"/>
<path d="M8184 1649 c-72 -21 -124 -107 -110 -181 16 -84 75 -132 163 -132
157 -1 214 217 78 295 -39 23 -92 30 -131 18z"/>
<path d="M5647 1643 c-4 -3 -7 -11 -7 -17 0 -6 5 -5 12 2 6 6 9 14 7 17 -3 3
-9 2 -12 -2z"/>
<path d="M5710 1641 c0 -10 19 -25 25 -20 1 2 -3 10 -11 17 -8 7 -14 8 -14 3z"/>
<path d="M5678 1633 c7 -3 16 -2 19 1 4 3 -2 6 -13 5 -11 0 -14 -3 -6 -6z"/>
<path d="M5470 1609 c0 -5 5 -7 10 -4 6 3 10 8 10 11 0 2 -4 4 -10 4 -5 0 -10
-5 -10 -11z"/>
<path d="M795 1598 c-16 -5 -43 -9 -59 -9 -30 2 -115 -49 -152 -91 -30 -33
-43 -96 -49 -233 -4 -103 -7 -120 -23 -126 -10 -4 -24 -14 -31 -22 -15 -19
-10 -63 7 -59 7 1 12 -9 12 -23 0 -14 5 -25 10 -25 6 0 8 -11 4 -25 -4 -15 -2
-25 5 -25 6 0 12 21 13 48 1 26 3 56 4 67 1 11 2 30 3 42 1 14 11 25 29 31
l27 10 -27 1 c-31 1 -33 8 -18 63 13 45 42 65 61 42 11 -14 14 -13 21 6 4 12
5 26 2 31 -3 5 0 25 6 44 8 25 18 35 40 40 35 8 131 -3 144 -16 6 -5 19 -9 30
-9 11 0 28 -7 38 -16 11 -11 44 -19 87 -23 78 -7 109 -31 111 -86 1 -16 5 -39
9 -50 8 -19 8 -19 20 4 7 13 11 31 8 42 -3 10 0 17 7 16 6 -1 11 12 11 35 0
20 3 34 8 31 4 -2 7 0 7 6 0 5 -5 13 -10 16 -8 5 -8 11 -1 19 7 9 7 16 0 23
-8 8 -5 14 10 22 33 18 25 32 -17 28 -20 -1 -42 -6 -47 -9 -11 -7 -12 42 -2
59 4 6 0 16 -8 23 -13 11 -15 8 -15 -18 0 -17 -4 -34 -10 -37 -15 -9 -12 26 5
59 17 32 20 49 5 26 -5 -8 -10 -10 -10 -4 0 6 -21 17 -47 24 -27 7 -55 19 -63
25 -8 7 -33 16 -55 19 -22 4 -47 9 -55 11 -8 2 -28 -1 -45 -7z m212 -140 c-3
-7 -5 -2 -5 12 0 14 2 19 5 13 2 -7 2 -19 0 -25z m-90 -40 c-3 -8 -6 -5 -6 6
-1 11 2 17 5 13 3 -3 4 -12 1 -19z"/>
<path d="M5528 1598 c5 -5 16 -8 23 -6 8 3 3 7 -10 11 -17 4 -21 3 -13 -5z"/>
<path d="M5775 1530 c-3 -6 1 -7 9 -4 18 7 21 14 7 14 -6 0 -13 -4 -16 -10z"/>
<path d="M4865 1510 c3 -4 14 -10 25 -13 11 -3 18 -2 15 3 -3 4 -14 10 -25 13
-11 3 -18 2 -15 -3z"/>
<path d="M4833 1480 c-3 -11 -8 -18 -12 -16 -3 2 -14 -4 -24 -14 -16 -15 -16
-18 -3 -23 9 -4 15 -1 13 6 -1 6 9 13 23 15 14 2 30 8 35 14 7 8 6 9 -2 4 -6
-3 -14 -2 -18 4 -4 6 5 10 22 10 22 0 25 2 13 10 -24 15 -41 12 -47 -10z"/>
<path d="M4936 1478 c5 -8 2 -9 -10 -5 -10 4 -15 3 -11 -3 8 -12 45 -13 45 -1
0 5 -7 12 -16 15 -10 4 -13 2 -8 -6z"/>
<path d="M7450 1461 c0 -11 5 -23 10 -26 6 -3 10 3 10 14 0 11 -4 23 -10 26
-5 3 -10 -3 -10 -14z"/>
<path d="M4880 1459 c0 -5 5 -7 10 -4 6 3 10 8 10 11 0 2 -4 4 -10 4 -5 0 -10
-5 -10 -11z"/>
<path d="M5005 1450 c-16 -7 -17 -9 -3 -9 9 -1 20 4 23 9 7 11 7 11 -20 0z"/>
<path d="M4870 1429 c0 -5 5 -7 10 -4 6 3 10 8 10 11 0 2 -4 4 -10 4 -5 0 -10
-5 -10 -11z"/>
<path d="M4743 1390 c-9 -16 -21 -30 -25 -30 -4 0 -8 -5 -8 -12 0 -6 -10 -23
-22 -37 -22 -24 -22 -25 -2 -8 17 14 23 15 26 5 3 -9 9 -8 23 6 19 18 19 18
-3 12 -17 -6 -21 -4 -16 7 3 9 14 13 27 10 18 -4 19 -3 7 6 -13 10 -13 11 0
11 13 0 13 1 0 11 -12 9 -10 10 8 6 19 -5 21 -3 11 9 -17 21 -3 29 28 15 26
-10 27 -10 9 4 -29 22 -43 19 -63 -15z"/>
<path d="M4845 1401 c-3 -5 0 -13 6 -17 7 -4 9 -3 5 4 -3 6 2 13 11 15 16 4
16 5 1 6 -9 0 -19 -3 -23 -8z"/>
<path d="M4768 1313 c6 -2 18 -2 25 0 6 3 1 5 -13 5 -14 0 -19 -2 -12 -5z"/>
<path d="M4716 1278 c5 -8 2 -9 -10 -5 -9 4 -15 3 -11 -2 8 -14 45 -9 45 6 0
7 -7 13 -16 13 -9 0 -12 -5 -8 -12z"/>
<path d="M4750 1279 c0 -5 9 -9 20 -9 11 0 20 2 20 4 0 2 -9 6 -20 9 -11 3
-20 1 -20 -4z"/>
<path d="M4678 1243 c6 -2 18 -2 25 0 6 3 1 5 -13 5 -14 0 -19 -2 -12 -5z"/>
<path d="M6100 1236 c0 -2 7 -6 15 -10 8 -3 15 -1 15 4 0 6 -7 10 -15 10 -8 0
-15 -2 -15 -4z"/>
<path d="M4660 1201 c0 -7 -5 -9 -10 -6 -6 3 -17 -1 -26 -9 -14 -14 -12 -15
18 -9 41 7 45 10 30 25 -9 9 -12 9 -12 -1z"/>
<path d="M664 1189 c-3 -5 -14 -9 -25 -9 -10 0 -19 -6 -20 -12 0 -7 -3 -37 -5
-67 -6 -62 8 -84 65 -101 20 -7 42 -14 50 -16 14 -5 -68 -54 -96 -58 -8 -1
-18 -8 -22 -15 -5 -7 -12 -11 -17 -9 -5 1 -10 -9 -12 -23 -2 -16 -13 -32 -28
-39 -22 -12 -24 -18 -18 -54 5 -36 26 -89 59 -147 5 -10 19 -22 32 -28 13 -6
23 -15 23 -20 0 -5 8 -8 18 -7 9 0 16 -5 14 -11 -1 -7 6 -13 16 -13 10 0 25
-11 32 -25 14 -26 35 -31 60 -15 13 9 13 11 0 20 -12 7 -11 9 5 8 45 -3 73 14
121 73 106 132 104 128 103 183 0 28 -3 44 -7 36 -15 -32 -45 -70 -56 -70 -6
0 -22 -18 -36 -40 -30 -49 -59 -62 -133 -56 -64 4 -82 15 -92 53 -3 14 -13 32
-20 40 -16 16 -21 83 -6 83 5 0 14 -7 22 -16 7 -8 30 -24 52 -35 35 -19 38
-22 24 -37 -11 -13 -12 -20 -4 -28 33 -29 67 -20 67 18 0 10 7 18 18 18 14 0
15 2 2 10 -8 5 -24 7 -35 3 -17 -5 -18 -4 -6 11 12 14 11 16 -10 16 -27 0 -77
34 -63 42 5 3 41 -2 79 -11 66 -16 69 -18 47 -30 -33 -18 -24 -21 32 -10 37 7
52 6 58 -3 6 -10 13 -7 28 11 25 29 25 46 2 79 -35 50 -34 50 6 45 22 -3 52 1
74 10 32 13 37 21 47 68 12 53 6 68 -25 69 -6 0 -23 9 -38 21 -20 16 -44 22
-103 25 -50 2 -81 8 -93 19 -9 8 -22 15 -28 15 -7 0 -12 4 -12 9 0 4 -12 8
-27 9 -16 0 -47 4 -71 10 -24 5 -45 6 -48 1z m89 -149 c28 0 35 -3 31 -15 -11
-28 -126 -14 -146 18 -4 7 -8 20 -8 30 0 16 5 15 43 -8 25 -14 59 -25 80 -25z
m137 -31 c0 -9 9 -28 20 -42 11 -14 20 -30 20 -37 0 -22 -135 -2 -161 25 -4 3
17 30 45 59 49 51 51 52 63 32 7 -12 12 -28 13 -37z m193 -17 c-18 -37 -19
-37 -77 -37 -49 1 -61 4 -77 24 -27 33 -24 41 15 29 21 -7 47 -7 72 -1 33 7
40 13 42 37 l4 28 19 -21 c20 -21 20 -22 2 -59z"/>
<path d="M5291 1189 c-35 -14 -73 -59 -101 -119 -16 -35 -28 -49 -38 -45 -10
4 -12 0 -8 -11 10 -25 -4 -37 -20 -17 -13 17 -14 16 -10 -9 5 -30 -11 -49 -24
-28 -5 8 -10 9 -14 2 -3 -6 3 -13 14 -17 28 -9 17 -21 -27 -30 -48 -9 -59 -15
-42 -26 11 -7 11 -9 1 -9 -7 0 -10 -4 -7 -10 8 -13 -11 -13 -36 0 -20 11 -26
1 -9 -16 12 -12 3 -44 -12 -44 -6 0 -5 7 2 15 11 14 10 14 -14 5 -15 -5 -32
-8 -37 -4 -5 3 -9 0 -9 -5 0 -6 4 -11 9 -11 5 0 7 -9 4 -20 -6 -23 -14 -25
-30 -9 -12 12 -33 4 -33 -12 0 -5 6 -9 13 -8 6 1 19 1 27 0 13 -1 13 -2 0 -11
-10 -6 -22 -4 -36 5 -19 12 -23 12 -28 0 -2 -7 -2 -16 2 -18 4 -2 1 -2 -6 0
-8 1 -23 3 -33 3 -11 0 -18 4 -15 9 3 5 15 7 26 4 14 -4 20 0 20 11 0 9 8 16
18 17 14 0 14 2 -3 8 -11 5 -23 7 -27 4 -5 -2 -8 1 -8 6 0 6 -5 11 -12 11 -6
0 -3 -9 7 -20 10 -11 15 -23 11 -28 -4 -4 -13 1 -20 11 -7 9 -21 17 -30 17 -9
0 -16 7 -16 16 0 11 -6 14 -22 9 -21 -5 -21 -5 -5 5 15 9 22 8 38 -6 18 -16
19 -16 13 -1 -3 9 -10 17 -15 17 -5 0 -7 11 -5 25 3 14 0 25 -5 25 -5 0 -9 -8
-7 -17 5 -29 -32 -28 -58 3 -17 19 -24 22 -24 11 0 -12 -8 -15 -31 -12 -34 5
-57 18 -24 15 41 -5 50 -1 31 13 -9 7 -18 19 -19 27 -2 8 -6 21 -10 28 -5 7
-4 12 2 12 6 0 12 -4 12 -10 3 -20 4 -25 13 -38 4 -7 15 -12 24 -10 10 2 23
-3 30 -12 11 -13 12 -13 6 0 -16 32 -26 41 -39 30 -10 -8 -14 -3 -17 20 -5 34
20 57 48 46 9 -3 12 -1 9 4 -3 6 -14 10 -23 10 -10 0 -13 3 -7 8 6 4 11 14 13
22 2 11 -2 9 -13 -4 -8 -10 -12 -23 -9 -27 3 -5 0 -9 -6 -9 -7 0 -9 8 -5 20 4
12 2 20 -5 20 -6 0 -8 -5 -4 -12 5 -8 -2 -9 -24 -5 -22 4 -32 3 -33 -6 -1 -6
-3 -31 -4 -54 -2 -24 -5 -49 -8 -57 -10 -26 13 -213 34 -283 76 -246 267 -453
502 -544 378 -146 792 -13 1015 326 60 92 116 226 106 257 -4 14 -2 18 5 14 7
-5 11 2 12 16 0 13 2 31 4 41 2 9 -2 17 -8 17 -7 0 -6 5 3 10 13 9 13 11 0 20
-13 8 -12 10 3 10 11 0 17 8 17 21 0 15 -4 19 -16 15 -9 -3 -19 -6 -22 -6 -4
0 0 -5 8 -10 13 -8 12 -10 -3 -10 -10 0 -16 -4 -13 -8 10 -17 -40 -35 -61 -23
-11 5 -23 8 -26 5 -3 -3 -12 3 -19 15 -7 12 -17 21 -22 21 -4 0 -3 -6 3 -13 6
-8 8 -17 5 -20 -4 -3 5 -12 20 -18 14 -7 28 -21 32 -31 3 -12 12 -17 20 -14 8
3 14 1 14 -4 0 -5 9 -10 21 -12 16 -2 12 -6 -16 -14 -29 -9 -35 -9 -31 1 3 8
-2 16 -10 19 -21 8 -24 8 -24 -5 0 -5 4 -8 9 -5 5 4 8 -2 6 -11 -2 -10 -4 -24
-4 -32 -1 -12 -4 -12 -18 1 -10 9 -23 14 -29 11 -6 -2 -14 3 -18 12 -3 9 -2
13 4 10 6 -3 10 -2 10 3 0 5 -12 15 -26 22 -16 9 -24 20 -21 32 3 9 2 19 -2
21 -3 2 0 2 6 1 7 -2 17 5 22 14 10 16 10 16 11 0 0 -10 -6 -18 -12 -18 -9 0
-8 -4 2 -11 13 -9 12 -10 -2 -5 -31 10 -19 -9 12 -21 17 -6 30 -15 29 -20 -4
-22 3 -33 19 -32 10 0 12 3 5 6 -7 2 -13 11 -13 18 0 13 -13 47 -43 113 -10
22 -47 31 -47 11 0 -5 4 -8 9 -4 5 3 12 1 16 -4 3 -6 -4 -15 -15 -21 -11 -6
-20 -7 -19 -3 4 22 -2 43 -12 43 -5 0 -8 -4 -5 -9 4 -5 0 -11 -6 -14 -10 -3
-10 -9 0 -27 16 -26 9 -38 -12 -21 -11 9 -12 19 -6 35 6 18 4 22 -13 23 -11 1
-24 7 -28 14 -4 7 -14 9 -22 6 -11 -4 -14 0 -10 16 4 18 3 19 -6 7 -6 -9 -11
-10 -11 -3 0 6 -8 10 -17 8 -30 -4 -52 23 -48 60 2 24 -2 35 -14 39 -9 3 -23
9 -31 13 -11 5 -11 2 2 -10 9 -10 23 -17 30 -17 8 -1 7 -5 -5 -14 -12 -9 -14
-16 -8 -21 6 -3 11 -11 11 -16 0 -6 -5 -7 -11 -3 -7 4 -9 0 -5 -14 4 -11 3
-23 -3 -26 -10 -6 -34 51 -26 64 2 4 -1 24 -7 46 -6 21 -11 44 -10 50 1 7 -4
14 -13 18 -8 3 -15 12 -15 21 0 73 -161 153 -310 154 -41 0 -86 -4 -99 -10z
m64 -14 c-5 -2 -22 -6 -37 -9 -14 -3 -40 -18 -57 -32 -17 -14 -29 -19 -26 -12
8 21 76 58 105 57 14 0 21 -2 15 -4z m12 -23 c-10 -11 -17 -36 -17 -60 0 -23
-4 -42 -10 -42 -5 0 -10 9 -10 19 0 11 -2 26 -5 33 -3 8 6 27 21 41 30 30 46
37 21 9z m221 -117 c-9 -10 -108 -22 -108 -14 0 8 33 15 84 18 16 0 27 -1 24
-4z m-998 -45 c-12 -8 -12 -10 -1 -10 8 0 12 -3 8 -6 -9 -9 -28 6 -22 17 4 5
12 9 18 9 7 0 6 -4 -3 -10z m1029 -108 l0 -47 -18 50 c-10 28 -21 61 -25 75
l-7 25 25 -28 c21 -22 26 -38 25 -75z m-212 58 c14 -11 33 -20 43 -20 24 0 56
-39 68 -82 10 -35 9 -37 -16 -40 -26 -3 -27 -6 -25 -54 1 -27 7 -63 13 -80
l12 -29 14 28 c12 22 18 26 34 17 10 -5 30 -10 44 -10 37 0 41 -17 13 -53 -13
-18 -30 -49 -37 -71 -7 -22 -15 -34 -19 -27 -6 10 -62 19 -124 21 -10 0 -15 5
-12 10 3 6 17 7 31 4 17 -4 24 -2 24 9 0 8 9 17 21 20 37 10 19 41 -26 47 -33
4 -39 8 -37 25 2 11 5 48 6 82 3 72 1 73 -103 69 l-66 -3 -1 63 c0 59 2 64 25
73 15 6 40 12 56 14 17 2 32 5 33 6 2 0 15 -8 29 -19z m-747 -96 c0 -2 -9 -4
-21 -4 -11 0 -18 4 -14 10 5 8 35 3 35 -6z m30 -24 c0 -5 -10 -10 -22 -9 -22
0 -22 1 -3 9 11 5 21 9 23 9 1 1 2 -3 2 -9z m33 -38 c-3 -7 -9 -10 -12 -5 -3
4 -10 11 -15 15 -4 4 1 6 12 5 12 -1 18 -6 15 -15z m1187 0 c0 -4 -10 -9 -22
-9 -18 -2 -20 0 -8 7 18 12 30 13 30 2z m40 4 c0 -2 -7 -6 -15 -10 -8 -3 -15
-1 -15 4 0 6 7 10 15 10 8 0 15 -2 15 -4z m-1186 -15 c3 -5 -2 -15 -12 -22
-15 -13 -16 -12 -4 3 11 14 10 17 -5 21 -16 4 -16 5 -1 6 9 0 19 -3 22 -8z
m1014 -29 c6 -18 -15 -14 -22 4 -4 10 -1 14 6 12 6 -2 14 -10 16 -16z m-1048
2 c0 -8 -19 -13 -24 -6 -3 5 1 9 9 9 8 0 15 -2 15 -3z m175 -13 c3 -5 2 -12
-3 -15 -5 -3 -9 1 -9 9 0 17 3 19 12 6z m39 1 c3 -5 -1 -9 -9 -9 -8 0 -15 4
-15 9 0 4 4 8 9 8 6 0 12 -4 15 -8z m1256 -8 c0 -9 5 -12 12 -8 7 4 8 3 4 -4
-10 -17 -26 -15 -26 2 0 8 -6 17 -12 19 -8 3 -6 6 5 6 9 1 17 -6 17 -15z
m-903 -18 c17 -4 50 -2 73 4 23 6 45 9 48 6 3 -4 -2 -22 -11 -41 -9 -19 -12
-35 -7 -35 6 0 10 -5 10 -11 0 -5 -4 -7 -10 -4 -14 8 -13 -18 1 -32 19 -19 1
-53 -29 -53 -36 0 -43 6 -72 63 -14 27 -33 55 -42 64 -21 19 -26 72 -5 55 6
-5 26 -13 44 -16z m-590 8 c-3 -3 -12 -4 -19 -1 -8 3 -5 6 6 6 11 1 17 -2 13
-5z m1487 -56 c-3 -4 -9 -8 -15 -8 -5 0 -9 4 -9 8 0 5 7 9 15 9 8 0 12 -4 9
-9z m-153 -21 c-10 -9 -11 -8 -5 6 3 10 9 15 12 12 3 -3 0 -11 -7 -18z m123 4
c6 -10 -24 -25 -32 -16 -3 3 1 5 9 5 11 0 11 2 -1 10 -13 8 -13 10 2 10 9 0
19 -4 22 -9z m-74 -23 c0 -6 -6 -5 -15 2 -8 7 -15 14 -15 16 0 2 7 1 15 -2 8
-4 15 -11 15 -16z m59 -24 c14 -12 -19 -1 -35 12 -18 14 -18 14 6 3 14 -6 27
-13 29 -15z m-467 -16 c-15 -15 -26 -4 -18 18 5 13 9 15 18 6 9 -9 9 -15 0
-24z m513 23 c-9 -8 -36 -10 -30 -2 2 4 11 8 20 8 8 0 13 -3 10 -6z m-102 -15
c9 5 9 4 1 -5 -6 -6 -19 -9 -28 -5 -14 5 -15 9 -4 15 7 5 14 4 16 -1 2 -6 9
-7 15 -4z m-3 -36 c0 -5 -5 -10 -11 -10 -5 0 -7 5 -4 10 3 6 8 10 11 10 2 0 4
-4 4 -10z m50 -38 c0 -1 -9 2 -20 8 -11 6 -20 15 -20 20 0 6 9 2 20 -7 11 -10
20 -19 20 -21z m-755 -22 c-3 -5 -13 -10 -21 -10 -8 0 -14 5 -14 10 0 6 9 10
21 10 11 0 17 -4 14 -10z m93 3 c-10 -2 -28 -2 -40 0 -13 2 -5 4 17 4 22 1 32
-1 23 -4z m72 -3 c0 -5 -9 -10 -20 -10 -11 0 -20 5 -20 10 0 6 9 10 20 10 11
0 20 -4 20 -10z m-44 -50 c40 -16 18 -29 -52 -31 -66 -2 -84 4 -84 27 0 17 93
20 136 4z m154 -120 c0 -46 -24 -123 -47 -150 -14 -17 -45 -42 -68 -56 -41
-24 -45 -24 -63 -8 -17 14 -18 21 -10 40 6 13 19 26 29 29 10 4 39 26 64 50
25 24 45 38 45 30 0 -8 -4 -17 -10 -20 -12 -7 -33 -85 -26 -93 3 -3 14 15 25
39 20 45 24 150 7 177 -6 10 0 9 23 -2 18 -10 31 -24 31 -36z m-457 19 c-4
-14 0 -25 11 -31 9 -5 16 -16 16 -24 0 -37 33 -83 73 -102 71 -34 117 -52 132
-52 9 0 15 -10 15 -25 0 -23 -4 -25 -42 -25 -79 1 -143 42 -180 118 -10 20
-16 29 -13 19 10 -38 -14 -5 -29 40 -24 71 -20 98 16 102 3 1 4 -9 1 -20z"/>
<path d="M6165 1160 c5 -15 2 -20 -12 -21 -15 0 -14 -2 4 -9 18 -8 40 -44 36
-61 -1 -3 5 -6 13 -6 21 0 17 21 -11 63 -14 20 -22 40 -19 45 3 5 0 9 -6 9 -7
0 -9 -8 -5 -20z"/>
<path d="M4640 1161 c0 -4 -11 -20 -26 -36 -14 -15 -23 -29 -20 -32 7 -7 55
49 56 65 0 6 -2 12 -5 12 -3 0 -5 -4 -5 -9z"/>
<path d="M4817 1159 c7 -7 15 -10 18 -7 3 3 -2 9 -12 12 -14 6 -15 5 -6 -5z"/>
<path d="M80 1105 c-13 -34 -13 -35 3 -35 8 0 22 9 31 19 17 19 17 20 -3 31
-18 9 -22 7 -31 -15z"/>
<path d="M4720 1101 c0 -6 4 -13 10 -16 6 -3 7 1 4 9 -7 18 -14 21 -14 7z"/>
<path d="M7825 1100 c3 -5 8 -10 11 -10 2 0 4 5 4 10 0 6 -5 10 -11 10 -5 0
-7 -4 -4 -10z"/>
<path d="M6128 1083 c6 -2 18 -2 25 0 6 3 1 5 -13 5 -14 0 -19 -2 -12 -5z"/>
<path d="M4580 1071 c0 -5 -3 -17 -6 -25 -5 -12 -2 -15 10 -10 18 7 21 29 6
39 -5 3 -10 2 -10 -4z"/>
<path d="M4638 1073 c6 -2 10 -9 6 -14 -3 -5 -1 -9 5 -9 17 0 21 18 5 24 -9 3
-19 6 -22 5 -4 0 -1 -3 6 -6z"/>
<path d="M4737 1049 c7 -7 15 -10 18 -7 3 3 -2 9 -12 12 -14 6 -15 5 -6 -5z"/>
<path d="M6204 1034 c19 -18 21 -38 4 -29 -7 4 -6 1 3 -7 9 -7 19 -20 22 -28
4 -8 4 1 1 20 -7 37 -20 60 -36 60 -5 0 -2 -7 6 -16z"/>
<path d="M4688 1033 c7 -3 16 -2 19 1 4 3 -2 6 -13 5 -11 0 -14 -3 -6 -6z"/>
<path d="M4783 1005 c-10 -11 -9 -13 6 -12 11 1 17 7 14 14 -6 16 -5 16 -20
-2z"/>
<path d="M7151 1010 c-16 -9 -6 -30 15 -30 15 0 20 25 6 34 -4 2 -14 1 -21 -4z"/>
<path d="M4719 1001 c11 -7 10 -10 -5 -14 -16 -4 -16 -5 4 -6 13 -1 22 5 22
14 0 8 -8 15 -17 15 -15 0 -15 -2 -4 -9z"/>
<path d="M6140 1000 c-9 -6 -10 -10 -3 -10 6 0 15 5 18 10 8 12 4 12 -15 0z"/>
<path d="M6116 966 c3 -9 1 -16 -5 -16 -6 0 -11 -5 -11 -12 0 -6 3 -8 7 -5 3
4 13 1 22 -5 13 -10 14 -10 4 1 -6 7 -9 19 -7 26 3 7 1 16 -5 20 -7 3 -8 0 -5
-9z"/>
<path d="M4680 960 c0 -5 5 -10 11 -10 5 0 7 5 4 10 -3 6 -8 10 -11 10 -2 0
-4 -4 -4 -10z"/>
<path d="M5033 963 c-7 -2 -13 -9 -13 -15 0 -7 5 -7 13 1 8 6 18 7 22 3 5 -4
5 -1 1 6 -4 6 -8 12 -9 11 -1 0 -8 -3 -14 -6z"/>
<path d="M5858 953 c7 -3 16 -2 19 1 4 3 -2 6 -13 5 -11 0 -14 -3 -6 -6z"/>
<path d="M6140 951 c0 -10 19 -25 25 -20 1 2 -3 10 -11 17 -8 7 -14 8 -14 3z"/>
<path d="M4797 939 c7 -7 15 -10 18 -7 3 3 -2 9 -12 12 -14 6 -15 5 -6 -5z"/>
<path d="M6232 941 c-11 -7 -11 -9 2 -14 10 -4 16 -1 16 8 0 17 -1 17 -18 6z"/>
<path d="M4686 925 c25 -19 40 -19 20 0 -8 8 -20 15 -27 15 -7 0 -4 -6 7 -15z"/>
<path d="M5040 931 c0 -5 9 -7 20 -4 11 3 20 7 20 9 0 2 -9 4 -20 4 -11 0 -20
-4 -20 -9z"/>
<path d="M6077 909 c6 -6 9 -17 7 -23 -3 -7 7 -18 20 -26 24 -12 24 -14 8 -26
-23 -18 -48 -19 -34 -1 9 10 4 13 -23 15 -38 3 -49 -15 -12 -20 12 -2 21 -9
20 -15 -3 -14 53 3 63 18 3 5 14 9 25 9 16 0 18 -2 7 -14 -7 -8 -16 -12 -19
-10 -3 2 -6 -3 -6 -10 0 -8 6 -12 14 -9 7 3 13 9 13 14 0 5 4 9 9 9 6 0 8 -9
6 -21 -3 -17 -2 -19 10 -9 8 7 12 16 9 21 -3 5 3 9 13 9 10 0 25 5 33 11 13 9
13 10 -2 6 -9 -3 -19 0 -21 7 -4 10 1 12 14 9 11 -3 19 0 19 6 0 7 -6 9 -12 5
-10 -6 -10 -4 0 7 6 7 12 18 12 25 0 17 -49 27 -66 13 -19 -15 -18 -29 2 -29
8 0 13 4 9 9 -3 5 -1 12 4 15 5 3 11 -3 14 -14 3 -13 0 -20 -10 -20 -9 0 -13
-6 -9 -15 9 -24 -13 -17 -25 8 -6 14 -20 24 -37 25 -15 1 -32 9 -38 17 -6 8
-15 15 -20 15 -4 0 -3 -5 3 -11z m163 -19 c0 -5 -2 -10 -4 -10 -3 0 -8 5 -11
10 -3 6 -1 10 4 10 6 0 11 -4 11 -10z m-86 -32 c-8 -13 -20 -9 -45 11 l-24 19
37 -11 c20 -6 34 -15 32 -19z"/>
<path d="M6145 910 c-16 -7 -17 -9 -3 -9 9 -1 20 4 23 9 7 11 7 11 -20 0z"/>
<path d="M4914 898 c-13 -20 -11 -58 2 -58 16 0 19 16 4 25 -5 3 -6 13 -3 21
3 10 8 12 12 5 4 -5 12 -6 20 -2 9 6 7 10 -8 14 -12 3 -24 1 -27 -5z"/>
<path d="M6035 870 c-3 -6 1 -7 9 -4 18 7 21 14 7 14 -6 0 -13 -4 -16 -10z"/>
<path d="M4700 860 c-13 -8 -12 -10 3 -10 9 0 17 5 17 10 0 12 -1 12 -20 0z"/>
<path d="M4867 859 c7 -7 15 -10 18 -7 3 3 -2 9 -12 12 -14 6 -15 5 -6 -5z"/>
<path d="M4795 850 c-3 -5 -1 -10 4 -10 6 0 11 5 11 10 0 6 -2 10 -4 10 -3 0
-8 -4 -11 -10z"/>
<path d="M4833 833 c5 -31 18 -46 30 -34 7 7 15 7 25 -2 13 -11 14 -9 1 11 -8
12 -19 20 -26 18 -7 -3 -15 -1 -18 4 -3 4 1 11 7 13 8 3 6 6 -4 6 -12 1 -17
-5 -15 -16z"/>
<path d="M4770 834 c0 -9 40 -23 44 -15 3 5 -5 11 -19 13 -14 3 -25 4 -25 2z"/>
<path d="M5935 830 c3 -5 14 -10 23 -10 15 0 15 2 2 10 -20 13 -33 13 -25 0z"/>
<path d="M8385 803 c10 -16 33 -50 52 -78 18 -27 33 -59 34 -70 0 -20 0 -20 9
0 18 43 10 66 -41 121 -55 58 -83 72 -54 27z"/>
<path d="M6158 763 c7 -3 16 -2 19 1 4 3 -2 6 -13 5 -11 0 -14 -3 -6 -6z"/>
<path d="M430 589 c-19 -10 -69 -30 -110 -44 -41 -14 -99 -38 -128 -53 l-52
-27 49 -75 c229 -348 689 -476 1067 -296 42 20 89 45 105 56 l29 21 -32 62
c-38 77 -112 148 -175 171 -83 30 -92 36 -90 65 2 25 0 26 -63 31 -40 3 -77
12 -94 23 -27 18 -28 18 -21 -2 3 -11 7 -51 7 -88 2 -111 -50 -183 -133 -183
-108 0 -313 207 -314 317 0 24 -2 42 -5 42 -3 -1 -21 -9 -40 -20z"/>
<path d="M7880 440 c1 -81 -10 -171 -20 -165 -5 3 -9 -49 -9 -115 -1 -96 1
-120 12 -120 28 0 192 65 215 85 4 3 -150 301 -180 350 l-19 30 1 -65z"/>
</g>
</svg>
