<svg viewBox="0 0 15 15" fill="none" xmlns="http://www.w3.org/2000/svg" transform="translate(-0.5)">
<path d="M5.0006 7.5C5.0006 6.11934 6.11958 4.9998 7.5003 4.9998C8.88102 4.9998 10.0006 6.11934 10.0006 7.5C10.0006 8.88066 8.88102 10.0002 7.5003 10.0002C6.11958 10.0002 5.0006 8.88066 5.0006 7.5ZM3.64899 7.5C3.64899 9.627 5.37322 11.3512 7.5003 11.3512C9.62739 11.3512 11.3516 9.627 11.3516 7.5C11.3516 5.373 9.62739 3.64884 7.5003 3.64884C5.37322 3.64884 3.64905 5.37288 3.64905 7.5M10.6041 3.49614C10.604 3.67414 10.6568 3.84817 10.7556 3.99621C10.8544 4.14426 10.9949 4.25967 11.1594 4.32785C11.3238 4.39604 11.5048 4.41393 11.6794 4.37928C11.854 4.34462 12.0144 4.25897 12.1403 4.13315C12.2662 4.00733 12.352 3.847 12.3868 3.67243C12.4216 3.49787 12.4039 3.3169 12.3358 3.15242C12.2677 2.98794 12.1524 2.84733 12.0045 2.74838C11.8565 2.64942 11.6825 2.59657 11.5045 2.5965H11.5041C11.2655 2.59661 11.0367 2.69142 10.868 2.8601C10.6992 3.02878 10.6043 3.25754 10.6041 3.49614ZM4.47018 13.6049C3.73893 13.5716 3.34147 13.4498 3.07734 13.3469C2.72717 13.2106 2.47732 13.0482 2.21463 12.7859C1.95194 12.5236 1.78933 12.274 1.65361 11.9238C1.55064 11.6598 1.42884 11.2622 1.3956 10.531C1.35923 9.74046 1.35197 9.50298 1.35197 7.50012C1.35197 5.49726 1.35983 5.26044 1.3956 4.46922C1.4289 3.738 1.5516 3.34122 1.65361 3.07644C1.78993 2.72628 1.9523 2.47644 2.21463 2.21376C2.47696 1.95108 2.72657 1.78848 3.07734 1.65276C3.34135 1.5498 3.73893 1.428 4.47018 1.39476C5.26077 1.3584 5.49826 1.35114 7.5003 1.35114C9.50234 1.35114 9.74007 1.35888 10.5313 1.39488C11.2626 1.42818 11.6594 1.55088 11.9242 1.65288C12.2743 1.7886 12.5242 1.95156 12.7869 2.21388C13.0496 2.4762 13.2116 2.7264 13.3479 3.07656C13.4509 3.34056 13.5727 3.73812 13.6059 4.46934C13.6423 5.26056 13.6495 5.49738 13.6495 7.50024C13.6495 9.5031 13.6423 9.73992 13.6059 10.5311C13.5726 11.2624 13.4502 11.6598 13.3479 11.9239C13.2116 12.2741 13.0492 12.5239 12.7869 12.786C12.5245 13.0481 12.2743 13.2107 11.9242 13.347C11.6601 13.45 11.2626 13.5718 10.5313 13.605C9.74073 13.6414 9.50324 13.6486 7.5003 13.6486C5.49736 13.6486 5.26053 13.6414 4.47018 13.605M4.40808 0.04542C3.60962 0.08178 3.06402 0.20838 2.58754 0.39378C2.09438 0.58524 1.67635 0.8421 1.25891 1.25886C0.841474 1.67562 0.585263 2.0937 0.393796 2.58744C0.208388 3.0642 0.0817833 3.60948 0.0454219 4.4079C0.00846038 5.20758 0 5.46324 0 7.5C0 9.53676 0.00846038 9.79242 0.0454219 10.5921C0.0817833 11.3906 0.208388 11.9358 0.393796 12.4126C0.585263 12.9057 0.841534 13.3246 1.25891 13.7411C1.67629 14.1577 2.09378 14.4142 2.58754 14.6062C3.06492 14.7916 3.60962 14.9182 4.40808 14.9546C5.20821 14.9909 5.46346 15 7.5003 15C9.53714 15 9.79281 14.9915 10.5925 14.9546C11.391 14.9182 11.9363 14.7916 12.4131 14.6062C12.9062 14.4142 13.3243 14.1579 13.7417 13.7411C14.1591 13.3244 14.4148 12.9057 14.6068 12.4126C14.7922 11.9358 14.9194 11.3905 14.9552 10.5921C14.9915 9.79182 15 9.53676 15 7.5C15 5.46324 14.9915 5.20758 14.9552 4.4079C14.9188 3.60942 14.7922 3.0639 14.6068 2.58744C14.4148 2.0943 14.1585 1.67628 13.7417 1.25886C13.3249 0.84144 12.9062 0.58524 12.4137 0.39378C11.9363 0.20838 11.391 0.08118 10.5931 0.04542C9.79329 0.00888004 9.53774 0 7.5012 0C5.46466 0 5.20851 0.00846005 4.40838 0.04542" fill="white"/>
</svg>
