<svg xmlns="http://www.w3.org/2000/svg" xmlns:xlink="http://www.w3.org/1999/xlink" zoomAndPan="magnify" viewBox="0 0 1652.88 647.999998" preserveAspectRatio="xMidYMid meet" version="1.0"><defs><g/><clipPath id="308f9d801e"><path d="M 645 161.984375 L 1007 161.984375 L 1007 486 L 645 486 Z M 645 161.984375 " clip-rule="nonzero"/></clipPath><clipPath id="085348631e"><path d="M 852.109375 470.867188 L 1002.941406 206.910156 C 1008.253906 197.617188 1008.214844 186.199219 1002.84375 176.9375 C 997.46875 167.679688 987.574219 161.984375 976.871094 161.984375 L 676.003906 161.984375 C 665.300781 161.984375 655.40625 167.679688 650.03125 176.9375 C 644.660156 186.199219 644.621094 197.617188 649.933594 206.910156 L 800.765625 470.867188 C 806.03125 480.078125 815.828125 485.765625 826.4375 485.765625 C 837.046875 485.765625 846.847656 480.078125 852.109375 470.867188 Z M 852.109375 470.867188 " clip-rule="nonzero"/></clipPath></defs><g fill="#3f6f71" fill-opacity="1"><g transform="translate(121.265115, 485.26305)"><g><path d="M 242.140625 -26.609375 L 242.140625 -25.28125 C 242.140625 -18.476562 239.625 -12.5625 234.59375 -7.53125 C 229.570312 -2.507812 223.660156 0 216.859375 0 L 60.3125 0 C 53.507812 0 47.59375 -2.507812 42.5625 -7.53125 C 37.539062 -12.5625 35.03125 -18.476562 35.03125 -25.28125 L 35.03125 -298.453125 C 35.03125 -305.253906 37.539062 -311.164062 42.5625 -316.1875 C 47.59375 -321.21875 53.507812 -323.734375 60.3125 -323.734375 L 74.0625 -323.734375 C 80.863281 -323.734375 86.773438 -321.21875 91.796875 -316.1875 C 96.828125 -311.164062 99.34375 -305.253906 99.34375 -298.453125 L 99.34375 -55.4375 C 99.34375 -52.769531 100.671875 -51.4375 103.328125 -51.4375 L 216.859375 -51.4375 C 223.660156 -51.4375 229.570312 -49 234.59375 -44.125 C 239.625 -39.25 242.140625 -33.410156 242.140625 -26.609375 Z M 242.140625 -26.609375 "/></g></g></g><g fill="#3f6f71" fill-opacity="1"><g transform="translate(377.139813, 485.26305)"><g><path d="M 228.609375 -42.796875 C 233.484375 -37.921875 235.921875 -32.082031 235.921875 -25.28125 C 235.921875 -18.476562 233.484375 -12.5625 228.609375 -7.53125 C 223.734375 -2.507812 217.894531 0 211.09375 0 L 60.3125 0 C 53.507812 0 47.59375 -2.507812 42.5625 -7.53125 C 37.539062 -12.5625 35.03125 -18.476562 35.03125 -25.28125 L 35.03125 -298.453125 C 35.03125 -305.253906 37.539062 -311.164062 42.5625 -316.1875 C 47.59375 -321.21875 53.507812 -323.734375 60.3125 -323.734375 L 211.09375 -323.734375 C 217.894531 -323.734375 223.734375 -321.21875 228.609375 -316.1875 C 233.484375 -311.164062 235.921875 -305.253906 235.921875 -298.453125 C 235.921875 -291.648438 233.484375 -285.8125 228.609375 -280.9375 C 223.734375 -276.0625 217.894531 -273.625 211.09375 -273.625 L 101.109375 -273.625 C 98.453125 -273.625 97.125 -272.289062 97.125 -269.625 L 97.125 -198.234375 C 97.125 -195.566406 98.453125 -194.234375 101.109375 -194.234375 L 203.546875 -194.234375 C 210.054688 -194.234375 215.601562 -191.941406 220.1875 -187.359375 C 224.769531 -182.773438 227.0625 -177.085938 227.0625 -170.296875 C 227.0625 -163.785156 224.84375 -158.238281 220.40625 -153.65625 C 215.96875 -149.070312 210.347656 -146.78125 203.546875 -146.78125 L 101.109375 -146.78125 C 98.453125 -146.78125 97.125 -145.453125 97.125 -142.796875 L 97.125 -54.109375 C 97.125 -51.441406 98.453125 -50.109375 101.109375 -50.109375 L 211.09375 -50.109375 C 217.894531 -50.109375 223.734375 -47.671875 228.609375 -42.796875 Z M 228.609375 -42.796875 "/></g></g></g><g fill="#3f6f71" fill-opacity="1"><g transform="translate(633.923182, 485.26305)"><g/></g></g><g fill="#3f6f71" fill-opacity="1"><g transform="translate(758.9776, 485.26305)"><g/></g></g><g fill="#3f6f71" fill-opacity="1"><g transform="translate(884.032019, 485.26305)"><g/></g></g><g fill="#3f6f71" fill-opacity="1"><g transform="translate(1009.117195, 485.26305)"><g><path d="M 228.609375 -42.796875 C 233.484375 -37.921875 235.921875 -32.082031 235.921875 -25.28125 C 235.921875 -18.476562 233.484375 -12.5625 228.609375 -7.53125 C 223.734375 -2.507812 217.894531 0 211.09375 0 L 60.3125 0 C 53.507812 0 47.59375 -2.507812 42.5625 -7.53125 C 37.539062 -12.5625 35.03125 -18.476562 35.03125 -25.28125 L 35.03125 -298.453125 C 35.03125 -305.253906 37.539062 -311.164062 42.5625 -316.1875 C 47.59375 -321.21875 53.507812 -323.734375 60.3125 -323.734375 L 211.09375 -323.734375 C 217.894531 -323.734375 223.734375 -321.21875 228.609375 -316.1875 C 233.484375 -311.164062 235.921875 -305.253906 235.921875 -298.453125 C 235.921875 -291.648438 233.484375 -285.8125 228.609375 -280.9375 C 223.734375 -276.0625 217.894531 -273.625 211.09375 -273.625 L 101.109375 -273.625 C 98.453125 -273.625 97.125 -272.289062 97.125 -269.625 L 97.125 -198.234375 C 97.125 -195.566406 98.453125 -194.234375 101.109375 -194.234375 L 203.546875 -194.234375 C 210.054688 -194.234375 215.601562 -191.941406 220.1875 -187.359375 C 224.769531 -182.773438 227.0625 -177.085938 227.0625 -170.296875 C 227.0625 -163.785156 224.84375 -158.238281 220.40625 -153.65625 C 215.96875 -149.070312 210.347656 -146.78125 203.546875 -146.78125 L 101.109375 -146.78125 C 98.453125 -146.78125 97.125 -145.453125 97.125 -142.796875 L 97.125 -54.109375 C 97.125 -51.441406 98.453125 -50.109375 101.109375 -50.109375 L 211.09375 -50.109375 C 217.894531 -50.109375 223.734375 -47.671875 228.609375 -42.796875 Z M 228.609375 -42.796875 "/></g></g></g><g fill="#3f6f71" fill-opacity="1"><g transform="translate(1265.878779, 485.26305)"><g><path d="M 242.140625 -26.609375 L 242.140625 -25.28125 C 242.140625 -18.476562 239.625 -12.5625 234.59375 -7.53125 C 229.570312 -2.507812 223.660156 0 216.859375 0 L 60.3125 0 C 53.507812 0 47.59375 -2.507812 42.5625 -7.53125 C 37.539062 -12.5625 35.03125 -18.476562 35.03125 -25.28125 L 35.03125 -298.453125 C 35.03125 -305.253906 37.539062 -311.164062 42.5625 -316.1875 C 47.59375 -321.21875 53.507812 -323.734375 60.3125 -323.734375 L 74.0625 -323.734375 C 80.863281 -323.734375 86.773438 -321.21875 91.796875 -316.1875 C 96.828125 -311.164062 99.34375 -305.253906 99.34375 -298.453125 L 99.34375 -55.4375 C 99.34375 -52.769531 100.671875 -51.4375 103.328125 -51.4375 L 216.859375 -51.4375 C 223.660156 -51.4375 229.570312 -49 234.59375 -44.125 C 239.625 -39.25 242.140625 -33.410156 242.140625 -26.609375 Z M 242.140625 -26.609375 "/></g></g></g><g clip-path="url(#308f9d801e)"><g clip-path="url(#085348631e)"><path stroke-linecap="butt" transform="matrix(0.749946, 0, 0, 0.749946, 624.260388, 161.982581)" fill="none" stroke-linejoin="miter" d="M 303.820698 411.876033 L 504.944669 59.907781 C 512.028517 47.516257 511.97643 32.291194 504.814451 19.941339 C 497.647265 7.596693 484.453599 0.0023919 470.18173 0.0023919 L 68.996364 0.0023919 C 54.724495 0.0023919 41.53083 7.596693 34.363643 19.941339 C 27.201665 32.291194 27.149578 47.516257 34.233425 59.907781 L 235.357396 411.876033 C 242.378739 424.158174 255.442187 431.742058 269.589047 431.742058 C 283.735907 431.742058 296.804564 424.158174 303.820698 411.876033 Z M 303.820698 411.876033 " stroke="#3f6f71" stroke-width="134" stroke-opacity="1" stroke-miterlimit="4"/></g></g></svg>
