<?xml version="1.0" encoding="UTF-8"?>
<svg id="Layer_2" data-name="Layer 2" xmlns="http://www.w3.org/2000/svg" viewBox="0 0 215.62 52.36">
  <defs>
    <style>
      .cls-1 {
        fill: #fff;
      }
    </style>
  </defs>
  <g id="logo-h_white_total" data-name="logo-h white total">
    <g>
      <path class="cls-1" d="m99.89,0c.89,0,1.67.59,1.92,1.44l10.32,35.48h.41L122.85,1.44c.25-.85,1.03-1.44,1.92-1.44h11.79c1.36,0,2.33,1.33,1.9,2.63l-15.96,48.36c-.27.82-1.04,1.37-1.9,1.37h-16.54c-.86,0-1.63-.55-1.9-1.37L86.2,2.63c-.43-1.29.54-2.63,1.9-2.63h11.79Z"/>
      <path class="cls-1" d="m0,50.36V2C0,.9.9,0,2,0h10.22c1.1,0,2,.9,2,2v36.91c0,1.1.9,2,2,2h17.17c1.1,0,2,.9,2,2v7.45c0,1.1-.9,2-2,2H2c-1.1,0-2-.9-2-2Z"/>
      <path class="cls-1" d="m215.62,50.36V2c0-1.1-.9-2-2-2h-10.22c-1.1,0-2,.9-2,2v36.91c0,1.1-.9,2-2,2h-17.17c-1.1,0-2,.9-2,2v7.45c0,1.1.9,2,2,2h31.39c1.1,0,2-.9,2-2Z"/>
      <g>
        <rect class="cls-1" x="132.97" y="40.91" width="37.51" height="11.45" rx="2" ry="2" transform="translate(303.46 93.27) rotate(180)"/>
        <rect class="cls-1" x="144.64" y="20.45" width="37.51" height="11.45" rx="2" ry="2" transform="translate(326.79 52.36) rotate(180)"/>
        <rect class="cls-1" x="156.28" width="37.51" height="11.45" rx="2" ry="2" transform="translate(350.07 11.45) rotate(180)"/>
      </g>
      <path class="cls-1" d="m42.21,50.36V2C42.21.9,43.1,0,44.21,0h33.74c1.1,0,2,.9,2,2v7.45c0,1.1-.9,2-2,2h-19.52c-1.1,0-2,.9-2,2v5c0,1.1.9,2,2,2h17.58c1.1,0,2,.9,2,2v7.46c0,1.1-.9,2-2,2h-17.58c-1.1,0-2,.9-2,2v5c0,1.1.9,2,2,2h19.42c1.1,0,2,.9,2,2v7.45c0,1.1-.9,2-2,2h-33.64c-1.1,0-2-.9-2-2Z"/>
    </g>
  </g>
</svg>