<svg width="40" height="40" viewBox="0 0 40 40" fill="none" xmlns="http://www.w3.org/2000/svg">
<path fill-rule="evenodd" clip-rule="evenodd" d="M17.244 12.4897C16.1642 12.886 15.1721 13.5142 14.3431 14.3431C13.0805 15.6058 12.2835 17.247 12.0627 19H16.0177C16.0949 16.8265 16.4217 14.8447 16.9299 13.32C17.026 13.0317 17.1306 12.7537 17.244 12.4897ZM20 10C17.3478 10 14.8043 11.0536 12.9289 12.9289C11.0536 14.8043 10 17.3478 10 20C10 22.6522 11.0536 25.1957 12.9289 27.0711C14.8043 28.9464 17.3478 30 20 30C22.6522 30 25.1957 28.9464 27.0711 27.0711C28.9464 25.1957 30 22.6522 30 20C30 17.3478 28.9464 14.8043 27.0711 12.9289C25.1957 11.0536 22.6522 10 20 10ZM20 12C19.9999 12 20.0001 12 20 12C20.0012 12 20.0059 12.0002 20.0153 12.0031C20.0264 12.0065 20.0485 12.0148 20.0814 12.0351C20.1506 12.0775 20.2546 12.1641 20.3824 12.3263C20.6426 12.6565 20.9207 13.1963 21.1727 13.9525C21.6028 15.2428 21.9045 17.003 21.981 19H18.019C18.0955 17.003 18.3972 15.2428 18.8273 13.9525C19.0793 13.1963 19.3574 12.6565 19.6176 12.3263C19.7454 12.1641 19.8494 12.0775 19.9186 12.0351C19.9515 12.0148 19.9736 12.0065 19.9847 12.0031C19.9948 12 19.9991 12 20 12ZM16.0177 21H12.0627C12.2835 22.753 13.0805 24.3942 14.3431 25.6569C15.1721 26.4858 16.1642 27.114 17.244 27.5103C17.1306 27.2463 17.026 26.9683 16.9299 26.68C16.4217 25.1553 16.0949 23.1735 16.0177 21ZM19.9998 28C19.9986 28 19.9943 27.9999 19.9847 27.9969C19.9736 27.9935 19.9515 27.9852 19.9186 27.9649C19.8494 27.9225 19.7454 27.8359 19.6176 27.6737C19.3574 27.3435 19.0793 26.8037 18.8273 26.0475C18.3972 24.7572 18.0955 22.997 18.019 21H21.981C21.9045 22.997 21.6028 24.7572 21.1727 26.0475C20.9207 26.8037 20.6426 27.3435 20.3824 27.6737C20.2546 27.8359 20.1506 27.9225 20.0814 27.9649C20.0485 27.9852 20.0264 27.9935 20.0153 27.9969C20.0144 27.9972 20.0135 27.9975 20.0127 27.9977C20.0045 28 20.0006 28 19.9998 28C20.9492 28 21.8814 27.8312 22.756 27.5103C23.8358 27.114 24.8279 26.4858 25.6569 25.6569C26.9195 24.3942 27.7165 22.753 27.9373 21H23.9823C23.9051 23.1735 23.5783 25.1553 23.0701 26.68C22.974 26.9683 22.8694 27.2463 22.756 27.5103M23.9823 19C23.9051 16.8265 23.5783 14.8447 23.0701 13.32C22.974 13.0317 22.8694 12.7537 22.756 12.4897C23.8358 12.886 24.8279 13.5142 25.6569 14.3431C26.9195 15.6058 27.7165 17.247 27.9373 19H23.9823Z" fill="#262626"/>
<path d="M20.0127 27.9977C20.0045 28 20.0006 28 19.9998 28C20.9492 28 21.8814 27.8312 22.756 27.5103L20.0127 27.9977Z" fill="#262626"/>
</svg>
