<svg width="40" height="40" viewBox="0 0 40 40" fill="none" xmlns="http://www.w3.org/2000/svg">
<path fill-rule="evenodd" clip-rule="evenodd" d="M16 13C15.4696 13 14.9609 13.2107 14.5858 13.5858C14.2107 13.9609 14 14.4696 14 15V25C14 25.5304 14.2107 26.0391 14.5858 26.4142C14.9609 26.7893 15.4696 27 16 27H20C20.5304 27 21.0391 26.7893 21.4142 26.4142C21.7893 26.0391 22 25.5304 22 25V24C22 23.4477 22.4477 23 23 23C23.5523 23 24 23.4477 24 24V25C24 26.0609 23.5786 27.0783 22.8284 27.8284C22.0783 28.5786 21.0609 29 20 29H16C14.9391 29 13.9217 28.5786 13.1716 27.8284C12.4214 27.0783 12 26.0609 12 25V15C12 13.9391 12.4214 12.9217 13.1716 12.1716C13.9217 11.4214 14.9391 11 16 11H20C21.0609 11 22.0783 11.4214 22.8284 12.1716C23.5786 12.9217 24 13.9391 24 15V16C24 16.5523 23.5523 17 23 17C22.4477 17 22 16.5523 22 16V15C22 14.4696 21.7893 13.9609 21.4142 13.5858C21.0391 13.2107 20.5304 13 20 13H16ZM26.2929 15.2929C26.6834 14.9024 27.3166 14.9024 27.7071 15.2929L31.7071 19.2929C32.0976 19.6834 32.0976 20.3166 31.7071 20.7071L27.7071 24.7071C27.3166 25.0976 26.6834 25.0976 26.2929 24.7071C25.9024 24.3166 25.9024 23.6834 26.2929 23.2929L28.5858 21H17C16.4477 21 16 20.5523 16 20C16 19.4477 16.4477 19 17 19H28.5858L26.2929 16.7071C25.9024 16.3166 25.9024 15.6834 26.2929 15.2929Z" fill="#242424"/>
</svg>
