<svg width="40" height="40" viewBox="0 0 40 40" fill="none" xmlns="http://www.w3.org/2000/svg">
<path d="M16.2857 11V13M19.5 11V13M22.7143 11V13M20.5714 17H16.2857M22.7143 21H16.2857M15.4286 29H23.5714C24.7715 29 25.3716 29 25.83 28.782C26.2332 28.5903 26.561 28.2843 26.7664 27.908C27 27.4802 27 26.9201 27 25.8V15.2C27 14.0799 27 13.5198 26.7664 13.092C26.561 12.7157 26.2332 12.4097 25.83 12.218C25.3716 12 24.7715 12 23.5714 12H15.4286C14.2285 12 13.6284 12 13.17 12.218C12.7668 12.4097 12.439 12.7157 12.2336 13.092C12 13.5198 12 14.0799 12 15.2V25.8C12 26.9201 12 27.4802 12.2336 27.908C12.439 28.2843 12.7668 28.5903 13.17 28.782C13.6284 29 14.2285 29 15.4286 29Z" stroke="#242424" stroke-width="2" stroke-linecap="round" stroke-linejoin="round"/>
</svg>
