<svg width="66" height="29" viewBox="0 0 66 29" fill="none" xmlns="http://www.w3.org/2000/svg">
<g clip-path="url(#clip0_415_2132)">
<path fill-rule="evenodd" clip-rule="evenodd" d="M28.4386 15.0453C28.1328 22.8098 21.8896 28.9902 14.2193 28.9902C9.07181 28.9902 4.58687 26.2116 2.08958 22.0567H18.1946C18.5004 22.0567 18.7297 21.797 18.7297 21.5114C18.7297 21.1998 18.5004 20.9401 18.1946 20.9401H1.47799C0.535135 19.0184 0 16.8112 0 14.5C0 12.1888 0.535135 9.98155 1.47799 8.05992H18.1946C18.5004 8.05992 18.7297 7.80024 18.7297 7.48862C18.7297 7.20297 18.5004 6.94329 18.1946 6.94329H2.08958C4.58687 2.7884 9.07181 0.0098114 14.2193 0.0098114C21.8896 0.0098114 28.1328 6.19021 28.4386 13.9547H11.0085C10.7282 13.9547 10.4734 14.1884 10.4734 14.5C10.4734 14.8116 10.7282 15.0453 11.0085 15.0453H28.4386Z" fill="#909090"/>
<path d="M38.1984 4.21663C37.7397 3.72324 37.1791 3.46356 36.4911 3.46356C35.8285 3.46356 35.2679 3.72324 34.8092 4.21663C34.3505 4.68406 34.1212 5.28132 34.1212 5.98246C34.1212 6.65763 34.3505 7.2549 34.8092 7.74829C35.2679 8.21572 35.8285 8.4754 36.4911 8.4754C37.1791 8.4754 37.7397 8.21572 38.1984 7.74829C38.6571 7.2549 38.8864 6.65763 38.8864 5.98246C38.8864 5.28132 38.6571 4.68406 38.1984 4.21663ZM39.0393 8.50137C38.3513 9.2025 37.5104 9.54009 36.4911 9.54009C35.4972 9.54009 34.6563 9.2025 33.9683 8.50137C33.2802 7.8262 32.949 6.99522 32.949 5.98246C32.949 4.96971 33.2802 4.11276 33.9683 3.43759C34.6563 2.76242 35.4972 2.42484 36.4911 2.42484C37.5104 2.42484 38.3513 2.76242 39.0393 3.43759C39.7019 4.11276 40.0586 4.96971 40.0586 5.98246C40.0586 6.99522 39.7019 7.8262 39.0393 8.50137ZM43.8046 2.58064C44.8494 2.58064 45.5884 2.78839 46.047 3.17791C46.5312 3.5934 46.7606 4.19066 46.7606 5.02164C46.7606 5.85262 46.5312 6.47586 46.047 6.86538C45.5629 7.2549 44.8239 7.43667 43.8301 7.43667H42.6324V9.46218H41.4857V2.58064H43.8046ZM43.9575 6.39795C44.5945 6.39795 45.0277 6.26811 45.2571 6.00843C45.4864 5.77472 45.5884 5.41116 45.5884 4.94374C45.5884 4.45035 45.4355 4.11276 45.1552 3.93098C44.8748 3.72324 44.4162 3.64533 43.8046 3.64533H42.6324V6.39795H43.9575ZM52.8509 2.58064V3.6713H49.2324V5.48907H52.4687V6.52779H49.2324V8.37153H52.9528V9.46218H48.1111V2.58064H52.8509ZM59.4764 2.58064H60.6231V9.46218H59.3745L55.5521 4.45035V9.46218H54.4308V2.58064H55.5521L59.4764 7.72232V2.58064ZM34.5289 18.0317H33.3822V11.1501H35.166L37.2046 15.4608L39.2432 11.1501H41.0015V18.0317H39.8548V12.6563L37.5104 17.4344H36.8733L34.5289 12.6563V18.0317ZM47.627 11.1501V12.2408H44.0084V14.0585H47.2447V15.0973H44.0084V16.941H47.7289V18.0317H42.8872V11.1501H47.627ZM51.5003 11.1501C52.7235 11.1501 53.6409 11.4358 54.3034 12.033C54.966 12.6563 55.2718 13.4872 55.2718 14.5519C55.2718 15.6166 54.966 16.4736 54.3289 17.0968C53.6918 17.72 52.7235 18.0317 51.4239 18.0317H49.1814V11.1501H51.5003ZM54.125 14.5779C54.125 12.9938 53.2331 12.2148 51.4748 12.2148H50.3281V16.941H51.6023C52.4177 16.941 53.0548 16.7332 53.488 16.3437C53.9212 15.9282 54.125 15.3569 54.125 14.5779ZM56.7497 11.1501H57.8965V18.0317H56.7497V11.1501ZM60.725 16.4476L60.037 18.0317H58.8138L61.7953 11.1501H63.0185L65.9999 18.0317H64.7768L64.0887 16.4476H60.725ZM63.6301 15.3829L62.4069 12.5524L61.1837 15.3829H63.6301ZM36.3382 26.6011H33.3822V19.7196H36.0069C36.4656 19.7196 36.8478 19.7715 37.1791 19.8754C37.5104 19.9793 37.7652 20.1351 37.9181 20.3168C38.2494 20.6804 38.4023 21.0699 38.4023 21.5373C38.4023 22.0567 38.2239 22.4722 37.8926 22.7319C37.7652 22.8098 37.6887 22.8877 37.6378 22.9137C37.5868 22.9137 37.5104 22.9656 37.4084 23.0175C37.8162 23.0954 38.1474 23.3032 38.4023 23.5888C38.6571 23.8745 38.759 24.238 38.759 24.6795C38.759 25.1469 38.6061 25.5884 38.2748 25.9519C37.9181 26.3674 37.2555 26.6011 36.3382 26.6011ZM34.5289 22.5501H35.9814C36.7969 22.5501 37.2046 22.2644 37.2046 21.7191C37.2046 21.3815 37.1026 21.1478 36.8988 20.992C36.6949 20.8622 36.3891 20.7843 35.9814 20.7843H34.5289V22.5501ZM34.5289 25.5105H36.3127C36.7204 25.5105 37.0517 25.4585 37.281 25.3027C37.4849 25.1729 37.6123 24.9132 37.6123 24.5496C37.6123 23.9524 37.1281 23.6408 36.1598 23.6408H34.5289V25.5105ZM40.2115 19.7196H41.3328V26.6011H40.2115V19.7196ZM46.1745 26.6011H43.2185V19.7196H45.8432C46.3019 19.7196 46.6841 19.7715 47.0154 19.8754C47.3467 19.9793 47.6015 20.1351 47.7544 20.3168C48.0857 20.6804 48.2385 21.0699 48.2385 21.5373C48.2385 22.0567 48.0602 22.4722 47.7289 22.7319C47.6015 22.8098 47.525 22.8877 47.4741 22.9137C47.4231 22.9137 47.3467 22.9656 47.2447 23.0175C47.6524 23.0954 47.9837 23.3032 48.2385 23.5888C48.4679 23.8745 48.5953 24.238 48.5953 24.6795C48.5953 25.1469 48.4424 25.5884 48.1111 25.9519C47.7289 26.3674 47.0918 26.6011 46.1745 26.6011ZM44.3652 22.5501H45.7922C46.6331 22.5501 47.0409 22.2644 47.0409 21.7191C47.0409 21.3815 46.9389 21.1478 46.7351 20.992C46.5312 20.8622 46.2254 20.7843 45.8177 20.7843H44.3652V22.5501ZM44.3652 25.5105H46.149C46.5567 25.5105 46.888 25.4585 47.0918 25.3027C47.3212 25.1729 47.4231 24.9132 47.4231 24.5496C47.4231 23.9524 46.9644 23.6408 45.9961 23.6408H44.3652V25.5105ZM50.0223 26.6011V19.7196H51.1691V25.4845H54.2524V26.6011H50.0223ZM60.2409 19.7196V20.8102H56.6478V22.628H59.8841V23.6667H56.6478V25.4845H60.3683V26.6011H55.5011V19.7196H60.2409Z" fill="#909090"/>
</g>
<defs>
<clipPath id="clip0_415_2132">
<rect width="66" height="29" fill="white"/>
</clipPath>
</defs>
</svg>
