<?xml version="1.0" encoding="UTF-8"?>
<!DOCTYPE svg PUBLIC "-//W3C//DTD SVG 1.1//EN" "http://www.w3.org/Graphics/SVG/1.1/DTD/svg11.dtd">
<!-- Creator: CorelDRAW X8 -->
<svg xmlns="http://www.w3.org/2000/svg" xml:space="preserve" width="1947px" height="273px" version="1.1" style="shape-rendering:geometricPrecision; text-rendering:geometricPrecision; image-rendering:optimizeQuality; fill-rule:evenodd; clip-rule:evenodd"
viewBox="0 0 1822 256"
 xmlns:xlink="http://www.w3.org/1999/xlink">
 <defs>
  <style type="text/css">
   <![CDATA[
    .fil0 {fill:#595959}
    .fil1 {fill:#595959;fill-rule:nonzero}
   ]]>
  </style>
 </defs>
 <g id="Слой_x0020_1">
  <metadata id="CorelCorpID_0Corel-Layer"/>
  <path class="fil0" d="M256 133c-3,68 -59,123 -128,123 -46,0 -87,-25 -109,-61l145 0c2,0 5,-3 5,-5 0,-3 -3,-5 -5,-5l-151 0c-8,-17 -13,-37 -13,-57 0,-21 5,-40 13,-57l151 0c2,0 5,-2 5,-5 0,-3 -3,-5 -5,-5l-145 0c22,-37 63,-61 109,-61 69,0 125,55 128,123l-157 0c-3,0 -5,2 -5,5 0,3 2,5 5,5l157 0z"/>
  <path class="fil1" d="M400 90c-7,-8 -16,-12 -27,-12 -10,0 -19,4 -27,12 -7,7 -11,16 -11,27 0,11 4,20 11,27 8,8 17,12 27,12 11,0 20,-4 27,-12 7,-7 11,-16 11,-27 0,-11 -4,-20 -11,-27zm13 66c-11,11 -24,16 -40,16 -16,0 -29,-5 -40,-16 -11,-10 -16,-23 -16,-39 0,-16 5,-29 16,-39 11,-11 24,-16 40,-16 16,0 29,5 40,16 11,10 16,23 16,39 0,16 -5,29 -16,39zm76 -92c16,0 28,4 35,10 7,6 11,15 11,28 0,13 -4,23 -11,29 -8,6 -19,9 -35,9l-19 0 0 31 -18 0 0 -107 37 0zm2 59c10,0 17,-1 20,-5 4,-4 6,-10 6,-17 0,-7 -3,-13 -7,-16 -5,-3 -12,-4 -22,-4l-18 0 0 42 21 0zm140 -59l0 17 -57 0 0 29 51 0 0 16 -51 0 0 28 59 0 0 17 -77 0 0 -107 75 0zm105 0l18 0 0 107 -20 0 -60 -78 0 78 -18 0 0 -107 18 0 62 80 0 -80zm107 107l-18 0 0 -107 28 0 32 67 33 -67 28 0 0 107 -18 0 0 -83 -38 74 -10 0 -37 -74 0 83zm207 -107l0 17 -57 0 0 29 51 0 0 16 -51 0 0 28 59 0 0 17 -77 0 0 -107 75 0zm61 0c20,0 34,5 45,14 10,10 15,23 15,39 0,17 -5,30 -15,40 -10,9 -25,14 -46,14l-35 0 0 -107 36 0zm42 54c0,-25 -14,-37 -42,-37l-18 0 0 73 20 0c13,0 23,-3 29,-9 7,-6 11,-15 11,-27zm41 -54l18 0 0 107 -18 0 0 -107zm63 83l-11 24 -19 0 47 -107 19 0 47 107 -19 0 -11 -24 -53 0zm46 -17l-20 -44 -19 44 39 0zm140 41l-46 0 0 -107 41 0c7,0 13,1 19,3 5,2 9,4 11,7 5,6 8,12 8,19 0,8 -3,14 -8,18 -2,2 -3,3 -4,3 -1,0 -2,1 -4,2 7,1 12,4 16,9 4,4 6,10 6,16 0,8 -3,14 -8,20 -6,7 -16,10 -31,10zm-28 -62l22 0c13,0 20,-5 20,-14 0,-5 -2,-8 -5,-11 -3,-2 -8,-3 -14,-3l-23 0 0 28zm0 45l28 0c6,0 11,-1 15,-3 3,-2 5,-6 5,-12 0,-9 -7,-14 -23,-14l-25 0 0 29zm89 -90l18 0 0 107 -18 0 0 -107zm94 107l-46 0 0 -107 41 0c7,0 14,1 19,3 5,2 9,4 12,7 4,6 7,12 7,19 0,8 -3,14 -8,18 -2,2 -3,3 -4,3 -1,0 -2,1 -4,2 7,1 12,4 16,9 4,4 6,10 6,16 0,8 -3,14 -8,20 -6,7 -16,10 -31,10zm-28 -62l23 0c13,0 19,-5 19,-14 0,-5 -1,-8 -5,-11 -3,-2 -8,-3 -14,-3l-23 0 0 28zm0 45l28 0c7,0 12,-1 15,-3 4,-2 5,-6 5,-12 0,-9 -7,-14 -22,-14l-26 0 0 29zm89 17l0 -107 18 0 0 90 49 0 0 17 -67 0zm162 -107l0 17 -57 0 0 29 51 0 0 16 -51 0 0 28 58 0 0 17 -76 0 0 -107 75 0z"/>
 </g>
</svg>
