<svg xmlns="http://www.w3.org/2000/svg" xmlns:xlink="http://www.w3.org/1999/xlink" width="202" zoomAndPan="magnify" viewBox="0 0 151.5 42" height="56" preserveAspectRatio="xMidYMid meet" version="1.0"><defs><clipPath id="553742b17d"><path d="M 5.632812 10.726562 L 26 10.726562 L 26 30.570312 L 5.632812 30.570312 Z M 5.632812 10.726562 " clip-rule="nonzero"/></clipPath></defs><g clip-path="url(#553742b17d)"><path fill="#595959" d="M 25.378906 21.039062 C 25.148438 26.308594 20.835938 30.570312 15.519531 30.570312 C 11.976562 30.570312 8.820312 28.632812 7.125 25.84375 L 18.292969 25.84375 C 18.445312 25.84375 18.679688 25.609375 18.679688 25.457031 C 18.679688 25.222656 18.445312 25.066406 18.292969 25.066406 L 6.664062 25.066406 C 6.046875 23.75 5.664062 22.199219 5.664062 20.648438 C 5.664062 19.023438 6.046875 17.550781 6.664062 16.230469 L 18.292969 16.230469 C 18.445312 16.230469 18.679688 16.078125 18.679688 15.84375 C 18.679688 15.609375 18.445312 15.457031 18.292969 15.457031 L 7.125 15.457031 C 8.820312 12.589844 11.976562 10.726562 15.519531 10.726562 C 20.835938 10.726562 25.148438 14.992188 25.378906 20.261719 L 13.285156 20.261719 C 13.054688 20.261719 12.902344 20.417969 12.902344 20.648438 C 12.902344 20.882812 13.054688 21.039062 13.285156 21.039062 Z M 25.378906 21.039062 " fill-opacity="1" fill-rule="evenodd"/></g><path fill="#595959" d="M 36.46875 17.703125 C 35.929688 17.082031 35.234375 16.773438 34.390625 16.773438 C 33.617188 16.773438 32.925781 17.082031 32.308594 17.703125 C 31.769531 18.246094 31.460938 18.945312 31.460938 19.796875 C 31.460938 20.648438 31.769531 21.347656 32.308594 21.890625 C 32.925781 22.511719 33.617188 22.820312 34.390625 22.820312 C 35.234375 22.820312 35.929688 22.511719 36.46875 21.890625 C 37.007812 21.347656 37.316406 20.648438 37.316406 19.796875 C 37.316406 18.945312 37.007812 18.246094 36.46875 17.703125 Z M 37.46875 22.820312 C 36.621094 23.671875 35.621094 24.058594 34.390625 24.058594 C 33.15625 24.058594 32.15625 23.671875 31.308594 22.820312 C 30.460938 22.046875 30.074219 21.039062 30.074219 19.796875 C 30.074219 18.558594 30.460938 17.550781 31.308594 16.773438 C 32.15625 15.921875 33.15625 15.535156 34.390625 15.535156 C 35.621094 15.535156 36.621094 15.921875 37.46875 16.773438 C 38.316406 17.550781 38.703125 18.558594 38.703125 19.796875 C 38.703125 21.039062 38.316406 22.046875 37.46875 22.820312 Z M 43.324219 15.6875 C 44.554688 15.6875 45.480469 16 46.019531 16.464844 C 46.558594 16.929688 46.867188 17.625 46.867188 18.632812 C 46.867188 19.640625 46.558594 20.417969 46.019531 20.882812 C 45.402344 21.347656 44.554688 21.578125 43.324219 21.578125 L 41.859375 21.578125 L 41.859375 23.984375 L 40.472656 23.984375 L 40.472656 15.6875 Z M 43.476562 20.261719 C 44.246094 20.261719 44.785156 20.183594 45.015625 19.875 C 45.324219 19.566406 45.480469 19.097656 45.480469 18.558594 C 45.480469 18.015625 45.25 17.550781 44.941406 17.316406 C 44.554688 17.082031 44.015625 17.007812 43.246094 17.007812 L 41.859375 17.007812 L 41.859375 20.261719 Z M 54.257812 15.6875 L 54.257812 17.007812 L 49.871094 17.007812 L 49.871094 19.253906 L 53.796875 19.253906 L 53.796875 20.496094 L 49.871094 20.496094 L 49.871094 22.664062 L 54.414062 22.664062 L 54.414062 23.984375 L 48.484375 23.984375 L 48.484375 15.6875 Z M 62.347656 15.6875 L 63.730469 15.6875 L 63.730469 23.984375 L 62.191406 23.984375 L 57.570312 17.9375 L 57.570312 23.984375 L 56.183594 23.984375 L 56.183594 15.6875 L 57.570312 15.6875 L 62.347656 21.890625 Z M 70.585938 23.984375 L 69.199219 23.984375 L 69.199219 15.6875 L 71.355469 15.6875 L 73.820312 20.882812 L 76.363281 15.6875 L 78.519531 15.6875 L 78.519531 23.984375 L 77.132812 23.984375 L 77.132812 17.550781 L 74.207031 23.285156 L 73.4375 23.285156 L 70.585938 17.550781 Z M 86.527344 15.6875 L 86.527344 17.007812 L 82.140625 17.007812 L 82.140625 19.253906 L 86.066406 19.253906 L 86.066406 20.496094 L 82.140625 20.496094 L 82.140625 22.664062 L 86.683594 22.664062 L 86.683594 23.984375 L 80.753906 23.984375 L 80.753906 15.6875 Z M 91.226562 15.6875 C 92.765625 15.6875 93.84375 16.078125 94.691406 16.773438 C 95.460938 17.550781 95.847656 18.558594 95.847656 19.796875 C 95.847656 21.113281 95.460938 22.121094 94.691406 22.898438 C 93.921875 23.59375 92.765625 23.984375 91.148438 23.984375 L 88.453125 23.984375 L 88.453125 15.6875 Z M 94.460938 19.875 C 94.460938 17.9375 93.382812 17.007812 91.226562 17.007812 L 89.839844 17.007812 L 89.839844 22.664062 L 91.378906 22.664062 C 92.382812 22.664062 93.152344 22.433594 93.613281 21.96875 C 94.152344 21.503906 94.460938 20.804688 94.460938 19.875 Z M 97.617188 15.6875 L 99.003906 15.6875 L 99.003906 23.984375 L 97.617188 23.984375 Z M 102.472656 22.121094 L 101.625 23.984375 L 100.160156 23.984375 L 103.78125 15.6875 L 105.242188 15.6875 L 108.863281 23.984375 L 107.398438 23.984375 L 106.554688 22.121094 Z M 106.011719 20.804688 L 104.472656 17.394531 L 103.011719 20.804688 Z M 116.796875 23.984375 L 113.253906 23.984375 L 113.253906 15.6875 L 116.410156 15.6875 C 116.949219 15.6875 117.410156 15.765625 117.875 15.921875 C 118.257812 16.078125 118.566406 16.230469 118.722656 16.464844 C 119.105469 16.929688 119.335938 17.394531 119.335938 17.9375 C 119.335938 18.558594 119.105469 19.023438 118.722656 19.332031 C 118.566406 19.488281 118.488281 19.566406 118.414062 19.566406 C 118.335938 19.566406 118.257812 19.640625 118.105469 19.71875 C 118.644531 19.796875 119.03125 20.03125 119.335938 20.417969 C 119.644531 20.726562 119.800781 21.191406 119.800781 21.65625 C 119.800781 22.277344 119.570312 22.742188 119.183594 23.207031 C 118.722656 23.75 117.949219 23.984375 116.796875 23.984375 Z M 114.640625 19.175781 L 116.332031 19.175781 C 117.335938 19.175781 117.875 18.789062 117.875 18.089844 C 117.875 17.703125 117.71875 17.472656 117.488281 17.238281 C 117.257812 17.082031 116.871094 17.007812 116.410156 17.007812 L 114.640625 17.007812 Z M 114.640625 22.664062 L 116.796875 22.664062 C 117.257812 22.664062 117.644531 22.585938 117.949219 22.433594 C 118.183594 22.277344 118.335938 21.96875 118.335938 21.503906 C 118.335938 20.804688 117.796875 20.417969 116.566406 20.417969 L 114.640625 20.417969 Z M 121.492188 15.6875 L 122.878906 15.6875 L 122.878906 23.984375 L 121.492188 23.984375 Z M 128.734375 23.984375 L 125.191406 23.984375 L 125.191406 15.6875 L 128.347656 15.6875 C 128.886719 15.6875 129.425781 15.765625 129.8125 15.921875 C 130.195312 16.078125 130.503906 16.230469 130.734375 16.464844 C 131.042969 16.929688 131.273438 17.394531 131.273438 17.9375 C 131.273438 18.558594 131.042969 19.023438 130.660156 19.332031 C 130.503906 19.488281 130.425781 19.566406 130.351562 19.566406 C 130.273438 19.566406 130.195312 19.640625 130.042969 19.71875 C 130.582031 19.796875 130.964844 20.03125 131.273438 20.417969 C 131.582031 20.726562 131.738281 21.191406 131.738281 21.65625 C 131.738281 22.277344 131.503906 22.742188 131.121094 23.207031 C 130.660156 23.75 129.886719 23.984375 128.734375 23.984375 Z M 126.578125 19.175781 L 128.347656 19.175781 C 129.347656 19.175781 129.8125 18.789062 129.8125 18.089844 C 129.8125 17.703125 129.734375 17.472656 129.425781 17.238281 C 129.195312 17.082031 128.808594 17.007812 128.347656 17.007812 L 126.578125 17.007812 Z M 126.578125 22.664062 L 128.734375 22.664062 C 129.273438 22.664062 129.65625 22.585938 129.886719 22.433594 C 130.195312 22.277344 130.273438 21.96875 130.273438 21.503906 C 130.273438 20.804688 129.734375 20.417969 128.578125 20.417969 L 126.578125 20.417969 Z M 133.429688 23.984375 L 133.429688 15.6875 L 134.816406 15.6875 L 134.816406 22.664062 L 138.589844 22.664062 L 138.589844 23.984375 Z M 145.90625 15.6875 L 145.90625 17.007812 L 141.519531 17.007812 L 141.519531 19.253906 L 145.445312 19.253906 L 145.445312 20.496094 L 141.519531 20.496094 L 141.519531 22.664062 L 145.984375 22.664062 L 145.984375 23.984375 L 140.132812 23.984375 L 140.132812 15.6875 Z M 145.90625 15.6875 " fill-opacity="1" fill-rule="nonzero"/></svg>