<svg xmlns="http://www.w3.org/2000/svg" xmlns:xlink="http://www.w3.org/1999/xlink" width="48" zoomAndPan="magnify" viewBox="0 0 36 36.000001" height="48" preserveAspectRatio="xMidYMid meet" version="1.0"><defs><g/><clipPath id="4b408d29bb"><path d="M 9.242188 3.503906 L 26.8125 3.503906 L 26.8125 31.578125 L 9.242188 31.578125 Z M 9.242188 3.503906 " clip-rule="nonzero"/></clipPath><clipPath id="1e59f102de"><path d="M 10.703125 3.503906 L 25.296875 3.503906 C 26.101562 3.503906 26.757812 4.15625 26.757812 4.960938 L 26.757812 30.066406 C 26.757812 30.871094 26.101562 31.523438 25.296875 31.523438 L 10.703125 31.523438 C 9.898438 31.523438 9.242188 30.871094 9.242188 30.066406 L 9.242188 4.960938 C 9.242188 4.15625 9.898438 3.503906 10.703125 3.503906 " clip-rule="nonzero"/></clipPath><clipPath id="839a7afa4c"><path d="M 9.246094 3.503906 L 26.757812 3.503906 L 26.757812 31.234375 L 9.246094 31.234375 Z M 9.246094 3.503906 " clip-rule="nonzero"/></clipPath><clipPath id="012a632879"><path d="M 10.703125 3.503906 L 25.296875 3.503906 C 26.101562 3.503906 26.753906 4.148438 26.753906 4.945312 L 26.753906 29.789062 C 26.753906 30.585938 26.101562 31.234375 25.296875 31.234375 L 10.703125 31.234375 C 9.898438 31.234375 9.246094 30.585938 9.246094 29.789062 L 9.246094 4.945312 C 9.246094 4.148438 9.898438 3.503906 10.703125 3.503906 " clip-rule="nonzero"/></clipPath><clipPath id="024513f75b"><path d="M 3.992188 8.699219 L 32.070312 8.699219 L 32.070312 26.265625 L 3.992188 26.265625 Z M 3.992188 8.699219 " clip-rule="nonzero"/></clipPath><clipPath id="a99acba4a2"><path d="M 3.992188 24.808594 L 3.992188 10.210938 C 3.992188 9.40625 4.644531 8.753906 5.453125 8.753906 L 30.554688 8.753906 C 31.359375 8.753906 32.015625 9.40625 32.015625 10.210938 L 32.015625 24.808594 C 32.015625 25.613281 31.359375 26.265625 30.554688 26.265625 L 5.453125 26.265625 C 4.644531 26.265625 3.992188 25.613281 3.992188 24.808594 " clip-rule="nonzero"/></clipPath><clipPath id="2506d29530"><path d="M 3.992188 8.753906 L 31.722656 8.753906 L 31.722656 26.265625 L 3.992188 26.265625 Z M 3.992188 8.753906 " clip-rule="nonzero"/></clipPath><clipPath id="0ef87df8ac"><path d="M 3.992188 24.804688 L 3.992188 10.214844 C 3.992188 9.410156 4.640625 8.753906 5.4375 8.753906 L 30.277344 8.753906 C 31.074219 8.753906 31.722656 9.410156 31.722656 10.214844 L 31.722656 24.804688 C 31.722656 25.613281 31.074219 26.265625 30.277344 26.265625 L 5.4375 26.265625 C 4.640625 26.265625 3.992188 25.613281 3.992188 24.804688 " clip-rule="nonzero"/></clipPath></defs><g clip-path="url(#4b408d29bb)"><g clip-path="url(#1e59f102de)"><path fill="#ffffff" d="M 9.242188 3.503906 L 26.8125 3.503906 L 26.8125 31.578125 L 9.242188 31.578125 Z M 9.242188 3.503906 " fill-opacity="1" fill-rule="nonzero"/></g></g><g clip-path="url(#839a7afa4c)"><g clip-path="url(#012a632879)"><path stroke-linecap="butt" transform="matrix(0.72973, 0, 0, 0.722305, 9.245381, 3.502705)" fill="none" stroke-linejoin="miter" d="M 1.997649 0.00166331 L 21.996492 0.00166331 C 23.099211 0.00166331 23.993164 0.893989 23.993164 1.997229 L 23.993164 36.392336 C 23.993164 37.495575 23.099211 38.393309 21.996492 38.393309 L 1.997649 38.393309 C 0.894929 38.393309 0.000976203 37.495575 0.000976203 36.392336 L 0.000976203 1.997229 C 0.000976203 0.893989 0.894929 0.00166331 1.997649 0.00166331 " stroke="#000000" stroke-width="2" stroke-opacity="1" stroke-miterlimit="4"/></g></g><g clip-path="url(#024513f75b)"><g clip-path="url(#a99acba4a2)"><path fill="#ffffff" d="M 3.992188 26.265625 L 3.992188 8.699219 L 32.070312 8.699219 L 32.070312 26.265625 Z M 3.992188 26.265625 " fill-opacity="1" fill-rule="nonzero"/></g></g><g clip-path="url(#2506d29530)"><g clip-path="url(#0ef87df8ac)"><path stroke-linecap="butt" transform="matrix(0.000000000000000045, -0.72973, 0.722305, 0.000000000000000044, 3.992609, 26.264713)" fill="none" stroke-linejoin="miter" d="M 2.000776 -0.000583899 L 21.994266 -0.000583899 C 23.096986 -0.000583899 23.996291 0.89715 23.996291 2.000389 L 23.996291 36.390089 C 23.996291 37.493328 23.096986 38.391062 21.994266 38.391062 L 2.000776 38.391062 C 0.892703 38.391062 -0.00124937 37.493328 -0.00124937 36.390089 L -0.00124937 2.000389 C -0.00124937 0.89715 0.892703 -0.000583899 2.000776 -0.000583899 " stroke="#000000" stroke-width="2" stroke-opacity="1" stroke-miterlimit="4"/></g></g><g fill="#000000" fill-opacity="1"><g transform="translate(6.203462, 21.162164)"><g><path d="M 4.171875 -7.484375 C 4.847656 -7.484375 5.4375 -7.367188 5.9375 -7.140625 C 6.4375 -6.921875 6.820312 -6.601562 7.09375 -6.1875 C 7.363281 -5.769531 7.5 -5.28125 7.5 -4.71875 C 7.5 -4.15625 7.363281 -3.664062 7.09375 -3.25 C 6.820312 -2.84375 6.4375 -2.523438 5.9375 -2.296875 C 5.4375 -2.066406 4.847656 -1.953125 4.171875 -1.953125 L 2.875 -1.953125 L 2.875 0 L 0.75 0 L 0.75 -7.484375 Z M 4.046875 -3.625 C 4.484375 -3.625 4.8125 -3.71875 5.03125 -3.90625 C 5.25 -4.101562 5.359375 -4.375 5.359375 -4.71875 C 5.359375 -5.070312 5.25 -5.34375 5.03125 -5.53125 C 4.8125 -5.726562 4.484375 -5.828125 4.046875 -5.828125 L 2.875 -5.828125 L 2.875 -3.625 Z M 4.046875 -3.625 "/></g></g></g><g fill="#000000" fill-opacity="1"><g transform="translate(14.085781, 21.162164)"><g><path d="M 0.75 -7.484375 L 4.296875 -7.484375 C 5.109375 -7.484375 5.832031 -7.332031 6.46875 -7.03125 C 7.101562 -6.726562 7.597656 -6.289062 7.953125 -5.71875 C 8.304688 -5.15625 8.484375 -4.5 8.484375 -3.75 C 8.484375 -2.988281 8.304688 -2.328125 7.953125 -1.765625 C 7.597656 -1.203125 7.101562 -0.765625 6.46875 -0.453125 C 5.832031 -0.148438 5.109375 0 4.296875 0 L 0.75 0 Z M 4.203125 -1.6875 C 4.847656 -1.6875 5.363281 -1.867188 5.75 -2.234375 C 6.144531 -2.597656 6.34375 -3.101562 6.34375 -3.75 C 6.34375 -4.382812 6.144531 -4.882812 5.75 -5.25 C 5.363281 -5.613281 4.847656 -5.796875 4.203125 -5.796875 L 2.875 -5.796875 L 2.875 -1.6875 Z M 4.203125 -1.6875 "/></g></g></g><g fill="#000000" fill-opacity="1"><g transform="translate(22.919969, 21.162164)"><g><path d="M 2.875 -5.859375 L 2.875 -4.203125 L 6.171875 -4.203125 L 6.171875 -2.5625 L 2.875 -2.5625 L 2.875 0 L 0.75 0 L 0.75 -7.484375 L 6.625 -7.484375 L 6.625 -5.859375 Z M 2.875 -5.859375 "/></g></g></g></svg>