<svg width="40" height="40" viewBox="0 0 40 40" fill="none" xmlns="http://www.w3.org/2000/svg">
<path fill-rule="evenodd" clip-rule="evenodd" d="M10.8787 12.8787C11.4413 12.3161 12.2044 12 13 12H19C19.2652 12 19.5196 12.1054 19.7071 12.2929L21.4142 14H27C27.7957 14 28.5587 14.3161 29.1213 14.8787C29.6839 15.4413 30 16.2043 30 17V25C30 25.7957 29.6839 26.5587 29.1213 27.1213C28.5587 27.6839 27.7957 28 27 28H13C12.2043 28 11.4413 27.6839 10.8787 27.1213C10.3161 26.5587 10 25.7956 10 25V15C10 14.2044 10.3161 13.4413 10.8787 12.8787ZM13 14C12.7348 14 12.4804 14.1054 12.2929 14.2929C12.1054 14.4804 12 14.7348 12 15V25C12 25.2652 12.1054 25.5196 12.2929 25.7071C12.4804 25.8946 12.7348 26 13 26H27C27.2652 26 27.5196 25.8946 27.7071 25.7071C27.8946 25.5196 28 25.2652 28 25V17C28 16.7348 27.8946 16.4804 27.7071 16.2929C27.5196 16.1054 27.2652 16 27 16H21C20.7348 16 20.4804 15.8946 20.2929 15.7071L18.5858 14H13Z" fill="#262626"/>
</svg>
