<svg class="w-6 h-6" viewBox="0 0 28 28" fill="none" xmlns="http://www.w3.org/2000/svg">
  <path clip-rule="evenodd"
    d="M19.5305 6.38229C19.4255 3.39197 16.9659 1 13.9471 1C10.8615 1 8.36015 3.49896 8.36015 6.58159V12.1632C8.36015 14.9547 10.4113 17.2675 13.0901 17.6795L12.0429 19.5164C9.02506 18.7397 6.71246 16.2088 6.25919 13.0768C6.16971 12.4584 5.67803 11.9488 5.06092 11.9488C4.4438 11.9488 3.93685 12.4575 4.0064 13.0785C4.45102 17.0481 7.21086 20.3186 10.9057 21.5111L8.5572 25.6306C8.33838 26.0145 8.47019 26.5064 8.8516 26.7294L9.12441 26.8889C9.50583 27.1119 9.99241 26.9816 10.2112 26.5977L23.7432 2.86133C23.962 2.47749 23.8302 1.98555 23.4488 1.76253L23.176 1.60302C22.7945 1.38001 22.308 1.51038 22.0891 1.89421L19.5305 6.38229ZM17.2992 10.2962V6.58159C17.2992 4.73202 15.7984 3.23264 13.9471 3.23264C12.0957 3.23264 10.5949 4.73202 10.5949 6.58159V12.1632C10.5949 14.0128 12.0957 15.5121 13.9471 15.5121C14.0795 15.5121 14.2101 15.5045 14.3385 15.4895L17.2992 10.2962Z"
    fill="red" fill-rule="evenodd" />
  <path
    d="M18.0137 26.3218H12.5766L16.5597 19.335C19.2794 18.3944 21.3182 15.9969 21.7408 13.0768C21.8303 12.4584 22.322 11.9488 22.9391 11.9488C23.5562 11.9488 24.0632 12.4575 23.9936 13.0785C23.4728 17.7283 19.7754 21.4189 15.1196 21.9341V23.3155C15.1196 23.7428 15.4616 24.0892 15.8835 24.0892H18.0137C18.4356 24.0892 18.7776 24.4356 18.7776 24.8629V25.5481C18.7776 25.9754 18.4356 26.3218 18.0137 26.3218Z"
    fill="red" />
</svg>