<svg width="15" height="15" viewBox="0 0 11 12" fill="none" xmlns="http://www.w3.org/2000/svg">
<path fill-rule="evenodd" clip-rule="evenodd" d="M5.49328 0.583496C2.50328 0.583496 0.0820312 3.01016 0.0820312 6.00016C0.0820312 8.99016 2.50328 11.4168 5.49328 11.4168C8.4887 11.4168 10.9154 8.99016 10.9154 6.00016C10.9154 3.01016 8.4887 0.583496 5.49328 0.583496ZM5.4987 10.3335C3.10453 10.3335 1.16536 8.39433 1.16536 6.00016C1.16536 3.606 3.10453 1.66683 5.4987 1.66683C7.89286 1.66683 9.83203 3.606 9.83203 6.00016C9.83203 8.39433 7.89286 10.3335 5.4987 10.3335ZM5.76953 3.29183H4.95703V6.54183L7.80078 8.24808L8.20703 7.58183L5.76953 6.13558V3.29183Z" fill="#27272A"/>
</svg>
