<svg  viewBox="0 0 42 42" fill="none" xmlns="http://www.w3.org/2000/svg">
<g id="Group 110">
<g id="Group 99">
<circle id="Ellipse 15" cx="21" cy="21" r="20" stroke="currentColor" stroke-width="1.5"/>
</g>
<path id="Vector (Stroke)" fill-rule="evenodd" clip-rule="evenodd" d="M17.5858 11.5858C17.9609 11.2107 18.4696 11 19 11H23C23.5304 11 24.0391 11.2107 24.4142 11.5858C24.7893 11.9609 25 12.4696 25 13V15H27.9897C27.9959 14.9999 28.0021 14.9999 28.0083 15H29C29.5523 15 30 15.4477 30 16C30 16.5523 29.5523 17 29 17H28.9311L28.1305 28.213C28.1305 28.2131 28.1305 28.2129 28.1305 28.213C28.0765 28.9698 27.7379 29.6783 27.1826 30.1954C26.6274 30.7125 25.8968 31 25.138 31H16.862C16.1032 31 15.3726 30.7125 14.8174 30.1954C14.2621 29.6783 13.9235 28.97 13.8695 28.2132C13.8695 28.2132 13.8695 28.2133 13.8695 28.2132L13.0689 17H13C12.4477 17 12 16.5523 12 16C12 15.4477 12.4477 15 13 15H13.9917C13.9979 14.9999 14.0041 14.9999 14.0103 15H17V13C17 12.4696 17.2107 11.9609 17.5858 11.5858ZM15.074 17L15.8645 28.0708C15.8824 28.3231 15.9953 28.5594 16.1804 28.7318C16.3655 28.9042 16.609 29 16.862 29H25.138C25.391 29 25.6345 28.9042 25.8196 28.7318C26.0047 28.5594 26.1176 28.3233 26.1355 28.071L26.926 17H15.074ZM23 15H19V13H23V15ZM19 19C19.5523 19 20 19.4477 20 20V26C20 26.5523 19.5523 27 19 27C18.4477 27 18 26.5523 18 26V20C18 19.4477 18.4477 19 19 19ZM23 19C23.5523 19 24 19.4477 24 20V26C24 26.5523 23.5523 27 23 27C22.4477 27 22 26.5523 22 26V20C22 19.4477 22.4477 19 23 19Z" fill="currentColor"/>
</g>
</svg>
