<svg viewBox="0 0 258 73" fill="currentcolor" xmlns="http://www.w3.org/2000/svg">
<path fill-rule="evenodd" clip-rule="evenodd" d="M36.8823 0C57.2802 0 73.7645 16.3135 73.7645 36.5C73.7645 56.6865 57.2802 73 36.8823 73C16.4844 73 0 56.6865 0 36.5C0 16.3135 16.4844 0 36.8823 0ZM45.6581 20.7733H60.3637V26.5241H45.6581V44.246C45.6581 46.2412 45.7768 47.7669 46.1325 49.0579C46.3697 50.3489 46.844 51.2878 47.437 51.992C48.0299 52.6961 48.7416 53.283 49.6903 53.5177C50.6391 53.8698 51.5878 53.9871 52.7737 53.9871C54.9084 53.9871 56.5686 53.7524 57.8731 53.283C59.1776 52.8135 60.0079 52.4614 60.4822 52.3441L61.9053 57.9775C61.1937 58.3296 60.0079 58.799 58.229 59.2685C56.4501 59.8553 54.434 60.09 52.1808 60.09C49.5717 60.09 47.437 59.7379 45.6581 59.0338C43.9978 58.447 42.5748 57.3907 41.5074 56.0997C40.4401 54.6913 39.7285 53.0482 39.3727 51.1704C38.8983 49.1752 38.6612 46.9453 38.6612 44.3633V9.97589L45.6581 8.80225V20.7733ZM28.4622 20.7733H13.7568V26.5241H28.4622V44.246C28.4622 46.2412 28.3436 47.7669 28.1064 49.0579C27.7506 50.3489 27.2762 51.2878 26.6833 51.992C26.0903 52.6961 25.3788 53.283 24.43 53.5177C23.5999 53.8698 22.5325 53.9871 21.3466 53.9871C19.2119 53.9871 17.5517 53.7524 16.2472 53.283C14.9427 52.8135 14.1126 52.4614 13.6382 52.3441L12.215 57.9775C12.9265 58.3296 14.2311 58.799 15.8914 59.2685C17.6702 59.8553 19.6863 60.09 21.9396 60.09C24.5486 60.09 26.8019 59.7379 28.4622 59.0338C30.241 58.447 31.5456 57.3907 32.6129 56.0997C33.6802 54.6913 34.3918 53.0482 34.8662 51.1704C35.2219 49.1752 35.4591 46.9453 35.4591 44.3633V9.97589L28.4622 8.80225V20.7733Z" fill="current-color"/>
<path d="M238.038 30.5434C238.038 28.6656 238.393 26.9052 238.986 25.4968C239.579 23.9711 240.291 22.7974 241.24 21.7412C242.188 20.8023 243.256 20.0981 244.56 19.6286C245.746 19.1592 247.051 18.9244 248.355 18.9244C251.32 18.9244 253.692 19.8633 255.233 21.6238C256.894 23.5016 257.724 26.4357 257.724 30.1913C257.724 30.4261 257.724 30.5434 257.724 30.8955C257.724 31.1302 257.724 31.365 257.605 31.5997H242.307C242.425 33.947 243.137 35.7074 244.323 36.881C245.509 38.0547 247.288 38.6415 249.897 38.6415C251.201 38.6415 252.387 38.5241 253.455 38.2894C254.403 38.0547 255.115 37.82 255.589 37.5852L256.182 40.9888C255.708 41.2235 254.759 41.4582 253.573 41.8103C252.387 42.045 250.964 42.1624 249.422 42.1624C247.406 42.1624 245.746 41.9277 244.323 41.3409C242.9 40.754 241.714 39.9325 240.765 38.8762C239.935 37.82 239.223 36.6463 238.749 35.238C238.275 33.8296 238.038 32.3039 238.038 30.5434ZM253.573 28.4309C253.573 26.6704 253.099 25.1447 252.15 23.9711C251.201 22.7974 249.897 22.2106 248.237 22.2106C247.406 22.2106 246.576 22.4454 245.865 22.7974C245.153 23.1495 244.56 23.619 244.086 24.2058C243.611 24.7926 243.137 25.3794 242.9 26.201C242.663 26.9052 242.425 27.6093 242.425 28.4309H253.573ZM213.963 30.5434C213.963 28.6656 214.2 26.9052 214.793 25.4968C215.386 23.9711 216.098 22.7974 217.047 21.7412C217.995 20.8023 219.181 20.0981 220.367 19.6286C221.672 19.1592 222.858 18.9244 224.162 18.9244C227.246 18.9244 229.499 19.8633 231.159 21.6238C232.701 23.5016 233.531 26.4357 233.531 30.1913C233.531 30.4261 233.531 30.5434 233.531 30.8955C233.531 31.1302 233.531 31.365 233.531 31.5997H218.114C218.351 33.947 218.944 35.7074 220.13 36.881C221.316 38.0547 223.213 38.6415 225.704 38.6415C227.127 38.6415 228.313 38.5241 229.262 38.2894C230.21 38.0547 230.922 37.82 231.396 37.5852L231.989 40.9888C231.515 41.2235 230.685 41.4582 229.38 41.8103C228.194 42.045 226.771 42.1624 225.23 42.1624C223.332 42.1624 221.672 41.9277 220.13 41.3409C218.707 40.754 217.64 39.9325 216.691 38.8762C215.742 37.82 215.031 36.6463 214.675 35.238C214.2 33.8296 213.963 32.3039 213.963 30.5434ZM229.38 28.4309C229.38 26.6704 228.906 25.1447 227.957 23.9711C227.127 22.7974 225.823 22.2106 224.162 22.2106C223.213 22.2106 222.383 22.4454 221.672 22.7974C220.96 23.1495 220.367 23.619 219.893 24.2058C219.419 24.7926 219.063 25.3794 218.707 26.201C218.47 26.9052 218.351 27.6093 218.233 28.4309H229.38ZM206.848 18.9244C207.203 18.9244 207.559 19.0418 208.034 19.0418C208.508 19.0418 208.864 19.1592 209.338 19.1592C209.813 19.2765 210.168 19.3939 210.524 19.3939C210.88 19.5113 211.117 19.5113 211.354 19.6286L210.643 23.0322C210.287 22.9148 209.813 22.7974 209.101 22.6801C208.271 22.5627 207.322 22.4454 206.255 22.4454C205.425 22.4454 204.713 22.5627 204.001 22.6801C203.29 22.7974 202.816 22.9148 202.578 23.0322V41.6929H198.546V20.3328C199.495 19.9807 200.681 19.746 202.104 19.3939C203.527 19.1592 205.069 18.9244 206.848 18.9244ZM194.396 12V15.6383H184.908V41.6929H180.757V15.6383H171.388V12H194.396ZM160.478 19.3939H169.016V22.7974H160.478V33.0081C160.478 34.1817 160.596 35.0032 160.715 35.8248C160.952 36.529 161.189 37.1158 161.545 37.4679C161.901 37.9373 162.375 38.172 162.85 38.4068C163.324 38.5241 163.917 38.6415 164.629 38.6415C165.814 38.6415 166.882 38.5241 167.593 38.172C168.305 37.9373 168.779 37.82 169.135 37.7026L169.847 40.9888C169.491 41.1061 168.779 41.3409 167.712 41.6929C166.763 42.045 165.577 42.1624 164.273 42.1624C162.731 42.1624 161.545 41.9277 160.478 41.5756C159.529 41.2235 158.699 40.6367 158.106 39.8151C157.513 39.111 157.157 38.0547 156.801 36.9984C156.564 35.8248 156.446 34.5338 156.446 33.1254V13.291L160.478 12.5868V19.3939ZM148.144 41.6929C147.788 40.9888 147.433 40.2846 146.958 39.5804C146.484 38.7589 146.01 38.0547 145.417 37.2331C144.942 36.4116 144.349 35.5901 143.756 34.7685C143.163 33.947 142.57 33.2428 142.096 32.5386C141.503 33.2428 140.91 33.947 140.436 34.7685C139.843 35.5901 139.25 36.4116 138.657 37.2331C138.182 38.0547 137.708 38.8762 137.234 39.5804C136.759 40.4019 136.404 41.1061 136.048 41.6929H131.897C132.964 39.6978 134.15 37.7026 135.573 35.7074C136.878 33.7122 138.301 31.8344 139.724 29.9566L132.253 19.3939H136.759L142.096 27.2573L147.551 19.3939H151.821L144.586 29.7219C146.01 31.5997 147.314 33.5949 148.856 35.5901C150.279 37.7026 151.465 39.6978 152.532 41.6929H148.144ZM109.246 30.5434C109.246 28.6656 109.602 26.9052 110.195 25.4968C110.669 23.9711 111.499 22.7974 112.448 21.7412C113.397 20.8023 114.464 20.0981 115.768 19.6286C116.954 19.1592 118.259 18.9244 119.563 18.9244C122.528 18.9244 124.9 19.8633 126.442 21.6238C128.102 23.5016 128.932 26.4357 128.932 30.1913C128.932 30.4261 128.932 30.5434 128.932 30.8955C128.932 31.1302 128.814 31.365 128.814 31.5997H113.515C113.634 33.947 114.345 35.7074 115.531 36.881C116.717 38.0547 118.496 38.6415 120.986 38.6415C122.41 38.6415 123.596 38.5241 124.544 38.2894C125.612 38.0547 126.323 37.82 126.798 37.5852L127.39 40.9888C126.798 41.2235 125.967 41.4582 124.781 41.8103C123.596 42.045 122.172 42.1624 120.631 42.1624C118.615 42.1624 116.954 41.9277 115.531 41.3409C114.108 40.754 112.922 39.9325 111.973 38.8762C111.025 37.82 110.432 36.6463 109.957 35.238C109.483 33.8296 109.246 32.3039 109.246 30.5434ZM124.663 28.4309C124.781 26.6704 124.307 25.1447 123.358 23.9711C122.41 22.7974 121.105 22.2106 119.445 22.2106C118.496 22.2106 117.784 22.4454 117.073 22.7974C116.361 23.1495 115.768 23.619 115.294 24.2058C114.701 24.7926 114.345 25.3794 114.108 26.201C113.871 26.9052 113.634 27.6093 113.515 28.4309H124.663ZM108.771 12V15.6383H99.2841V41.6929H95.1334V15.6383H85.7645V12H108.771ZM251.794 50.0257L254.403 49.6737V52.2556H257.368V54.2508H254.403V57.4196C254.403 57.8891 254.403 58.3585 254.64 58.5933C254.878 58.9454 255.233 59.0627 255.708 59.0627C256.064 59.0627 256.301 59.0627 256.538 59.0627C256.894 58.9454 257.131 58.9454 257.368 58.828L257.724 60.7058C257.487 60.8232 257.131 60.9405 256.775 61.0579C256.301 61.1753 255.945 61.1753 255.352 61.1753C254.64 61.1753 254.048 61.0579 253.692 60.9405C253.217 60.7058 252.862 60.4711 252.624 60.119C252.269 59.8843 252.15 59.4148 252.031 58.9454C251.913 58.4759 251.794 58.0065 251.794 57.4196V50.0257ZM230.685 52.4904C231.159 52.373 231.634 52.2556 232.345 52.1383C233.057 52.0209 233.768 52.0209 234.48 52.0209C235.191 52.0209 235.903 52.1383 236.377 52.2556C236.852 52.4904 237.207 52.8425 237.563 53.1946C237.8 53.5466 238.038 53.8987 238.156 54.3682C238.275 54.955 238.393 55.4245 238.393 56.0113V61.0579H235.784V56.3634C235.784 55.5418 235.784 54.955 235.547 54.6029C235.31 54.3682 234.954 54.1335 234.361 54.1335C234.124 54.1335 233.887 54.1335 233.768 54.1335C233.531 54.1335 233.412 54.2508 233.175 54.2508V61.0579H230.685V52.4904ZM209.101 56.7155C209.101 55.8939 209.22 55.1897 209.457 54.6029C209.694 54.0161 210.05 53.5466 210.405 53.1946C210.761 52.8425 211.236 52.4904 211.829 52.2556C212.303 52.1383 212.777 52.0209 213.37 52.0209C214.675 52.0209 215.624 52.373 216.335 53.0772C217.047 53.8987 217.402 55.0724 217.402 56.4807C217.402 56.5981 217.402 56.8328 217.402 56.9502C217.402 57.1849 217.402 57.3023 217.402 57.4196H211.71C211.71 57.8891 211.947 58.3585 212.422 58.5933C212.896 58.9454 213.37 59.0627 214.082 59.0627C214.556 59.0627 215.031 59.0627 215.505 58.9454C215.979 58.9454 216.335 58.828 216.572 58.7106L216.928 60.7058C216.809 60.7058 216.572 60.8232 216.335 60.9405C216.098 60.9405 215.861 61.0579 215.624 61.0579C215.386 61.0579 215.031 61.1753 214.793 61.1753C214.438 61.1753 214.082 61.2926 213.845 61.2926C213.015 61.2926 212.303 61.1753 211.71 60.9405C211.117 60.7058 210.643 60.3537 210.287 59.8843C209.813 59.5322 209.575 59.0627 209.338 58.4759C209.22 57.8891 209.101 57.3023 209.101 56.7155ZM215.031 55.7765C215.031 55.5418 214.912 55.3071 214.912 55.0724C214.793 54.955 214.793 54.7203 214.556 54.6029C214.438 54.3682 214.319 54.2508 214.082 54.2508C213.963 54.1335 213.726 54.0161 213.37 54.0161C213.133 54.0161 212.896 54.1335 212.659 54.1335C212.422 54.2508 212.303 54.3682 212.184 54.6029C212.066 54.7203 211.947 54.955 211.829 55.0724C211.829 55.3071 211.71 55.5418 211.71 55.7765H215.031ZM188.584 56.3634C188.584 55.5418 188.466 54.955 188.229 54.6029C187.992 54.3682 187.636 54.1335 187.161 54.1335C187.043 54.1335 186.806 54.1335 186.687 54.1335C186.568 54.1335 186.331 54.2508 186.213 54.2508V61.0579H183.722V52.4904C183.841 52.4904 184.196 52.373 184.433 52.373C184.671 52.2556 185.026 52.2556 185.382 52.1383C185.619 52.1383 185.975 52.1383 186.331 52.0209C186.687 52.0209 187.043 52.0209 187.28 52.0209C187.992 52.0209 188.466 52.1383 188.94 52.2556C189.296 52.373 189.652 52.6077 189.889 52.8425C190.245 52.6077 190.601 52.373 191.075 52.2556C191.549 52.1383 192.024 52.0209 192.379 52.0209C193.091 52.0209 193.684 52.1383 194.158 52.2556C194.633 52.4904 194.988 52.8425 195.226 53.1946C195.463 53.5466 195.7 53.8987 195.819 54.3682C195.937 54.955 195.937 55.4245 195.937 56.0113V61.0579H193.447V56.3634C193.447 55.5418 193.328 54.955 193.091 54.6029C192.854 54.3682 192.498 54.1335 192.024 54.1335C191.905 54.1335 191.668 54.1335 191.431 54.2508C191.194 54.3682 191.075 54.3682 190.838 54.4856C190.956 54.7203 190.956 55.0724 191.075 55.3071C191.075 55.5418 191.075 55.8939 191.075 56.246V61.0579H188.584V56.3634ZM162.138 56.7155C162.138 55.8939 162.257 55.1897 162.494 54.6029C162.731 54.0161 162.968 53.5466 163.443 53.1946C163.798 52.8425 164.273 52.4904 164.747 52.2556C165.34 52.1383 165.814 52.0209 166.289 52.0209C167.593 52.0209 168.661 52.373 169.372 53.0772C170.084 53.8987 170.44 55.0724 170.44 56.4807C170.44 56.5981 170.44 56.8328 170.44 56.9502C170.44 57.1849 170.44 57.3023 170.321 57.4196H164.629C164.747 57.8891 164.984 58.3585 165.459 58.5933C165.814 58.9454 166.407 59.0627 167.119 59.0627C167.593 59.0627 168.068 59.0627 168.423 58.9454C168.898 58.9454 169.254 58.828 169.609 58.7106L169.965 60.7058C169.728 60.7058 169.609 60.8232 169.372 60.9405C169.135 60.9405 168.898 61.0579 168.661 61.0579C168.305 61.0579 168.068 61.1753 167.712 61.1753C167.475 61.1753 167.119 61.2926 166.763 61.2926C165.933 61.2926 165.34 61.1753 164.747 60.9405C164.154 60.7058 163.68 60.3537 163.205 59.8843C162.85 59.5322 162.612 59.0627 162.375 58.4759C162.138 57.8891 162.138 57.3023 162.138 56.7155ZM167.949 55.7765C167.949 55.5418 167.949 55.3071 167.949 55.0724C167.831 54.955 167.712 54.7203 167.593 54.6029C167.475 54.3682 167.356 54.2508 167.119 54.2508C166.882 54.1335 166.645 54.0161 166.407 54.0161C166.052 54.0161 165.814 54.1335 165.696 54.1335C165.459 54.2508 165.34 54.3682 165.103 54.6029C164.984 54.7203 164.866 54.955 164.866 55.0724C164.747 55.3071 164.747 55.5418 164.629 55.7765H167.949ZM144.586 61.0579C143.993 59.8843 143.4 58.5933 142.808 57.0675C142.215 55.6592 141.74 54.0161 141.147 52.2556H143.875C143.875 52.6077 144.112 53.0772 144.231 53.664C144.349 54.1335 144.586 54.6029 144.705 55.1897C144.824 55.6592 145.061 56.246 145.179 56.7155C145.298 57.1849 145.535 57.6544 145.654 58.0065C145.772 57.6544 146.01 57.1849 146.128 56.7155C146.365 56.246 146.484 55.6592 146.602 55.1897C146.84 54.6029 146.958 54.1335 147.077 53.664C147.314 53.0772 147.433 52.6077 147.551 52.2556H150.16C149.567 54.0161 148.974 55.6592 148.381 57.0675C147.788 58.5933 147.314 59.8843 146.721 61.0579H144.586ZM129.169 56.5981C129.169 57.3023 129.051 57.8891 128.814 58.4759C128.695 59.0627 128.339 59.5322 127.983 60.0016C127.628 60.3537 127.153 60.7058 126.56 60.9405C126.086 61.1753 125.493 61.2926 124.781 61.2926C124.188 61.2926 123.596 61.1753 123.003 60.9405C122.528 60.7058 122.054 60.3537 121.698 60.0016C121.224 59.5322 120.986 59.0627 120.749 58.4759C120.512 57.8891 120.394 57.3023 120.394 56.5981C120.394 55.8939 120.512 55.3071 120.749 54.7203C120.986 54.1335 121.342 53.664 121.698 53.3119C122.054 52.8425 122.528 52.4904 123.003 52.373C123.596 52.1383 124.188 52.0209 124.781 52.0209C125.493 52.0209 126.086 52.1383 126.56 52.373C127.153 52.4904 127.509 52.8425 127.983 53.3119C128.339 53.664 128.576 54.1335 128.814 54.7203C129.051 55.3071 129.169 55.8939 129.169 56.5981ZM126.56 56.5981C126.56 55.7765 126.442 55.1897 126.086 54.8376C125.849 54.3682 125.374 54.1335 124.781 54.1335C124.188 54.1335 123.833 54.3682 123.477 54.8376C123.121 55.1897 123.003 55.7765 123.003 56.5981C123.003 57.4196 123.121 58.0065 123.477 58.4759C123.833 58.828 124.188 59.0627 124.781 59.0627C125.374 59.0627 125.849 58.828 126.086 58.4759C126.442 58.0065 126.56 57.4196 126.56 56.5981ZM99.8771 56.3634C99.8771 55.5418 99.7585 54.955 99.5213 54.6029C99.4027 54.3682 99.0469 54.1335 98.454 54.1335C98.3354 54.1335 98.2168 54.1335 97.9796 54.1335C97.861 54.1335 97.6238 54.2508 97.5052 54.2508V61.0579H95.0148V52.4904C95.252 52.4904 95.4891 52.373 95.7263 52.373C96.0821 52.2556 96.3193 52.2556 96.6751 52.1383C97.0309 52.1383 97.268 52.1383 97.6238 52.0209C97.9796 52.0209 98.3354 52.0209 98.6911 52.0209C99.2841 52.0209 99.7585 52.1383 100.233 52.2556C100.589 52.373 100.944 52.6077 101.182 52.8425C101.537 52.6077 102.012 52.373 102.486 52.2556C102.96 52.1383 103.316 52.0209 103.672 52.0209C104.384 52.0209 104.977 52.1383 105.451 52.2556C105.925 52.4904 106.281 52.8425 106.518 53.1946C106.874 53.5466 106.993 53.8987 107.111 54.3682C107.23 54.955 107.23 55.4245 107.23 56.0113V61.0579H104.739V56.3634C104.739 55.5418 104.621 54.955 104.502 54.6029C104.265 54.3682 103.909 54.1335 103.316 54.1335C103.198 54.1335 103.079 54.1335 102.842 54.2508C102.605 54.3682 102.367 54.3682 102.249 54.4856C102.249 54.7203 102.367 55.0724 102.367 55.3071C102.367 55.5418 102.367 55.8939 102.367 56.246V61.0579H99.8771V56.3634Z" fill="current-color"/>
</svg>
