<svg viewBox="0 0 202 56" fill="none" xmlns="http://www.w3.org/2000/svg">
<g clip-path="url(#clip0_450_5310)">
<path fill-rule="evenodd" clip-rule="evenodd" d="M27.66 0C42.93 0 55.31 12.38 55.31 27.66C55.31 42.93 42.93 55.31 27.66 55.31C12.38 55.31 0 42.93 0 27.66C0 12.38 12.38 0 27.66 0ZM34.23 15.71H45.29V20.09H34.23V33.56C34.23 35.02 34.34 36.23 34.57 37.18C34.79 38.14 35.13 38.89 35.58 39.43C36.03 39.97 36.59 40.36 37.26 40.58C37.94 40.81 38.72 40.92 39.62 40.92C41.19 40.92 42.46 40.74 43.41 40.39C44.37 40.03 45.03 39.78 45.4 39.63L46.42 43.95C45.89 44.21 44.97 44.54 43.66 44.93C42.35 45.33 40.86 45.52 39.17 45.52C37.19 45.52 35.55 45.27 34.26 44.77C32.97 44.26 31.93 43.5 31.14 42.49C30.36 41.48 29.8 40.24 29.49 38.76C29.17 37.28 29.01 35.57 29.01 33.62V7.56L34.23 6.67V15.71ZM21.38 15.71H10.32V20.09H21.38V33.56C21.38 35.02 21.27 36.23 21.04 37.18C20.82 38.14 20.48 38.89 20.03 39.43C19.58 39.97 19.02 40.36 18.35 40.58C17.67 40.81 16.89 40.92 15.99 40.92C14.41 40.92 13.15 40.74 12.2 40.39C11.24 40.03 10.58 39.78 10.2 39.63L9.19 43.95C9.72 44.21 10.63 44.54 11.94 44.93C13.25 45.33 14.75 45.52 16.44 45.52C18.42 45.52 20.06 45.27 21.35 44.77C22.64 44.26 23.68 43.5 24.47 42.49C25.25 41.48 25.8 40.24 26.12 38.76C26.44 37.28 26.6 35.57 26.6 33.62V7.56L21.38 6.67V15.71Z" fill="#595959"/>
<path d="M81.73 9.01001V11.73H74.66V31.46H71.52V11.73H64.46V9.01001H81.73Z" fill="#595959"/>
<path d="M82.1201 23.07C82.1201 21.58 82.3301 20.28 82.7601 19.17C83.2001 18.06 83.7701 17.13 84.4801 16.4C85.1901 15.66 86.0101 15.11 86.9401 14.75C87.8701 14.38 88.8201 14.2 89.7901 14.2C92.0601 14.2 93.8001 14.9 95.0101 16.32C96.2201 17.73 96.8301 19.89 96.8301 22.78C96.8301 22.91 96.8301 23.08 96.8301 23.28C96.8301 23.49 96.8101 23.68 96.7901 23.85H85.2601C85.3901 25.6 85.9001 26.93 86.7801 27.84C87.6701 28.74 89.0501 29.2 90.9301 29.2C91.9901 29.2 92.8801 29.1 93.6001 28.92C94.3301 28.74 94.8701 28.56 95.2401 28.39L95.6601 30.91C95.2901 31.11 94.6501 31.31 93.7301 31.53C92.8101 31.75 91.7701 31.85 90.6001 31.85C89.1401 31.85 87.8701 31.63 86.8001 31.19C85.7301 30.75 84.8501 30.14 84.1601 29.36C83.4701 28.58 82.9501 27.66 82.6201 26.59C82.2801 25.52 82.1201 24.35 82.1201 23.07ZM93.6801 21.42C93.7001 20.06 93.3601 18.94 92.6601 18.07C91.9601 17.19 90.9901 16.76 89.7601 16.76C89.0701 16.76 88.4601 16.89 87.9301 17.16C87.4001 17.43 86.9501 17.78 86.5901 18.21C86.2201 18.65 85.9301 19.14 85.7301 19.7C85.5201 20.27 85.3901 20.84 85.3201 21.42H93.6801Z" fill="#595959"/>
<path d="M111.24 31.4601C111.01 30.9901 110.71 30.4601 110.37 29.8801C110.02 29.2901 109.65 28.6901 109.23 28.0801C108.82 27.4601 108.4 26.8501 107.97 26.2501C107.54 25.6401 107.12 25.0701 106.71 24.5301C106.3 25.0701 105.88 25.6501 105.44 26.2601C105.01 26.8801 104.6 27.5001 104.2 28.1101C103.8 28.7301 103.42 29.3301 103.08 29.9101C102.73 30.4901 102.44 31.0101 102.2 31.4601H99.0898C99.8498 30.0001 100.75 28.5001 101.8 26.9801C102.85 25.4501 103.89 24.0001 104.93 22.6201L99.3498 14.6201H102.75L106.77 20.5101L110.82 14.6201H114.03L108.59 22.4301C109.62 23.8301 110.69 25.3101 111.78 26.8801C112.87 28.4501 113.79 29.9701 114.55 31.4601H111.24Z" fill="#595959"/>
<path d="M120.54 14.6199H126.92V17.1399H120.54V24.9199C120.54 25.7599 120.61 26.4599 120.74 27.0099C120.87 27.5599 121.06 27.9899 121.32 28.3099C121.58 28.6199 121.9 28.8399 122.29 28.9699C122.68 29.0999 123.13 29.1599 123.65 29.1599C124.56 29.1599 125.29 29.0599 125.84 28.8599C126.39 28.6499 126.77 28.5099 126.99 28.4199L127.57 30.9099C127.27 31.0699 126.74 31.2499 125.99 31.4799C125.23 31.7099 124.37 31.8199 123.39 31.8199C122.25 31.8199 121.3 31.6799 120.56 31.3799C119.81 31.0899 119.21 30.6499 118.76 30.0699C118.31 29.4899 117.99 28.7699 117.8 27.9199C117.62 27.0599 117.53 26.0799 117.53 24.9499V9.9199L120.54 9.3999V14.6199Z" fill="#595959"/>
<path d="M153.43 9.01001V11.73H146.36V31.46H143.22V11.73H136.16V9.01001H153.43Z" fill="#595959"/>
<path d="M162.76 14.26C163.02 14.26 163.31 14.28 163.65 14.31C163.98 14.34 164.31 14.38 164.64 14.44C164.96 14.49 165.26 14.55 165.53 14.6C165.8 14.65 166 14.7 166.13 14.75L165.61 17.37C165.37 17.28 164.98 17.18 164.43 17.06C163.88 16.94 163.17 16.88 162.31 16.88C161.74 16.88 161.19 16.94 160.64 17.06C160.09 17.18 159.72 17.26 159.55 17.31V31.46H156.54V15.33C157.25 15.07 158.14 14.83 159.19 14.6C160.25 14.37 161.44 14.26 162.76 14.26Z" fill="#595959"/>
<path d="M168.1 23.07C168.1 21.58 168.32 20.28 168.75 19.17C169.18 18.06 169.76 17.13 170.47 16.4C171.18 15.66 172 15.11 172.93 14.75C173.86 14.38 174.81 14.2 175.78 14.2C178.05 14.2 179.79 14.9 181 16.32C182.21 17.73 182.81 19.89 182.81 22.78C182.81 22.91 182.81 23.08 182.81 23.28C182.81 23.49 182.8 23.68 182.78 23.85H171.25C171.38 25.6 171.88 26.93 172.77 27.84C173.66 28.74 175.04 29.2 176.92 29.2C177.98 29.2 178.87 29.1 179.59 28.92C180.31 28.74 180.86 28.56 181.23 28.39L181.65 30.91C181.28 31.11 180.64 31.31 179.72 31.53C178.8 31.75 177.76 31.85 176.59 31.85C175.12 31.85 173.86 31.63 172.79 31.19C171.72 30.75 170.84 30.14 170.15 29.36C169.45 28.58 168.94 27.66 168.61 26.59C168.27 25.52 168.1 24.35 168.1 23.07ZM179.67 21.42C179.69 20.06 179.35 18.94 178.65 18.07C177.95 17.19 176.98 16.76 175.75 16.76C175.06 16.76 174.45 16.89 173.92 17.16C173.39 17.43 172.94 17.78 172.58 18.21C172.21 18.65 171.92 19.14 171.72 19.7C171.51 20.27 171.38 20.84 171.31 21.42H179.67Z" fill="#595959"/>
<path d="M186.22 23.07C186.22 21.58 186.43 20.28 186.86 19.17C187.3 18.06 187.87 17.13 188.58 16.4C189.29 15.66 190.11 15.11 191.04 14.75C191.97 14.38 192.92 14.2 193.89 14.2C196.16 14.2 197.9 14.9 199.11 16.32C200.32 17.73 200.93 19.89 200.93 22.78C200.93 22.91 200.93 23.08 200.93 23.28C200.93 23.49 200.91 23.68 200.89 23.85H189.36C189.49 25.6 190 26.93 190.88 27.84C191.77 28.74 193.15 29.2 195.03 29.2C196.09 29.2 196.98 29.1 197.7 28.92C198.43 28.74 198.97 28.56 199.34 28.39L199.76 30.91C199.39 31.11 198.75 31.31 197.83 31.53C196.91 31.75 195.87 31.85 194.7 31.85C193.24 31.85 191.97 31.63 190.9 31.19C189.83 30.75 188.95 30.14 188.26 29.36C187.57 28.58 187.05 27.66 186.72 26.59C186.38 25.52 186.22 24.35 186.22 23.07ZM197.78 21.42C197.8 20.06 197.46 18.94 196.76 18.07C196.06 17.19 195.09 16.76 193.86 16.76C193.17 16.76 192.56 16.89 192.03 17.16C191.5 17.43 191.05 17.78 190.69 18.21C190.32 18.65 190.03 19.14 189.83 19.7C189.62 20.27 189.49 20.84 189.42 21.42H197.78Z" fill="#595959"/>
<path d="M75.0702 42.5901C75.0702 41.9801 74.9902 41.5501 74.8402 41.3001C74.6802 41.0501 74.4102 40.9201 74.0302 40.9201C73.9202 40.9201 73.7902 40.9301 73.6702 40.9401C73.5402 40.9501 73.4202 40.9701 73.3002 40.9801V46.1201H71.4102V39.6901C71.5702 39.6501 71.7602 39.6101 71.9802 39.5601C72.1902 39.5101 72.4202 39.4701 72.6602 39.4301C72.9002 39.3901 73.1502 39.3701 73.4002 39.3401C73.6502 39.3201 73.9002 39.3101 74.1502 39.3101C74.6302 39.3101 75.0202 39.3701 75.3202 39.5001C75.6202 39.6201 75.8702 39.7601 76.0602 39.9301C76.3302 39.7401 76.6402 39.5901 76.9902 39.4801C77.3402 39.3701 77.6602 39.3101 77.9602 39.3101C78.4902 39.3101 78.9302 39.3901 79.2702 39.5301C79.6102 39.6801 79.8802 39.8901 80.0802 40.1601C80.2902 40.4301 80.4302 40.7501 80.5002 41.1201C80.5802 41.4901 80.6202 41.9101 80.6202 42.3601V46.1201H78.7302V42.5901C78.7302 41.9801 78.6502 41.5501 78.5002 41.3001C78.3402 41.0501 78.0702 40.9201 77.6902 40.9201C77.5902 40.9201 77.4502 40.9501 77.2702 41.0001C77.0902 41.0501 76.9402 41.1101 76.8202 41.1901C76.8802 41.3801 76.9202 41.5801 76.9302 41.8001C76.9502 42.0101 76.9602 42.2401 76.9602 42.4901V46.1201H75.0702V42.5901Z" fill="#595959"/>
<path d="M98.1198 42.78C98.1198 43.3 98.0398 43.78 97.8898 44.22C97.7398 44.65 97.5198 45.02 97.2298 45.33C96.9498 45.64 96.5998 45.88 96.1998 46.05C95.7998 46.21 95.3498 46.3 94.8498 46.3C94.3598 46.3 93.9198 46.21 93.5198 46.05C93.1198 45.88 92.7698 45.64 92.4898 45.33C92.1998 45.02 91.9798 44.65 91.8198 44.22C91.6498 43.78 91.5698 43.3 91.5698 42.78C91.5698 42.26 91.6598 41.78 91.8198 41.35C91.9898 40.92 92.2098 40.55 92.4998 40.25C92.7998 39.95 93.1398 39.71 93.5398 39.54C93.9398 39.37 94.3798 39.29 94.8498 39.29C95.3298 39.29 95.7698 39.37 96.1798 39.54C96.5798 39.71 96.9198 39.95 97.2098 40.25C97.4898 40.55 97.7198 40.92 97.8798 41.35C98.0398 41.78 98.1198 42.26 98.1198 42.78ZM96.1898 42.78C96.1898 42.2 96.0798 41.74 95.8498 41.41C95.6098 41.07 95.2798 40.91 94.8498 40.91C94.4198 40.91 94.0898 41.07 93.8498 41.41C93.6198 41.74 93.4998 42.2 93.4998 42.78C93.4998 43.36 93.6198 43.82 93.8498 44.17C94.0898 44.51 94.4198 44.68 94.8498 44.68C95.2798 44.68 95.6098 44.51 95.8498 44.17C96.0798 43.82 96.1898 43.36 96.1898 42.78Z" fill="#595959"/>
<path d="M110.78 46.12C110.35 45.28 109.91 44.29 109.47 43.16C109.02 42.03 108.6 40.8 108.2 39.46H110.2C110.29 39.79 110.39 40.15 110.5 40.53C110.62 40.92 110.73 41.31 110.86 41.7C110.98 42.09 111.1 42.47 111.23 42.84C111.35 43.21 111.47 43.55 111.59 43.86C111.7 43.55 111.82 43.21 111.95 42.84C112.07 42.47 112.2 42.09 112.32 41.7C112.44 41.31 112.56 40.92 112.68 40.53C112.79 40.15 112.89 39.79 112.97 39.46H114.92C114.53 40.8 114.11 42.03 113.66 43.16C113.22 44.29 112.78 45.28 112.35 46.12H110.78Z" fill="#595959"/>
<path d="M125 42.84C125 42.25 125.09 41.74 125.27 41.29C125.45 40.85 125.69 40.48 125.98 40.19C126.28 39.89 126.62 39.67 127 39.51C127.39 39.36 127.78 39.29 128.19 39.29C129.13 39.29 129.88 39.58 130.43 40.15C130.98 40.73 131.25 41.58 131.25 42.7C131.25 42.81 131.25 42.93 131.24 43.07C131.23 43.2 131.22 43.31 131.21 43.41H126.93C126.98 43.8 127.16 44.11 127.48 44.34C127.8 44.56 128.23 44.68 128.77 44.68C129.11 44.68 129.45 44.65 129.79 44.58C130.12 44.52 130.39 44.44 130.6 44.35L130.86 45.88C130.76 45.93 130.62 45.98 130.45 46.03C130.28 46.08 130.1 46.13 129.89 46.17C129.68 46.2 129.46 46.24 129.22 46.26C128.99 46.29 128.75 46.3 128.52 46.3C127.92 46.3 127.4 46.21 126.95 46.03C126.51 45.86 126.14 45.61 125.85 45.31C125.56 45 125.35 44.63 125.21 44.21C125.07 43.79 125 43.33 125 42.84ZM129.43 42.12C129.42 41.96 129.39 41.81 129.34 41.65C129.3 41.5 129.23 41.37 129.13 41.25C129.03 41.13 128.91 41.03 128.76 40.96C128.61 40.88 128.43 40.84 128.21 40.84C128 40.84 127.82 40.88 127.67 40.95C127.52 41.02 127.39 41.12 127.29 41.24C127.19 41.35 127.11 41.49 127.05 41.65C127 41.8 126.96 41.96 126.93 42.12H129.43Z" fill="#595959"/>
<path d="M145.93 42.5901C145.93 41.9801 145.85 41.5501 145.7 41.3001C145.54 41.0501 145.27 40.9201 144.89 40.9201C144.77 40.9201 144.65 40.9301 144.52 40.9401C144.4 40.9501 144.28 40.9701 144.16 40.9801V46.1201H142.27V39.6901C142.43 39.6501 142.62 39.6101 142.83 39.5601C143.05 39.5101 143.28 39.4701 143.52 39.4301C143.76 39.3901 144.01 39.3701 144.26 39.3401C144.51 39.3201 144.76 39.3101 145.01 39.3101C145.49 39.3101 145.88 39.3701 146.18 39.5001C146.48 39.6201 146.72 39.7601 146.92 39.9301C147.19 39.7401 147.5 39.5901 147.85 39.4801C148.2 39.3701 148.52 39.3101 148.82 39.3101C149.35 39.3101 149.78 39.3901 150.13 39.5301C150.47 39.6801 150.74 39.8901 150.94 40.1601C151.14 40.4301 151.28 40.7501 151.36 41.1201C151.43 41.4901 151.47 41.9101 151.47 42.3601V46.1201H149.59V42.5901C149.59 41.9801 149.51 41.5501 149.35 41.3001C149.2 41.0501 148.93 40.9201 148.55 40.9201C148.45 40.9201 148.31 40.9501 148.13 41.0001C147.94 41.0501 147.79 41.1101 147.68 41.1901C147.73 41.3801 147.77 41.5801 147.79 41.8001C147.81 42.0101 147.82 42.2401 147.82 42.4901V46.1201H145.93V42.5901Z" fill="#595959"/>
<path d="M162.43 42.84C162.43 42.25 162.52 41.74 162.7 41.29C162.89 40.85 163.12 40.48 163.42 40.19C163.71 39.89 164.05 39.67 164.44 39.51C164.82 39.36 165.22 39.29 165.62 39.29C166.57 39.29 167.31 39.58 167.86 40.15C168.41 40.73 168.68 41.58 168.68 42.7C168.68 42.81 168.68 42.93 168.67 43.07C168.66 43.2 168.65 43.31 168.65 43.41H164.37C164.41 43.8 164.59 44.11 164.91 44.34C165.23 44.56 165.66 44.68 166.2 44.68C166.55 44.68 166.89 44.65 167.22 44.58C167.56 44.52 167.83 44.44 168.04 44.35L168.29 45.88C168.19 45.93 168.06 45.98 167.89 46.03C167.72 46.08 167.53 46.13 167.32 46.17C167.12 46.2 166.9 46.24 166.66 46.26C166.42 46.29 166.19 46.3 165.95 46.3C165.35 46.3 164.83 46.21 164.39 46.03C163.94 45.86 163.58 45.61 163.29 45.31C162.99 45 162.78 44.63 162.64 44.21C162.5 43.79 162.43 43.33 162.43 42.84ZM166.86 42.12C166.85 41.96 166.83 41.81 166.78 41.65C166.73 41.5 166.66 41.37 166.56 41.25C166.47 41.13 166.34 41.03 166.2 40.96C166.05 40.88 165.87 40.84 165.65 40.84C165.44 40.84 165.25 40.88 165.1 40.95C164.95 41.02 164.82 41.12 164.72 41.24C164.62 41.35 164.54 41.49 164.49 41.65C164.43 41.8 164.39 41.96 164.37 42.12H166.86Z" fill="#595959"/>
<path d="M179.71 39.6901C180.03 39.6001 180.44 39.5101 180.95 39.4301C181.45 39.3501 181.98 39.3101 182.54 39.3101C183.11 39.3101 183.58 39.3901 183.95 39.5301C184.33 39.6801 184.63 39.8901 184.84 40.1601C185.06 40.4301 185.22 40.7501 185.31 41.1201C185.41 41.4901 185.45 41.9101 185.45 42.3601V46.1201H183.57V42.5901C183.57 41.9801 183.49 41.5501 183.33 41.3001C183.17 41.0501 182.87 40.9201 182.43 40.9201C182.29 40.9201 182.15 40.9301 182 40.9401C181.85 40.9501 181.71 40.9701 181.59 40.9801V46.1201H179.71V39.6901Z" fill="#595959"/>
<path d="M196.66 37.81L198.55 37.5V39.46H200.82V41.03H198.55V43.38C198.55 43.77 198.62 44.09 198.76 44.32C198.9 44.56 199.18 44.68 199.6 44.68C199.8 44.68 200.01 44.66 200.23 44.62C200.44 44.58 200.64 44.53 200.82 44.46L201.08 45.93C200.85 46.02 200.6 46.1 200.32 46.17C200.04 46.24 199.7 46.27 199.3 46.27C198.78 46.27 198.36 46.2 198.02 46.06C197.68 45.93 197.41 45.73 197.21 45.48C197.01 45.23 196.86 44.93 196.78 44.58C196.7 44.22 196.66 43.83 196.66 43.4V37.81Z" fill="#595959"/>
</g>
<defs>
<clipPath id="clip0_450_5310">
<rect width="201.08" height="55.31" fill="white"/>
</clipPath>
</defs>
</svg>
