<?xml version="1.0" encoding="UTF-8"?>
<!DOCTYPE svg PUBLIC "-//W3C//DTD SVG 1.1//EN" "http://www.w3.org/Graphics/SVG/1.1/DTD/svg11.dtd">
<!-- Creator: CorelDRAW X8 -->
<svg xmlns="http://www.w3.org/2000/svg" xml:space="preserve" width="201.08mm" height="55.31mm" version="1.1" style="shape-rendering:geometricPrecision; text-rendering:geometricPrecision; image-rendering:optimizeQuality; fill-rule:evenodd; clip-rule:evenodd"
viewBox="0 0 20108 5531"
 xmlns:xlink="http://www.w3.org/1999/xlink">
 <defs>
  <style type="text/css">
   <![CDATA[
    .fil0 {fill:#023047}
    .fil1 {fill:#023047;fill-rule:nonzero}
   ]]>
  </style>
 </defs>
 <g id="Слой_x0020_1">
  <metadata id="CorelCorpID_0Corel-Layer"/>
  <g id="_2789677895824">
   <path class="fil0" d="M2766 0c1527,0 2765,1238 2765,2766 0,1527 -1238,2765 -2765,2765 -1528,0 -2766,-1238 -2766,-2765 0,-1528 1238,-2766 2766,-2766zm657 1571l1106 0 0 438 -1106 0 0 1347c0,146 11,267 34,362 22,96 56,171 101,225 45,54 101,93 168,115 68,23 146,34 236,34 157,0 284,-18 379,-53 96,-36 162,-61 199,-76l102 432c-53,26 -145,59 -276,98 -131,40 -280,59 -449,59 -198,0 -362,-25 -491,-75 -129,-51 -233,-127 -312,-228 -78,-101 -134,-225 -165,-373 -32,-148 -48,-319 -48,-514l0 -2606 522 -89 0 904zm-1285 0l-1106 0 0 438 1106 0 0 1347c0,146 -11,267 -34,362 -22,96 -56,171 -101,225 -45,54 -101,93 -168,115 -68,23 -146,34 -236,34 -158,0 -284,-18 -379,-53 -96,-36 -162,-61 -200,-76l-101 432c53,26 144,59 275,98 131,40 281,59 450,59 198,0 362,-25 491,-75 129,-51 233,-127 312,-228 78,-101 133,-225 165,-373 32,-148 48,-319 48,-514l0 -2606 -522 -89 0 904z"/>
   <g id="_2616346418880">
    <polygon class="fil1" points="8173,901 8173,1173 7466,1173 7466,3146 7152,3146 7152,1173 6446,1173 6446,901 "/>
    <path id="_1" class="fil1" d="M8212 2307c0,-149 21,-279 64,-390 44,-111 101,-204 172,-277 71,-74 153,-129 246,-165 93,-37 188,-55 285,-55 227,0 401,70 522,212 121,141 182,357 182,646 0,13 0,30 0,50 0,21 -2,40 -4,57l-1153 0c13,175 64,308 152,399 89,90 227,136 415,136 106,0 195,-10 267,-28 73,-18 127,-36 164,-53l42 252c-37,20 -101,40 -193,62 -92,22 -196,32 -313,32 -146,0 -273,-22 -380,-66 -107,-44 -195,-105 -264,-183 -69,-78 -121,-170 -154,-277 -34,-107 -50,-224 -50,-352zm1156 -165c2,-136 -32,-248 -102,-335 -70,-88 -167,-131 -290,-131 -69,0 -130,13 -183,40 -53,27 -98,62 -134,105 -37,44 -66,93 -86,149 -21,57 -34,114 -41,172l836 0z"/>
    <path id="_2" class="fil1" d="M11124 3146c-23,-47 -53,-100 -87,-158 -35,-59 -72,-119 -114,-180 -41,-62 -83,-123 -126,-183 -43,-61 -85,-118 -126,-172 -41,54 -83,112 -127,173 -43,62 -84,124 -124,185 -40,62 -78,122 -112,180 -35,58 -64,110 -88,155l-311 0c76,-146 166,-296 271,-448 105,-153 209,-298 313,-436l-558 -800 340 0 402 589 405 -589 321 0 -544 781c103,140 210,288 319,445 109,157 201,309 277,458l-331 0z"/>
    <path id="_3" class="fil1" d="M12054 1462l638 0 0 252 -638 0 0 778c0,84 7,154 20,209 13,55 32,98 58,130 26,31 58,53 97,66 39,13 84,19 136,19 91,0 164,-10 219,-30 55,-21 93,-35 115,-44l58 249c-30,16 -83,34 -158,57 -76,23 -162,34 -260,34 -114,0 -209,-14 -283,-44 -75,-29 -135,-73 -180,-131 -45,-58 -77,-130 -96,-215 -18,-86 -27,-184 -27,-297l0 -1503 301 -52 0 522z"/>
    <polygon id="_4" class="fil1" points="15343,901 15343,1173 14636,1173 14636,3146 14322,3146 14322,1173 13616,1173 13616,901 "/>
    <path id="_5" class="fil1" d="M16276 1426c26,0 55,2 89,5 33,3 66,7 99,13 32,5 62,11 89,16 27,5 47,10 60,15l-52 262c-24,-9 -63,-19 -118,-31 -55,-12 -126,-18 -212,-18 -57,0 -112,6 -167,18 -55,12 -92,20 -109,25l0 1415 -301 0 0 -1613c71,-26 160,-50 265,-73 106,-23 225,-34 357,-34z"/>
    <path id="_6" class="fil1" d="M16810 2307c0,-149 22,-279 65,-390 43,-111 101,-204 172,-277 71,-74 153,-129 246,-165 93,-37 188,-55 285,-55 227,0 401,70 522,212 121,141 181,357 181,646 0,13 0,30 0,50 0,21 -1,40 -3,57l-1153 0c13,175 63,308 152,399 89,90 227,136 415,136 106,0 195,-10 267,-28 72,-18 127,-36 164,-53l42 252c-37,20 -101,40 -193,62 -92,22 -196,32 -313,32 -147,0 -273,-22 -380,-66 -107,-44 -195,-105 -264,-183 -70,-78 -121,-170 -154,-277 -34,-107 -51,-224 -51,-352zm1157 -165c2,-136 -32,-248 -102,-335 -70,-88 -167,-131 -290,-131 -69,0 -130,13 -183,40 -53,27 -98,62 -134,105 -37,44 -66,93 -86,149 -21,57 -34,114 -41,172l836 0z"/>
    <path id="_7" class="fil1" d="M18622 2307c0,-149 21,-279 64,-390 44,-111 101,-204 172,-277 71,-74 153,-129 246,-165 93,-37 188,-55 285,-55 227,0 401,70 522,212 121,141 182,357 182,646 0,13 0,30 0,50 0,21 -2,40 -4,57l-1153 0c13,175 64,308 152,399 89,90 227,136 415,136 106,0 195,-10 267,-28 73,-18 127,-36 164,-53l42 252c-37,20 -101,40 -193,62 -92,22 -196,32 -313,32 -146,0 -273,-22 -380,-66 -107,-44 -195,-105 -264,-183 -69,-78 -121,-170 -154,-277 -34,-107 -50,-224 -50,-352zm1156 -165c2,-136 -32,-248 -102,-335 -70,-88 -167,-131 -290,-131 -69,0 -130,13 -183,40 -53,27 -98,62 -134,105 -37,44 -66,93 -86,149 -21,57 -34,114 -41,172l836 0z"/>
    <path class="fil1" d="M7507 4259c0,-61 -8,-104 -23,-129 -16,-25 -43,-38 -81,-38 -11,0 -24,1 -36,2 -13,1 -25,3 -37,4l0 514 -189 0 0 -643c16,-4 35,-8 57,-13 21,-5 44,-9 68,-13 24,-4 49,-6 74,-9 25,-2 50,-3 75,-3 48,0 87,6 117,19 30,12 55,26 74,43 27,-19 58,-34 93,-45 35,-11 67,-17 97,-17 53,0 97,8 131,22 34,15 61,36 81,63 21,27 35,59 42,96 8,37 12,79 12,124l0 376 -189 0 0 -353c0,-61 -8,-104 -23,-129 -16,-25 -43,-38 -81,-38 -10,0 -24,3 -42,8 -18,5 -33,11 -45,19 6,19 10,39 11,61 2,21 3,44 3,69l0 363 -189 0 0 -353z"/>
    <path id="_1_0" class="fil1" d="M9812 4278c0,52 -8,100 -23,144 -15,43 -37,80 -66,111 -28,31 -63,55 -103,72 -40,16 -85,25 -135,25 -49,0 -93,-9 -133,-25 -40,-17 -75,-41 -103,-72 -29,-31 -51,-68 -67,-111 -17,-44 -25,-92 -25,-144 0,-52 9,-100 25,-143 17,-43 39,-80 68,-110 30,-30 64,-54 104,-71 40,-17 84,-25 131,-25 48,0 92,8 133,25 40,17 74,41 103,71 28,30 51,67 67,110 16,43 24,91 24,143zm-193 0c0,-58 -11,-104 -34,-137 -24,-34 -57,-50 -100,-50 -43,0 -76,16 -100,50 -23,33 -35,79 -35,137 0,58 12,104 35,139 24,34 57,51 100,51 43,0 76,-17 100,-51 23,-35 34,-81 34,-139z"/>
    <path id="_2_1" class="fil1" d="M11078 4612c-43,-84 -87,-183 -131,-296 -45,-113 -87,-236 -127,-370l200 0c9,33 19,69 30,107 12,39 23,78 36,117 12,39 24,77 37,114 12,37 24,71 36,102 11,-31 23,-65 36,-102 12,-37 25,-75 37,-114 12,-39 24,-78 36,-117 11,-38 21,-74 29,-107l195 0c-39,134 -81,257 -126,370 -44,113 -88,212 -131,296l-157 0z"/>
    <path id="_3_2" class="fil1" d="M12500 4284c0,-59 9,-110 27,-155 18,-44 42,-81 71,-110 30,-30 64,-52 102,-68 39,-15 78,-22 119,-22 94,0 169,29 224,86 55,58 82,143 82,255 0,11 0,23 -1,37 -1,13 -2,24 -3,34l-428 0c5,39 23,70 55,93 32,22 75,34 129,34 34,0 68,-3 102,-10 33,-6 60,-14 81,-23l26 153c-10,5 -24,10 -41,15 -17,5 -35,10 -56,14 -21,3 -43,7 -67,9 -23,3 -47,4 -70,4 -60,0 -112,-9 -157,-27 -44,-17 -81,-42 -110,-72 -29,-31 -50,-68 -64,-110 -14,-42 -21,-88 -21,-137zm443 -72c-1,-16 -4,-31 -9,-47 -4,-15 -11,-28 -21,-40 -10,-12 -22,-22 -37,-29 -15,-8 -33,-12 -55,-12 -21,0 -39,4 -54,11 -15,7 -28,17 -38,29 -10,11 -18,25 -24,41 -5,15 -9,31 -12,47l250 0z"/>
    <path id="_4_3" class="fil1" d="M14593 4259c0,-61 -8,-104 -23,-129 -16,-25 -43,-38 -81,-38 -12,0 -24,1 -37,2 -12,1 -24,3 -36,4l0 514 -189 0 0 -643c16,-4 35,-8 56,-13 22,-5 45,-9 69,-13 24,-4 49,-6 74,-9 25,-2 50,-3 75,-3 48,0 87,6 117,19 30,12 54,26 74,43 27,-19 58,-34 93,-45 35,-11 67,-17 97,-17 53,0 96,8 131,22 34,15 61,36 81,63 20,27 34,59 42,96 7,37 11,79 11,124l0 376 -188 0 0 -353c0,-61 -8,-104 -24,-129 -15,-25 -42,-38 -80,-38 -10,0 -24,3 -42,8 -19,5 -34,11 -45,19 5,19 9,39 11,61 2,21 3,44 3,69l0 363 -189 0 0 -353z"/>
    <path id="_5_4" class="fil1" d="M16243 4284c0,-59 9,-110 27,-155 19,-44 42,-81 72,-110 29,-30 63,-52 102,-68 38,-15 78,-22 118,-22 95,0 169,29 224,86 55,58 82,143 82,255 0,11 0,23 -1,37 -1,13 -2,24 -2,34l-428 0c4,39 22,70 54,93 32,22 75,34 129,34 35,0 69,-3 102,-10 34,-6 61,-14 82,-23l25 153c-10,5 -23,10 -40,15 -17,5 -36,10 -57,14 -20,3 -42,7 -66,9 -24,3 -47,4 -71,4 -60,0 -112,-9 -156,-27 -45,-17 -81,-42 -110,-72 -30,-31 -51,-68 -65,-110 -14,-42 -21,-88 -21,-137zm443 -72c-1,-16 -3,-31 -8,-47 -5,-15 -12,-28 -22,-40 -9,-12 -22,-22 -36,-29 -15,-8 -33,-12 -55,-12 -21,0 -40,4 -55,11 -15,7 -28,17 -38,29 -10,11 -18,25 -23,41 -6,15 -10,31 -12,47l249 0z"/>
    <path id="_6_5" class="fil1" d="M17971 3969c32,-9 73,-18 124,-26 50,-8 103,-12 159,-12 57,0 104,8 141,22 38,15 68,36 89,63 22,27 38,59 47,96 10,37 14,79 14,124l0 376 -188 0 0 -353c0,-61 -8,-104 -24,-129 -16,-25 -46,-38 -90,-38 -14,0 -28,1 -43,2 -15,1 -29,3 -41,4l0 514 -188 0 0 -643z"/>
    <path id="_7_6" class="fil1" d="M19666 3781l189 -31 0 196 227 0 0 157 -227 0 0 235c0,39 7,71 21,94 14,24 42,36 84,36 20,0 41,-2 63,-6 21,-4 41,-9 59,-16l26 147c-23,9 -48,17 -76,24 -28,7 -62,10 -102,10 -52,0 -94,-7 -128,-21 -34,-13 -61,-33 -81,-58 -20,-25 -35,-55 -43,-90 -8,-36 -12,-75 -12,-118l0 -559z"/>
   </g>
  </g>
 </g>
</svg>
