<svg xmlns="http://www.w3.org/2000/svg" xmlns:xlink="http://www.w3.org/1999/xlink" width="48" zoomAndPan="magnify" viewBox="0 0 36 36.000001" height="48" preserveAspectRatio="xMidYMid meet" version="1.0"><defs><g/><clipPath id="ee70e8d2aa"><path d="M 9.242188 3.503906 L 26.8125 3.503906 L 26.8125 31.578125 L 9.242188 31.578125 Z M 9.242188 3.503906 " clip-rule="nonzero"/></clipPath><clipPath id="edc0f40e4e"><path d="M 10.703125 3.503906 L 25.296875 3.503906 C 26.101562 3.503906 26.757812 4.15625 26.757812 4.960938 L 26.757812 30.066406 C 26.757812 30.871094 26.101562 31.523438 25.296875 31.523438 L 10.703125 31.523438 C 9.898438 31.523438 9.242188 30.871094 9.242188 30.066406 L 9.242188 4.960938 C 9.242188 4.15625 9.898438 3.503906 10.703125 3.503906 " clip-rule="nonzero"/></clipPath><clipPath id="acb6509e58"><path d="M 9.246094 3.503906 L 26.757812 3.503906 L 26.757812 31.234375 L 9.246094 31.234375 Z M 9.246094 3.503906 " clip-rule="nonzero"/></clipPath><clipPath id="5cfd9bf49f"><path d="M 10.703125 3.503906 L 25.296875 3.503906 C 26.101562 3.503906 26.753906 4.148438 26.753906 4.945312 L 26.753906 29.789062 C 26.753906 30.585938 26.101562 31.234375 25.296875 31.234375 L 10.703125 31.234375 C 9.898438 31.234375 9.246094 30.585938 9.246094 29.789062 L 9.246094 4.945312 C 9.246094 4.148438 9.898438 3.503906 10.703125 3.503906 " clip-rule="nonzero"/></clipPath><clipPath id="20a5add18c"><path d="M 3.992188 8.699219 L 32.070312 8.699219 L 32.070312 26.265625 L 3.992188 26.265625 Z M 3.992188 8.699219 " clip-rule="nonzero"/></clipPath><clipPath id="182761df7f"><path d="M 3.992188 24.808594 L 3.992188 10.210938 C 3.992188 9.40625 4.644531 8.753906 5.453125 8.753906 L 30.554688 8.753906 C 31.359375 8.753906 32.015625 9.40625 32.015625 10.210938 L 32.015625 24.808594 C 32.015625 25.613281 31.359375 26.265625 30.554688 26.265625 L 5.453125 26.265625 C 4.644531 26.265625 3.992188 25.613281 3.992188 24.808594 " clip-rule="nonzero"/></clipPath><clipPath id="ccb3cbda26"><path d="M 3.992188 8.753906 L 31.722656 8.753906 L 31.722656 26.265625 L 3.992188 26.265625 Z M 3.992188 8.753906 " clip-rule="nonzero"/></clipPath><clipPath id="d0cd00b6f7"><path d="M 3.992188 24.804688 L 3.992188 10.214844 C 3.992188 9.410156 4.640625 8.753906 5.4375 8.753906 L 30.277344 8.753906 C 31.074219 8.753906 31.722656 9.410156 31.722656 10.214844 L 31.722656 24.804688 C 31.722656 25.613281 31.074219 26.265625 30.277344 26.265625 L 5.4375 26.265625 C 4.640625 26.265625 3.992188 25.613281 3.992188 24.804688 " clip-rule="nonzero"/></clipPath></defs><g clip-path="url(#ee70e8d2aa)"><g clip-path="url(#edc0f40e4e)"><path fill="#ffffff" d="M 9.242188 3.503906 L 26.8125 3.503906 L 26.8125 31.578125 L 9.242188 31.578125 Z M 9.242188 3.503906 " fill-opacity="1" fill-rule="nonzero"/></g></g><g clip-path="url(#acb6509e58)"><g clip-path="url(#5cfd9bf49f)"><path stroke-linecap="butt" transform="matrix(0.72973, 0, 0, 0.722305, 9.245381, 3.502705)" fill="none" stroke-linejoin="miter" d="M 1.997649 0.00166363 L 21.996492 0.00166363 C 23.099211 0.00166363 23.993164 0.89399 23.993164 1.997229 L 23.993164 36.392336 C 23.993164 37.495576 23.099211 38.39331 21.996492 38.39331 L 1.997649 38.39331 C 0.894929 38.39331 0.000976203 37.495576 0.000976203 36.392336 L 0.000976203 1.997229 C 0.000976203 0.89399 0.894929 0.00166363 1.997649 0.00166363 " stroke="#000000" stroke-width="2" stroke-opacity="1" stroke-miterlimit="4"/></g></g><g clip-path="url(#20a5add18c)"><g clip-path="url(#182761df7f)"><path fill="#ffffff" d="M 3.992188 26.265625 L 3.992188 8.699219 L 32.070312 8.699219 L 32.070312 26.265625 Z M 3.992188 26.265625 " fill-opacity="1" fill-rule="nonzero"/></g></g><g clip-path="url(#ccb3cbda26)"><g clip-path="url(#d0cd00b6f7)"><path stroke-linecap="butt" transform="matrix(0.000000000000000045, -0.72973, 0.722305, 0.000000000000000044, 3.992609, 26.264713)" fill="none" stroke-linejoin="miter" d="M 2.000776 -0.000583899 L 21.994266 -0.000583899 C 23.096986 -0.000583899 23.996291 0.89715 23.996291 2.000389 L 23.996291 36.390089 C 23.996291 37.493328 23.096986 38.391062 21.994266 38.391062 L 2.000776 38.391062 C 0.892703 38.391062 -0.00124937 37.493328 -0.00124937 36.390089 L -0.00124937 2.000389 C -0.00124937 0.89715 0.892703 -0.000583899 2.000776 -0.000583899 " stroke="#000000" stroke-width="2" stroke-opacity="1" stroke-miterlimit="4"/></g></g><g fill="#000000" fill-opacity="1"><g transform="translate(7.263851, 21.162164)"><g><path d="M 2.34375 -5.8125 L 0.046875 -5.8125 L 0.046875 -7.484375 L 6.75 -7.484375 L 6.75 -5.8125 L 4.46875 -5.8125 L 4.46875 0 L 2.34375 0 Z M 2.34375 -5.8125 "/></g></g></g><g fill="#000000" fill-opacity="1"><g transform="translate(14.055261, 21.162164)"><g><path d="M 5.484375 0 L 3.921875 -2.328125 L 2.390625 0 L -0.015625 0 L 2.703125 -3.78125 L 0.09375 -7.484375 L 2.484375 -7.484375 L 3.984375 -5.328125 L 5.453125 -7.484375 L 7.75 -7.484375 L 5.140625 -3.875 L 7.921875 0 Z M 5.484375 0 "/></g></g></g><g fill="#000000" fill-opacity="1"><g transform="translate(21.93758, 21.162164)"><g><path d="M 2.34375 -5.8125 L 0.046875 -5.8125 L 0.046875 -7.484375 L 6.75 -7.484375 L 6.75 -5.8125 L 4.46875 -5.8125 L 4.46875 0 L 2.34375 0 Z M 2.34375 -5.8125 "/></g></g></g></svg>