<svg id="Слой_4" data-name="Слой 4" xmlns="http://www.w3.org/2000/svg" viewBox="0 0 1300.2 929.1">
  <defs>
    <style>
      .cls-1 {
        fill: #f5f5f5;
      }

      .cls-14, .cls-2, .cls-21, .cls-22, .cls-3 {
        fill: none;
        stroke-miterlimit: 10;
      }

      .cls-2, .cls-3 {
        stroke: #f5f5f5;
      }

      .cls-2 {
        stroke-width: 8.68px;
      }

      .cls-3 {
        stroke-width: 9.57px;
      }

      .cls-4 {
        fill: #a2abb0;
      }

      .cls-5 {
        fill: #285a5b;
      }

      .cls-6 {
        fill: #f1f1f1;
      }

      .cls-7 {
        fill: #163f41;
      }

      .cls-8 {
        fill: #e5e5e5;
      }

      .cls-9 {
        fill: #e08546;
      }

      .cls-10 {
        fill: #ea8e50;
      }

      .cls-11 {
        fill: #ef9d65;
      }

      .cls-12 {
        fill: #b5babc;
      }

      .cls-13 {
        fill: #3f6f71;
      }

      .cls-14, .cls-21 {
        stroke: #3f6f71;
      }

      .cls-14 {
        stroke-width: 1.5px;
      }

      .cls-15 {
        fill: #54626b;
      }

      .cls-16 {
        fill: #c6c6c6;
      }

      .cls-17 {
        fill: #d8d8d8;
      }

      .cls-18 {
        fill: #cecece;
      }

      .cls-19 {
        fill: #4a7f7f;
      }

      .cls-20 {
        fill: #939aa0;
      }

      .cls-21 {
        stroke-width: 3px;
      }

      .cls-22 {
        stroke: #163f41;
        stroke-linecap: round;
        stroke-width: 1.7px;
      }

      .cls-23 {
        fill: #000100;
      }

      .cls-24 {
        fill: #123535;
      }

      .cls-25 {
        fill: #dd8b52;
      }

      .cls-26 {
        fill: #023047;
      }

      .cls-27 {
        fill: #ce7438;
      }
    </style>
  </defs>
  <g>
    <g>
      <path class="cls-1" d="M988.9,510.8l13.4-41.3a17.3,17.3,0,0,0-8.6-20.7L941.9,422a17.5,17.5,0,0,1-9.4-16.1c.1-2,.1-4,.1-6.1s0-5-.1-7.5a17.1,17.1,0,0,1,8.8-15.7l51.8-29.5a17.3,17.3,0,0,0,8-20.4l-13.5-41.3a17.3,17.3,0,0,0-19.1-11.8l-57.6,8.8a17.4,17.4,0,0,1-16.9-7.3c-2.6-3.9-5.4-7.6-8.2-11.2a17.3,17.3,0,0,1-2.2-17.9l24.8-54.6a17.3,17.3,0,0,0-5.6-21.2l-35.1-25.5a17.3,17.3,0,0,0-22.4,1.7l-41.7,41.2a17.3,17.3,0,0,1-18.1,4c-3.5-1.2-7.1-2.4-10.7-3.4a17.4,17.4,0,0,1-12.2-13.9L753,115.8a17.4,17.4,0,0,0-17.1-14.5H692.5a17.3,17.3,0,0,0-17,13.9l-12.2,59.1a17.4,17.4,0,0,1-12.2,13.2c-4.4,1.3-8.8,2.6-13,4.1a17.3,17.3,0,0,1-18.1-4l-41.6-41.2a17.3,17.3,0,0,0-22.4-1.7l-35.2,25.5a17.4,17.4,0,0,0-5.6,21.2L540,246a17.3,17.3,0,0,1-2.2,17.9c-2.8,3.6-5.6,7.3-8.2,11.2a17.3,17.3,0,0,1-16.9,7.3l-57.6-8.8A17.3,17.3,0,0,0,436,285.4l-13.4,41.3a17.1,17.1,0,0,0,7.9,20.4l51.9,29.5a17.2,17.2,0,0,1,8.7,15.7c-.1,2.5-.1,5-.1,7.5s0,4.1.1,6.1a17.5,17.5,0,0,1-9.4,16.1l-51.8,26.8a17.3,17.3,0,0,0-8.6,20.7l13.5,41.3a17.2,17.2,0,0,0,18.4,11.9l59.4-6.7a17.4,17.4,0,0,1,16.3,7.5c2.5,3.7,5.1,7.3,7.9,10.9a17.5,17.5,0,0,1,1.8,18.4l-26.5,52.7a17.3,17.3,0,0,0,5.3,21.8l35.1,25.5a17.2,17.2,0,0,0,21.9-1.2l44.5-40.7a17.6,17.6,0,0,1,17.7-3.4c3.9,1.4,7.8,2.7,11.8,3.9a17.3,17.3,0,0,1,12.2,13.8l9.6,58.6a17.3,17.3,0,0,0,17.1,14.5h43.5a17.2,17.2,0,0,0,16.9-13.8l12.1-59.1a17.6,17.6,0,0,1,12.3-13.2q7.6-2.1,15-4.8a17.4,17.4,0,0,1,17.6,3.5l44.5,40.7a17.2,17.2,0,0,0,21.9,1.2l35.2-25.5a17.4,17.4,0,0,0,5.3-21.8l-26.5-52.7a17.3,17.3,0,0,1,1.8-18.4c2.7-3.6,5.3-7.2,7.8-10.9A17.5,17.5,0,0,1,911,516l59.4,6.7A17.4,17.4,0,0,0,988.9,510.8ZM711.8,600.1c-110.6,0-200.3-89.7-200.3-200.3s89.7-200.3,200.3-200.3,200.3,89.7,200.3,200.3S822.4,600.1,711.8,600.1Z" transform="translate(-291.2 -46.6)"/>
      <circle class="cls-1" cx="420.6" cy="353.2" r="124.4"/>
      <circle class="cls-2" cx="420.6" cy="353.2" r="158.3"/>
    </g>
    <g>
      <path class="cls-1" d="M1575.7,695.1l14.8-45.5a19.1,19.1,0,0,0-9.5-22.9l-57.1-29.6a19.3,19.3,0,0,1-10.4-17.7c.1-2.2.1-4.5.1-6.7s0-5.6-.1-8.3a19,19,0,0,1,9.7-17.3l57.2-32.5a19.1,19.1,0,0,0,8.7-22.5l-14.8-45.6a19.2,19.2,0,0,0-21.1-13l-63.5,9.7a19.2,19.2,0,0,1-18.7-8.1c-2.8-4.2-5.9-8.3-9-12.3a19,19,0,0,1-2.4-19.7l27.3-60.2a19.1,19.1,0,0,0-6.2-23.4L1442,291.4a19.2,19.2,0,0,0-24.7,1.8l-46,45.5a19,19,0,0,1-19.9,4.4c-3.9-1.4-7.8-2.6-11.8-3.8a19.3,19.3,0,0,1-13.5-15.3l-10.6-64.5a19.1,19.1,0,0,0-18.8-16h-47.9a19.3,19.3,0,0,0-18.8,15.3L1216.7,324a19.5,19.5,0,0,1-13.5,14.6c-4.9,1.3-9.7,2.9-14.4,4.5a19.1,19.1,0,0,1-19.9-4.4L1123,293.2a19.3,19.3,0,0,0-24.7-1.8l-38.8,28.1a19.3,19.3,0,0,0-6.2,23.4l27.4,60.2a19.2,19.2,0,0,1-2.4,19.7c-3.2,4-6.2,8.1-9.1,12.3a19.1,19.1,0,0,1-18.7,8.1L987,433.5a19,19,0,0,0-21,13l-14.8,45.6a19.1,19.1,0,0,0,8.7,22.5l57.2,32.5a19,19,0,0,1,9.7,17.3c-.1,2.7-.2,5.5-.2,8.3s.1,4.5.1,6.7a19,19,0,0,1-10.3,17.7l-57.2,29.6a19.1,19.1,0,0,0-9.4,22.9l14.8,45.5a19.2,19.2,0,0,0,20.3,13.1l65.5-7.4a19.1,19.1,0,0,1,18,8.3q4.2,6.1,8.7,12a19.2,19.2,0,0,1,2,20.3l-29.2,58.1a19.1,19.1,0,0,0,5.8,24.1l38.7,28.1a19.2,19.2,0,0,0,24.2-1.3l49.1-44.9a18.9,18.9,0,0,1,19.4-3.8c4.3,1.5,8.7,3,13.1,4.3a19.3,19.3,0,0,1,13.5,15.2l10.6,64.6a19.1,19.1,0,0,0,18.8,16.1H1291a19.3,19.3,0,0,0,18.8-15.3l13.3-65.1a18.8,18.8,0,0,1,13.5-14.5c5.6-1.6,11.2-3.4,16.6-5.4a19.2,19.2,0,0,1,19.4,3.9l49.1,44.9a19,19,0,0,0,24.1,1.3l38.8-28.1a19.3,19.3,0,0,0,5.8-24.1l-29.2-58.1a19.2,19.2,0,0,1,2-20.3q4.5-5.9,8.7-12a19,19,0,0,1,17.9-8.3l65.5,7.4A19.2,19.2,0,0,0,1575.7,695.1Zm-305.6,98.5c-122,0-220.9-98.9-220.9-220.9s98.9-220.9,220.9-220.9S1491,450.7,1491,572.7,1392.1,793.6,1270.1,793.6Z" transform="translate(-291.2 -46.6)"/>
      <circle class="cls-1" cx="978.9" cy="526.1" r="137.2"/>
      <circle class="cls-3" cx="978.9" cy="526.1" r="174.6"/>
    </g>
    <path class="cls-4" d="M1005.1,697.8h165a8.8,8.8,0,0,1,8.8,8.8v8.4a0,0,0,0,1,0,0H996.3a0,0,0,0,1,0,0v-8.4A8.8,8.8,0,0,1,1005.1,697.8Z"/>
    <path class="cls-5" d="M1430.1,83.6H901c-3,0-5.5,2-5.5,4.6h0v66.1c0,2.5,2.5,4.6,5.5,4.6h638.4c3,0,5.5-2.1,5.5-4.6V88.2c0-2.6-2.5-4.6-5.5-4.6ZM902.4,148.5V122.8c0-4.6,7.2-6.3,10.3-2.5L932.9,146c2.5,3.1-.2,7.1-4.6,7.1H908C904.9,153.1,902.4,151.1,902.4,148.5ZM945,151,903.3,98.2a4.3,4.3,0,0,1-.9-2.5V93.9c0-2.5,2.5-4.6,5.6-4.6h87.6c4.4,0,7,4.1,4.6,7.1l-43,54.6a6,6,0,0,1-4.7,2.1h-2.8A6,6,0,0,1,945,151Zm24.2-4.9,43.1-54.7a5.8,5.8,0,0,1,4.6-2.1h2.9a6,6,0,0,1,4.7,2.1l43,54.7c2.4,3-.3,7-4.7,7H973.9C969.5,153.1,966.8,149.1,969.2,146.1Zm110.3,4.9-43-54.6c-2.4-3,.3-7.1,4.7-7.1h88.9c4.4,0,7.1,4.1,4.7,7.1l-43,54.6a6.1,6.1,0,0,1-4.7,2.1h-2.9A6.1,6.1,0,0,1,1079.5,151Zm24.3-4.9,43-54.7a6,6,0,0,1,4.7-2.1h2.9a5.8,5.8,0,0,1,4.6,2.1l43.1,54.7c2.4,3-.3,7-4.7,7h-88.9C1104,153.1,1101.4,149.1,1103.8,146.1Zm110.3,4.9-43-54.6c-2.4-3,.2-7.1,4.6-7.1h89c4.4,0,7.1,4.1,4.7,7.1L1226.3,151a6,6,0,0,1-4.7,2.1h-2.8A6,6,0,0,1,1214.1,151Zm24.2-4.9,43.1-54.7a5.9,5.9,0,0,1,4.6-2.1h2.9a6,6,0,0,1,4.7,2.1l43,54.7c2.4,3-.2,7-4.7,7H1243C1238.6,153.1,1235.9,149.1,1238.3,146.1Zm110.3,4.9-43-54.6c-2.4-3,.3-7.1,4.7-7.1h88.9c4.4,0,7.1,4.1,4.7,7.1l-43,54.6a6.1,6.1,0,0,1-4.7,2.1h-2.9A6.1,6.1,0,0,1,1348.6,151Zm24.3-4.9,43-54.7a6,6,0,0,1,4.7-2.1h2.9a5.8,5.8,0,0,1,4.6,2.1l43.1,54.7c2.4,3-.3,7-4.7,7h-88.9C1373.2,153.1,1370.5,149.1,1372.9,146.1Zm159.5,7h-20.3c-4.4,0-7-4-4.6-7l20.2-25.8c3.1-3.8,10.3-2.1,10.3,2.5v25.7C1538,151.1,1535.5,153.1,1532.4,153.1Zm-41.6,0h-2.9a6,6,0,0,1-4.7-2.1l-43-54.6c-2.4-3,.2-7.1,4.6-7.1h87.6c3.1,0,5.6,2.1,5.6,4.6v1.8a4.3,4.3,0,0,1-.9,2.5L1495.4,151A5.9,5.9,0,0,1,1490.8,153.1Z" transform="translate(-291.2 -46.6)"/>
    <path class="cls-5" d="M1341.2,275.8V711.7a4.5,4.5,0,0,0,4.6,4.6h66.1a4.6,4.6,0,0,0,4.6-4.6V670.5h0V559.6h0V448.8h0V337.9h0V227h0V185.7a4.7,4.7,0,0,0-4.6-4.6h-66.1a4.6,4.6,0,0,0-4.6,4.6Zm64.9,434.8h-25.7a4.6,4.6,0,0,1-2.5-8.4l25.7-16.8a4.6,4.6,0,0,1,7.1,3.9V706A4.6,4.6,0,0,1,1406.1,710.6Zm2.5-35.1-52.9,34.3a4.3,4.3,0,0,1-2.4.8h-1.8a4.7,4.7,0,0,1-4.6-4.6V633.8a4.6,4.6,0,0,1,7.1-3.8l54.6,35.4a4.7,4.7,0,0,1,2.1,3.9v2.4A4.5,4.5,0,0,1,1408.6,675.5Zm-5-20L1349,620.1a4.7,4.7,0,0,1-2.1-3.9v-2.3a4.6,4.6,0,0,1,2.1-3.9l54.6-35.4a4.6,4.6,0,0,1,7.1,3.8v73.3A4.6,4.6,0,0,1,1403.6,655.5Zm5-90.9L1354,600.1a4.6,4.6,0,0,1-7.1-3.8V523a4.6,4.6,0,0,1,7.1-3.9l54.6,35.5a4.5,4.5,0,0,1,2.1,3.8v2.4A4.4,4.4,0,0,1,1408.6,564.6Zm-5-19.9L1349,509.2a4.5,4.5,0,0,1-2.1-3.8V503a4.7,4.7,0,0,1,2.1-3.9l54.6-35.4a4.6,4.6,0,0,1,7.1,3.8v73.3A4.6,4.6,0,0,1,1403.6,544.7Zm5-90.9L1354,489.2a4.6,4.6,0,0,1-7.1-3.8V412.1a4.6,4.6,0,0,1,7.1-3.9l54.6,35.5a4.5,4.5,0,0,1,2.1,3.8v2.4A4.7,4.7,0,0,1,1408.6,453.8Zm-5-20L1349,398.3a4.5,4.5,0,0,1-2.1-3.8v-2.4a4.7,4.7,0,0,1,2.1-3.9l54.6-35.4a4.6,4.6,0,0,1,7.1,3.8v73.3A4.6,4.6,0,0,1,1403.6,433.8Zm5-90.9L1354,378.3a4.6,4.6,0,0,1-7.1-3.8V301.2a4.6,4.6,0,0,1,7.1-3.9l54.6,35.5a4.7,4.7,0,0,1,2.1,3.9V339A4.7,4.7,0,0,1,1408.6,342.9Zm-5-20L1349,287.4a4.5,4.5,0,0,1-2.1-3.8v-2.4a4.5,4.5,0,0,1,2.1-3.8l54.6-35.5a4.6,4.6,0,0,1,7.1,3.9V319A4.6,4.6,0,0,1,1403.6,322.9Zm7.1-131.5v16.8a4.6,4.6,0,0,1-7.1,3.8l-25.7-16.7a4.6,4.6,0,0,1,2.5-8.4h25.7A4.5,4.5,0,0,1,1410.7,191.4Zm0,34.4v2.3a4.7,4.7,0,0,1-2.1,3.9L1354,267.5a4.6,4.6,0,0,1-7.1-3.9V191.4a4.6,4.6,0,0,1,4.6-4.5h1.8a4.2,4.2,0,0,1,2.4.7l52.9,34.3A4.7,4.7,0,0,1,1410.7,225.8Z" transform="translate(-291.2 -46.6)"/>
    <path class="cls-5" d="M1039,0h97.2a9.7,9.7,0,0,1,9.7,9.7V135.6a7.3,7.3,0,0,1-7.3,7.3h-102a7.3,7.3,0,0,1-7.3-7.3V9.7A9.7,9.7,0,0,1,1039,0Z"/>
    <path class="cls-6" d="M1356,63.5h45.6a10.6,10.6,0,0,1,10.6,10.6v45.6a10.6,10.6,0,0,1-10.6,10.6h-44.4a11.7,11.7,0,0,1-11.7-11.7V74.1A10.6,10.6,0,0,1,1356,63.5Z" transform="translate(990.8 1429.1) rotate(-90)"/>
    <path class="cls-5" d="M1023.1,659.6h129a8.8,8.8,0,0,1,8.8,8.8v12.7a0,0,0,0,1,0,0H1014.2a0,0,0,0,1,0,0V668.5A8.8,8.8,0,0,1,1023.1,659.6Z"/>
    <path class="cls-7" d="M1007.7,677.8h159.8a11.4,11.4,0,0,1,11.4,11.4v17.5a0,0,0,0,1,0,0H996.3a0,0,0,0,1,0,0V689.3A11.4,11.4,0,0,1,1007.7,677.8Z"/>
  </g>
  <g>
    <path class="cls-8" d="M1539.9,776.4H1443a1.8,1.8,0,0,1,0-3.6h96.9a1.8,1.8,0,0,1,0,3.6Z" transform="translate(-291.2 -46.6)"/>
    <path class="cls-9" d="M1520,763.1h-58.6l15.8-77.8c.1-.2.1-.4.2-.6h0a5.7,5.7,0,0,1,5.4-4h14.8a5.8,5.8,0,0,1,5.4,4h0c0,.2.1.3.1.5Z" transform="translate(-291.2 -46.6)"/>
    <g>
      <polygon class="cls-6" points="1224.8 698.4 1173.8 698.4 1175.5 690.4 1175.5 690.4 1177.2 681.9 1221.3 681.9 1223.1 690.4 1223.1 690.4 1224.8 698.4"/>
      <polygon class="cls-6" points="1218.4 668.8 1179.9 668.8 1180.8 664.3 1180.8 664.3 1182.5 655.8 1215.6 655.8 1217.4 664.3 1217.4 664.3 1218.4 668.8"/>
    </g>
    <rect class="cls-10" x="1153.6" y="716.6" width="91.7" height="9.8" rx="1.9"/>
    <path class="cls-9" d="M1198.3,716.6h45.7a1.4,1.4,0,0,1,1.4,1.4v7a1.4,1.4,0,0,1-1.4,1.4h-45.7a0,0,0,0,1,0,0v-9.8A0,0,0,0,1,1198.3,716.6Z"/>
  </g>
  <ellipse class="cls-8" cx="164.6" cy="788.3" rx="113.5" ry="13.1"/>
  <g>
    <path class="cls-11" d="M625.3,511.7c-3.2,12.1-1.7,19.9.7,21.1s8.9-3,11.3-15.4,3.6-25.6,1.2-26.9S628.2,500.8,625.3,511.7Z" transform="translate(-291.2 -46.6)"/>
    <path class="cls-11" d="M626.2,525.7l-67-18.3-34-62.7a17.9,17.9,0,1,0-29.8,19.7c1.1,1.3,34.2,46.6,45.1,61.3a12.4,12.4,0,0,0,9,5.1h0l82.5,8.7S638,528.4,626.2,525.7Z" transform="translate(-291.2 -46.6)"/>
  </g>
  <g>
    <path class="cls-12" d="M1387.9,844.8l-857.1-1.5v17.6c2,17.6,14.8,30.2,27.4,30.2h804.9c12,0,22.5-11.8,25.1-28.3Z" transform="translate(-291.2 -46.6)"/>
    <path class="cls-7" d="M1391.1,846.9,528.9,841l1.9,18.1a25.8,25.8,0,0,0,25.5,21.8h806.5a25.9,25.9,0,0,0,25.2-20.1Z" transform="translate(-291.2 -46.6)"/>
    <path class="cls-5" d="M1382.4,849.9H537.6a9,9,0,0,1-7.1-14.4l91.2-119.7A34.4,34.4,0,0,1,649,702.3h622a34.4,34.4,0,0,1,27.3,13.5l91.2,119.7A9,9,0,0,1,1382.4,849.9Z" transform="translate(-291.2 -46.6)"/>
    <g>
      <path class="cls-7" d="M1312,799.7H607.8a3.6,3.6,0,0,1-2.9-5.6l7.2-11,1-1.5,9.4-14.5,1-1.5,9.5-14.5,1-1.5,7.7-11.8,1-1.6,7.7-11.8,1-1.5,3.7-5.6a3.4,3.4,0,0,1,2.9-1.6h601.4a3.6,3.6,0,0,1,3,1.5l3.9,5.7,1,1.5,8.1,11.8,1,1.6,8.1,11.8,1,1.5,9.9,14.5,1.1,1.5,9.9,14.5,1,1.5,7.5,11A3.6,3.6,0,0,1,1312,799.7Z" transform="translate(-291.2 -46.6)"/>
      <path class="cls-13" d="M1307.4,783.1l-1-1.5h-81l-6.8-14.5h77.9l-1.1-1.5h-88.9l-6.3-14.5h85.3l-1-1.5H1243l-6.6-11.8h40l-1-1.6h-59.2l-4.3-11.8h55.4l-1-1.5H1107.1l-.2-7.2h-2l.2,7.2H1050v-7.2h-2v7.2h-33.2l.2-7.2h-1.7l-.4,7.2H978.5v-7.2h-2v7.2H943v-7.2h-2v7.2H907v-7.2h-2v7.2H870.2v-7.2h-1.6l-.4,7.2H834.8l1.2-7.2h-2l-1.3,7.2H797.4l1.9-7.2h-2l-2,7.2H761.2l2.1-7.2h-2.1l-2.1,7.2H726.2l2.5-7.2h-2.1l-2.6,7.2H688.8l3.3-7.2h-2.2l-3.3,7.2H651.4l-1,1.5h35.5l-5.3,11.8H642.7l-1,1.6h50.4l-4.5,11.8H634l-1,1.5h74.6L702,765.6H623.5l-1,1.5H717l-5.5,14.5H613.1l-1,1.5h48.8l-7.5,16.6h2.2l7.5-16.6h44.5l-4.4,16.6h2.1l4.3-16.6h45.3l-4.4,16.6h2.1l4.4-16.6h45.7l-3.4,16.6h2.2l3.3-16.6h243.1v16.6h2V783.1h52l1.7,16.6h2l-1.7-16.6h69l3.4,16.6h2.1l-3.5-16.6h75.5l6.8,16.6h2.2l-6.8-16.6Zm-103.1-17.5h-75l-2.4-14.5H1198Zm-247.6-16V737.8h42.9v11.8Zm23.3,1.5v14.5H934.1V751.1Zm2,0h42.9v14.5H982Zm19.6-1.5V737.8h44.6v11.8Zm25.3,1.5h43.8v14.5h-43.8Zm21.3-1.5V737.8h61.9l1,11.8Zm24.5,1.5h52.2l2.4,14.4h-54.6Zm39.4-13.3H1175l2.9,11.8h-64.8Zm122.4,0,6.3,11.8H1180l-2.9-11.8Zm-24.7-13.4,4.4,11.8h-76.3l-1.8-11.8Zm-126.7,0h51l1.8,11.8h-52.8Zm-52.2,0h50.2v11.8h-50.2Zm-42.7,0h40.7v11.8H988.2Zm-43.3,0h41.3v11.8H944.9Zm9.8,13.4v11.8h-42V737.8ZM778.2,749.6h-44l4.9-11.8h42.6Zm5.6-11.8H825l-2.3,11.8H780.3Zm12.4,13.3-3.3,14.5H750.5l4-14.5Zm2.1,0h44.1l-1.1,14.5H794.9Zm26.4-1.5,2.3-11.8h40l-.7,11.8Zm19.7,1.5h42.3v14.5H843.3Zm23.9-1.5.5-11.8h41.9v11.8Zm20.4,1.5h43.4v14.5H888.7Zm12.2-26.7h42v11.8h-42Zm-42.8,0h40.8v11.8H856.8Zm-2.1,0-1.3,11.8h-42l2.9-11.8Zm-42.4,0-3,11.8H768.4l4.6-11.8Zm-42.8,0-4.6,11.8H725.9l4.6-11.8Zm-88,11.8,5.3-11.8h40.2l-4.5,11.8Zm7,13.4,4.4-11.8h42.7l-4.8,11.8Zm14.3,16,5.7-14.5h42.6l-4,14.5Zm9.5,16,5.5-14.5h46.7L762,781.6Zm50.5,0,3.7-14.5h42.7L808,781.6Zm92.2,0H810l2.5-14.5h44.7Zm46.8,0H858.3l.9-14.5h43.9Zm48,0h-46V767.1h46Zm48.5,0H953.1V767.1h46.5Zm44.8,0h-42.8V767.1h42.8Zm2,0V767.1h48.4l.3,14.5Zm57.4,0h-7.7l1-.2V767.1h59.5l-1,.2,2.9,14.3Zm56.7,0-2.9-14.5h58.7l6.9,14.5Z" transform="translate(-291.2 -46.6)"/>
    </g>
    <g>
      <path class="cls-7" d="M1056,839.7H866c-4.2,0-7.3-3.5-6.5-7.3l1-4.9.3-1.5,3.2-14.9a6.5,6.5,0,0,1,6.5-4.9h182.1a6.5,6.5,0,0,1,6.6,5.2l2.3,14.6.3,1.5.8,5.2C1063.2,836.4,1060.1,839.7,1056,839.7Z" transform="translate(-291.2 -46.6)"/>
      <polygon class="cls-13" points="770.5 781 569.3 781 569.6 779.5 770.3 779.5 770.5 781"/>
      <line class="cls-14" x1="669.9" y1="781" x2="669.9" y2="793.1"/>
    </g>
  </g>
  <g>
    <path class="cls-7" d="M1288,295.8v384a22.9,22.9,0,0,1-22.9,22.9H654.9A22.9,22.9,0,0,1,632,679.8v-384a18.4,18.4,0,0,1,18.4-18.4h619.2A18.4,18.4,0,0,1,1288,295.8Z" transform="translate(-291.2 -46.6)"/>
    <g>
      <path class="cls-6" d="M1270.1,306.8V681a6.6,6.6,0,0,1-6.6,6.7H658.8a6.7,6.7,0,0,1-6.7-6.7V306.8a6.7,6.7,0,0,1,6.7-6.7h604.7A6.6,6.6,0,0,1,1270.1,306.8Z" transform="translate(-291.2 -46.6)"/>
      <g>
        <path class="cls-15" d="M1270.1,306.8V327h-618V306.8a6.7,6.7,0,0,1,6.7-6.7h604.7A6.6,6.6,0,0,1,1270.1,306.8Z" transform="translate(-291.2 -46.6)"/>
        <path class="cls-6" d="M1206.5,320H662a3.1,3.1,0,0,1-3.2-3v-7.4a3,3,0,0,1,3.2-2.9h544.5a3.1,3.1,0,0,1,3.2,2.9V317A3.1,3.1,0,0,1,1206.5,320Z" transform="translate(-291.2 -46.6)"/>
        <g>
          <ellipse class="cls-6" cx="934.5" cy="266.8" rx="4.7" ry="4.7"/>
          <ellipse class="cls-6" cx="949.5" cy="266.8" rx="4.7" ry="4.7"/>
          <ellipse class="cls-6" cx="964.4" cy="266.8" rx="4.7" ry="4.7"/>
        </g>
      </g>
    </g>
  </g>
  <g>
    <rect class="cls-8" x="375.1" y="451.6" width="297.3" height="135.33" rx="4.6"/>
    <rect class="cls-16" x="757.1" y="329.6" width="202.6" height="293.16" rx="4.6"/>
    <rect class="cls-17" x="394.1" y="390.8" width="297.3" height="135.33" rx="4.6"/>
    <rect class="cls-16" x="415.1" y="342.2" width="297.3" height="135.33" rx="4.6"/>
  </g>
  <g>
    <path class="cls-17" d="M1249.8,355.1H783.1a12.4,12.4,0,0,0-12.3,12.3V657.3a12.4,12.4,0,0,0,12.4,12.3h466.6a12.3,12.3,0,0,0,12.3-12.3V367.4A12.3,12.3,0,0,0,1249.8,355.1Z" transform="translate(-291.2 -46.6)"/>
    <g>
      <rect class="cls-13" x="475.7" y="305.4" width="489.3" height="310.93" rx="11.8"/>
      <rect class="cls-6" x="482.5" y="322.4" width="475.8" height="287.89" rx="10.4"/>
      <rect class="cls-18" x="501.5" y="381.4" width="148.8" height="207.05" rx="5.2"/>
      <rect class="cls-18" x="679.3" y="381.4" width="269.5" height="27.12"/>
      <rect class="cls-18" x="679.3" y="426.4" width="269.5" height="27.12"/>
      <rect class="cls-18" x="679.3" y="471.4" width="269.5" height="27.12"/>
      <rect class="cls-18" x="679.3" y="516.4" width="269.5" height="27.12"/>
      <rect class="cls-18" x="679.3" y="561.4" width="269.5" height="27.12"/>
    </g>
  </g>
  <g>
    <path class="cls-8" d="M1418,924.1c.4,18.2-80.5,34.5-180.7,36.5s-155.8-9.9-156.2-28.1,54.8-35.9,155-37.9S1417.7,905.9,1418,924.1Z" transform="translate(-291.2 -46.6)"/>
    <g>
      <path class="cls-19" d="M1393.8,919.6H1161.3a3.5,3.5,0,0,1-3.6-4.4l25.5-144.6a5.4,5.4,0,0,1,5.1-4.4h232.6a3.6,3.6,0,0,1,3.6,4.4L1399,915.2A5.4,5.4,0,0,1,1393.8,919.6Z" transform="translate(-291.2 -46.6)"/>
      <path class="cls-4" d="M1391.7,916.6H1164.5a3,3,0,0,1-3.1-3.7l23.7-134.6a4.7,4.7,0,0,1,4.4-3.7h227.2a3,3,0,0,1,3.1,3.7l-23.7,134.6A4.7,4.7,0,0,1,1391.7,916.6Z" transform="translate(-291.2 -46.6)"/>
      <g>
        <path class="cls-20" d="M1404.6,795.4h-125a.6.6,0,0,1-.6-.7l1.4-8a.8.8,0,0,1,.8-.7h125.1c.4,0,.6.3.6.7l-1.4,8A1,1,0,0,1,1404.6,795.4Z" transform="translate(-291.2 -46.6)"/>
        <path class="cls-20" d="M1401.4,813.7h-125a.6.6,0,0,1-.6-.7l1.4-8a1,1,0,0,1,.8-.7h125.1a.6.6,0,0,1,.5.7l-1.4,8A.8.8,0,0,1,1401.4,813.7Z" transform="translate(-291.2 -46.6)"/>
        <path class="cls-20" d="M1398.2,832H1273.1a.5.5,0,0,1-.5-.7l1.4-7.9a.8.8,0,0,1,.8-.7h125a.6.6,0,0,1,.6.7l-1.4,7.9A.8.8,0,0,1,1398.2,832Z" transform="translate(-291.2 -46.6)"/>
        <path class="cls-20" d="M1384,907.8h-79a1.2,1.2,0,0,1-1.2-1.5l10.7-60.6a1.8,1.8,0,0,1,1.7-1.5h79a1.3,1.3,0,0,1,1.3,1.5l-10.7,60.6A1.9,1.9,0,0,1,1384,907.8Z" transform="translate(-291.2 -46.6)"/>
      </g>
    </g>
    <g>
      <path class="cls-19" d="M1366.5,935.4H1133.9a3.6,3.6,0,0,1-3.6-4.4l25.5-144.6a5.3,5.3,0,0,1,5.1-4.3h232.6a3.5,3.5,0,0,1,3.6,4.3L1371.6,931A5.3,5.3,0,0,1,1366.5,935.4Z" transform="translate(-291.2 -46.6)"/>
      <path class="cls-8" d="M1364.3,932.5H1137.1a3.1,3.1,0,0,1-3.1-3.8l23.8-134.5a4.5,4.5,0,0,1,4.3-3.7h227.3a3,3,0,0,1,3,3.7l-23.7,134.5A4.7,4.7,0,0,1,1364.3,932.5Z" transform="translate(-291.2 -46.6)"/>
      <g>
        <path class="cls-20" d="M1377.3,811.2H1252.2c-.4,0-.6-.3-.6-.7l1.4-7.9a1,1,0,0,1,.9-.7h125a.6.6,0,0,1,.6.7l-1.4,7.9A.8.8,0,0,1,1377.3,811.2Z" transform="translate(-291.2 -46.6)"/>
        <path class="cls-20" d="M1374,829.5H1249a.6.6,0,0,1-.6-.7l1.4-7.9a.9.9,0,0,1,.8-.7h125.1c.4,0,.6.3.6.7l-1.4,7.9A1,1,0,0,1,1374,829.5Z" transform="translate(-291.2 -46.6)"/>
        <path class="cls-20" d="M1370.8,847.8h-125a.6.6,0,0,1-.6-.7l1.4-7.9a.8.8,0,0,1,.8-.7h125.1a.5.5,0,0,1,.5.7l-1.4,7.9A.8.8,0,0,1,1370.8,847.8Z" transform="translate(-291.2 -46.6)"/>
        <path class="cls-20" d="M1356.7,923.6h-79.1a1.2,1.2,0,0,1-1.2-1.4l10.7-60.7a1.7,1.7,0,0,1,1.7-1.4h79.1a1.2,1.2,0,0,1,1.2,1.4l-10.7,60.7A1.7,1.7,0,0,1,1356.7,923.6Z" transform="translate(-291.2 -46.6)"/>
      </g>
    </g>
    <g>
      <path class="cls-19" d="M1327.9,952.7H1095.4a3.5,3.5,0,0,1-3.6-4.4l25.5-144.6a5.4,5.4,0,0,1,5.1-4.4H1355a3.6,3.6,0,0,1,3.6,4.4l-25.5,144.6A5.4,5.4,0,0,1,1327.9,952.7Z" transform="translate(-291.2 -46.6)"/>
      <path class="cls-18" d="M1325.8,949.7H1098.6a3,3,0,0,1-3.1-3.7l23.7-134.6a4.7,4.7,0,0,1,4.4-3.7h227.2a3,3,0,0,1,3.1,3.7L1330.2,946A4.7,4.7,0,0,1,1325.8,949.7Z" transform="translate(-291.2 -46.6)"/>
      <g>
        <path class="cls-6" d="M1338.7,828.5h-125a.6.6,0,0,1-.6-.7l1.4-8a1,1,0,0,1,.8-.7h125.1a.7.7,0,0,1,.6.7l-1.4,8A1,1,0,0,1,1338.7,828.5Z" transform="translate(-291.2 -46.6)"/>
        <path class="cls-6" d="M1335.5,846.8h-125a.6.6,0,0,1-.6-.7l1.4-8a1,1,0,0,1,.8-.7h125.1a.6.6,0,0,1,.5.7l-1.4,8A.8.8,0,0,1,1335.5,846.8Z" transform="translate(-291.2 -46.6)"/>
        <path class="cls-6" d="M1332.3,865.1H1207.2a.5.5,0,0,1-.5-.7l1.4-7.9a.8.8,0,0,1,.8-.7h125a.6.6,0,0,1,.6.7l-1.4,7.9A.8.8,0,0,1,1332.3,865.1Z" transform="translate(-291.2 -46.6)"/>
        <path class="cls-6" d="M1318.1,940.9h-79a1.2,1.2,0,0,1-1.2-1.5l10.7-60.6a1.8,1.8,0,0,1,1.7-1.5h79a1.3,1.3,0,0,1,1.3,1.5l-10.7,60.6A1.9,1.9,0,0,1,1318.1,940.9Z" transform="translate(-291.2 -46.6)"/>
      </g>
    </g>
  </g>
  <g>
    <path class="cls-8" d="M1155,975.7h0l-110-.7a2.5,2.5,0,1,1,0-4.9h0l110,.8a2.4,2.4,0,1,1,0,4.8Z" transform="translate(-291.2 -46.6)"/>
    <path class="cls-9" d="M1132.7,960.7h-65.2l17.7-84.3c0-.2.1-.4.1-.6h0a6.5,6.5,0,0,1,6-4.3h16.5a6.3,6.3,0,0,1,6,4.3h0c0,.2.1.4.1.6Z" transform="translate(-291.2 -46.6)"/>
    <g>
      <polygon class="cls-6" points="837.1 894.4 780.4 894.4 782.2 885.8 782.2 885.8 784.2 876.6 833.1 876.6 835.2 885.8 835.2 885.8 837.1 894.4"/>
      <polygon class="cls-6" points="830 862.5 787.1 862.5 788.2 857.6 788.2 857.5 790.1 848.3 826.8 848.3 828.9 857.5 828.9 857.6 830 862.5"/>
    </g>
    <rect class="cls-10" x="757.9" y="914.1" width="102" height="10.61" rx="2.1"/>
    <path class="cls-9" d="M808.6,914.1h49.8a1.5,1.5,0,0,1,1.5,1.5v7.6a1.5,1.5,0,0,1-1.5,1.5H808.6a0,0,0,0,1,0,0V914.1a0,0,0,0,1,0,0Z"/>
  </g>
  <g>
    <path class="cls-7" d="M747.2,709.1c0,1.1-24.9,4.7-49.8,4.7s-47.3-3.6-47.3-4.7,22.7-1.9,47.6-1.9S747.2,708,747.2,709.1Z" transform="translate(-291.2 -46.6)"/>
    <path class="cls-9" d="M724.1,699.9H671.3l14.3-70.2a4.3,4.3,0,0,0,.1-.5h0a5.1,5.1,0,0,1,4.9-3.5h13.3a5.1,5.1,0,0,1,4.9,3.5h0a.9.9,0,0,0,.1.5Z" transform="translate(-291.2 -46.6)"/>
    <g>
      <polygon class="cls-6" points="429.3 636.9 383.4 636.9 384.9 629.8 384.9 629.8 386.4 622.1 426.1 622.1 427.8 629.8 427.8 629.8 429.3 636.9"/>
      <polygon class="cls-6" points="423.6 610.3 388.8 610.3 389.7 606.2 389.7 606.2 391.2 598.6 421 598.6 422.7 606.2 422.7 606.2 423.6 610.3"/>
    </g>
    <rect class="cls-10" x="365.1" y="653.4" width="82.7" height="8.83" rx="1.7"/>
    <path class="cls-9" d="M406.2,653.4h40.4a1.2,1.2,0,0,1,1.2,1.2V661a1.2,1.2,0,0,1-1.2,1.2H406.2a0,0,0,0,1,0,0v-8.8a0,0,0,0,1,0,0Z"/>
  </g>
  <g>
    <g>
      <path class="cls-21" d="M742.9,252.9S867,227,982.6,214.3c8.7-.9,205.1,19.3,205.1,19.3" transform="translate(-291.2 -46.6)"/>
      <g>
        <path class="cls-22" d="M984.5,189.7v7a9.9,9.9,0,1,0,6.7,17.3,10.4,10.4,0,0,0,2.9-4.8,9.9,9.9,0,0,0,.5-3.5" transform="translate(-291.2 -46.6)"/>
        <path class="cls-15" d="M1005.7,168.1a21.6,21.6,0,0,1-43.2,0Z" transform="translate(-291.2 -46.6)"/>
        <path class="cls-5" d="M640.5,112.1H745.3a0,0,0,0,1,0,0v7.4a3.7,3.7,0,0,1-3.7,3.7H644.2a3.7,3.7,0,0,1-3.7-3.7v-7.4A0,0,0,0,1,640.5,112.1Z"/>
      </g>
      <rect class="cls-5" x="732" y="237.2" width="489.3" height="310.93" rx="11.8" transform="matrix(1, -0.04, 0.04, 1, -306.25, -6.9)"/>
      <rect class="cls-6" x="739" y="254.3" width="475.8" height="287.89" rx="10.4" transform="matrix(1, -0.04, 0.04, 1, -306.47, -6.89)"/>
      <rect class="cls-18" x="774.8" y="318.4" width="148.8" height="207.05" rx="5.2" transform="matrix(1, -0.04, 0.04, 1, -307.53, -12.01)"/>
      <g>
        <rect class="cls-18" x="960.6" y="331" width="213.8" height="21.52" rx="2.9" transform="translate(-304.1 -3.3) rotate(-2.3)"/>
        <rect class="cls-18" x="962" y="366.6" width="213.8" height="21.52" rx="2.9" transform="translate(-305.6 -3.2) rotate(-2.3)"/>
        <rect class="cls-18" x="963.4" y="402.3" width="213.8" height="21.52" rx="2.9" transform="translate(-307 -3.1) rotate(-2.3)"/>
        <rect class="cls-18" x="964.9" y="438" width="213.8" height="21.52" rx="2.9" transform="translate(-308.4 -3) rotate(-2.3)"/>
        <rect class="cls-18" x="966.3" y="473.6" width="213.8" height="21.52" rx="2.9" transform="matrix(1, -0.04, 0.04, 1, -309.87, -2.93)"/>
      </g>
    </g>
    <g>
      <path class="cls-15" d="M733.4,265.4l.6,15.3,475.4-19.2-.6-15.3a5,5,0,0,0-5.3-4.8L738.3,260.1A5,5,0,0,0,733.4,265.4Z" transform="translate(-291.2 -46.6)"/>
      <path class="cls-6" d="M782.7,273.4l418.9-16.9a2.3,2.3,0,0,0,2.4-2.3l-.2-5.6a2.5,2.5,0,0,0-2.6-2.2L782.3,263.3a2.5,2.5,0,0,0-2.4,2.3l.3,5.7A2.3,2.3,0,0,0,782.7,273.4Z" transform="translate(-291.2 -46.6)"/>
      <g>
        <ellipse class="cls-6" cx="767.7" cy="269" rx="3.6" ry="3.5" transform="translate(-301.4 -15.4) rotate(-2.3)"/>
        <ellipse class="cls-6" cx="756.2" cy="269.4" rx="3.6" ry="3.5" transform="matrix(1, -0.04, 0.04, 1, -301.46, -15.88)"/>
        <ellipse class="cls-6" cx="744.7" cy="269.9" rx="3.6" ry="3.5" transform="translate(-301.5 -16.3) rotate(-2.3)"/>
      </g>
    </g>
  </g>
  <g>
    <ellipse class="cls-8" cx="707.3" cy="943.5" rx="10.1" ry="122.5" transform="translate(-535.1 1593.8) rotate(-89.4)"/>
    <path class="cls-4" d="M800.4,809.2l-1,94.1a2.3,2.3,0,0,1-2.3,2.3l-178.1-2a2.3,2.3,0,0,1-2.3-2.3l1.1-94.1a2.3,2.3,0,0,0-2.3-2.3H600.3A2.3,2.3,0,0,0,598,807l-1.4,133a2.2,2.2,0,0,0,2.2,2.3l15.2.2a2.3,2.3,0,0,0,2.3-2.3l.3-24.8a2.3,2.3,0,0,1,2.3-2.3l178.1,2a2.2,2.2,0,0,1,2.2,2.3l-.2,24.8a2.2,2.2,0,0,0,2.2,2.3l15.2.2a2.3,2.3,0,0,0,2.3-2.3l1.5-132.9a2.4,2.4,0,0,0-2.3-2.4H802.7A2.3,2.3,0,0,0,800.4,809.2Z" transform="translate(-291.2 -46.6)"/>
    <g>
      <rect class="cls-9" x="682.8" y="726" width="47" height="250.55" transform="translate(-443.8 1501.6) rotate(-89.4)"/>
      <polygon class="cls-6" points="353.8 827.5 327 827.2 289.8 804.6 290 788.6 353.8 827.5"/>
      <polygon class="cls-6" points="300.7 826.9 289.6 826.8 289.6 820.2 300.7 826.9"/>
      <polygon class="cls-6" points="414.1 828.2 386.3 827.9 302.8 779.9 330.6 780.2 414.1 828.2"/>
      <polygon class="cls-6" points="471.5 828.8 443.8 828.5 360.2 780.5 388 780.9 471.5 828.8"/>
      <polygon class="cls-6" points="528.9 829.4 501.1 829.1 417.7 781.2 445.4 781.5 528.9 829.4"/>
      <polygon class="cls-6" points="540.4 803.7 540.2 819.2 475.1 781.8 502.8 782.1 540.4 803.7"/>
      <polygon class="cls-6" points="540.6 782.5 540.6 787.1 532.5 782.4 540.6 782.5"/>
    </g>
  </g>
  <g>
    <path class="cls-23" d="M400.6,808.4s-8.2,36.9,15.2,34.4,10.6-42.1,10.6-42.1Z" transform="translate(-291.2 -46.6)"/>
    <path class="cls-23" d="M467,813.7v8.9s41.6,14.1,56.8,12,6.9-13.8-20.4-29Z" transform="translate(-291.2 -46.6)"/>
    <path class="cls-11" d="M415.2,412.2l-37.6-31.3a8.6,8.6,0,0,1-1.8-2l-40.4-64a8.2,8.2,0,0,0,.9-1.9l5.7-23.7a2.4,2.4,0,0,0-4.4-1.6l-6,12.5a.6.6,0,0,1-.8.1c-6.6-6.4-16.9-30.8-16.9-30.8a2.3,2.3,0,0,0-3.1-1.1,2.4,2.4,0,0,0-1.1,3.1l8.4,22.3-.9.4-13.4-24a2.3,2.3,0,0,0-3.2-1,2.4,2.4,0,0,0-1,3.1l12,24.8-.9.5-11.4-17.4a2.3,2.3,0,1,0-4,2.3l10.2,17.8-.8.4c-.1-.2-9.5-9.5-9.5-9.5a2.4,2.4,0,0,0-3.3,0,2.2,2.2,0,0,0,0,3.2s5.2,6.2,11.2,12.8h.1A32.3,32.3,0,0,0,318,321.9c.1,0,.2.1.2.3l34.9,74.2a7.7,7.7,0,0,0,1.4,2.1l1.3,1.4L390.5,438a17.9,17.9,0,1,0,24.7-25.8Z" transform="translate(-291.2 -46.6)"/>
    <path class="cls-13" d="M515.9,490.9l2.5,41.4-3,4.5-8.8-.5-79.8-3.9h-3.3l1.8-52.6c.5-12.3-7.1-20.8-17.5-29-7.2-5.5-22.4-16.2-22.4-16.2,8.5-14.9,16.9-33.4,16.9-33.4s76.4,17.8,90.3,21.6l5.2,1.5,4.7,1.5,2.5.8a34.7,34.7,0,0,1,12,7.1c15.7,14.5,26.8,37.2,26.8,37.2l-27.8,20Z" transform="translate(-291.2 -46.6)"/>
    <path class="cls-5" d="M543.8,470.8l-27.8,20-18.2-66.6,4.7,1.5,2.5.8a34.7,34.7,0,0,1,12,7.1C532.7,448.1,543.8,470.8,543.8,470.8Z" transform="translate(-291.2 -46.6)"/>
    <path class="cls-7" d="M511.5,810.3l-46.3,10.5s4.6-187.5,4.6-188.3h0c-.7,2.4-37.5,184-37.5,184-14.9-3.8-36.9-1.4-36.9-1.4,2.9-123.9,11.8-220.7,28.1-282.8l2.6-4.4s33.3-65.3,13.5-117.9c4.6,1.2,12.8,2.7,13.4,3l11.6,51.5c.9,0,38.9.8,39-.1,1.3-13.2-8.5-37.2-10.6-41.6,2.2.3,9.5,2.9,9.5,2.9,10,12.7,14.8,60.4,15.9,87.1.2,5.5.3,10.2.3,13.6s-.1,5.8-.3,5.9h.1C533.5,600.9,521.9,706.5,511.5,810.3Z" transform="translate(-291.2 -46.6)"/>
    <path class="cls-24" d="M511.5,810.3l-46.3,10.5s4.6-187.5,4.6-188.3,47.4-55.9,48.6-100.2h.1C533.5,600.9,521.9,706.5,511.5,810.3Z" transform="translate(-291.2 -46.6)"/>
    <path class="cls-11" d="M627.2,531.2l13.1-15.3a2.6,2.6,0,0,1,4.2,3.1l-11,16.9c-3.2,4.5-9.8-.4-6.3-4.7Z" transform="translate(-291.2 -46.6)"/>
    <g>
      <path class="cls-11" d="M490.6,430.8c0,3.5-3.5,6.6-7.9,6.7h-1.4a30.7,30.7,0,0,1-15.4-6.7,12.5,12.5,0,0,1-4.9-11.1h0l-.7-17.9h30.3Z" transform="translate(-291.2 -46.6)"/>
      <path class="cls-25" d="M490.6,401.7v24s-16.9,3.1-30.1-20.1l-.2-3.9Z" transform="translate(-291.2 -46.6)"/>
      <ellipse class="cls-11" cx="475.4" cy="376.6" rx="26.6" ry="37.1" transform="translate(-378.2 103) rotate(-16.4)"/>
      <path class="cls-26" d="M434.4,376.4c-.7,3.5,4.3,5.5,7.2,7.6,6.2,4.3,11.1,9.8,16.9,14.5-1-5.1-7.5-18.9-7-21.6,1.4-7-2.6-17,1.8-23.1s10.1-11.4,17.7-12.1h3c1.2,1.6,2.7,3.1,4,4.6s3.6,3.7,6,4.4a12.8,12.8,0,0,0,6.7-.4c1.9,1.8,3.8,2.9,6.1,6,0,0,2.2-4.5,2.3-5S450,296.9,434.4,376.4Z" transform="translate(-291.2 -46.6)"/>
      <path class="cls-26" d="M486.5,339.3c-2.5-1.5-5-3.3-7.9-3.7a15.2,15.2,0,0,0-5.6.3,65.8,65.8,0,0,0-7.4,1.7v-.5a64.4,64.4,0,0,0-11.3,5.2c-10.6,6.3-4.3,44.8-4.3,44.8l13.3,2.4s-2.6-15.8,1.5-21.6c1.6-5.4,16.8-6.1,24-5.4a6.9,6.9,0,0,0,4.6-1.3l6.7-4.9s.6-3.4.8-4.8C501.5,348.3,489.7,341.4,486.5,339.3Z" transform="translate(-291.2 -46.6)"/>
      <ellipse class="cls-11" cx="455" cy="392" rx="5.6" ry="11.4" transform="translate(-436.7 358.8) rotate(-42)"/>
    </g>
    <g>
      <path class="cls-9" d="M504.4,356.2a6.5,6.5,0,0,0-.4-1.3c-7.6-22.3-29.7-34.9-49.2-28.2s-29.3,30.2-21.7,52.4a5,5,0,0,0,.5,1.3Z" transform="translate(-291.2 -46.6)"/>
      <rect class="cls-27" x="426.9" y="363" width="83.4" height="5.31" rx="2.5" transform="translate(-384.3 124.8) rotate(-18.9)"/>
      <path class="cls-27" d="M489.7,357.4c-4.7-41.6-41.1-36-39.8-28.6,17.3-2.7,28.9,12.6,38.4,28.6C488.4,357.6,489.5,357.2,489.7,357.4Z" transform="translate(-291.2 -46.6)"/>
    </g>
  </g>
</svg>
