<svg viewBox="0 0 15 18" fill="none" xmlns="http://www.w3.org/2000/svg">
<g id="Group 273">
<circle id="Ellipse_736" cx="7.18489" cy="4.90169" r="3.90169" stroke="#242424" stroke-width="1.5" stroke-linecap="round" stroke-linejoin="round"/>
<path id="Path_33945" fill-rule="evenodd" clip-rule="evenodd" d="M1.00001 14.5332C0.998965 14.2589 1.06031 13.9879 1.1794 13.7409C1.55313 12.9934 2.60703 12.5973 3.48155 12.4179C4.11225 12.2833 4.75166 12.1934 5.39502 12.1488C6.58616 12.0442 7.78417 12.0442 8.97531 12.1488C9.61861 12.1939 10.258 12.2838 10.8888 12.4179C11.7633 12.5973 12.8172 12.956 13.1909 13.7409C13.4304 14.2445 13.4304 14.8293 13.1909 15.3329C12.8172 16.1177 11.7633 16.4765 10.8888 16.6484C10.2588 16.7886 9.61918 16.881 8.97531 16.925C8.00582 17.0072 7.03181 17.0222 6.06025 16.9698C5.83602 16.9698 5.61925 16.9698 5.39502 16.925C4.75356 16.8816 4.11636 16.7891 3.48902 16.6484C2.60703 16.4765 1.5606 16.1177 1.1794 15.3329C1.06092 15.083 0.999634 14.8098 1.00001 14.5332Z" stroke="#242424" stroke-width="1.5" stroke-linecap="round" stroke-linejoin="round"/>
</g>
</svg>
