<svg width="40" height="40" viewBox="0 0 40 40" fill="none" xmlns="http://www.w3.org/2000/svg">
<path fill-rule="evenodd" clip-rule="evenodd" d="M9.46447 23.4645C10.4021 22.5268 11.6739 22 13 22H21C22.3261 22 23.5979 22.5268 24.5355 23.4645C25.4732 24.4021 26 25.6739 26 27V29C26 29.5523 25.5523 30 25 30C24.4477 30 24 29.5523 24 29V27C24 26.2044 23.6839 25.4413 23.1213 24.8787C22.5587 24.3161 21.7956 24 21 24H13C12.2044 24 11.4413 24.3161 10.8787 24.8787C10.3161 25.4413 10 26.2044 10 27V29C10 29.5523 9.55228 30 9 30C8.44772 30 8 29.5523 8 29V27C8 25.6739 8.52678 24.4021 9.46447 23.4645Z" fill="#242424"/>
<path fill-rule="evenodd" clip-rule="evenodd" d="M17 12C15.3431 12 14 13.3431 14 15C14 16.6569 15.3431 18 17 18C18.6569 18 20 16.6569 20 15C20 13.3431 18.6569 12 17 12ZM12 15C12 12.2386 14.2386 10 17 10C19.7614 10 22 12.2386 22 15C22 17.7614 19.7614 20 17 20C14.2386 20 12 17.7614 12 15Z" fill="#242424"/>
<path fill-rule="evenodd" clip-rule="evenodd" d="M27.032 22.8791C27.1701 22.3444 27.7155 22.0228 28.2502 22.1609C29.3229 22.4379 30.2732 23.0632 30.9519 23.9388C31.6307 24.8144 31.9994 25.8906 32.0002 26.9984L32.0002 28.9991C32.0002 29.5514 31.5525 29.9991 31.0002 29.9991C30.448 29.9991 30.0002 29.5514 30.0002 28.9991L30.0002 26.9999C30.0002 26.9998 30.0002 27 30.0002 26.9999C29.9997 26.3353 29.7784 25.6894 29.3713 25.1641C28.964 24.6388 28.3938 24.2636 27.7502 24.0974C27.2155 23.9593 26.8939 23.4139 27.032 22.8791Z" fill="#242424"/>
<path fill-rule="evenodd" clip-rule="evenodd" d="M23.0315 10.8811C23.1685 10.3461 23.7133 10.0234 24.2483 10.1604C25.3238 10.4358 26.2771 11.0613 26.9578 11.9383C27.6386 12.8153 28.0081 13.8939 28.0081 15.0041C28.0081 16.1144 27.6386 17.193 26.9578 18.07C26.2771 18.947 25.3238 19.5725 24.2483 19.8479C23.7133 19.9849 23.1685 19.6622 23.0315 19.1272C22.8945 18.5922 23.2172 18.0474 23.7522 17.9104C24.3975 17.7452 24.9695 17.3699 25.3779 16.8437C25.7864 16.3175 26.0081 15.6703 26.0081 15.0041C26.0081 14.338 25.7864 13.6908 25.3779 13.1646C24.9695 12.6384 24.3975 12.2631 23.7522 12.0979C23.2172 11.9609 22.8945 11.4161 23.0315 10.8811Z" fill="#242424"/>
</svg>
