<svg width="15" height="15" viewBox="0 0 9 10" fill="none" xmlns="http://www.w3.org/2000/svg">
<path fill-rule="evenodd" clip-rule="evenodd" d="M4.5 1.625C5.11875 1.625 5.625 2.13125 5.625 2.75C5.625 3.36875 5.11875 3.875 4.5 3.875C3.88125 3.875 3.375 3.36875 3.375 2.75C3.375 2.13125 3.88125 1.625 4.5 1.625ZM4.5 7.25C6.01875 7.25 7.7625 7.97563 7.875 8.375H1.125C1.25437 7.97 2.98688 7.25 4.5 7.25ZM4.5 0.5C3.25688 0.5 2.25 1.50688 2.25 2.75C2.25 3.99312 3.25688 5 4.5 5C5.74312 5 6.75 3.99312 6.75 2.75C6.75 1.50688 5.74312 0.5 4.5 0.5ZM4.5 6.125C2.99813 6.125 0 6.87875 0 8.375V9.5H9V8.375C9 6.87875 6.00187 6.125 4.5 6.125Z" fill="#27272A"/>
</svg>
