<svg xmlns="http://www.w3.org/2000/svg" xmlns:xlink="http://www.w3.org/1999/xlink" width="48" zoomAndPan="magnify" viewBox="0 0 36 36.000001" height="48" preserveAspectRatio="xMidYMid meet" version="1.0"><defs><g/><clipPath id="341ba1a037"><path d="M 9.242188 3.503906 L 26.8125 3.503906 L 26.8125 31.578125 L 9.242188 31.578125 Z M 9.242188 3.503906 " clip-rule="nonzero"/></clipPath><clipPath id="9afd6c906e"><path d="M 10.703125 3.503906 L 25.296875 3.503906 C 26.101562 3.503906 26.757812 4.15625 26.757812 4.960938 L 26.757812 30.066406 C 26.757812 30.871094 26.101562 31.523438 25.296875 31.523438 L 10.703125 31.523438 C 9.898438 31.523438 9.242188 30.871094 9.242188 30.066406 L 9.242188 4.960938 C 9.242188 4.15625 9.898438 3.503906 10.703125 3.503906 " clip-rule="nonzero"/></clipPath><clipPath id="a06613066f"><path d="M 9.246094 3.503906 L 26.757812 3.503906 L 26.757812 31.234375 L 9.246094 31.234375 Z M 9.246094 3.503906 " clip-rule="nonzero"/></clipPath><clipPath id="a3270d14c0"><path d="M 10.703125 3.503906 L 25.296875 3.503906 C 26.101562 3.503906 26.753906 4.148438 26.753906 4.945312 L 26.753906 29.789062 C 26.753906 30.585938 26.101562 31.234375 25.296875 31.234375 L 10.703125 31.234375 C 9.898438 31.234375 9.246094 30.585938 9.246094 29.789062 L 9.246094 4.945312 C 9.246094 4.148438 9.898438 3.503906 10.703125 3.503906 " clip-rule="nonzero"/></clipPath><clipPath id="550b502122"><path d="M 3.992188 8.699219 L 32.070312 8.699219 L 32.070312 26.265625 L 3.992188 26.265625 Z M 3.992188 8.699219 " clip-rule="nonzero"/></clipPath><clipPath id="d12189c4cf"><path d="M 3.992188 24.808594 L 3.992188 10.210938 C 3.992188 9.40625 4.644531 8.753906 5.453125 8.753906 L 30.554688 8.753906 C 31.359375 8.753906 32.015625 9.40625 32.015625 10.210938 L 32.015625 24.808594 C 32.015625 25.613281 31.359375 26.265625 30.554688 26.265625 L 5.453125 26.265625 C 4.644531 26.265625 3.992188 25.613281 3.992188 24.808594 " clip-rule="nonzero"/></clipPath><clipPath id="7318d19589"><path d="M 3.992188 8.753906 L 31.722656 8.753906 L 31.722656 26.265625 L 3.992188 26.265625 Z M 3.992188 8.753906 " clip-rule="nonzero"/></clipPath><clipPath id="aa9d895601"><path d="M 3.992188 24.804688 L 3.992188 10.214844 C 3.992188 9.410156 4.640625 8.753906 5.4375 8.753906 L 30.277344 8.753906 C 31.074219 8.753906 31.722656 9.410156 31.722656 10.214844 L 31.722656 24.804688 C 31.722656 25.613281 31.074219 26.265625 30.277344 26.265625 L 5.4375 26.265625 C 4.640625 26.265625 3.992188 25.613281 3.992188 24.804688 " clip-rule="nonzero"/></clipPath></defs><g clip-path="url(#341ba1a037)"><g clip-path="url(#9afd6c906e)"><path fill="#ffffff" d="M 9.242188 3.503906 L 26.8125 3.503906 L 26.8125 31.578125 L 9.242188 31.578125 Z M 9.242188 3.503906 " fill-opacity="1" fill-rule="nonzero"/></g></g><g clip-path="url(#a06613066f)"><g clip-path="url(#a3270d14c0)"><path stroke-linecap="butt" transform="matrix(0.72973, 0, 0, 0.722305, 9.245381, 3.502705)" fill="none" stroke-linejoin="miter" d="M 1.997649 0.00166363 L 21.996492 0.00166363 C 23.099211 0.00166363 23.993164 0.89399 23.993164 1.997229 L 23.993164 36.392336 C 23.993164 37.495576 23.099211 38.39331 21.996492 38.39331 L 1.997649 38.39331 C 0.894929 38.39331 0.000976203 37.495576 0.000976203 36.392336 L 0.000976203 1.997229 C 0.000976203 0.89399 0.894929 0.00166363 1.997649 0.00166363 " stroke="#000000" stroke-width="2" stroke-opacity="1" stroke-miterlimit="4"/></g></g><g clip-path="url(#550b502122)"><g clip-path="url(#d12189c4cf)"><path fill="#ffffff" d="M 3.992188 26.265625 L 3.992188 8.699219 L 32.070312 8.699219 L 32.070312 26.265625 Z M 3.992188 26.265625 " fill-opacity="1" fill-rule="nonzero"/></g></g><g clip-path="url(#7318d19589)"><g clip-path="url(#aa9d895601)"><path stroke-linecap="butt" transform="matrix(0.000000000000000045, -0.72973, 0.722305, 0.000000000000000044, 3.992609, 26.264713)" fill="none" stroke-linejoin="miter" d="M 2.000776 -0.000583899 L 21.994266 -0.000583899 C 23.096986 -0.000583899 23.996291 0.89715 23.996291 2.000389 L 23.996291 36.390089 C 23.996291 37.493328 23.096986 38.391062 21.994266 38.391062 L 2.000776 38.391062 C 0.892703 38.391062 -0.00124937 37.493328 -0.00124937 36.390089 L -0.00124937 2.000389 C -0.00124937 0.89715 0.892703 -0.000583899 2.000776 -0.000583899 " stroke="#000000" stroke-width="2" stroke-opacity="1" stroke-miterlimit="4"/></g></g><g fill="#000000" fill-opacity="1"><g transform="translate(4.739442, 20.253978)"><g><path d="M 3.4375 0.125 C 2.53125 0.125 1.820312 -0.117188 1.3125 -0.609375 C 0.8125 -1.109375 0.5625 -1.816406 0.5625 -2.734375 L 0.5625 -6.125 L 2.296875 -6.125 L 2.296875 -2.78125 C 2.296875 -1.800781 2.679688 -1.3125 3.453125 -1.3125 C 4.222656 -1.3125 4.609375 -1.800781 4.609375 -2.78125 L 4.609375 -6.125 L 6.3125 -6.125 L 6.3125 -2.734375 C 6.3125 -1.816406 6.054688 -1.109375 5.546875 -0.609375 C 5.046875 -0.117188 4.34375 0.125 3.4375 0.125 Z M 3.4375 0.125 "/></g></g></g><g fill="#000000" fill-opacity="1"><g transform="translate(11.622302, 20.253978)"><g><path d="M 2.765625 0.125 C 2.265625 0.125 1.78125 0.0625 1.3125 -0.0625 C 0.851562 -0.1875 0.476562 -0.347656 0.1875 -0.546875 L 0.75 -1.828125 C 1.019531 -1.648438 1.335938 -1.503906 1.703125 -1.390625 C 2.066406 -1.273438 2.425781 -1.21875 2.78125 -1.21875 C 3.4375 -1.21875 3.765625 -1.382812 3.765625 -1.71875 C 3.765625 -1.894531 3.671875 -2.023438 3.484375 -2.109375 C 3.296875 -2.191406 2.992188 -2.28125 2.578125 -2.375 C 2.109375 -2.476562 1.71875 -2.585938 1.40625 -2.703125 C 1.101562 -2.816406 0.835938 -3 0.609375 -3.25 C 0.390625 -3.5 0.28125 -3.835938 0.28125 -4.265625 C 0.28125 -4.640625 0.382812 -4.972656 0.59375 -5.265625 C 0.800781 -5.566406 1.109375 -5.804688 1.515625 -5.984375 C 1.921875 -6.160156 2.414062 -6.25 3 -6.25 C 3.40625 -6.25 3.800781 -6.203125 4.1875 -6.109375 C 4.582031 -6.015625 4.925781 -5.882812 5.21875 -5.71875 L 4.6875 -4.421875 C 4.101562 -4.742188 3.539062 -4.90625 3 -4.90625 C 2.644531 -4.90625 2.390625 -4.851562 2.234375 -4.75 C 2.078125 -4.644531 2 -4.507812 2 -4.34375 C 2 -4.1875 2.09375 -4.066406 2.28125 -3.984375 C 2.46875 -3.898438 2.769531 -3.816406 3.1875 -3.734375 C 3.65625 -3.628906 4.039062 -3.519531 4.34375 -3.40625 C 4.644531 -3.289062 4.910156 -3.109375 5.140625 -2.859375 C 5.367188 -2.617188 5.484375 -2.285156 5.484375 -1.859375 C 5.484375 -1.484375 5.378906 -1.144531 5.171875 -0.84375 C 4.960938 -0.550781 4.65625 -0.316406 4.25 -0.140625 C 3.84375 0.0351562 3.347656 0.125 2.765625 0.125 Z M 2.765625 0.125 "/></g></g></g><g fill="#000000" fill-opacity="1"><g transform="translate(17.287963, 20.253978)"><g><path d="M 2.34375 -4.78125 L 2.34375 -3.4375 L 5.046875 -3.4375 L 5.046875 -2.09375 L 2.34375 -2.09375 L 2.34375 0 L 0.609375 0 L 0.609375 -6.125 L 5.421875 -6.125 L 5.421875 -4.78125 Z M 2.34375 -4.78125 "/></g></g></g><g fill="#000000" fill-opacity="1"><g transform="translate(22.909841, 20.253978)"><g><path d="M 6.140625 0 L 6.125 -3.25 L 4.546875 -0.609375 L 3.78125 -0.609375 L 2.21875 -3.15625 L 2.21875 0 L 0.609375 0 L 0.609375 -6.125 L 2.03125 -6.125 L 4.1875 -2.59375 L 6.296875 -6.125 L 7.71875 -6.125 L 7.734375 0 Z M 6.140625 0 "/></g></g></g></svg>