<svg id="Слой_2" data-name="Слой 2" xmlns="http://www.w3.org/2000/svg" viewBox="0 0 1107.6 926.3">
  <defs>
    <style>
      .cls-1 {
        fill: #f5f5f5;
      }

      .cls-2, .cls-22, .cls-3, .cls-8 {
        fill: none;
        stroke-miterlimit: 10;
      }

      .cls-2, .cls-3 {
        stroke: #163f41;
      }

      .cls-2, .cls-22, .cls-3 {
        stroke-linecap: round;
      }

      .cls-2 {
        stroke-width: 3px;
      }

      .cls-3 {
        stroke-width: 3.14px;
      }

      .cls-4 {
        fill: #a2abb0;
      }

      .cls-14, .cls-15, .cls-5 {
        fill: #163f41;
      }

      .cls-6 {
        fill: #285a5b;
      }

      .cls-7 {
        fill: #3f6f71;
      }

      .cls-8 {
        stroke: #3f6f71;
        stroke-width: 1.5px;
      }

      .cls-9 {
        fill: #f1f1f1;
      }

      .cls-10 {
        fill: #54626b;
      }

      .cls-11 {
        fill: #cecece;
      }

      .cls-12 {
        fill: #939aa0;
      }

      .cls-13 {
        fill: #909699;
      }

      .cls-14 {
        font-size: 63.16px;
      }

      .cls-14, .cls-15 {
        font-family: Montserrat-SemiBold, Montserrat;
        font-weight: 600;
      }

      .cls-15 {
        font-size: 79.29px;
      }

      .cls-16 {
        fill: #113030;
      }

      .cls-17 {
        fill: #1f4747;
      }

      .cls-18 {
        fill: #ef9d65;
      }

      .cls-19 {
        fill: #dd8b52;
      }

      .cls-20 {
        fill: #1d282e;
      }

      .cls-21 {
        fill: #bcbbbb;
      }

      .cls-22 {
        stroke: #113030;
      }

      .cls-23 {
        fill: #dddad9;
      }
    </style>
  </defs>
  <path class="cls-1" d="M1481,157.9c-35.7-45.6-95.8-65.9-150.5-76.9-77.2-15.6-157.4-15-235.5-8.5-89.3,7.5-178,23.8-264.5,47.1-81.7,22.1-162.3,50.4-237.7,88.9-57,29.2-116.3,65.2-155.3,117.1-78.3,104,15.7,248.1,82.9,332.2C592.4,747.9,682,824.6,778.1,888c67.8,44.8,149.8,96.6,232.6,105.7a109.6,109.6,0,0,0,25.6.1C1241.7,965.4,1633.5,353.3,1481,157.9Z" transform="translate(-407.8 -68.2)"/>
  <g>
    <path class="cls-2" d="M1209,815h173.7c19.6,0,29.5-14.1,32.3-38.5" transform="translate(-407.8 -68.2)"/>
    <line class="cls-2" x1="339.5" y1="758.1" x2="762.9" y2="758.1"/>
    <line class="cls-2" x1="299.5" y1="780.8" x2="802.9" y2="780.8"/>
    <path class="cls-2" d="M509,769.9c2.2,26,3.3,45.1,26.9,45.1H705.5" transform="translate(-407.8 -68.2)"/>
    <line class="cls-2" x1="118.7" y1="666.2" x2="185.6" y2="578.5"/>
    <line class="cls-2" x1="999.7" y1="678.6" x2="984.1" y2="658"/>
    <path class="cls-3" d="M521.2,373.5V452a14.9,14.9,0,0,0,14.9,14.9" transform="translate(-407.8 -68.2)"/>
    <path class="cls-3" d="M1317.5,257.5h49.9a14.9,14.9,0,0,1,14.9,14.9v74.8" transform="translate(-407.8 -68.2)"/>
    <line class="cls-2" x1="719.5" y1="110.1" x2="862.3" y2="110.1"/>
    <path class="cls-2" d="M602.6,270.5V198.4a20.1,20.1,0,0,1,20.1-20.1h81.4" transform="translate(-407.8 -68.2)"/>
    <line class="cls-2" x1="194.8" y1="524.4" x2="194.8" y2="403.2"/>
    <line class="cls-2" x1="909.6" y1="375" x2="909.6" y2="433.8"/>
    <path class="cls-2" d="M893.7,177.6a103.6,103.6,0,0,1,63.6-23.9h5.4a103.2,103.2,0,0,1,64.4,24.6" transform="translate(-407.8 -68.2)"/>
    <path class="cls-2" d="M911.5,186.7a74,74,0,0,1,45.8-17.2h3.8a74.3,74.3,0,0,1,46.5,17.7" transform="translate(-407.8 -68.2)"/>
  </g>
  <g>
    <path class="cls-4" d="M1387.9,757.4l-857.1-1.5v17.6c2,17.6,14.8,30.2,27.4,30.2h804.9c12,0,22.5-11.8,25.1-28.3Z" transform="translate(-407.8 -68.2)"/>
    <path class="cls-5" d="M1391.1,762.8H528.9l1.9,12.2a25.8,25.8,0,0,0,25.5,21.8h806.5a25.9,25.9,0,0,0,25.2-20.1Z" transform="translate(-407.8 -68.2)"/>
    <path class="cls-6" d="M1382.4,769.9H537.6a9,9,0,0,1-7.1-14.4l91.2-119.7A34.4,34.4,0,0,1,649,622.3h622a34.4,34.4,0,0,1,27.3,13.5l91.2,119.7A9,9,0,0,1,1382.4,769.9Z" transform="translate(-407.8 -68.2)"/>
    <g>
      <path class="cls-5" d="M1312,719.7H607.8a3.6,3.6,0,0,1-2.9-5.6l7.2-11,1-1.5,9.4-14.5,1-1.5,9.5-14.5,1-1.5,7.7-11.8,1-1.6,7.7-11.8,1-1.5,3.7-5.6a3.4,3.4,0,0,1,2.9-1.6h601.4a3.6,3.6,0,0,1,3,1.5l3.9,5.7,1,1.5,8.1,11.8,1,1.6,8.1,11.8,1,1.5,9.9,14.5,1.1,1.5,9.9,14.5,1,1.5,7.5,11A3.6,3.6,0,0,1,1312,719.7Z" transform="translate(-407.8 -68.2)"/>
      <path class="cls-7" d="M1307.4,703.1l-1-1.5h-81l-6.8-14.5h77.9l-1.1-1.5h-88.9l-6.3-14.5h85.3l-1-1.5H1243l-6.6-11.8h40l-1-1.6h-59.2l-4.3-11.8h55.4l-1-1.5H1107.1v-7.2h-2v7.2H1050v-7.2h-2v7.2h-33.2l.2-7.2h-1.7l-.4,7.2H978.5v-7.2h-2v7.2H943v-7.2h-2v7.2H907v-7.2h-2v7.2H870.2v-7.2h-1.6l-.4,7.2H834.8l1.2-7.2h-2l-1.3,7.2H797.4l1.9-7.2h-2l-2,7.2H761.2l2.1-7.2h-2.1l-2.1,7.2H726.2l2.5-7.2h-2.1l-2.6,7.2H688.8l3.3-7.2h-2.2l-3.3,7.2H651.4l-1,1.5h35.5l-5.3,11.8H642.7l-1,1.6h50.4l-4.5,11.8H634l-1,1.5h74.6L702,685.6H623.5l-1,1.5H717l-5.5,14.5H613.1l-1,1.5h48.8l-7.5,16.6h2.2l7.5-16.6h44.5l-4.4,16.6h2.1l4.3-16.6h45.3l-4.4,16.6h2.1l4.4-16.6h45.7l-3.4,16.6h2.2l3.3-16.6h243.1v16.6h2V703.1h52l1.7,16.6h2l-1.7-16.6h69l3.4,16.6h2.1l-3.5-16.6h75.5l6.8,16.6h2.2l-6.8-16.6Zm-103.1-17.5h-75l-2.4-14.5H1198Zm-247.6-16V657.8h42.9v11.8Zm23.3,1.5v14.5H934.1V671.1Zm2,0h42.9v14.5H982Zm19.6-1.5V657.8h44.6v11.8Zm25.3,1.5h43.8v14.5h-43.8Zm21.3-1.5V657.8h61.9l1,11.8Zm24.5,1.5h52.2l2.4,14.4h-54.6Zm39.4-13.3H1175l2.9,11.8h-64.8Zm122.4,0,6.3,11.8H1180l-2.9-11.8Zm-24.7-13.4,4.4,11.8h-76.3l-1.8-11.8Zm-126.7,0h51l1.8,11.8h-52.8Zm-52.2,0h50.2v11.8h-50.2Zm-42.7,0h40.7v11.8H988.2Zm-43.3,0h41.3v11.8H944.9Zm9.8,13.4v11.8h-42V657.8ZM778.2,669.6h-44l4.9-11.8h42.6Zm5.6-11.8H825l-2.3,11.8H780.3Zm12.4,13.3-3.3,14.5H750.5l4-14.5Zm2.1,0h44.1l-1.1,14.5H794.9Zm26.4-1.5,2.3-11.8h40l-.7,11.8Zm19.7,1.5h42.3v14.5H843.3Zm23.9-1.5.5-11.8h41.9v11.8Zm20.4,1.5h43.4v14.5H888.7Zm12.2-26.7h42v11.8h-42Zm-42.8,0h40.8v11.8H856.8Zm-2.1,0-1.3,11.8h-42l2.9-11.8Zm-42.4,0-3,11.8H768.4l4.6-11.8Zm-42.8,0-4.6,11.8H725.9l4.6-11.8Zm-88,11.8,5.3-11.8h40.2l-4.5,11.8Zm7,13.4,4.4-11.8h42.7l-4.8,11.8Zm14.3,16,5.7-14.5h42.6l-4,14.5Zm9.5,16,5.5-14.5h46.7L762,701.6Zm50.5,0,3.7-14.5h42.7L808,701.6Zm92.2,0H810l2.5-14.5h44.7Zm46.8,0H858.3l.9-14.5h43.9Zm48,0h-46V687.1h46Zm48.5,0H953.1V687.1h46.5Zm44.8,0h-42.8V687.1h42.8Zm2,0V687.1h48.4l.3,14.5Zm57.4,0h-7.7l1-.2V687.1h59.5l-1,.2,2.9,14.3Zm56.7,0-2.9-14.5h58.7l6.9,14.5Z" transform="translate(-407.8 -68.2)"/>
    </g>
    <g>
      <path class="cls-5" d="M1056,759.7H866c-4.2,0-7.3-3.5-6.5-7.3l1-4.9.3-1.5,3.2-14.9a6.5,6.5,0,0,1,6.5-4.9h182.1a6.5,6.5,0,0,1,6.6,5.2l2.3,14.6.3,1.5.8,5.2C1063.2,756.4,1060.1,759.7,1056,759.7Z" transform="translate(-407.8 -68.2)"/>
      <polygon class="cls-7" points="654 679.3 452.7 679.3 453 677.8 653.7 677.8 654 679.3"/>
      <line class="cls-8" x1="553.3" y1="679.3" x2="553.3" y2="691.4"/>
    </g>
  </g>
  <g>
    <path class="cls-5" d="M1288,215.8v384a22.9,22.9,0,0,1-22.9,22.9H654.9A22.9,22.9,0,0,1,632,599.8v-384a18.4,18.4,0,0,1,18.4-18.4h619.2A18.4,18.4,0,0,1,1288,215.8Z" transform="translate(-407.8 -68.2)"/>
    <g>
      <path class="cls-9" d="M1270.1,226.8V601a6.6,6.6,0,0,1-6.6,6.7H658.8a6.7,6.7,0,0,1-6.7-6.7V226.8a6.7,6.7,0,0,1,6.7-6.7h604.7A6.6,6.6,0,0,1,1270.1,226.8Z" transform="translate(-407.8 -68.2)"/>
      <g>
        <path class="cls-10" d="M1270.1,226.8V247h-618V226.8a6.7,6.7,0,0,1,6.7-6.7h604.7A6.6,6.6,0,0,1,1270.1,226.8Z" transform="translate(-407.8 -68.2)"/>
        <path class="cls-9" d="M1206.5,240H662a3.1,3.1,0,0,1-3.2-3v-7.4a3,3,0,0,1,3.2-2.9h544.5a3.1,3.1,0,0,1,3.2,2.9V237A3.1,3.1,0,0,1,1206.5,240Z" transform="translate(-407.8 -68.2)"/>
        <g>
          <ellipse class="cls-9" cx="817.9" cy="165.1" rx="4.7" ry="4.7"/>
          <ellipse class="cls-9" cx="832.9" cy="165.1" rx="4.7" ry="4.7"/>
          <ellipse class="cls-9" cx="847.8" cy="165.1" rx="4.7" ry="4.7"/>
        </g>
      </g>
    </g>
  </g>
  <g>
    <rect class="cls-7" x="307.2" y="212.5" width="201.1" height="15.39"/>
    <rect class="cls-11" x="588" y="212.5" width="165.8" height="15.39"/>
  </g>
  <g>
    <rect class="cls-10" x="129.3" y="228.6" width="241.3" height="153.36" rx="5.4"/>
    <rect class="cls-4" x="132.6" y="237" width="234.7" height="142" rx="5.3"/>
    <g>
      <rect class="cls-12" x="142.4" y="253.4" width="140.1" height="12.23" rx="0.9"/>
      <rect class="cls-12" x="142.4" y="284.4" width="164.8" height="12.31" rx="1.1"/>
      <rect class="cls-12" x="142.4" y="315.5" width="187.3" height="12.31" rx="1.3"/>
      <rect class="cls-12" x="142.4" y="346.5" width="209.9" height="12.31" rx="1.5"/>
    </g>
  </g>
  <g>
    <rect class="cls-10" x="712.2" y="202.3" width="241.3" height="153.36" rx="4.4"/>
    <rect class="cls-4" x="715.5" y="210.7" width="234.7" height="142" rx="3.7"/>
    <g>
      <rect class="cls-12" x="812.3" y="222.1" width="126.4" height="9.33" rx="0.7"/>
      <rect class="cls-12" x="812.3" y="240.4" width="126.4" height="9.33" rx="0.7"/>
      <rect class="cls-12" x="812.3" y="258.7" width="126.4" height="9.33" rx="0.7"/>
      <rect class="cls-12" x="856.7" y="280.3" width="82" height="63.58" rx="1.5"/>
    </g>
  </g>
  <g>
    <path class="cls-4" d="M1123.7,423.6l-344,26.6H767.5V584.4a9.6,9.6,0,0,0,9.6,9.6h365.8a9.6,9.6,0,0,0,9.6-9.6V423.8Z" transform="translate(-407.8 -68.2)"/>
    <path class="cls-10" d="M1152.5,356.9a9.6,9.6,0,0,0-9.6-9.7H777.1a9.6,9.6,0,0,0-9.6,9.7v93.3H936.8c-.3-4.3-1.2-15.8-2.2-27.9l217.9,1.5Z" transform="translate(-407.8 -68.2)"/>
    <g>
      <rect class="cls-7" x="365.2" y="276.6" width="375" height="238.33" rx="9"/>
      <rect class="cls-9" x="370.3" y="289.6" width="364.7" height="220.67" rx="8"/>
      <rect class="cls-11" x="384.9" y="334.9" width="114.1" height="158.71" rx="4"/>
      <rect class="cls-11" x="521.2" y="334.9" width="206.6" height="20.79"/>
      <rect class="cls-11" x="521.2" y="369.4" width="206.6" height="20.79"/>
      <rect class="cls-11" x="521.2" y="403.9" width="206.6" height="20.79"/>
      <rect class="cls-11" x="521.2" y="438.3" width="206.6" height="20.79"/>
      <rect class="cls-11" x="521.2" y="472.8" width="206.6" height="20.79"/>
      <g>
        <path class="cls-11" d="M814.4,394.2a12.1,12.1,0,0,1-3.8-.6,8.4,8.4,0,0,1-3-1.5l1.1-2.5a12.6,12.6,0,0,0,2.6,1.4,11.2,11.2,0,0,0,3.1.5,6.1,6.1,0,0,0,2.2-.3,3.2,3.2,0,0,0,1.3-.8,2.1,2.1,0,0,0,.4-1.2,1.4,1.4,0,0,0-.6-1.2,5.3,5.3,0,0,0-1.5-.8l-2-.5-2.2-.6a7.2,7.2,0,0,1-2-.9,3.2,3.2,0,0,1-1.4-1.4,3.9,3.9,0,0,1-.6-2.3,4.8,4.8,0,0,1,.7-2.6,6,6,0,0,1,2.3-1.8,9.6,9.6,0,0,1,4-.7,11.5,11.5,0,0,1,3.1.4,6.8,6.8,0,0,1,2.6,1.1l-1,2.5a8.2,8.2,0,0,0-2.4-1,6.7,6.7,0,0,0-2.4-.4,4.4,4.4,0,0,0-2.1.4,2.3,2.3,0,0,0-1.2.8,1.6,1.6,0,0,0-.4,1.2,2.1,2.1,0,0,0,.5,1.3,5.2,5.2,0,0,0,1.5.7l2,.5,2.2.6a6.1,6.1,0,0,1,2,.9,4,4,0,0,1,1.5,1.4,3.8,3.8,0,0,1,.5,2.2,4.8,4.8,0,0,1-.7,2.6,5.5,5.5,0,0,1-2.3,1.9A11.5,11.5,0,0,1,814.4,394.2Z" transform="translate(-407.8 -68.2)"/>
        <path class="cls-11" d="M827.9,393.9V379.3h-5.7v-2.7h14.7v2.7h-5.8v14.6Z" transform="translate(-407.8 -68.2)"/>
        <path class="cls-11" d="M842.5,391.2h9.8v2.7h-13V376.6h12.6v2.7h-9.4Zm-.3-7.4h8.7v2.7h-8.7Z" transform="translate(-407.8 -68.2)"/>
        <path class="cls-11" d="M855.8,393.9V376.6H863a9.3,9.3,0,0,1,3.9.8,4.8,4.8,0,0,1,2.5,2.1,5.8,5.8,0,0,1,.9,3.3,6.3,6.3,0,0,1-.9,3.3,5.3,5.3,0,0,1-2.5,2.1,9.4,9.4,0,0,1-3.9.7h-5.4l1.5-1.5v6.5Zm3.3-6.1-1.5-1.6h5.2a4.9,4.9,0,0,0,3.2-.9,3.1,3.1,0,0,0,1.1-2.5,3.3,3.3,0,0,0-1.1-2.6,4.9,4.9,0,0,0-3.2-.9h-5.2l1.5-1.6Z" transform="translate(-407.8 -68.2)"/>
        <path class="cls-11" d="M879.2,393.9v-2.1l6.8-6.6a7.9,7.9,0,0,0,1.3-1.4,4.1,4.1,0,0,0,.6-1.1,3.8,3.8,0,0,0,.1-1,2.6,2.6,0,0,0-.8-1.9,3.8,3.8,0,0,0-2.4-.6,5.9,5.9,0,0,0-2.3.4,4.9,4.9,0,0,0-1.8,1.4l-2.2-1.8a7.1,7.1,0,0,1,2.7-2.1,10,10,0,0,1,3.9-.7,8.8,8.8,0,0,1,3.3.6,4.6,4.6,0,0,1,2.9,4.3,4.7,4.7,0,0,1-.3,1.7,4.4,4.4,0,0,1-.8,1.7,10.6,10.6,0,0,1-1.8,2.1l-5.9,5.6-.7-1.2h10.1v2.7Z" transform="translate(-407.8 -68.2)"/>
      </g>
    </g>
  </g>
  <g>
    <path class="cls-13" d="M814,296.1a55.7,55.7,0,0,1-55.6,51.1c-29.2,0-49.8-22.5-52.2-51.1h0a52.8,52.8,0,0,0,104.5,0Z" transform="translate(-407.8 -68.2)"/>
    <path class="cls-13" d="M1213,296.1c-2.4,28.6-23,51.1-52.2,51.1a55.7,55.7,0,0,1-55.6-51.1h3.3a52.8,52.8,0,0,0,104.5,0Z" transform="translate(-407.8 -68.2)"/>
  </g>
  <g>
    <path class="cls-5" d="M814.2,291.4a36.2,36.2,0,0,1-.2,4.7h-3.3a59.5,59.5,0,0,0,0-15.4h2.5A54.6,54.6,0,0,1,814.2,291.4Z" transform="translate(-407.8 -68.2)"/>
    <path class="cls-7" d="M811.2,288.4a52.8,52.8,0,1,1-56.8-52.6l2.6-.2h2.9l2.6.2A52.7,52.7,0,0,1,811.2,288.4Z" transform="translate(-407.8 -68.2)"/>
    <circle class="cls-9" cx="350.6" cy="220.2" r="40.8"/>
    <text class="cls-14" transform="translate(338.6 238.8)">1</text>
  </g>
  <g>
    <path class="cls-4" d="M1023,296.1a71.4,71.4,0,0,1-126,0h9.1l.3.4a8.6,8.6,0,0,1,.7,1l.4.4.8,1.1a50.4,50.4,0,0,0,3.7,4.2l1,1q0,.2.3.3l.8.8,1.1,1,1.3,1.2,1.4,1.1,1.9,1.6,1,.7q2.4,1.8,4.8,3.3l.8.4,1,.6,3,1.6.9.4,2.7,1.3h.3l.9.4,1.3.5,1.5.5.4.2,1.2.4.7.2,1.7.5,3.3.8,1.2.3a56.2,56.2,0,0,0,5.7.9l1.3.2h2.2l4.3.2,4.3-.2h2.2l1.3-.2a58.1,58.1,0,0,0,5.8-.9l1.2-.3,1.8-.4,3.1-.9.7-.2,1.2-.4.4-.2,1.5-.5,1.3-.5.9-.4,3.6-1.6,1.4-.8h.1l1.5-.8.3-.2,1.2-.7.6-.3,1.4-.9,1.6-1.1,1.6-1.1,1.4-1.1,1.6-1.3a34.7,34.7,0,0,0,2.9-2.5l1.3-1.2.3-.2,1.1-1.2,1.5-1.5,1.2-1.5,1.2-1.4a11.3,11.3,0,0,0,1-1.3c.2-.1.3-.3.4-.4a8.6,8.6,0,0,1,.7-1l.3-.4Z" transform="translate(-407.8 -68.2)"/>
    <path class="cls-5" d="M903.7,292.5l2.4,3.6H897a73.5,73.5,0,0,1-6-15.4h6.9l.8,2.1.9,2,1.1,2.3a8.3,8.3,0,0,0,.7,1.3c.4.8.8,1.7,1.3,2.5S903.4,291.9,903.7,292.5Z" transform="translate(-407.8 -68.2)"/>
    <path class="cls-10" d="M1029,280.7a73.5,73.5,0,0,1-6,15.4h-9.1l1.3-2,.9-1.4a37,37,0,0,0,2.5-4.3,8.3,8.3,0,0,0,.7-1.3l1.1-2.3.9-2,.8-2.1Z" transform="translate(-407.8 -68.2)"/>
    <path class="cls-7" d="M1026.3,257.5a65.9,65.9,0,0,1-4.2,23.2l-.8,2.1-.9,2-1.1,2.3a8.3,8.3,0,0,1-.7,1.3,37,37,0,0,1-2.5,4.3l-.9,1.4-1.3,2-.3.4a8.6,8.6,0,0,0-.7,1c-.1.1-.2.3-.4.4a11.3,11.3,0,0,1-1,1.3l-1.2,1.4-1.2,1.5-1.5,1.5-1.1,1.2-.3.2-1.3,1.2a34.7,34.7,0,0,1-2.9,2.5l-1.6,1.3-1.4,1.1-1.6,1.1-1.6,1.1-1.4.9-.6.3-1.2.7-.3.2-1.5.8h-.1l-1.4.8-3.6,1.6-.9.4-1.3.5-1.5.5-.4.2-1.2.4-.7.2-3.1.9-1.8.4-1.3.3a52.1,52.1,0,0,1-5.7.9l-1.3.2h-2.2l-4.3.2-4.3-.2h-2.2l-1.3-.2a52.1,52.1,0,0,1-5.7-.9l-1.3-.3-3.2-.8-1.7-.5-.7-.2-1.2-.4-.4-.2-1.5-.5-1.3-.5-.9-.4H934l-2.7-1.3-.9-.4-3-1.6-1-.6-.8-.4q-2.4-1.5-4.8-3.3l-1-.7-2-1.6-1.3-1.1-1.3-1.2-1.1-1-.9-.8c-.1-.1-.2-.2-.2-.3l-1-1a50.4,50.4,0,0,1-3.7-4.2l-.8-1.1c-.2-.1-.3-.3-.4-.4a8.6,8.6,0,0,0-.7-1l-.3-.4-2.4-3.6c-.3-.6-.7-1.1-1-1.6s-.9-1.7-1.3-2.5a8.3,8.3,0,0,1-.7-1.3l-1.1-2.3-.9-2-.8-2.1a66.3,66.3,0,0,1,60.4-89.5h3.4A66.4,66.4,0,0,1,1026.3,257.5Z" transform="translate(-407.8 -68.2)"/>
    <circle class="cls-9" cx="552.2" cy="189.3" r="51.3"/>
    <text class="cls-15" transform="translate(529.1 212.7)">2</text>
  </g>
  <g>
    <path class="cls-10" d="M1108,288.4a64.9,64.9,0,0,0,.5,7.7h-3.3a35.9,35.9,0,0,1-.3-4.7,54.7,54.7,0,0,1,1.1-10.7h2.5A64.9,64.9,0,0,0,1108,288.4Z" transform="translate(-407.8 -68.2)"/>
    <path class="cls-11" d="M1213.6,288.4a52.8,52.8,0,1,1-56.9-52.6l2.6-.2h2.9l2.6.2A52.7,52.7,0,0,1,1213.6,288.4Z" transform="translate(-407.8 -68.2)"/>
    <circle class="cls-9" cx="752.9" cy="220.2" r="40.8"/>
    <text class="cls-14" transform="translate(734.6 238.8)">3</text>
  </g>
  <g>
    <path class="cls-16" d="M1040.4,644.4s181.5,66,338.6,0c0,0-28.4,61.1-128,105.1S1025.7,663.6,1040.4,644.4Z" transform="translate(-407.8 -68.2)"/>
    <path class="cls-6" d="M1289.4,689.8l2.2,5.5-5.8,9.6c-53.8,13.9-134.6,6.1-161.6,1.2-10.6-1.8-7.6-8.9-4.8-13.1a31.1,31.1,0,0,1,2.5-3.2c-12.9-2.7-53.4-35.3-51.1-49.2.1-.9,9.5-112.1,52.6-136.1,2.9-1.5,26.1-12,48.5-17.8h0c12.8-3.2,25.1-5.7,32.7-5.6s20.4,2,33.2,4.6c21,4.4,40.5,12.1,43.6,14.3,61,42.9,62.5,133.4,63.2,135.7C1346.6,649.8,1320.9,681.6,1289.4,689.8Z" transform="translate(-407.8 -68.2)"/>
    <path class="cls-17" d="M1285.3,707.6c-50.7,20.3-131.3,9.4-161.1-1.5-10.1-3.6-7.6-8.9-4.8-13.1l172.2,2.3Z" transform="translate(-407.8 -68.2)"/>
    <path class="cls-16" d="M1233,510.5c-25,24.4-47.4,7-54.9-.4a9.3,9.3,0,0,1-2.9-6.4c-.3-6-.7-17.6.1-17.8,11.5-2.9,22.4-4.9,29.3-4.9s17.6,1.7,28.9,3.9c1,.2,2,11.6,2.4,18A9.4,9.4,0,0,1,1233,510.5Z" transform="translate(-407.8 -68.2)"/>
    <g>
      <path class="cls-16" d="M1126.9,599.1c-2.8-10.9-6.2-21.6-9.9-32.2,4.9,25,11.8,50.8,18.3,75.4a302.1,302.1,0,0,0-6.6-36.4,218.6,218.6,0,0,0-1.2-34C1126,586.9,1127.7,590.7,1126.9,599.1Z" transform="translate(-407.8 -68.2)"/>
      <path class="cls-16" d="M1294.1,566.8c-3.6,10.6-6.9,21.4-9.6,32.3-.8-8.3.9-15.6-1-25.4.5,11.7.5,24.9-.7,32.3a300.8,300.8,0,0,0-6.2,36.4C1282.8,617.7,1289.4,591.9,1294.1,566.8Z" transform="translate(-407.8 -68.2)"/>
    </g>
    <g>
      <g>
        <path class="cls-18" d="M1231.8,503.4c-4,9.2-11.8,15.4-26.4,15.4s-22.3-7.9-26.3-15.3V454.1h52.7v49.4Z" transform="translate(-407.8 -68.2)"/>
        <path class="cls-19" d="M1231.8,492.9a37.7,37.7,0,0,1-52.7,1.7V454.1h52.7Z" transform="translate(-407.8 -68.2)"/>
      </g>
      <ellipse class="cls-18" cx="797.6" cy="366.6" rx="45.8" ry="63.3"/>
      <path class="cls-20" d="M1187.5,419.8c8.9,2.6,8.2,2.7,36.9,9.4,15.8,3.7,16.5-12.1,17.6-9s6.1,33.8,6.1,33.8c2.2-11.2,5.7-22.1,7.4-33.3s6.2-40.2-15.6-50.3c-13.7-6.3,2.4-12.7-1.4-11.3-31.4,11.6,1.3-3.8-9.7-2.9-8.5.7-13.7,5.2-15.6,4.7s1.6-20.7-1.7-16.1c-10.1,13.8-16.4,15.1-18,14.9a1.4,1.4,0,0,1-1.2-1.9c3.9-8.5,2.8-11.4,2.1-10.5-2.5,3-4.5,6.2-7.4,8.9s-6.5,5.3-9.8,7.9c-11.3,9-22.9,21.8-24.3,36.8-.7,7.1.6,14.4,2.1,21.3.8,3.8,1.4,17.3,4.7,19.6s4.5-5.5,4.5-8.2c0-.9.8-4.5,3.1-11.6C1170.1,413.2,1182.3,418.4,1187.5,419.8Z" transform="translate(-407.8 -68.2)"/>
      <ellipse class="cls-18" cx="1247.4" cy="449.7" rx="16.9" ry="8.4" transform="translate(60.8 1454.6) rotate(-73.9)"/>
      <ellipse class="cls-18" cx="1164" cy="449.7" rx="8.4" ry="16.9" transform="translate(-486.9 273.2) rotate(-16.1)"/>
      <path class="cls-16" d="M1249.1,429.3a1.2,1.2,0,0,0-1.4.4l-6.7,17.5a5.4,5.4,0,0,0-3-1h-23.5a5,5,0,0,0-5,5v2.7a13.9,13.9,0,0,0-9.7.4v-3c0-2.8-2.7-5.1-5.9-5.1h-21.7a6.4,6.4,0,0,0-3.6,1.1l-5.1-15.6a1,1,0,0,0-1.3-.6,1,1,0,0,0-.5,1.3l5.4,16.4h0a4.6,4.6,0,0,0-.5,3.6l1.3,4.3a24.7,24.7,0,0,0,1,2.9c2.7,6.6,4.6,7.6,10.1,7.6h10c4.2,0,8.2,0,9.8-6.6l1-4.4h.6a12.4,12.4,0,0,1,9.1-.1l.6,3.5c1.7,7.2,5.4,7.7,8.4,7.7h13.9c7.9.7,10.1-12.4,10.1-12.4a10.6,10.6,0,0,0,0-5.6.5.5,0,0,0-.2-.4l7.2-18.1A1.2,1.2,0,0,0,1249.1,429.3Zm-52.2,31.3c-1.8,3.9-3,4.7-7.9,4.7h-10c-4,0-5.6-.7-7.6-4.5a25.4,25.4,0,0,1-1.7-4.6l-1-3.2a3.8,3.8,0,0,1,3.5-4.9h21.7c2.2,0,3.9,1.4,3.9,3.2C1197.8,451.3,1198.7,456.7,1196.9,460.6Zm42.9-2.8a16.3,16.3,0,0,1-2,4.5c-1.5,2.5-2.9,3-6,3h-13.3c-3.2,0-4.7-.4-6.4-5.8-.8-2.4-.6-8.3-.6-8.3a3,3,0,0,1,3-3.1H1238a3,3,0,0,1,2.6,1.5,4.5,4.5,0,0,1,.3,2.3A16.2,16.2,0,0,1,1239.8,457.8Z" transform="translate(-407.8 -68.2)"/>
    </g>
    <polygon class="cls-19" points="820.4 688.5 740.3 650.3 729 681.3 813.2 708.3 820.4 688.5 820.4 688.5"/>
    <path class="cls-21" d="M1286.7,802a82,82,0,0,1-17-.4c-29.2-3.5-64.6-18.7-64.6-18.7V770.2l13-14.3,3.3-3.6s74.3,6.4,85.6,16.7S1316.8,799,1286.7,802Z" transform="translate(-407.8 -68.2)"/>
    <path class="cls-16" d="M1286.7,802s25.9-1.1,15.9-29.5c-4.7-13.4-75.3-15.7-84.5-16.6l3.3-3.6s74.3,6.4,85.6,16.7S1316.8,799,1286.7,802Z" transform="translate(-407.8 -68.2)"/>
    <g>
      <path class="cls-22" d="M1224.4,762.8l.4.5a13.3,13.3,0,0,1,1.8,12.6h0a13.5,13.5,0,0,1-8.1,7.9" transform="translate(-407.8 -68.2)"/>
      <path class="cls-22" d="M1229.7,764.2l.4.5a13.5,13.5,0,0,1,1.8,12.7h0a13.2,13.2,0,0,1-8.1,7.9" transform="translate(-407.8 -68.2)"/>
      <path class="cls-22" d="M1234.8,765.7l.4.5a13.1,13.1,0,0,1,1.8,12.7h0a12.8,12.8,0,0,1-8.1,7.8" transform="translate(-407.8 -68.2)"/>
    </g>
    <polygon class="cls-18" points="793.8 683.1 857.3 652.8 870.3 683.5 787.5 715 779.7 690.8 793.8 683.1"/>
    <path class="cls-7" d="M1018.2,642.3a25.8,25.8,0,0,1,16.7-.4c7.7,2.5,13.7,8.7,19.9,13.7l18.2,14.5a287.4,287.4,0,0,0,35,23.8l10,5.5c13,6.9,26.2,13.3,39.6,19.3,7.4,3.5,18.8,7,26.2,11l-6.5,57.1s-63.8-15.3-108.7-38.1c-28.2-14.2-53.3-37-67.2-66.7,0-.1-.1-.1-.1-.2C993.6,665,1004,647.2,1018.2,642.3Z" transform="translate(-407.8 -68.2)"/>
    <path class="cls-16" d="M1175.3,801.6a174.5,174.5,0,0,1-20,4.2c-14,2.1-31.8,3-42-3.5l-.4-.3c-13.4-9.5-17.1-21.6-4.9-27.5,5.2-1.8,19.2-5.5,26.6-5.8-26.8,8.6-16.1,36.5,7.8,35.2a112.7,112.7,0,0,0,11.8-1.1,134.8,134.8,0,0,0,20-4.2c33.7-9,41.4-18.8,43-23.9h.1l1.3-.3S1223.2,788.8,1175.3,801.6Z" transform="translate(-407.8 -68.2)"/>
    <path class="cls-23" d="M1217.2,774.7c-1.6,5.1-9.3,14.9-43,23.9a174.5,174.5,0,0,1-20,4.2c-11.6,1.8-24,3-35.3-.6s-24.1-13.9-16-25.5c3.2-4.5,8.7-7,14.1-8.2,21-5.1,42.9-5.4,63.9-11,7-1.8,13.9-3.9,20.7-6.2a10.1,10.1,0,0,0-4.3,4.8C1194,763.8,1204.4,778,1217.2,774.7Z" transform="translate(-407.8 -68.2)"/>
    <g>
      <path class="cls-22" d="M1185.7,759.8l-.4.5a13.4,13.4,0,0,0-1.8,12.7h0a13.3,13.3,0,0,0,8.1,7.8" transform="translate(-407.8 -68.2)"/>
      <path class="cls-22" d="M1180.4,761.3l-.4.5a13.1,13.1,0,0,0-1.8,12.7h0a13.3,13.3,0,0,0,8.1,7.8" transform="translate(-407.8 -68.2)"/>
      <path class="cls-22" d="M1175.3,762.8l-.4.5a12.7,12.7,0,0,0-1.8,12.6h0a13.3,13.3,0,0,0,8,7.9" transform="translate(-407.8 -68.2)"/>
    </g>
    <path class="cls-7" d="M1398.9,641.7l-2.3-.7a20.4,20.4,0,0,0-10.1.5,60.3,60.3,0,0,0-20,10.6c-26.5,20.9-38.4,31.9-67.6,47.3-13,6.9-26.2,13.3-39.6,19.3-7.4,3.5-18.7,7-26.2,11l1.9,38.6a12.1,12.1,0,0,0,4.8,9.3c7.5,5.7,18.6,14.6,18.6,14.6s54.5-18.8,104-51.5c29.9-19.7,53.5-46.8,56.7-59.7C1422.9,665.5,1413.1,646.7,1398.9,641.7Z" transform="translate(-407.8 -68.2)"/>
    <path class="cls-4" d="M1289.9,709.8H1127.7a3.6,3.6,0,0,1-3.5-3.6L1110,693.9c-1.4-1.7-.6-4,2.7-4h.1l189,.3h.1c3.3.1,4,2.6,2.8,4.1l-11.4,11.8h0C1293.2,708,1291.7,709.8,1289.9,709.8Z" transform="translate(-407.8 -68.2)"/>
    <path class="cls-11" d="M1293.3,706.1H1124.2l-17.6-86.2c-.1-2.9,2.7-5.2,6.2-5.2l189-.3c3.5,0,6.3,2.3,6.2,5.1Z" transform="translate(-407.8 -68.2)"/>
    <ellipse class="cls-9" cx="799.5" cy="597.4" rx="25" ry="5.8"/>
  </g>
</svg>
