<svg viewBox="0 -0.5 108 22" fill="none" xmlns="http://www.w3.org/2000/svg">
<path fill-rule="evenodd" clip-rule="evenodd" d="M18.5158 11.451L13.4398 20.2484C13.113 20.8071 12.5595 21.1234 11.9165 21.1234C11.2734 21.1234 10.72 20.8071 10.3932 20.2484C9.5473 18.7833 8.70144 17.3169 7.85558 15.8505C7.00944 14.3835 6.1633 12.9166 5.31715 11.451L0.24115 2.65895C-0.0803832 2.10022 -0.0803832 1.46243 0.24115 0.9037C0.562683 0.34497 1.11614 0.0234375 1.75921 0.0234375H11.9165H22.0685C22.7168 0.0234375 23.2703 0.34497 23.5918 0.9037C23.9134 1.46243 23.9134 2.10022 23.5918 2.65895L18.5158 11.451ZM18.6903 4.69593L15.7456 9.74392L12.8008 14.7949C12.6112 15.1157 12.2901 15.2973 11.917 15.2973C11.544 15.2973 11.2229 15.1157 11.0333 14.7949C10.5425 13.9536 10.0517 13.1115 9.5609 12.2694C9.0701 11.4273 8.57931 10.5852 8.08851 9.74392L5.14373 4.69593C4.95719 4.37513 4.95719 4.00894 5.14373 3.68814C5.33026 3.36735 5.65134 3.18274 6.02441 3.18274H11.917H17.8066C18.1827 3.18274 18.5038 3.36735 18.6903 3.68814C18.8769 4.00894 18.8769 4.37513 18.6903 4.69593Z" fill="#3C6E71"/>
<path fill-rule="evenodd" clip-rule="evenodd" d="M59.256 9.69578L54.18 0.9037C53.8532 0.34497 53.2998 0.0234375 52.6567 0.0234375C52.0137 0.0234375 51.4602 0.34497 51.1334 0.9037L46.0574 9.69578L40.9814 18.4879C40.6599 19.0466 40.6599 19.6897 40.9814 20.2484C41.3029 20.8071 41.8564 21.1234 42.5047 21.1234H52.6567H62.814C63.4571 21.1234 64.0105 20.8071 64.3321 20.2484C64.6536 19.6897 64.6536 19.0466 64.3321 18.4879L59.256 9.69578ZM48.7781 11.3706L51.7229 6.31954C51.9125 5.99875 52.2336 5.81716 52.6067 5.81716C52.9797 5.81716 53.3008 5.99875 53.4904 6.31954C53.9813 7.1611 54.4723 8.00342 54.9632 8.84573C55.4538 9.68759 55.9445 10.5295 56.4352 11.3706L59.38 16.4186C59.5665 16.7393 59.5665 17.1055 59.38 17.4263C59.1934 17.7471 58.8723 17.9317 58.4993 17.9317H52.6067L46.7171 17.9317C46.341 17.9317 46.0199 17.7471 45.8333 17.4263C45.6468 17.1055 45.6468 16.7393 45.8333 16.4186L48.7781 11.3706Z" fill="#3C6E71"/>
<path fill-rule="evenodd" clip-rule="evenodd" d="M102.683 9.69578L97.6068 0.9037C97.28 0.34497 96.7265 0.0234375 96.0835 0.0234375C95.4404 0.0234375 94.887 0.34497 94.5601 0.9037L89.4841 9.69578L84.4081 18.4879C84.0866 19.0466 84.0866 19.6897 84.4081 20.2484C84.7297 20.8071 85.2831 21.1234 85.9315 21.1234H96.0835H106.241C106.884 21.1234 107.437 20.8071 107.759 20.2484C108.08 19.6897 108.08 19.0466 107.759 18.4879L102.683 9.69578ZM92.2323 11.3708L95.1771 6.31978C95.3667 5.99898 95.6877 5.8174 96.0608 5.8174C96.4339 5.8174 96.755 5.99898 96.9446 6.31978C97.4355 7.16134 97.9264 8.00365 98.4173 8.84597C98.908 9.68783 99.3987 10.5297 99.8893 11.3708L102.834 16.4188C103.021 16.7396 103.021 17.1058 102.834 17.4266C102.648 17.7474 102.327 17.932 101.953 17.932H96.0608L90.1712 17.932C89.7951 17.932 89.474 17.7474 89.2875 17.4266C89.101 17.1058 89.101 16.7396 89.2875 16.4188L92.2323 11.3708Z" fill="#3C6E71"/>
<path d="M67.7146 21.2278C67.2771 21.2278 66.8765 21.096 66.5076 20.8272C66.1386 20.5584 65.9541 20.1578 65.9541 19.6201V2.68957C65.9541 1.92 66.1966 1.34546 66.6815 0.955402C67.1664 0.570616 67.6935 0.380859 68.2628 0.380859C69.1378 0.380859 69.7703 0.712934 70.1762 1.38236L78.4623 14.3965C78.6309 14.6654 78.8154 14.7971 79.0157 14.7971C79.3162 14.7971 79.469 14.5652 79.469 14.0961L79.2687 1.98852C79.2687 1.45088 79.4532 1.05028 79.8222 0.781458C80.1912 0.512635 80.5918 0.380859 81.024 0.380859C81.4615 0.380859 81.8621 0.512635 82.231 0.781458C82.6 1.05028 82.7845 1.45088 82.7845 1.98852V19.0192C82.7845 19.7572 82.5684 20.3106 82.1309 20.6796C81.6987 21.0433 81.1927 21.2278 80.6234 21.2278C80.2228 21.2278 79.8275 21.1382 79.4427 20.9537C79.0579 20.7692 78.7311 20.474 78.4623 20.0734L70.3238 7.41241C70.1551 7.14359 69.9759 7.01182 69.7703 7.01182C69.4699 7.01182 69.3223 7.24374 69.3223 7.71286L69.4699 19.6201C69.4699 20.1578 69.2959 20.5584 68.9428 20.8272C68.5896 21.096 68.1837 21.2278 67.7146 21.2278Z" fill="#000"/>
<path d="M38.755 19.7481C38.1857 20.1856 37.2949 20.5599 36.0878 20.8814C34.886 21.1977 33.6948 21.3558 32.5246 21.3558C30.5796 21.3558 28.8402 20.9025 27.2958 20.0011C25.7566 19.0945 24.5337 17.84 23.6324 16.2324C22.7258 14.6247 22.2725 12.7851 22.2725 10.7083C22.2725 8.66316 22.71 6.85519 23.5797 5.27915C24.4494 3.70311 25.6828 2.47496 27.2747 1.58943C28.8665 0.698626 30.7167 0.255859 32.8251 0.255859C33.6632 0.255859 34.4907 0.324383 35.313 0.456159C36.13 0.593205 36.9628 0.825131 37.8009 1.16248C38.133 1.32588 38.3755 1.55253 38.5283 1.83717C38.6759 2.1218 38.755 2.40117 38.755 2.66999C38.755 3.10222 38.6127 3.487 38.328 3.82435C38.0434 4.15642 37.6639 4.3251 37.1948 4.3251C36.9945 4.3251 36.7625 4.27766 36.4937 4.17224C35.9561 3.97194 35.3288 3.78745 34.6067 3.62405C33.8898 3.45538 33.1782 3.37104 32.4719 3.37104C31.1331 3.37104 29.9629 3.71366 28.9561 4.39889C27.9494 5.0894 27.1745 6.00128 26.6211 7.13983C26.0676 8.27837 25.7882 9.53288 25.7882 10.9086C25.7882 12.9485 26.4102 14.6932 27.6489 16.1322C28.8876 17.5712 30.5322 18.2933 32.5721 18.2933C33.4787 18.2933 34.3642 18.151 35.2339 17.8664C36.1089 17.5817 36.7625 17.2708 37.1948 16.9334C37.5637 16.7331 37.88 16.633 38.1488 16.633C38.5863 16.633 38.9395 16.7911 39.203 17.1126C39.4718 17.4289 39.6089 17.7873 39.6089 18.1932C39.6089 18.7941 39.3242 19.3159 38.755 19.7481Z" fill="#000"/>
</svg>
