<?xml version="1.0" encoding="UTF-8"?>
<!DOCTYPE svg PUBLIC "-//W3C//DTD SVG 1.1//EN" "http://www.w3.org/Graphics/SVG/1.1/DTD/svg11.dtd">
<!-- Creator: CorelDRAW X8 -->
<svg xmlns="http://www.w3.org/2000/svg" xml:space="preserve" width="204.9mm" height="40.4723mm" version="1.1" style="shape-rendering:geometricPrecision; text-rendering:geometricPrecision; image-rendering:optimizeQuality; fill-rule:evenodd; clip-rule:evenodd"
viewBox="0 0 20490 4047"
 xmlns:xlink="http://www.w3.org/1999/xlink">
 <defs>
  <style type="text/css">
   <![CDATA[
    .fil2 {fill:#166A8F}
    .fil0 {fill:#2DBE60}
    .fil1 {fill:#2FACB2}
    .fil3 {fill:#595959;fill-rule:nonzero}
   ]]>
  </style>
 </defs>
 <g id="Слой_x0020_1">
  <metadata id="CorelCorpID_0Corel-Layer"/>
  <g id="_2825811544096">
   <path class="fil0" d="M2550 3837l963 -1669c321,-556 642,-1112 963,-1668 61,-106 61,-227 0,-333 -61,-106 -166,-167 -289,-167l-1926 0c-642,0 -1284,0 -1927,0 -122,0 -227,61 -288,167 -61,106 -61,227 0,333l963 1668c321,556 642,1113 963,1669 62,106 167,166 289,166 122,0 227,-60 289,-166z"/>
   <path class="fil1" d="M10279 167l963 1668c321,556 642,1112 963,1668 61,106 61,228 0,334 -61,106 -166,166 -288,166l-1927 0c-642,0 -1284,0 -1926,0 -123,0 -228,-60 -289,-166 -61,-106 -61,-228 0,-334l963 -1668c321,-556 642,-1112 963,-1668 62,-106 167,-167 289,-167 122,0 227,61 289,167z"/>
   <path class="fil2" d="M18518 167l963 1668c321,556 642,1112 963,1668 61,106 61,228 0,334 -61,106 -166,166 -288,166l-1927 0c-642,0 -1284,0 -1926,0 -123,0 -228,-60 -289,-166 -61,-106 -61,-228 0,-334l963 -1668c321,-556 642,-1112 963,-1668 62,-106 167,-167 289,-167 122,0 227,61 289,167z"/>
   <path class="fil3" d="M12847 4023c-83,0 -159,-25 -229,-76 -70,-51 -105,-127 -105,-229l0 -3212c0,-146 46,-255 138,-329 92,-73 192,-109 300,-109 166,0 286,63 363,190l1572 2469c32,51 67,76 105,76 57,0 86,-44 86,-133l-38 -2297c0,-102 35,-178 105,-229 70,-51 146,-76 228,-76 83,0 159,25 229,76 70,51 105,127 105,229l0 3231c0,140 -41,245 -124,315 -82,69 -178,104 -286,104 -76,0 -151,-17 -224,-52 -73,-35 -135,-91 -186,-167l-1544 -2402c-32,-51 -66,-76 -105,-76 -57,0 -85,44 -85,133l28 2259c0,102 -33,178 -100,229 -67,51 -144,76 -233,76z"/>
   <path class="fil3" d="M7353 3742c-108,83 -277,154 -506,215 -228,60 -454,90 -676,90 -369,0 -699,-86 -992,-257 -292,-172 -524,-410 -695,-715 -172,-305 -258,-654 -258,-1048 0,-388 83,-731 248,-1030 165,-299 399,-532 701,-700 302,-169 653,-253 1053,-253 159,0 316,13 472,38 155,26 313,70 472,134 63,31 109,74 138,128 28,54 43,107 43,158 0,82 -27,155 -81,219 -54,63 -126,95 -215,95 -38,0 -82,-9 -133,-29 -102,-38 -221,-73 -358,-104 -136,-32 -271,-48 -405,-48 -254,0 -476,65 -667,195 -191,131 -338,304 -443,520 -105,216 -158,454 -158,715 0,387 118,718 353,991 235,273 547,410 934,410 172,0 340,-27 505,-81 166,-54 290,-113 372,-177 70,-38 130,-57 181,-57 83,0 150,30 200,91 51,60 77,128 77,205 0,114 -54,213 -162,295z"/>
  </g>
 </g>
</svg>
