<svg width="528" height="105" viewBox="0 0 528 105" fill="none" xmlns="http://www.w3.org/2000/svg">
<path fill-rule="evenodd" clip-rule="evenodd" d="M65.5938 98.709L90.3675 55.773C98.6254 41.4696 106.883 27.1662 115.141 12.8628C116.71 10.1359 116.71 7.02308 115.141 4.29617C113.572 1.56926 110.871 0 107.707 0H58.1591C41.6433 0 25.1275 0 8.58591 0C5.44739 0 2.7462 1.56926 1.17694 4.29617C-0.392315 7.02308 -0.392315 10.1359 1.17694 12.8628L25.9507 55.773C34.2086 70.0764 42.4665 84.4056 50.7244 98.709C52.3194 101.436 55.0206 102.979 58.1591 102.979C61.2976 102.979 63.9988 101.436 65.5938 98.709Z" fill="#10B981"/>
<path fill-rule="evenodd" clip-rule="evenodd" d="M264.426 4.29617L289.2 47.2064C297.457 61.5098 305.715 75.8132 313.973 90.1167C315.543 92.8436 315.543 95.9821 313.973 98.709C312.404 101.436 309.703 102.979 306.564 102.979H256.991C240.475 102.979 223.959 102.979 207.444 102.979C204.279 102.979 201.578 101.436 200.009 98.709C198.44 95.9821 198.44 92.8436 200.009 90.1167L224.783 47.2064C233.041 32.903 241.299 18.5996 249.556 4.29617C251.151 1.56926 253.853 0 256.991 0C260.13 0 262.831 1.56926 264.426 4.29617Z" fill="#14B8A6"/>
<path fill-rule="evenodd" clip-rule="evenodd" d="M476.381 4.29617L501.155 47.2064C509.413 61.5098 517.67 75.8132 525.928 90.1167C527.498 92.8436 527.498 95.9821 525.928 98.709C524.359 101.436 521.658 102.979 518.519 102.979H468.946C452.43 102.979 435.915 102.979 419.399 102.979C416.234 102.979 413.533 101.436 411.964 98.709C410.395 95.9821 410.395 92.8436 411.964 90.1167L436.738 47.2064C444.996 32.903 453.254 18.5996 461.512 4.29617C463.106 1.56926 465.808 0 468.946 0C472.085 0 474.786 1.56926 476.381 4.29617Z" fill="#0E7490"/>
<path d="M330.491 103.494C328.356 103.494 326.4 102.851 324.6 101.539C322.799 100.227 321.898 98.2716 321.898 95.6476V13.0171C321.898 9.26113 323.082 6.45705 325.449 4.55335C327.815 2.67539 330.388 1.74927 333.166 1.74927C337.437 1.74927 340.524 3.36998 342.505 6.63713L382.945 70.1536C383.768 71.4656 384.669 72.1087 385.646 72.1087C387.113 72.1087 387.859 70.9768 387.859 68.6872L386.881 9.59557C386.881 6.97156 387.782 5.01641 389.582 3.70441C391.383 2.39241 393.338 1.74927 395.448 1.74927C397.583 1.74927 399.538 2.39241 401.339 3.70441C403.14 5.01641 404.04 6.97156 404.04 9.59557V92.7149C404.04 96.3165 402.985 99.0176 400.85 100.818C398.741 102.593 396.271 103.494 393.493 103.494C391.538 103.494 389.608 103.057 387.73 102.156C385.852 101.256 384.257 99.8151 382.945 97.86L343.225 36.0672C342.402 34.7552 341.527 34.112 340.524 34.112C339.057 34.112 338.337 35.244 338.337 37.5335L339.057 95.6476C339.057 98.2716 338.208 100.227 336.485 101.539C334.761 102.851 332.78 103.494 330.491 103.494Z" fill="#475569"/>
<path d="M189.153 96.265C186.374 98.4002 182.027 100.227 176.136 101.796C170.27 103.34 164.456 104.111 158.745 104.111C149.252 104.111 140.763 101.899 133.225 97.4998C125.714 93.075 119.745 86.9523 115.346 79.106C110.921 71.2597 108.709 62.2815 108.709 52.1456C108.709 42.1641 110.844 33.3402 115.089 25.6483C119.334 17.9564 125.353 11.9623 133.123 7.6404C140.892 3.29278 149.921 1.13184 160.212 1.13184C164.302 1.13184 168.341 1.46627 172.354 2.10941C176.342 2.77827 180.406 3.9102 184.497 5.55663C186.117 6.35413 187.301 7.46033 188.047 8.84951C188.767 10.2387 189.153 11.6021 189.153 12.9141C189.153 15.0236 188.458 16.9016 187.069 18.548C185.68 20.1688 183.828 20.992 181.538 20.992C180.56 20.992 179.429 20.7604 178.117 20.2459C175.493 19.2684 172.431 18.368 168.907 17.5705C165.408 16.7473 161.935 16.3356 158.488 16.3356C151.954 16.3356 146.243 18.0078 141.329 21.3521C136.415 24.7222 132.634 29.1727 129.933 34.7294C127.231 40.2861 125.868 46.4088 125.868 53.1232C125.868 63.079 128.904 71.5942 134.949 78.6172C140.995 85.6403 149.021 89.1647 158.977 89.1647C163.402 89.1647 167.723 88.4701 171.968 87.081C176.239 85.6918 179.429 84.174 181.538 82.5275C183.339 81.55 184.882 81.0612 186.194 81.0612C188.33 81.0612 190.053 81.8329 191.34 83.4022C192.652 84.9457 193.32 86.6951 193.32 88.6759C193.32 91.6087 191.931 94.1555 189.153 96.265Z" fill="#475569"/>
</svg>
