<svg viewBox="0 0 15 11" fill="none" xmlns="http://www.w3.org/2000/svg" transform="translate(-0.5)">
<path d="M14.6726 2.25273C14.5863 1.95014 14.4182 1.6743 14.1852 1.45261C13.9521 1.23092 13.662 1.07109 13.3439 0.98902C12.1791 0.686524 7.49062 0.686523 7.49062 0.686523C7.49062 0.686523 2.80195 0.69544 1.63688 0.997937C1.31873 1.08001 1.02871 1.23983 0.795621 1.46152C0.562533 1.68322 0.394495 1.95906 0.308203 2.26165C0 3.36976 0 5.68652 0 5.68652C0 5.68652 0 8.00329 0.317812 9.12032C0.404104 9.4229 0.572143 9.69875 0.805231 9.92044C1.03832 10.1421 1.32834 10.302 1.64648 10.384C2.81133 10.6865 7.5 10.6865 7.5 10.6865C7.5 10.6865 12.1887 10.6865 13.3538 10.3843C13.6719 10.3022 13.9619 10.1424 14.195 9.92066C14.4281 9.69897 14.5961 9.42313 14.6824 9.12054C15 8.01243 15 5.68652 15 5.68652C15 5.68652 14.9906 3.36976 14.6726 2.25273Z" fill="#FCFEFF"/>
<path d="M6.00024 7.68652L10 5.68652L6 3.68652L6.00024 7.68652Z" fill="#023047"/>
</svg>
